<?xml version="1.0" encoding="UTF-8"?>
<svg xmlns="http://www.w3.org/2000/svg" xmlns:xlink="http://www.w3.org/1999/xlink" width="375pt" height="374.999991pt" viewBox="0 0 375 374.999991" version="1.2">
<defs>
<clipPath id="clip1">
  <path d="M 101.246094 33 L 273 33 L 273 342.589844 L 101.246094 342.589844 Z M 101.246094 33 "/>
</clipPath>
</defs>
<g id="surface1">
<g clip-path="url(#clip1)" clip-rule="nonzero">
<path style=" stroke:none;fill-rule:nonzero;fill:rgb(100%,100%,100%);fill-opacity:1;" d="M 193.546875 33.757812 C 169.441406 32.039062 146.511719 40.105469 128.921875 56.464844 C 111.585938 72.59375 101.644531 95.398438 101.644531 119.042969 C 101.644531 128.84375 103.277344 138.425781 106.5 147.523438 C 108.976562 154.519531 115.066406 159.523438 122.265625 160.894531 L 175.832031 334.4375 C 177.546875 339.386719 182.035156 342.589844 187.273438 342.589844 C 192.511719 342.589844 197.003906 339.386719 198.769531 334.273438 L 204.777344 314.804688 C 204.800781 314.734375 204.824219 314.667969 204.84375 314.601562 L 252.277344 160.902344 C 259.453125 159.554688 265.515625 154.625 267.972656 147.738281 C 271.691406 137.324219 273.320312 126.328125 272.816406 115.058594 C 270.898438 72.5 236.078125 36.789062 193.546875 33.757812 Z M 188.96875 331.074219 C 188.621094 332.074219 187.855469 332.285156 187.273438 332.285156 C 186.695312 332.285156 185.925781 332.074219 185.636719 331.238281 L 182.75 321.890625 C 185.855469 321.667969 189.019531 321.203125 192.214844 320.550781 Z M 235.898438 179.015625 C 222.386719 192.515625 203.414062 202.71875 183.59375 207.03125 C 180.808594 207.640625 179.046875 210.382812 179.652344 213.160156 C 180.179688 215.570312 182.3125 217.21875 184.683594 217.21875 C 185.046875 217.21875 185.417969 217.179688 185.785156 217.097656 C 201.773438 213.617188 217.261719 206.59375 230.28125 197.210938 L 215.648438 244.617188 C 211.054688 247.730469 206.011719 250.398438 200.585938 252.515625 C 197.929688 253.546875 196.617188 256.535156 197.652344 259.183594 C 198.445312 261.21875 200.394531 262.464844 202.457031 262.464844 C 203.082031 262.464844 203.714844 262.351562 204.332031 262.113281 C 206.6875 261.195312 208.957031 260.15625 211.191406 259.0625 L 195.757812 309.074219 C 190.199219 310.675781 184.800781 311.566406 179.609375 311.714844 L 166.1875 268.226562 C 167.847656 268.332031 169.507812 268.4375 171.210938 268.4375 C 176.5 268.4375 181.960938 267.929688 187.421875 266.917969 C 190.222656 266.398438 192.070312 263.714844 191.550781 260.914062 C 191.035156 258.121094 188.351562 256.269531 185.542969 256.789062 C 177.703125 258.238281 169.96875 258.449219 162.890625 257.554688 L 150.90625 218.714844 C 154.949219 219.269531 159.09375 219.582031 163.328125 219.582031 C 164.054688 219.582031 164.785156 219.574219 165.519531 219.558594 C 168.363281 219.492188 170.621094 217.136719 170.554688 214.292969 C 170.496094 211.449219 168.175781 209.179688 165.285156 209.257812 C 159.113281 209.410156 153.15625 208.847656 147.5 207.683594 L 133.1875 161.308594 L 149.1875 161.308594 L 149.1875 177.476562 C 149.1875 187.203125 157.109375 195.113281 166.84375 195.113281 C 176.578125 195.113281 184.5 187.203125 184.5 177.476562 L 184.5 161.308594 L 241.363281 161.308594 Z M 258.261719 144.277344 C 256.820312 148.300781 252.84375 151.007812 248.332031 151.007812 L 179.34375 151.007812 C 176.496094 151.007812 174.1875 153.3125 174.1875 156.15625 L 174.1875 177.476562 C 174.1875 181.519531 170.890625 184.8125 166.84375 184.8125 C 162.792969 184.8125 159.5 181.519531 159.5 177.476562 L 159.5 156.15625 C 159.5 153.3125 157.191406 151.007812 154.34375 151.007812 L 126.214844 151.007812 C 121.703125 151.007812 117.6875 148.226562 116.222656 144.089844 C 113.390625 136.097656 111.957031 127.671875 111.957031 119.042969 C 111.957031 98.25 120.703125 78.191406 135.949219 64.007812 C 150.050781 50.890625 168.082031 43.832031 187.214844 43.832031 C 189.070312 43.832031 190.9375 43.902344 192.8125 44.035156 C 230.210938 46.699219 260.828125 78.101562 262.511719 115.523438 C 262.957031 125.449219 261.527344 135.125 258.261719 144.277344 Z M 258.261719 144.277344 "/>
</g>
<path style=" stroke:none;fill-rule:nonzero;fill:rgb(100%,100%,100%);fill-opacity:1;" d="M 136.882812 130.402344 C 135.011719 130.402344 133.453125 129.039062 133.171875 127.160156 C 132.78125 124.503906 132.582031 121.769531 132.582031 119.042969 C 132.582031 118.230469 132.601562 117.421875 132.636719 116.617188 C 132.761719 113.777344 130.554688 111.371094 127.710938 111.246094 C 124.824219 111.144531 122.460938 113.324219 122.335938 116.164062 C 122.292969 117.121094 122.269531 118.078125 122.269531 119.042969 C 122.269531 122.273438 122.507812 125.507812 122.972656 128.660156 C 123.980469 135.523438 129.960938 140.703125 136.882812 140.703125 C 139.730469 140.703125 142.039062 138.398438 142.039062 135.550781 C 142.039062 132.707031 139.730469 130.402344 136.882812 130.402344 Z M 136.882812 130.402344 "/>
<path style=" stroke:none;fill-rule:nonzero;fill:rgb(100%,100%,100%);fill-opacity:1;" d="M 218.492188 62.230469 C 216.199219 60.953125 213.808594 59.804688 211.386719 58.820312 C 208.753906 57.742188 205.738281 59.011719 204.664062 61.644531 C 203.589844 64.28125 204.859375 67.285156 207.496094 68.359375 C 209.53125 69.1875 211.542969 70.15625 213.472656 71.230469 C 214.265625 71.671875 215.128906 71.882812 215.976562 71.882812 C 217.789062 71.882812 219.542969 70.929688 220.484375 69.238281 C 221.871094 66.753906 220.980469 63.617188 218.492188 62.230469 Z M 218.492188 62.230469 "/>
<path style=" stroke:none;fill-rule:nonzero;fill:rgb(100%,100%,100%);fill-opacity:1;" d="M 227.324219 74.589844 C 225.246094 76.535156 225.140625 79.792969 227.085938 81.871094 C 230.023438 85 232.589844 88.457031 234.722656 92.144531 C 235.675781 93.792969 237.410156 94.71875 239.191406 94.71875 C 240.066406 94.71875 240.953125 94.496094 241.765625 94.027344 C 244.230469 92.601562 245.078125 89.453125 243.652344 86.988281 C 241.128906 82.625 238.085938 78.53125 234.613281 74.828125 C 232.667969 72.753906 229.410156 72.644531 227.324219 74.589844 Z M 227.324219 74.589844 "/>
</g>
</svg>
