<?xml version="1.0" encoding="UTF-8"?>
<svg xmlns="http://www.w3.org/2000/svg" xmlns:xlink="http://www.w3.org/1999/xlink" width="375pt" height="374.999991pt" viewBox="0 0 375 374.999991" version="1.2">
<defs>
<clipPath id="clip1">
  <path d="M 86 37.5 L 351 37.5 L 351 285 L 86 285 Z M 86 37.5 "/>
</clipPath>
<clipPath id="clip2">
  <path d="M 31 57 L 285 57 L 285 336.75 L 31 336.75 Z M 31 57 "/>
</clipPath>
</defs>
<g id="surface1">
<g clip-path="url(#clip1)" clip-rule="nonzero">
<path style=" stroke:none;fill-rule:nonzero;fill:rgb(100%,100%,100%);fill-opacity:1;" d="M 235.039062 284.402344 C 230.300781 284.402344 225.359375 284.144531 220.214844 283.582031 C 216.847656 283.21875 214.417969 280.195312 214.785156 276.832031 C 215.152344 273.460938 218.175781 271.03125 221.539062 271.398438 C 287.3125 278.554688 316.386719 231.980469 316.671875 231.511719 C 317.472656 230.199219 318.730469 229.230469 320.203125 228.804688 C 337.09375 223.898438 338.050781 219.5625 338.054688 219.519531 C 338.15625 218.683594 336.515625 216.800781 334.582031 215.355469 C 318.386719 217.320312 302.949219 218.296875 288.289062 218.296875 C 234.730469 218.296875 191.507812 205.246094 159.355469 179.292969 C 111.832031 140.929688 106.742188 88.769531 106.550781 86.566406 C 106.472656 85.734375 106.574219 84.894531 106.835938 84.101562 L 117.132812 52.980469 L 99.40625 50.800781 L 98.230469 61.910156 C 97.871094 65.277344 94.847656 67.71875 91.488281 67.359375 C 88.121094 67 85.6875 63.980469 86.046875 60.613281 L 87.882812 43.304688 C 88.054688 41.667969 88.875 40.175781 90.164062 39.152344 C 91.449219 38.128906 93.089844 37.667969 94.722656 37.871094 L 126.046875 41.726562 C 127.871094 41.953125 129.496094 42.984375 130.480469 44.535156 C 131.460938 46.082031 131.691406 47.996094 131.117188 49.738281 L 118.894531 86.660156 C 119.9375 94.316406 127.492188 137.929688 167.234375 169.898438 C 205.886719 200.992188 262.425781 212.105469 335.273438 202.921875 C 336.550781 202.761719 337.855469 203.003906 338.988281 203.628906 C 340.257812 204.328125 351.351562 210.746094 350.234375 220.867188 C 349.085938 231.242188 336.296875 236.699219 325.777344 239.933594 C 322.785156 244.214844 314.839844 254.40625 301.339844 263.96875 C 287.589844 273.703125 265.539062 284.402344 235.039062 284.402344 "/>
</g>
<g clip-path="url(#clip2)" clip-rule="nonzero">
<path style=" stroke:none;fill-rule:nonzero;fill:rgb(100%,100%,100%);fill-opacity:1;" d="M 82.800781 274.898438 C 115.664062 307.714844 150.367188 324.351562 185.964844 324.351562 C 223.464844 324.351562 248.390625 305.503906 248.640625 305.3125 C 249.710938 304.488281 251.023438 304.039062 252.375 304.039062 C 269.960938 304.039062 272.089844 300.140625 272.105469 300.101562 C 272.433594 299.328125 271.386719 297.0625 269.929688 295.136719 C 195.039062 282.886719 141.8125 254.800781 111.695312 211.636719 C 76.738281 161.539062 86.375 110.023438 86.804688 107.855469 C 86.964844 107.035156 87.292969 106.257812 87.765625 105.566406 L 106.324219 78.554688 L 89.910156 71.511719 L 73.617188 111.363281 C 73.308594 112.117188 72.855469 112.796875 72.277344 113.378906 C 43.585938 142.085938 36.53125 177.832031 51.3125 219.613281 C 62.121094 250.148438 81.089844 272.882812 82.800781 274.898438 Z M 185.964844 336.613281 C 146.941406 336.613281 109.261719 318.710938 73.976562 283.402344 C 73.875 283.304688 73.78125 283.199219 73.6875 283.097656 C 72.800781 282.074219 51.804688 257.71875 39.769531 223.703125 C 23.652344 178.164062 31.59375 137.355469 62.738281 105.59375 L 80.929688 61.105469 C 81.550781 59.582031 82.753906 58.375 84.273438 57.753906 C 85.792969 57.128906 87.5 57.140625 89.007812 57.789062 L 118.019531 70.230469 C 119.707031 70.953125 120.984375 72.394531 121.492188 74.160156 C 122.003906 75.921875 121.695312 77.828125 120.65625 79.339844 L 98.636719 111.390625 C 97.503906 119.03125 92.609375 163.023438 121.871094 204.8125 C 150.332031 245.449219 201.535156 271.886719 274.058594 283.382812 C 275.332031 283.582031 276.515625 284.183594 277.433594 285.101562 C 278.453125 286.125 287.324219 295.382812 283.425781 304.789062 C 279.402344 314.515625 265.40625 316.132812 254.363281 316.289062 C 247.613281 320.941406 222.183594 336.613281 185.964844 336.613281 "/>
</g>
</g>
</svg>
