<?xml version="1.0" encoding="UTF-8"?>
<svg xmlns="http://www.w3.org/2000/svg" xmlns:xlink="http://www.w3.org/1999/xlink" width="375pt" height="374.999991pt" viewBox="0 0 375 374.999991" version="1.2">
<defs>
<clipPath id="clip1">
  <path d="M 57 39 L 328.5 39 L 328.5 330 L 57 330 Z M 57 39 "/>
</clipPath>
</defs>
<g id="surface1">
<path style=" stroke:none;fill-rule:nonzero;fill:rgb(0%,0%,0%);fill-opacity:1;" d="M 235.132812 237.167969 L 226.09375 244.398438 C 225.851562 244.578125 225.628906 244.78125 225.429688 245.007812 C 225.230469 245.234375 225.050781 245.480469 224.898438 245.742188 C 224.75 246.003906 224.625 246.277344 224.527344 246.5625 C 224.429688 246.851562 224.363281 247.144531 224.324219 247.445312 C 224.285156 247.746094 224.28125 248.046875 224.300781 248.347656 C 224.324219 248.648438 224.378906 248.945312 224.460938 249.238281 C 224.542969 249.527344 224.652344 249.808594 224.789062 250.078125 C 224.929688 250.347656 225.09375 250.601562 225.28125 250.835938 C 225.472656 251.074219 225.683594 251.289062 225.914062 251.480469 C 226.148438 251.675781 226.394531 251.84375 226.664062 251.988281 C 226.929688 252.132812 227.207031 252.246094 227.496094 252.335938 C 227.785156 252.421875 228.082031 252.480469 228.382812 252.507812 C 228.683594 252.539062 228.984375 252.535156 229.285156 252.503906 C 229.585938 252.472656 229.882812 252.410156 230.171875 252.320312 C 230.460938 252.226562 230.734375 252.109375 231 251.960938 C 231.265625 251.816406 231.511719 251.644531 231.742188 251.445312 L 240.78125 244.214844 C 241.003906 244.027344 241.203125 243.820312 241.386719 243.589844 C 241.566406 243.363281 241.722656 243.121094 241.859375 242.863281 C 241.992188 242.605469 242.101562 242.335938 242.183594 242.058594 C 242.265625 241.777344 242.320312 241.496094 242.347656 241.203125 C 242.375 240.914062 242.375 240.625 242.34375 240.335938 C 242.316406 240.046875 242.261719 239.761719 242.175781 239.484375 C 242.09375 239.207031 241.984375 238.9375 241.847656 238.679688 C 241.714844 238.421875 241.554688 238.179688 241.375 237.953125 C 241.191406 237.726562 240.988281 237.519531 240.769531 237.332031 C 240.546875 237.144531 240.308594 236.976562 240.054688 236.835938 C 239.800781 236.695312 239.535156 236.578125 239.261719 236.488281 C 238.984375 236.394531 238.703125 236.332031 238.414062 236.296875 C 238.125 236.257812 237.835938 236.25 237.542969 236.269531 C 237.253906 236.289062 236.96875 236.335938 236.6875 236.410156 C 236.40625 236.484375 236.136719 236.585938 235.875 236.714844 C 235.613281 236.839844 235.363281 236.992188 235.132812 237.167969 Z M 235.132812 237.167969 "/>
<path style=" stroke:none;fill-rule:nonzero;fill:rgb(0%,0%,0%);fill-opacity:1;" d="M 200.019531 203.90625 L 191.839844 212.085938 C 191.46875 212.515625 191.191406 213 191.003906 213.539062 C 190.816406 214.078125 190.734375 214.628906 190.753906 215.199219 C 190.777344 215.765625 190.902344 216.3125 191.128906 216.832031 C 191.359375 217.355469 191.671875 217.816406 192.074219 218.21875 C 192.476562 218.621094 192.941406 218.9375 193.460938 219.164062 C 193.984375 219.394531 194.527344 219.519531 195.097656 219.539062 C 195.664062 219.5625 196.21875 219.480469 196.757812 219.292969 C 197.292969 219.105469 197.777344 218.828125 198.210938 218.457031 L 206.480469 210.320312 C 206.71875 210.121094 206.929688 209.894531 207.121094 209.648438 C 207.3125 209.402344 207.472656 209.136719 207.609375 208.859375 C 207.746094 208.578125 207.851562 208.285156 207.925781 207.984375 C 208 207.683594 208.046875 207.375 208.058594 207.0625 C 208.070312 206.753906 208.050781 206.445312 207.996094 206.136719 C 207.945312 205.828125 207.863281 205.53125 207.75 205.242188 C 207.636719 204.949219 207.492188 204.675781 207.324219 204.414062 C 207.152344 204.15625 206.957031 203.914062 206.738281 203.695312 C 206.515625 203.472656 206.277344 203.277344 206.015625 203.109375 C 205.753906 202.9375 205.480469 202.796875 205.191406 202.683594 C 204.898438 202.566406 204.601562 202.484375 204.292969 202.433594 C 203.988281 202.382812 203.679688 202.363281 203.367188 202.375 C 203.054688 202.386719 202.75 202.429688 202.445312 202.503906 C 202.144531 202.582031 201.851562 202.6875 201.574219 202.820312 C 201.292969 202.957031 201.027344 203.121094 200.78125 203.308594 C 200.535156 203.5 200.3125 203.714844 200.109375 203.949219 Z M 200.019531 203.90625 "/>
<path style=" stroke:none;fill-rule:nonzero;fill:rgb(0%,0%,0%);fill-opacity:1;" d="M 125.132812 167.570312 C 125.394531 167.714844 125.664062 167.832031 125.949219 167.921875 C 126.230469 168.011719 126.519531 168.074219 126.816406 168.109375 C 127.109375 168.140625 127.40625 168.148438 127.699219 168.121094 C 127.996094 168.097656 128.289062 168.042969 128.574219 167.960938 C 128.859375 167.878906 129.132812 167.773438 129.398438 167.636719 C 129.660156 167.5 129.910156 167.339844 130.140625 167.15625 C 130.375 166.96875 130.585938 166.765625 130.777344 166.539062 C 130.96875 166.3125 131.136719 166.066406 131.28125 165.808594 L 136.882812 155.683594 C 137.03125 155.425781 137.15625 155.152344 137.25 154.871094 C 137.34375 154.585938 137.410156 154.296875 137.449219 154 C 137.488281 153.703125 137.496094 153.40625 137.472656 153.105469 C 137.453125 152.808594 137.402344 152.515625 137.324219 152.226562 C 137.246094 151.9375 137.140625 151.660156 137.007812 151.390625 C 136.875 151.125 136.714844 150.871094 136.53125 150.636719 C 136.347656 150.398438 136.144531 150.183594 135.917969 149.984375 C 135.691406 149.789062 135.449219 149.617188 135.191406 149.46875 C 134.929688 149.320312 134.660156 149.199219 134.375 149.105469 C 134.09375 149.007812 133.800781 148.941406 133.503906 148.90625 C 133.207031 148.867188 132.910156 148.859375 132.613281 148.878906 C 132.3125 148.902344 132.019531 148.949219 131.730469 149.03125 C 131.445312 149.109375 131.164062 149.214844 130.898438 149.347656 C 130.628906 149.480469 130.378906 149.640625 130.140625 149.824219 C 129.90625 150.007812 129.6875 150.210938 129.492188 150.4375 C 129.296875 150.664062 129.125 150.90625 128.976562 151.164062 L 123.371094 161.289062 C 123.21875 161.550781 123.089844 161.828125 122.992188 162.113281 C 122.890625 162.402344 122.824219 162.699219 122.785156 163 C 122.742188 163.300781 122.734375 163.605469 122.757812 163.910156 C 122.777344 164.214844 122.832031 164.511719 122.914062 164.804688 C 122.996094 165.097656 123.105469 165.382812 123.246094 165.652344 C 123.386719 165.921875 123.550781 166.175781 123.742188 166.414062 C 123.933594 166.652344 124.144531 166.867188 124.378906 167.0625 C 124.613281 167.257812 124.867188 167.425781 125.132812 167.570312 Z M 125.132812 167.570312 "/>
<path style=" stroke:none;fill-rule:nonzero;fill:rgb(0%,0%,0%);fill-opacity:1;" d="M 164.453125 174.890625 L 157.808594 184.5625 C 157.636719 184.804688 157.492188 185.0625 157.371094 185.335938 C 157.253906 185.605469 157.160156 185.886719 157.09375 186.179688 C 157.03125 186.46875 156.996094 186.761719 156.988281 187.058594 C 156.980469 187.355469 157.003906 187.652344 157.054688 187.945312 C 157.105469 188.238281 157.183594 188.523438 157.292969 188.800781 C 157.398438 189.078125 157.535156 189.339844 157.691406 189.59375 C 157.851562 189.84375 158.035156 190.074219 158.242188 190.289062 C 158.445312 190.503906 158.671875 190.699219 158.914062 190.871094 C 159.15625 191.039062 159.414062 191.183594 159.6875 191.304688 C 159.960938 191.425781 160.242188 191.515625 160.53125 191.582031 C 160.820312 191.644531 161.113281 191.683594 161.410156 191.6875 C 161.710938 191.695312 162.003906 191.671875 162.296875 191.621094 C 162.589844 191.570312 162.875 191.488281 163.152344 191.382812 C 163.429688 191.273438 163.691406 191.140625 163.945312 190.980469 C 164.195312 190.820312 164.425781 190.640625 164.640625 190.433594 C 164.855469 190.226562 165.050781 190.003906 165.21875 189.757812 L 171.863281 180.042969 C 172.035156 179.800781 172.179688 179.542969 172.300781 179.269531 C 172.417969 179 172.511719 178.71875 172.574219 178.425781 C 172.640625 178.136719 172.675781 177.84375 172.683594 177.546875 C 172.6875 177.25 172.667969 176.953125 172.617188 176.660156 C 172.5625 176.367188 172.484375 176.085938 172.378906 175.808594 C 172.269531 175.53125 172.136719 175.265625 171.976562 175.015625 C 171.816406 174.765625 171.632812 174.53125 171.429688 174.316406 C 171.222656 174.101562 171 173.910156 170.757812 173.738281 C 170.511719 173.566406 170.253906 173.421875 169.984375 173.304688 C 169.710938 173.183594 169.429688 173.089844 169.140625 173.027344 C 168.851562 172.960938 168.554688 172.925781 168.257812 172.917969 C 167.960938 172.914062 167.667969 172.933594 167.375 172.988281 C 167.082031 173.039062 166.796875 173.117188 166.519531 173.226562 C 166.242188 173.332031 165.980469 173.464844 165.726562 173.625 C 165.476562 173.785156 165.246094 173.96875 165.03125 174.171875 C 164.816406 174.378906 164.621094 174.601562 164.453125 174.847656 Z M 164.453125 174.890625 "/>
<path style=" stroke:none;fill-rule:nonzero;fill:rgb(0%,0%,0%);fill-opacity:1;" d="M 185.558594 253.390625 L 176.519531 260.621094 C 176.296875 260.808594 176.097656 261.019531 175.914062 261.246094 C 175.734375 261.472656 175.578125 261.714844 175.441406 261.972656 C 175.308594 262.234375 175.199219 262.5 175.117188 262.78125 C 175.035156 263.058594 174.980469 263.34375 174.953125 263.632812 C 174.925781 263.921875 174.925781 264.210938 174.957031 264.5 C 174.984375 264.789062 175.039062 265.074219 175.125 265.351562 C 175.207031 265.632812 175.316406 265.898438 175.449219 266.15625 C 175.585938 266.414062 175.746094 266.65625 175.925781 266.882812 C 176.109375 267.109375 176.308594 267.316406 176.53125 267.507812 C 176.753906 267.695312 176.992188 267.859375 177.246094 268 C 177.5 268.144531 177.765625 268.261719 178.039062 268.351562 C 178.316406 268.441406 178.597656 268.503906 178.886719 268.542969 C 179.175781 268.578125 179.464844 268.585938 179.753906 268.566406 C 180.046875 268.546875 180.332031 268.5 180.613281 268.425781 C 180.894531 268.351562 181.164062 268.25 181.425781 268.125 C 181.6875 267.996094 181.933594 267.847656 182.167969 267.671875 L 191.207031 260.441406 C 191.425781 260.25 191.628906 260.042969 191.808594 259.816406 C 191.988281 259.589844 192.148438 259.34375 192.28125 259.085938 C 192.414062 258.828125 192.523438 258.558594 192.605469 258.28125 C 192.6875 258.003906 192.742188 257.71875 192.769531 257.429688 C 192.796875 257.140625 192.796875 256.851562 192.769531 256.5625 C 192.738281 256.269531 192.683594 255.988281 192.601562 255.707031 C 192.515625 255.429688 192.410156 255.160156 192.273438 254.90625 C 192.136719 254.648438 191.980469 254.40625 191.796875 254.175781 C 191.617188 253.949219 191.414062 253.742188 191.191406 253.554688 C 190.96875 253.367188 190.734375 253.203125 190.480469 253.058594 C 190.226562 252.917969 189.960938 252.800781 189.683594 252.710938 C 189.40625 252.621094 189.125 252.554688 188.835938 252.519531 C 188.546875 252.484375 188.257812 252.476562 187.96875 252.496094 C 187.679688 252.515625 187.394531 252.5625 187.113281 252.636719 C 186.832031 252.710938 186.558594 252.8125 186.296875 252.9375 C 186.035156 253.066406 185.789062 253.214844 185.558594 253.390625 Z M 185.558594 253.390625 "/>
<path style=" stroke:none;fill-rule:nonzero;fill:rgb(0%,0%,0%);fill-opacity:1;" d="M 153.785156 226.726562 L 146.601562 235.269531 C 146.410156 235.496094 146.242188 235.738281 146.097656 236 C 145.957031 236.257812 145.839844 236.53125 145.75 236.8125 C 145.660156 237.097656 145.597656 237.386719 145.566406 237.679688 C 145.53125 237.976562 145.527344 238.269531 145.554688 238.566406 C 145.578125 238.863281 145.632812 239.152344 145.714844 239.4375 C 145.796875 239.722656 145.90625 239.996094 146.042969 240.261719 C 146.179688 240.523438 146.339844 240.773438 146.527344 241.003906 C 146.710938 241.234375 146.917969 241.449219 147.144531 241.640625 C 147.371094 241.832031 147.613281 241.996094 147.875 242.140625 C 148.132812 242.285156 148.40625 242.402344 148.6875 242.492188 C 148.972656 242.582031 149.261719 242.644531 149.554688 242.675781 C 149.851562 242.707031 150.144531 242.714844 150.441406 242.6875 C 150.738281 242.664062 151.027344 242.609375 151.3125 242.527344 C 151.597656 242.445312 151.871094 242.335938 152.136719 242.199219 C 152.398438 242.0625 152.648438 241.902344 152.878906 241.714844 C 153.113281 241.53125 153.324219 241.324219 153.515625 241.097656 L 160.699219 232.558594 C 160.890625 232.328125 161.058594 232.085938 161.203125 231.828125 C 161.347656 231.566406 161.464844 231.292969 161.554688 231.011719 C 161.644531 230.730469 161.703125 230.441406 161.738281 230.144531 C 161.769531 229.851562 161.773438 229.554688 161.75 229.257812 C 161.722656 228.960938 161.671875 228.671875 161.589844 228.386719 C 161.503906 228.101562 161.394531 227.828125 161.261719 227.5625 C 161.125 227.300781 160.960938 227.050781 160.777344 226.820312 C 160.59375 226.585938 160.386719 226.375 160.160156 226.183594 C 159.933594 225.992188 159.6875 225.824219 159.429688 225.683594 C 159.167969 225.539062 158.898438 225.421875 158.613281 225.332031 C 158.332031 225.242188 158.042969 225.179688 157.746094 225.148438 C 157.453125 225.113281 157.15625 225.109375 156.859375 225.136719 C 156.5625 225.160156 156.273438 225.214844 155.988281 225.296875 C 155.703125 225.378906 155.429688 225.488281 155.164062 225.625 C 154.902344 225.761719 154.652344 225.921875 154.421875 226.109375 C 154.191406 226.292969 153.976562 226.5 153.785156 226.726562 Z M 153.785156 226.726562 "/>
<path style=" stroke:none;fill-rule:nonzero;fill:rgb(0%,0%,0%);fill-opacity:1;" d="M 128.164062 199.882812 C 127.921875 199.710938 127.664062 199.566406 127.394531 199.449219 C 127.125 199.328125 126.84375 199.238281 126.554688 199.171875 C 126.265625 199.109375 125.972656 199.070312 125.679688 199.0625 C 125.382812 199.058594 125.089844 199.078125 124.796875 199.128906 C 124.507812 199.179688 124.222656 199.257812 123.945312 199.363281 C 123.671875 199.46875 123.40625 199.601562 123.15625 199.757812 C 122.90625 199.917969 122.675781 200.097656 122.460938 200.300781 C 122.246094 200.503906 122.050781 200.726562 121.878906 200.96875 L 115.191406 210.457031 C 114.898438 210.945312 114.703125 211.472656 114.605469 212.035156 C 114.511719 212.597656 114.523438 213.160156 114.640625 213.71875 C 114.757812 214.277344 114.972656 214.796875 115.285156 215.273438 C 115.601562 215.75 115.992188 216.15625 116.457031 216.484375 C 116.925781 216.8125 117.433594 217.046875 117.988281 217.179688 C 118.542969 217.316406 119.105469 217.347656 119.671875 217.269531 C 120.238281 217.191406 120.769531 217.015625 121.269531 216.734375 C 121.765625 216.457031 122.195312 216.097656 122.558594 215.65625 L 129.203125 206.210938 C 129.375 205.96875 129.527344 205.710938 129.648438 205.441406 C 129.773438 205.167969 129.871094 204.890625 129.9375 204.597656 C 130.007812 204.308594 130.046875 204.015625 130.054688 203.71875 C 130.066406 203.417969 130.046875 203.125 130 202.828125 C 129.949219 202.535156 129.875 202.25 129.769531 201.96875 C 129.664062 201.691406 129.53125 201.425781 129.375 201.171875 C 129.21875 200.921875 129.035156 200.683594 128.832031 200.46875 C 128.628906 200.25 128.40625 200.054688 128.164062 199.882812 Z M 128.164062 199.882812 "/>
<path style=" stroke:none;fill-rule:nonzero;fill:rgb(0%,0%,0%);fill-opacity:1;" d="M 138.285156 271.785156 L 129.246094 279.015625 C 129.003906 279.195312 128.785156 279.398438 128.582031 279.625 C 128.382812 279.851562 128.207031 280.097656 128.054688 280.359375 C 127.902344 280.621094 127.777344 280.894531 127.679688 281.179688 C 127.582031 281.46875 127.515625 281.761719 127.476562 282.0625 C 127.441406 282.363281 127.433594 282.664062 127.453125 282.964844 C 127.476562 283.265625 127.53125 283.5625 127.613281 283.855469 C 127.695312 284.144531 127.804688 284.425781 127.941406 284.695312 C 128.082031 284.964844 128.246094 285.21875 128.433594 285.453125 C 128.625 285.691406 128.835938 285.90625 129.066406 286.097656 C 129.300781 286.292969 129.550781 286.460938 129.816406 286.605469 C 130.082031 286.75 130.359375 286.863281 130.648438 286.953125 C 130.9375 287.039062 131.234375 287.097656 131.535156 287.125 C 131.835938 287.15625 132.136719 287.152344 132.441406 287.121094 C 132.742188 287.089844 133.035156 287.027344 133.324219 286.9375 C 133.613281 286.84375 133.890625 286.726562 134.152344 286.578125 C 134.417969 286.433594 134.664062 286.261719 134.894531 286.0625 L 143.933594 278.832031 C 144.15625 278.644531 144.355469 278.4375 144.539062 278.207031 C 144.71875 277.980469 144.875 277.738281 145.011719 277.480469 C 145.144531 277.222656 145.253906 276.953125 145.335938 276.675781 C 145.417969 276.394531 145.472656 276.113281 145.5 275.820312 C 145.527344 275.53125 145.527344 275.242188 145.496094 274.953125 C 145.46875 274.664062 145.414062 274.378906 145.328125 274.101562 C 145.246094 273.824219 145.136719 273.554688 145.003906 273.296875 C 144.867188 273.039062 144.707031 272.796875 144.527344 272.570312 C 144.34375 272.34375 144.144531 272.136719 143.921875 271.949219 C 143.699219 271.761719 143.460938 271.59375 143.207031 271.453125 C 142.953125 271.3125 142.6875 271.195312 142.414062 271.105469 C 142.136719 271.011719 141.855469 270.949219 141.566406 270.914062 C 141.277344 270.875 140.988281 270.867188 140.699219 270.886719 C 140.40625 270.90625 140.121094 270.953125 139.839844 271.027344 C 139.558594 271.101562 139.289062 271.203125 139.027344 271.332031 C 138.765625 271.457031 138.519531 271.609375 138.285156 271.785156 Z M 138.285156 271.785156 "/>
<path style=" stroke:none;fill-rule:nonzero;fill:rgb(0%,0%,0%);fill-opacity:1;" d="M 107.734375 246.835938 L 101.046875 256.28125 C 100.847656 256.523438 100.671875 256.785156 100.523438 257.0625 C 100.378906 257.339844 100.261719 257.628906 100.175781 257.929688 C 100.085938 258.234375 100.03125 258.539062 100.011719 258.855469 C 99.988281 259.167969 100 259.480469 100.039062 259.789062 C 100.082031 260.101562 100.15625 260.40625 100.265625 260.699219 C 100.371094 260.996094 100.503906 261.277344 100.667969 261.546875 C 100.835938 261.8125 101.023438 262.0625 101.242188 262.289062 C 101.457031 262.515625 101.695312 262.71875 101.953125 262.898438 C 102.210938 263.078125 102.488281 263.226562 102.777344 263.347656 C 103.066406 263.46875 103.367188 263.558594 103.675781 263.617188 C 103.984375 263.675781 104.296875 263.703125 104.609375 263.695312 C 104.921875 263.6875 105.234375 263.648438 105.539062 263.578125 C 105.84375 263.507812 106.140625 263.40625 106.425781 263.273438 C 106.710938 263.140625 106.976562 262.980469 107.230469 262.792969 C 107.480469 262.601562 107.710938 262.390625 107.917969 262.15625 C 108.125 261.917969 108.304688 261.664062 108.457031 261.390625 L 115.101562 251.945312 C 115.398438 251.453125 115.59375 250.929688 115.6875 250.367188 C 115.78125 249.800781 115.773438 249.242188 115.65625 248.683594 C 115.539062 248.125 115.320312 247.605469 115.007812 247.128906 C 114.695312 246.652344 114.304688 246.246094 113.835938 245.917969 C 113.371094 245.589844 112.859375 245.355469 112.304688 245.21875 C 111.75 245.085938 111.1875 245.054688 110.625 245.132812 C 110.058594 245.210938 109.523438 245.386719 109.027344 245.667969 C 108.527344 245.945312 108.097656 246.304688 107.734375 246.746094 Z M 107.734375 246.835938 "/>
<g clip-path="url(#clip1)" clip-rule="nonzero">
<path style=" stroke:none;fill-rule:nonzero;fill:rgb(0%,0%,0%);fill-opacity:1;" d="M 327.914062 155.910156 C 326.152344 150.5625 323.660156 145.578125 320.433594 140.960938 C 317.210938 136.347656 313.390625 132.289062 308.976562 128.796875 C 313.8125 124.730469 318.421875 120.421875 322.804688 115.871094 L 323.9375 114.742188 C 324.332031 114.324219 324.640625 113.847656 324.855469 113.316406 C 325.070312 112.78125 325.179688 112.230469 325.183594 111.652344 C 325.1875 111.078125 325.085938 110.523438 324.878906 109.988281 C 324.671875 109.449219 324.371094 108.972656 323.980469 108.550781 C 308.617188 90.472656 292.664062 87.535156 281.996094 88.304688 C 277.9375 88.597656 273.992188 89.425781 270.15625 90.789062 C 273.546875 71.128906 264.101562 52.828125 243.628906 40.578125 C 243.25 40.367188 242.851562 40.210938 242.429688 40.109375 C 242.007812 40.011719 241.582031 39.972656 241.148438 40 C 240.714844 40.023438 240.296875 40.105469 239.886719 40.253906 C 239.480469 40.398438 239.097656 40.597656 238.75 40.851562 C 233.433594 45.042969 229.097656 50.074219 225.734375 55.945312 C 221.335938 52.515625 216.5625 49.742188 211.40625 47.621094 C 206.246094 45.503906 200.902344 44.121094 195.363281 43.472656 C 194.796875 43.417969 194.242188 43.46875 193.695312 43.625 C 193.148438 43.777344 192.652344 44.027344 192.199219 44.371094 C 191.746094 44.714844 191.371094 45.128906 191.078125 45.613281 C 190.78125 46.097656 190.582031 46.617188 190.484375 47.179688 C 189.585938 53.046875 189.339844 58.945312 189.753906 64.871094 C 190.164062 70.796875 191.222656 76.601562 192.921875 82.292969 C 149.175781 65.480469 119.53125 83.421875 100.910156 105.429688 C 51.335938 163.773438 46.453125 293.023438 74.292969 316.34375 C 84.734375 325.15625 100.820312 329.179688 119.710938 329.179688 C 169.738281 329.179688 239.199219 301.066406 273.863281 260.125 C 280.554688 252.304688 285.976562 243.691406 290.132812 234.273438 C 290.261719 234.011719 290.367188 233.742188 290.449219 233.460938 C 291.585938 230.804688 292.574219 228.097656 293.414062 225.335938 C 294.253906 222.570312 294.941406 219.769531 295.472656 216.933594 C 296 214.09375 296.375 211.234375 296.589844 208.355469 C 296.804688 205.472656 296.859375 202.589844 296.757812 199.703125 C 296.652344 196.820312 296.390625 193.945312 295.972656 191.089844 C 295.550781 188.230469 294.976562 185.40625 294.242188 182.613281 C 293.511719 179.820312 292.628906 177.074219 291.59375 174.378906 C 290.558594 171.683594 289.378906 169.050781 288.054688 166.484375 C 290.660156 166.84375 293.28125 167.023438 295.917969 167.027344 C 305.964844 166.835938 315.683594 164.9375 325.066406 161.332031 C 325.601562 161.144531 326.082031 160.863281 326.507812 160.488281 C 326.9375 160.117188 327.285156 159.679688 327.546875 159.179688 C 327.8125 158.675781 327.976562 158.140625 328.039062 157.578125 C 328.101562 157.015625 328.058594 156.457031 327.914062 155.910156 Z M 282.71875 97.160156 C 285.714844 97.078125 288.679688 97.328125 291.617188 97.910156 C 294.554688 98.492188 297.390625 99.390625 300.128906 100.605469 C 302.867188 101.820312 305.433594 103.324219 307.835938 105.117188 C 310.234375 106.90625 312.410156 108.9375 314.355469 111.214844 C 303.191406 122.421875 288.144531 136.34375 266.675781 135.527344 C 264.929688 133.570312 263.078125 131.597656 261.117188 129.609375 C 265.480469 125.6875 270.484375 122.914062 276.121094 121.292969 C 276.410156 121.21875 276.6875 121.121094 276.957031 120.992188 C 277.222656 120.867188 277.476562 120.714844 277.714844 120.535156 C 277.953125 120.359375 278.171875 120.160156 278.371094 119.9375 C 278.570312 119.71875 278.746094 119.480469 278.898438 119.226562 C 279.050781 118.972656 279.175781 118.703125 279.273438 118.425781 C 279.375 118.144531 279.445312 117.859375 279.488281 117.5625 C 279.53125 117.269531 279.546875 116.976562 279.53125 116.679688 C 279.515625 116.382812 279.472656 116.089844 279.398438 115.800781 C 279.324219 115.515625 279.226562 115.238281 279.097656 114.96875 C 278.972656 114.699219 278.820312 114.445312 278.640625 114.210938 C 278.464844 113.972656 278.265625 113.753906 278.042969 113.554688 C 277.824219 113.355469 277.585938 113.179688 277.332031 113.027344 C 277.078125 112.875 276.808594 112.75 276.53125 112.648438 C 276.25 112.550781 275.964844 112.480469 275.667969 112.4375 C 275.375 112.394531 275.082031 112.378906 274.785156 112.394531 C 274.488281 112.410156 274.195312 112.453125 273.90625 112.527344 C 270.328125 113.558594 266.917969 114.996094 263.679688 116.835938 C 260.441406 118.675781 257.464844 120.871094 254.746094 123.417969 C 252.984375 121.746094 251.128906 120.074219 249.1875 118.402344 C 258.316406 105.835938 270.382812 98.15625 282.765625 97.296875 Z M 241.867188 50.023438 C 259.445312 61.683594 265.863281 78.269531 259.671875 96.03125 C 252.875 100.488281 247.105469 106.015625 242.363281 112.617188 L 236.941406 108.097656 C 240.679688 102.40625 243.375 96.261719 245.03125 89.660156 C 245.117188 89.367188 245.179688 89.074219 245.207031 88.769531 C 245.238281 88.46875 245.234375 88.167969 245.203125 87.867188 C 245.171875 87.5625 245.113281 87.269531 245.019531 86.980469 C 244.929688 86.691406 244.8125 86.414062 244.664062 86.148438 C 244.515625 85.882812 244.34375 85.632812 244.148438 85.402344 C 243.953125 85.171875 243.734375 84.964844 243.496094 84.777344 C 243.257812 84.589844 243.003906 84.429688 242.730469 84.292969 C 242.460938 84.15625 242.175781 84.050781 241.882812 83.96875 C 241.59375 83.890625 241.292969 83.84375 240.992188 83.824219 C 240.6875 83.804688 240.386719 83.816406 240.085938 83.859375 C 239.785156 83.898438 239.492188 83.972656 239.207031 84.070312 C 238.921875 84.171875 238.648438 84.300781 238.386719 84.457031 C 238.128906 84.613281 237.886719 84.792969 237.660156 84.996094 C 237.4375 85.203125 237.238281 85.425781 237.058594 85.671875 C 236.878906 85.914062 236.726562 86.175781 236.601562 86.453125 C 236.472656 86.726562 236.375 87.011719 236.308594 87.308594 C 234.945312 92.855469 232.730469 98.035156 229.664062 102.855469 L 226.5 100.59375 C 226.070312 98.34375 225.777344 96.074219 225.625 93.785156 C 225.46875 91.496094 225.453125 89.207031 225.574219 86.917969 C 225.695312 84.628906 225.957031 82.351562 226.355469 80.09375 C 226.75 77.835938 227.28125 75.609375 227.949219 73.414062 C 228.617188 71.222656 229.414062 69.074219 230.339844 66.976562 C 231.265625 64.878906 232.316406 62.847656 233.488281 60.875 C 234.660156 58.90625 235.945312 57.011719 237.347656 55.195312 C 238.75 53.382812 240.257812 51.65625 241.867188 50.023438 Z M 198.796875 53.144531 C 202.988281 53.976562 207 55.34375 210.832031 57.234375 C 214.664062 59.128906 218.183594 61.484375 221.394531 64.304688 C 219.464844 69.035156 218.09375 73.921875 217.277344 78.96875 C 216.460938 84.011719 216.222656 89.082031 216.558594 94.179688 C 212.339844 91.617188 208.242188 89.34375 204.265625 87.355469 C 201.898438 81.980469 200.246094 76.398438 199.3125 70.601562 C 198.378906 64.808594 198.191406 58.988281 198.753906 53.144531 Z M 159.796875 85.140625 C 183.613281 85.140625 210.683594 97.703125 240.238281 122.738281 C 254 133.890625 265.660156 146.921875 275.21875 161.832031 L 275.21875 162.148438 C 277.679688 165.875 279.789062 169.789062 281.546875 173.894531 C 283.304688 177.996094 284.683594 182.226562 285.679688 186.578125 C 286.679688 190.929688 287.285156 195.335938 287.492188 199.792969 C 287.703125 204.253906 287.511719 208.699219 286.921875 213.125 C 278.742188 181.039062 262.113281 165.941406 259.808594 164.136719 C 259.441406 163.835938 259.039062 163.597656 258.601562 163.421875 C 258.160156 163.246094 257.707031 163.144531 257.234375 163.113281 C 256.761719 163.082031 256.296875 163.121094 255.835938 163.234375 C 255.378906 163.351562 254.949219 163.53125 254.546875 163.78125 C 254.144531 164.03125 253.789062 164.335938 253.484375 164.699219 C 253.179688 165.058594 252.9375 165.457031 252.753906 165.894531 C 252.574219 166.332031 252.464844 166.785156 252.425781 167.257812 C 252.386719 167.726562 252.421875 168.195312 252.53125 168.65625 C 253.058594 170.574219 253.363281 172.527344 253.445312 174.515625 C 253.527344 176.503906 253.386719 178.480469 253.023438 180.433594 C 252.660156 182.390625 252.082031 184.285156 251.289062 186.109375 C 250.496094 187.933594 249.511719 189.648438 248.328125 191.25 C 245.707031 173.582031 239.605469 161.515625 229.753906 154.554688 C 229.085938 154.101562 228.34375 153.847656 227.539062 153.789062 C 226.730469 153.734375 225.960938 153.882812 225.234375 154.238281 C 218.234375 157.9375 210.972656 161.023438 203.453125 163.503906 C 203.996094 155.699219 205.730469 148.164062 208.648438 140.90625 C 208.855469 140.484375 208.988281 140.042969 209.054688 139.582031 C 209.121094 139.117188 209.117188 138.65625 209.039062 138.195312 C 208.964844 137.734375 208.820312 137.292969 208.605469 136.878906 C 208.390625 136.460938 208.121094 136.085938 207.792969 135.753906 C 197.9375 125.902344 181.761719 124.457031 166.847656 125.179688 C 167.515625 124.332031 168.238281 123.535156 169.011719 122.785156 C 169.785156 122.03125 170.605469 121.335938 171.472656 120.691406 C 172.339844 120.050781 173.242188 119.46875 174.1875 118.945312 C 175.128906 118.421875 176.105469 117.960938 177.105469 117.566406 C 178.109375 117.171875 179.136719 116.84375 180.183594 116.582031 C 181.230469 116.324219 182.289062 116.132812 183.363281 116.011719 C 184.433594 115.890625 185.507812 115.84375 186.585938 115.863281 C 187.667969 115.886719 188.738281 115.976562 189.804688 116.140625 C 190.253906 116.195312 190.699219 116.183594 191.144531 116.101562 C 191.589844 116.023438 192.011719 115.878906 192.414062 115.671875 C 192.816406 115.464844 193.175781 115.203125 193.5 114.886719 C 193.824219 114.574219 194.09375 114.214844 194.308594 113.820312 C 194.527344 113.421875 194.679688 113.003906 194.769531 112.5625 C 194.863281 112.121094 194.886719 111.671875 194.84375 111.222656 C 194.800781 110.773438 194.691406 110.339844 194.519531 109.921875 C 194.34375 109.503906 194.113281 109.125 193.828125 108.773438 C 183.117188 95.851562 159.390625 89.75 130.785156 91.875 C 135.273438 89.582031 139.96875 87.867188 144.878906 86.730469 C 149.785156 85.589844 154.757812 85.058594 159.796875 85.140625 Z M 266.992188 254.292969 C 220.582031 309.15625 111.125 335.730469 79.941406 309.429688 C 57.347656 290.402344 58.929688 168.5625 107.464844 111.214844 C 109.964844 108.382812 112.628906 105.714844 115.464844 103.214844 C 144.023438 98.0625 165.808594 101.316406 178.191406 107.734375 C 176.867188 108.0625 175.566406 108.46875 174.292969 108.953125 C 173.019531 109.4375 171.777344 109.996094 170.570312 110.628906 C 169.363281 111.261719 168.195312 111.960938 167.074219 112.734375 C 165.949219 113.507812 164.875 114.34375 163.855469 115.246094 C 162.832031 116.148438 161.867188 117.105469 160.957031 118.125 C 160.050781 119.140625 159.207031 120.210938 158.425781 121.328125 C 157.648438 122.445312 156.9375 123.605469 156.296875 124.8125 C 155.65625 126.015625 155.089844 127.253906 154.601562 128.523438 C 154.339844 129.25 154.269531 129.996094 154.390625 130.757812 C 154.507812 131.519531 154.804688 132.207031 155.277344 132.816406 C 155.75 133.421875 156.339844 133.878906 157.046875 134.183594 C 157.753906 134.488281 158.488281 134.605469 159.253906 134.535156 C 178.914062 132.726562 191.792969 134.535156 199.296875 140.003906 C 195.5 150.351562 193.238281 167.433594 195 170.960938 C 195.527344 172.015625 196.339844 172.753906 197.441406 173.175781 C 201.191406 174.621094 217.101562 168.113281 226.90625 163.230469 C 234.636719 170.101562 239.246094 182.621094 240.464844 200.515625 C 240.496094 200.894531 240.574219 201.261719 240.695312 201.621094 C 240.820312 201.980469 240.984375 202.320312 241.195312 202.636719 C 241.402344 202.953125 241.648438 203.242188 241.929688 203.496094 C 242.210938 203.753906 242.519531 203.96875 242.851562 204.148438 C 243.1875 204.324219 243.542969 204.457031 243.910156 204.546875 C 244.28125 204.636719 244.652344 204.679688 245.035156 204.671875 C 245.414062 204.667969 245.785156 204.613281 246.152344 204.515625 C 246.519531 204.417969 246.867188 204.273438 247.199219 204.085938 C 249.292969 202.785156 251.214844 201.265625 252.96875 199.53125 C 254.71875 197.792969 256.253906 195.886719 257.578125 193.804688 C 258.898438 191.726562 259.972656 189.523438 260.800781 187.199219 C 261.625 184.878906 262.183594 182.492188 262.472656 180.042969 C 267.738281 187.738281 271.976562 195.960938 275.1875 204.710938 C 278.402344 213.460938 280.488281 222.472656 281.453125 231.742188 C 277.683594 239.933594 272.863281 247.449219 266.992188 254.292969 Z M 282.3125 156 C 279.835938 152.003906 277.152344 148.148438 274.269531 144.433594 C 279.132812 143.871094 283.859375 142.734375 288.445312 141.023438 C 293.03125 139.3125 297.34375 137.074219 301.382812 134.308594 C 304.925781 136.886719 308.082031 139.871094 310.855469 143.261719 C 313.628906 146.65625 315.925781 150.34375 317.746094 154.328125 C 314.917969 155.359375 312.03125 156.171875 309.085938 156.765625 C 306.136719 157.355469 303.160156 157.722656 300.15625 157.867188 C 297.152344 158.007812 294.15625 157.921875 291.164062 157.609375 C 288.171875 157.296875 285.222656 156.761719 282.3125 156 Z M 282.3125 156 "/>
</g>
</g>
</svg>
