<?xml version="1.0" encoding="UTF-8"?>
<svg xmlns="http://www.w3.org/2000/svg" xmlns:xlink="http://www.w3.org/1999/xlink" width="375pt" height="374.999991pt" viewBox="0 0 375 374.999991" version="1.2">
<defs>
<clipPath id="clip1">
  <path d="M 49.3125 47 L 325 47 L 325 337 L 49.3125 337 Z M 49.3125 47 "/>
</clipPath>
</defs>
<g id="surface1">
<g clip-path="url(#clip1)" clip-rule="nonzero">
<path style=" stroke:none;fill-rule:nonzero;fill:rgb(0%,0%,0%);fill-opacity:1;" d="M 323.832031 80.792969 C 320.925781 73.078125 312.871094 73.578125 306.28125 75.132812 C 306.71875 74.148438 307.003906 73.121094 307.132812 72.050781 C 307.261719 70.980469 307.226562 69.917969 307.03125 68.855469 C 306.839844 67.796875 306.492188 66.789062 305.992188 65.832031 C 305.496094 64.875 304.863281 64.015625 304.105469 63.246094 C 303.34375 62.480469 302.488281 61.84375 301.535156 61.332031 C 300.582031 60.824219 299.578125 60.46875 298.515625 60.261719 C 297.453125 60.054688 296.386719 60.011719 295.3125 60.125 C 294.238281 60.242188 293.203125 60.511719 292.210938 60.9375 C 289.136719 62.105469 286.226562 63.597656 283.484375 65.414062 C 280.667969 59.808594 272.675781 59.328125 268.25 63.738281 C 266.472656 65.417969 264.792969 67.1875 263.210938 69.050781 C 262.945312 69.363281 262.746094 69.710938 262.617188 70.101562 C 262.488281 70.492188 262.441406 70.890625 262.472656 71.300781 C 262.503906 71.707031 262.613281 72.09375 262.800781 72.460938 C 262.988281 72.824219 263.238281 73.140625 263.550781 73.40625 C 263.867188 73.667969 264.21875 73.863281 264.609375 73.988281 C 265.003906 74.113281 265.402344 74.15625 265.8125 74.121094 C 266.222656 74.085938 266.609375 73.972656 266.972656 73.78125 C 267.335938 73.589844 267.648438 73.335938 267.914062 73.019531 C 269.34375 71.332031 270.863281 69.726562 272.476562 68.207031 C 274.683594 66.214844 277.832031 66.425781 278.261719 69.101562 C 278.324219 69.617188 278.339844 70.132812 278.304688 70.652344 C 278.273438 71.277344 278.417969 71.855469 278.742188 72.390625 C 279.0625 72.925781 279.503906 73.328125 280.066406 73.59375 C 280.632812 73.863281 281.222656 73.953125 281.84375 73.867188 C 282.460938 73.777344 283.003906 73.523438 283.46875 73.109375 C 286.734375 70.339844 290.371094 68.199219 294.378906 66.691406 C 298.953125 64.824219 302.59375 69.15625 300.296875 73.460938 C 299.308594 75.507812 298.105469 77.417969 296.6875 79.191406 C 294.5 81.824219 297.882812 85.578125 300.746094 83.710938 C 300.792969 83.679688 305.699219 80.628906 313.824219 80.316406 C 314.273438 80.261719 314.722656 80.285156 315.164062 80.382812 C 315.605469 80.480469 316.019531 80.648438 316.40625 80.890625 C 316.792969 81.128906 317.125 81.425781 317.410156 81.777344 C 317.691406 82.128906 317.910156 82.519531 318.058594 82.949219 C 320.050781 88 313.453125 92.164062 309.070312 93.628906 C 308.507812 93.839844 308.039062 94.179688 307.675781 94.660156 C 307.308594 95.140625 307.101562 95.679688 307.050781 96.277344 C 307 96.878906 307.117188 97.445312 307.398438 97.976562 C 307.679688 98.511719 308.082031 98.925781 308.605469 99.226562 C 310.132812 100.171875 311.503906 101.304688 312.722656 102.625 C 316.335938 106.398438 314.296875 113 310.019531 115.679688 C 306.847656 117.777344 303.519531 119.589844 300.035156 121.121094 C 299.367188 120.914062 298.785156 120.566406 298.289062 120.078125 C 297.792969 119.589844 297.433594 119.011719 297.21875 118.351562 C 296.058594 114.84375 292.425781 110.488281 281.714844 109.640625 C 276.082031 109.191406 271.265625 108.917969 266.582031 109.464844 C 278.9375 101.464844 287.113281 99.710938 287.230469 99.6875 C 287.632812 99.609375 288.003906 99.457031 288.34375 99.230469 C 288.683594 99.003906 288.964844 98.722656 289.191406 98.386719 C 289.421875 98.046875 289.574219 97.675781 289.652344 97.277344 C 289.734375 96.878906 289.734375 96.480469 289.65625 96.078125 C 289.578125 95.679688 289.421875 95.3125 289.195312 94.972656 C 288.96875 94.632812 288.6875 94.351562 288.347656 94.125 C 288.007812 93.898438 287.640625 93.742188 287.238281 93.664062 C 286.839844 93.582031 286.4375 93.582031 286.039062 93.660156 C 285.46875 93.773438 275.671875 95.804688 261.226562 105.609375 C 266.042969 95.519531 263.082031 85.632812 255.261719 80.910156 C 257.941406 74.15625 259.332031 64.269531 251.390625 59.941406 C 245.199219 56.566406 240.054688 58.058594 236.605469 60.5625 C 236.394531 60.160156 236.160156 59.773438 235.902344 59.398438 C 235.648438 59.019531 235.367188 58.664062 235.070312 58.320312 C 234.769531 57.976562 234.449219 57.652344 234.113281 57.347656 C 233.777344 57.042969 233.421875 56.757812 233.050781 56.496094 C 232.679688 56.234375 232.292969 55.992188 231.890625 55.773438 C 231.492188 55.558594 231.082031 55.363281 230.660156 55.195312 C 230.234375 55.027344 229.804688 54.882812 229.363281 54.765625 C 228.925781 54.644531 228.480469 54.554688 228.027344 54.488281 C 227.578125 54.421875 227.125 54.382812 226.667969 54.371094 C 226.214844 54.359375 225.757812 54.371094 225.304688 54.414062 C 224.851562 54.453125 224.402344 54.523438 223.957031 54.617188 C 223.511719 54.710938 223.070312 54.832031 222.640625 54.976562 C 222.207031 55.121094 221.789062 55.292969 221.375 55.488281 C 220.964844 55.683594 220.566406 55.902344 220.179688 56.144531 C 219.796875 56.386719 219.425781 56.652344 219.074219 56.9375 C 218.71875 57.226562 218.382812 57.53125 218.066406 57.855469 C 213.589844 62.320312 213.382812 67.839844 214.566406 73.023438 C 202.996094 70.863281 197.273438 85.730469 207.09375 92.722656 C 206.484375 93.160156 205.917969 93.648438 205.398438 94.1875 C 204.878906 94.726562 204.414062 95.3125 204.007812 95.941406 C 203.597656 96.566406 203.25 97.226562 202.964844 97.921875 C 202.679688 98.613281 202.460938 99.324219 202.3125 100.058594 C 202.160156 100.792969 202.078125 101.535156 202.070312 102.28125 C 202.058594 103.03125 202.117188 103.773438 202.246094 104.511719 C 202.375 105.25 202.570312 105.96875 202.835938 106.667969 C 203.101562 107.371094 203.425781 108.039062 203.816406 108.679688 C 206.855469 113.464844 209.046875 118.609375 210.394531 124.113281 C 206.515625 129.117188 202.191406 133.699219 197.425781 137.867188 C 197.910156 134.65625 197.851562 131.453125 197.261719 128.261719 C 196.667969 125.070312 195.566406 122.058594 193.964844 119.234375 C 193.746094 118.894531 193.472656 118.605469 193.144531 118.371094 C 192.8125 118.136719 192.449219 117.972656 192.054688 117.878906 C 191.660156 117.789062 191.261719 117.773438 190.863281 117.839844 C 190.460938 117.90625 190.089844 118.042969 189.742188 118.257812 C 189.398438 118.46875 189.105469 118.738281 188.867188 119.066406 C 188.628906 119.390625 188.460938 119.753906 188.367188 120.144531 C 188.269531 120.539062 188.253906 120.933594 188.3125 121.335938 C 188.375 121.734375 188.511719 122.109375 188.71875 122.453125 C 189.054688 122.90625 195.929688 134.839844 187.148438 146.25 C 184.128906 148.535156 180.84375 150.796875 177.605469 153.003906 C 174.714844 147.667969 161.777344 136.894531 171.269531 134.84375 C 171.878906 134.730469 172.40625 134.457031 172.855469 134.03125 C 173.300781 133.601562 173.59375 133.082031 173.726562 132.480469 C 173.863281 131.875 173.824219 131.285156 173.601562 130.707031 C 173.382812 130.128906 173.019531 129.660156 172.519531 129.296875 C 158.28125 119.03125 157.398438 113.589844 165.160156 110.425781 C 165.402344 110.34375 165.632812 110.234375 165.851562 110.097656 C 166.066406 109.957031 166.265625 109.796875 166.441406 109.609375 C 166.617188 109.421875 166.769531 109.214844 166.894531 108.992188 C 167.019531 108.765625 167.113281 108.53125 167.179688 108.28125 C 167.246094 108.035156 167.28125 107.78125 167.285156 107.527344 C 167.285156 107.269531 167.257812 107.015625 167.199219 106.765625 C 167.136719 106.515625 167.046875 106.277344 166.929688 106.050781 C 166.808594 105.824219 166.660156 105.613281 166.488281 105.421875 C 162.6875 101.515625 160.640625 97 164.210938 92.972656 C 173.476562 83.546875 184.738281 103.261719 184.855469 104.902344 C 185.070312 105.445312 185.410156 105.890625 185.878906 106.238281 C 186.347656 106.589844 186.875 106.792969 187.457031 106.84375 C 188.039062 106.898438 188.59375 106.796875 189.117188 106.535156 C 189.640625 106.277344 190.058594 105.898438 190.367188 105.40625 C 191.9375 102.824219 193.570312 101.121094 195.21875 100.347656 C 195.582031 100.171875 195.902344 99.933594 196.171875 99.632812 C 196.445312 99.328125 196.648438 98.988281 196.785156 98.605469 C 196.921875 98.222656 196.976562 97.832031 196.957031 97.425781 C 196.9375 97.019531 196.839844 96.636719 196.667969 96.269531 C 196.492188 95.902344 196.257812 95.582031 195.957031 95.308594 C 195.65625 95.039062 195.3125 94.832031 194.933594 94.691406 C 194.550781 94.554688 194.15625 94.496094 193.75 94.511719 C 193.34375 94.527344 192.957031 94.621094 192.589844 94.792969 C 190.949219 95.59375 189.507812 96.667969 188.273438 98.007812 C 185.832031 93.828125 181.1875 87.800781 174.425781 85.214844 C 171.464844 76.808594 176.773438 74.1875 177.867188 73.75 C 178.355469 73.566406 178.769531 73.28125 179.113281 72.890625 C 179.453125 72.5 179.679688 72.050781 179.792969 71.542969 C 180.363281 68.859375 177.070312 67.222656 176 65.257812 C 173.246094 61.554688 174.167969 57.902344 175.792969 55.894531 C 182.550781 48.148438 192.882812 60.527344 193.742188 63.128906 C 193.902344 63.464844 194.117188 63.757812 194.386719 64.011719 C 194.652344 64.269531 194.957031 64.46875 195.300781 64.617188 C 195.640625 64.761719 195.996094 64.84375 196.367188 64.863281 C 196.738281 64.882812 197.097656 64.835938 197.453125 64.722656 C 197.804688 64.609375 198.128906 64.441406 198.421875 64.214844 C 198.710938 63.984375 198.957031 63.714844 199.148438 63.398438 C 199.34375 63.082031 199.476562 62.742188 199.546875 62.378906 C 199.617188 62.015625 199.621094 61.652344 199.5625 61.289062 C 198.769531 58.246094 200.117188 55.671875 201.820312 54.828125 C 202.316406 54.539062 202.84375 54.320312 203.402344 54.179688 C 203.957031 54.039062 204.523438 53.976562 205.097656 53.992188 C 205.671875 54.007812 206.234375 54.105469 206.78125 54.277344 C 207.332031 54.453125 207.84375 54.695312 208.324219 55.015625 C 211.753906 57.132812 215.019531 52.070312 211.640625 49.835938 C 205.964844 46.035156 197.628906 47.875 194.496094 53.886719 C 178.757812 37.46875 159.667969 55.152344 172.074219 70.21875 C 168.167969 73.394531 166.480469 79.074219 167.8125 84.433594 C 166.617188 84.609375 165.46875 84.9375 164.363281 85.417969 C 163.261719 85.902344 162.238281 86.519531 161.296875 87.273438 C 160.359375 88.023438 159.535156 88.886719 158.828125 89.859375 C 158.117188 90.835938 157.550781 91.882812 157.121094 93.007812 C 156.695312 94.132812 156.421875 95.292969 156.304688 96.488281 C 156.191406 97.683594 156.230469 98.875 156.433594 100.0625 C 156.636719 101.246094 156.992188 102.382812 157.496094 103.476562 C 158.003906 104.566406 158.644531 105.570312 159.421875 106.492188 C 149.941406 113.21875 153.988281 122.765625 164.828125 131.234375 C 159.335938 136.332031 161.339844 142.457031 167.4375 149.765625 C 169.304688 151.910156 171.015625 154.171875 172.566406 156.550781 C 135.90625 182.269531 57.078125 255.867188 56.8125 304.683594 L 53.894531 306.976562 C 53.269531 307.480469 52.699219 308.039062 52.191406 308.660156 C 51.683594 309.277344 51.242188 309.945312 50.875 310.65625 C 50.503906 311.367188 50.214844 312.109375 50 312.882812 C 49.789062 313.65625 49.660156 314.441406 49.609375 315.242188 C 49.5625 316.039062 49.601562 316.835938 49.722656 317.628906 C 49.839844 318.421875 50.042969 319.191406 50.324219 319.941406 C 50.609375 320.691406 50.964844 321.402344 51.398438 322.078125 C 51.832031 322.753906 52.332031 323.375 52.894531 323.945312 L 62.042969 333.074219 C 62.574219 333.597656 63.152344 334.066406 63.777344 334.476562 C 64.398438 334.890625 65.054688 335.238281 65.746094 335.519531 C 66.441406 335.804688 67.152344 336.019531 67.886719 336.164062 C 68.617188 336.308594 69.359375 336.378906 70.109375 336.378906 C 70.855469 336.378906 71.597656 336.308594 72.328125 336.164062 C 73.0625 336.019531 73.777344 335.804688 74.46875 335.519531 C 75.160156 335.238281 75.816406 334.890625 76.4375 334.476562 C 77.0625 334.066406 77.640625 333.597656 78.171875 333.074219 C 80.226562 331.003906 82.679688 328.347656 85.296875 327.054688 C 124.636719 306.066406 164.910156 274.730469 198.695312 238.820312 C 201.347656 235.914062 197.105469 231.671875 194.207031 234.621094 C 160.867188 270.054688 121.160156 300.953125 82.398438 321.636719 C 80.285156 322.765625 78.378906 324.175781 76.683594 325.867188 L 73.816406 328.726562 C 73.574219 328.96875 73.308594 329.183594 73.023438 329.375 C 72.734375 329.566406 72.433594 329.726562 72.113281 329.859375 C 71.796875 329.988281 71.46875 330.085938 71.132812 330.15625 C 70.792969 330.222656 70.453125 330.253906 70.109375 330.253906 C 69.765625 330.253906 69.421875 330.222656 69.085938 330.15625 C 68.75 330.085938 68.421875 329.988281 68.101562 329.859375 C 67.785156 329.726562 67.480469 329.566406 67.195312 329.375 C 66.910156 329.183594 66.644531 328.96875 66.402344 328.726562 L 57.25 319.601562 C 56.992188 319.339844 56.761719 319.050781 56.5625 318.742188 C 56.363281 318.429688 56.195312 318.105469 56.066406 317.757812 C 55.933594 317.414062 55.84375 317.058594 55.785156 316.695312 C 55.730469 316.332031 55.714844 315.964844 55.734375 315.597656 C 55.757812 315.226562 55.816406 314.867188 55.914062 314.511719 C 56.011719 314.15625 56.148438 313.8125 56.316406 313.488281 C 56.488281 313.160156 56.691406 312.851562 56.925781 312.570312 C 57.160156 312.285156 57.421875 312.027344 57.710938 311.796875 L 59.566406 310.335938 L 68.300781 319.046875 C 68.589844 319.335938 68.921875 319.558594 69.300781 319.714844 C 69.675781 319.867188 70.070312 319.945312 70.476562 319.945312 C 70.886719 319.945312 71.277344 319.867188 71.65625 319.714844 C 72.035156 319.558594 72.367188 319.335938 72.65625 319.046875 C 72.945312 318.757812 73.167969 318.425781 73.324219 318.050781 C 73.480469 317.675781 73.558594 317.28125 73.558594 316.875 C 73.558594 316.46875 73.480469 316.074219 73.324219 315.699219 C 73.167969 315.324219 72.945312 314.992188 72.65625 314.703125 L 62.976562 305.050781 C 66.785156 249.722656 146.976562 183.890625 171.636719 164.914062 C 185.390625 154.988281 202.117188 143.8125 211.363281 132.636719 C 211.261719 142.449219 206.832031 148.191406 206.300781 148.839844 C 199.308594 156.023438 191.742188 162.546875 183.601562 168.40625 C 138.691406 202.335938 111.816406 239.460938 99.898438 258.449219 C 94.671875 266.90625 90.558594 275.871094 87.554688 285.34375 C 86.066406 290.160156 83.855469 294.621094 80.917969 298.722656 L 73.574219 303.207031 C 73.226562 303.421875 72.933594 303.691406 72.691406 304.019531 C 72.453125 304.351562 72.285156 304.710938 72.1875 305.109375 C 72.09375 305.503906 72.078125 305.902344 72.140625 306.304688 C 72.203125 306.707031 72.34375 307.082031 72.554688 307.429688 C 72.769531 307.777344 73.042969 308.070312 73.371094 308.3125 C 73.703125 308.550781 74.066406 308.71875 74.464844 308.8125 C 74.859375 308.90625 75.261719 308.925781 75.664062 308.859375 C 76.066406 308.796875 76.441406 308.660156 76.792969 308.445312 L 84.558594 303.703125 C 123.25 282.355469 157.042969 254.773438 183.886719 229.058594 C 186.140625 227.863281 195.167969 224.152344 209.628906 231.851562 C 210.289062 232.203125 210.976562 232.496094 211.683594 232.738281 C 212.390625 232.976562 213.113281 233.160156 213.851562 233.285156 C 214.589844 233.410156 215.332031 233.472656 216.078125 233.476562 C 216.828125 233.480469 217.570312 233.425781 218.308594 233.3125 C 219.046875 233.195312 219.773438 233.023438 220.484375 232.792969 C 221.195312 232.558594 221.882812 232.273438 222.546875 231.929688 C 223.210938 231.589844 223.84375 231.195312 224.445312 230.75 C 225.042969 230.304688 225.605469 229.816406 226.125 229.28125 C 233.242188 236.761719 248.058594 246.304688 253.957031 231.089844 C 258.648438 232.382812 264.941406 230.503906 267.179688 225.21875 C 271.734375 228 276.234375 230.589844 281.378906 230.882812 C 287.054688 231.039062 292.5 226.128906 292.863281 220.457031 C 302.054688 221.746094 308.789062 210.863281 303.792969 203.140625 C 305.097656 202.175781 306.195312 201.023438 307.085938 199.671875 C 307.980469 198.320312 308.613281 196.859375 308.984375 195.285156 C 324.332031 190.675781 323.652344 171.667969 310.277344 164.191406 C 309.925781 163.984375 309.546875 163.855469 309.140625 163.796875 C 308.738281 163.742188 308.335938 163.765625 307.941406 163.867188 C 307.546875 163.96875 307.1875 164.144531 306.859375 164.390625 C 306.535156 164.632812 306.269531 164.933594 306.0625 165.285156 C 305.855469 165.636719 305.722656 166.011719 305.667969 166.414062 C 305.609375 166.820312 305.632812 167.21875 305.734375 167.613281 C 305.839844 168.007812 306.011719 168.367188 306.257812 168.691406 C 306.503906 169.015625 306.804688 169.28125 307.15625 169.488281 C 312.332031 172.523438 314.492188 176.449219 314.152344 182.21875 C 313.921875 186.164062 309.066406 189.324219 305.953125 189.675781 C 305.59375 189.71875 305.25 189.824219 304.921875 189.988281 C 304.597656 190.15625 304.3125 190.371094 304.0625 190.636719 C 303.8125 190.902344 303.617188 191.203125 303.472656 191.535156 C 303.328125 191.871094 303.246094 192.21875 303.226562 192.582031 C 303.125 193.761719 302.773438 194.863281 302.171875 195.886719 C 301.570312 196.90625 300.777344 197.75 299.796875 198.414062 C 297.980469 196.722656 295.992188 195.257812 293.835938 194.023438 C 297.746094 188.292969 294.628906 179.4375 287.941406 177.375 C 279.472656 174.59375 270.777344 173.15625 261.859375 173.058594 C 257.8125 173.066406 257.664062 179.019531 261.710938 179.199219 C 269.992188 179.28125 278.0625 180.609375 285.929688 183.179688 C 286.375 183.335938 286.789062 183.542969 287.175781 183.8125 C 287.5625 184.078125 287.90625 184.394531 288.203125 184.753906 C 288.503906 185.117188 288.746094 185.511719 288.9375 185.941406 C 289.125 186.371094 289.253906 186.816406 289.320312 187.28125 C 289.394531 187.71875 289.410156 188.15625 289.367188 188.597656 C 289.320312 189.039062 289.214844 189.464844 289.050781 189.878906 C 288.886719 190.289062 288.667969 190.671875 288.398438 191.023438 C 288.128906 191.378906 287.816406 191.6875 287.457031 191.953125 C 287.148438 192.097656 286.863281 192.289062 286.609375 192.523438 C 286.359375 192.757812 286.144531 193.023438 285.972656 193.324219 C 285.804688 193.621094 285.679688 193.9375 285.605469 194.273438 C 285.53125 194.609375 285.511719 194.949219 285.539062 195.292969 C 285.613281 195.871094 285.832031 196.386719 286.199219 196.839844 C 286.570312 197.292969 287.027344 197.613281 287.578125 197.808594 C 289.710938 198.652344 291.6875 199.769531 293.507812 201.160156 C 295.328125 202.550781 296.925781 204.160156 298.304688 205.992188 C 298.628906 206.4375 298.878906 206.921875 299.050781 207.449219 C 299.226562 207.972656 299.3125 208.511719 299.316406 209.066406 C 299.320312 209.621094 299.234375 210.160156 299.070312 210.6875 C 298.902344 211.214844 298.65625 211.703125 298.335938 212.152344 C 296.960938 214.296875 294.003906 215.265625 290.445312 213.304688 C 287.941406 211.980469 285.035156 214.898438 286.316406 217.398438 C 286.523438 217.867188 286.652344 218.355469 286.714844 218.859375 C 286.773438 219.367188 286.757812 219.871094 286.664062 220.375 C 286.574219 220.878906 286.410156 221.355469 286.175781 221.808594 C 285.941406 222.261719 285.644531 222.671875 285.289062 223.039062 C 284.945312 223.410156 284.558594 223.726562 284.125 223.984375 C 283.691406 224.246094 283.230469 224.441406 282.738281 224.570312 C 282.25 224.699219 281.753906 224.757812 281.246094 224.742188 C 280.742188 224.730469 280.246094 224.648438 279.765625 224.496094 C 275.804688 223.238281 272.160156 221.367188 268.824219 218.890625 C 269.320312 210.105469 261.328125 204.105469 255.308594 200.855469 C 255.996094 199.910156 256.460938 198.867188 256.699219 197.722656 C 269.679688 198.875 274.640625 202.433594 277.1875 202.734375 C 277.535156 202.730469 277.871094 202.671875 278.195312 202.554688 C 278.519531 202.4375 278.820312 202.269531 279.089844 202.054688 C 279.359375 201.835938 279.585938 201.582031 279.769531 201.292969 C 279.953125 201 280.082031 200.683594 280.160156 200.347656 C 280.238281 200.011719 280.257812 199.671875 280.222656 199.328125 C 280.1875 198.984375 280.09375 198.660156 279.945312 198.347656 C 279.800781 198.035156 279.605469 197.753906 279.363281 197.507812 C 279.125 197.257812 278.847656 197.058594 278.539062 196.902344 C 271.226562 193.703125 263.578125 191.898438 255.601562 191.488281 C 254.765625 190.21875 253.660156 189.257812 252.285156 188.605469 C 249.4375 187.234375 246.457031 186.265625 243.351562 185.691406 C 247.738281 179.664062 255.527344 168.8125 259.699219 162.074219 C 261.234375 161.667969 262.625 160.976562 263.871094 160.003906 C 265.121094 159.027344 266.125 157.84375 266.886719 156.457031 C 273.746094 163.175781 286.414062 169.820312 294.648438 159.296875 C 295.332031 159.667969 296.042969 159.976562 296.78125 160.222656 C 297.515625 160.46875 298.269531 160.648438 299.039062 160.761719 C 299.808594 160.871094 300.582031 160.917969 301.359375 160.890625 C 302.136719 160.867188 302.90625 160.773438 303.667969 160.613281 C 304.429688 160.453125 305.167969 160.226562 305.890625 159.933594 C 306.609375 159.640625 307.300781 159.289062 307.957031 158.875 C 308.613281 158.460938 309.230469 157.992188 309.804688 157.46875 C 310.378906 156.945312 310.902344 156.375 311.375 155.761719 C 313.1875 153.660156 315.46875 149.53125 312.464844 143.878906 C 319.003906 138.035156 316.863281 127.632812 308.640625 123.691406 C 310.292969 122.773438 311.898438 121.808594 313.4375 120.785156 C 321.53125 115.714844 323.542969 103.375 315.964844 97.183594 C 322.101562 94.007812 326.363281 87.351562 323.832031 80.792969 Z M 208.617188 100.308594 C 210.730469 94.855469 216.714844 98.402344 217.503906 93.753906 C 217.542969 93.414062 217.527344 93.078125 217.449219 92.742188 C 217.375 92.40625 217.25 92.09375 217.070312 91.800781 C 216.886719 91.511719 216.664062 91.257812 216.402344 91.039062 C 216.136719 90.820312 215.839844 90.652344 215.519531 90.53125 C 213.980469 89.960938 209.71875 87.847656 208.480469 85.003906 C 207.378906 83.070312 209.265625 79.445312 210.890625 79.195312 C 213.046875 78.417969 216.761719 79.992188 217.785156 80.632812 C 218.0625 80.792969 218.355469 80.90625 218.667969 80.976562 C 218.980469 81.046875 219.292969 81.066406 219.613281 81.039062 C 219.929688 81.011719 220.234375 80.9375 220.53125 80.8125 C 220.824219 80.691406 221.09375 80.527344 221.339844 80.324219 C 221.582031 80.117188 221.789062 79.882812 221.960938 79.613281 C 222.128906 79.34375 222.257812 79.054688 222.335938 78.746094 C 222.417969 78.441406 222.453125 78.128906 222.4375 77.808594 C 222.421875 77.492188 222.355469 77.183594 222.246094 76.886719 C 219.378906 69.578125 219.429688 65.1875 222.421875 62.207031 C 222.863281 61.730469 223.375 61.347656 223.960938 61.054688 C 224.542969 60.765625 225.15625 60.585938 225.804688 60.519531 C 226.449219 60.453125 227.089844 60.5 227.71875 60.667969 C 228.347656 60.832031 228.929688 61.101562 229.460938 61.476562 C 230.253906 62.164062 230.90625 62.972656 231.40625 63.894531 C 231.910156 64.816406 232.234375 65.800781 232.382812 66.839844 C 232.507812 67.453125 232.796875 67.980469 233.25 68.417969 C 233.699219 68.855469 234.234375 69.132812 234.851562 69.246094 C 235.472656 69.355469 236.066406 69.289062 236.644531 69.035156 C 237.21875 68.785156 237.675781 68.394531 238.011719 67.863281 C 238.664062 66.84375 242.222656 61.945312 248.4375 65.335938 C 254.523438 68.652344 248.597656 80.753906 248.539062 80.871094 C 248.34375 81.261719 248.238281 81.671875 248.21875 82.101562 C 248.199219 82.535156 248.265625 82.953125 248.417969 83.355469 C 248.574219 83.761719 248.804688 84.117188 249.105469 84.425781 C 249.410156 84.734375 249.765625 84.96875 250.167969 85.128906 C 265.574219 93.191406 256.496094 111.453125 224.210938 136.117188 C 240.703125 111.347656 239.554688 92.992188 239.484375 92.070312 C 239.449219 91.664062 239.339844 91.28125 239.15625 90.921875 C 238.96875 90.558594 238.722656 90.246094 238.414062 89.984375 C 238.105469 89.71875 237.757812 89.527344 237.371094 89.398438 C 236.984375 89.273438 236.585938 89.226562 236.183594 89.257812 C 235.777344 89.285156 235.390625 89.394531 235.027344 89.574219 C 234.664062 89.757812 234.351562 90.003906 234.085938 90.308594 C 233.820312 90.617188 233.621094 90.960938 233.492188 91.347656 C 233.363281 91.730469 233.3125 92.125 233.339844 92.53125 C 233.355469 92.746094 234.367188 110.882812 217.445312 135.085938 C 218.019531 127.335938 216.34375 117.304688 209.070312 105.480469 C 208.585938 104.703125 208.304688 103.859375 208.226562 102.949219 C 208.144531 102.039062 208.277344 101.160156 208.617188 100.308594 Z M 246.113281 159.605469 C 248.363281 160.082031 250.554688 160.757812 252.683594 161.636719 C 247.421875 169.683594 238.957031 181.296875 236.140625 185.128906 C 231.667969 185.261719 227.351562 186.140625 223.183594 187.765625 C 233.75 175.597656 241.53125 165.671875 246.113281 159.605469 Z M 250.679688 196.457031 C 250.636719 196.6875 250.550781 196.902344 250.421875 197.097656 C 250.296875 197.296875 250.136719 197.460938 249.941406 197.597656 C 249.75 197.730469 249.539062 197.824219 249.308594 197.875 C 249.078125 197.925781 248.847656 197.933594 248.617188 197.894531 C 244.761719 196.863281 243.175781 202.492188 246.902344 203.789062 C 247.078125 203.847656 264.316406 210.050781 262.554688 219.597656 C 262.054688 222.296875 261.058594 224.042969 259.597656 224.796875 C 257.4375 225.910156 254.285156 224.910156 253.265625 224.433594 C 253.058594 224.335938 252.84375 224.261719 252.617188 224.210938 C 252.394531 224.160156 252.167969 224.136719 251.941406 224.132812 C 251.710938 224.132812 251.484375 224.160156 251.261719 224.210938 C 251.035156 224.257812 250.820312 224.332031 250.613281 224.433594 C 250.40625 224.53125 250.214844 224.648438 250.035156 224.789062 C 249.851562 224.933594 249.691406 225.089844 249.546875 225.269531 C 249.402344 225.445312 249.277344 225.636719 249.175781 225.84375 C 249.074219 226.046875 248.996094 226.261719 248.941406 226.484375 C 248.296875 229.132812 247.035156 232.414062 244.675781 232.976562 C 239.96875 234.101562 231.5 226.351562 228.136719 222.425781 C 227.523438 221.707031 226.742188 221.351562 225.796875 221.351562 C 225.167969 221.355469 224.59375 221.53125 224.070312 221.878906 C 223.550781 222.230469 223.167969 222.695312 222.929688 223.273438 C 222.691406 223.71875 222.414062 224.136719 222.09375 224.527344 C 221.777344 224.917969 221.421875 225.269531 221.03125 225.59375 C 220.644531 225.914062 220.226562 226.191406 219.78125 226.429688 C 219.335938 226.667969 218.871094 226.859375 218.390625 227.007812 C 217.90625 227.152344 217.414062 227.253906 216.910156 227.300781 C 216.410156 227.351562 215.90625 227.351562 215.402344 227.300781 C 214.902344 227.253906 214.410156 227.15625 213.925781 227.007812 C 213.441406 226.863281 212.976562 226.667969 212.535156 226.429688 C 205.363281 222.613281 199.210938 221.214844 194.222656 221.015625 C 213.859375 208.554688 230 212.089844 230.792969 212.277344 C 231.183594 212.355469 231.574219 212.355469 231.964844 212.285156 C 232.355469 212.210938 232.71875 212.066406 233.054688 211.851562 C 233.390625 211.640625 233.671875 211.371094 233.902344 211.046875 C 234.136719 210.726562 234.296875 210.371094 234.390625 209.984375 C 234.484375 209.597656 234.5 209.210938 234.441406 208.816406 C 234.382812 208.425781 234.253906 208.058594 234.054688 207.714844 C 233.855469 207.371094 233.597656 207.082031 233.28125 206.835938 C 232.96875 206.59375 232.617188 206.417969 232.234375 206.3125 C 231.511719 206.136719 219.46875 203.390625 203.367188 209.542969 C 218.878906 193.101562 234.410156 187.199219 249.609375 194.136719 C 249.824219 194.234375 250.011719 194.367188 250.179688 194.535156 C 250.34375 194.699219 250.476562 194.890625 250.574219 195.101562 C 250.671875 195.316406 250.730469 195.539062 250.75 195.773438 C 250.765625 196.003906 250.742188 196.234375 250.679688 196.460938 Z M 310.082031 136.402344 C 309.46875 138.929688 306.828125 140.539062 306.824219 140.542969 C 306.632812 140.652344 306.457031 140.78125 306.296875 140.925781 C 306.136719 141.074219 305.992188 141.234375 305.863281 141.414062 C 305.738281 141.589844 305.628906 141.777344 305.542969 141.980469 C 305.457031 142.179688 305.390625 142.386719 305.351562 142.597656 C 305.308594 142.8125 305.289062 143.027344 305.292969 143.246094 C 305.292969 143.464844 305.320312 143.679688 305.371094 143.890625 C 305.417969 144.101562 305.492188 144.308594 305.582031 144.503906 C 305.675781 144.703125 305.789062 144.886719 305.921875 145.058594 C 309.007812 149.097656 307.460938 150.886719 306.714844 151.75 C 303.128906 156.269531 298.347656 154.890625 295.890625 152.792969 C 295.722656 152.644531 295.535156 152.515625 295.339844 152.40625 C 295.140625 152.292969 294.929688 152.207031 294.714844 152.144531 C 294.496094 152.082031 294.273438 152.042969 294.046875 152.027344 C 293.820312 152.011719 293.59375 152.019531 293.371094 152.054688 C 293.144531 152.089844 292.925781 152.148438 292.714844 152.230469 C 292.503906 152.3125 292.304688 152.414062 292.117188 152.542969 C 291.925781 152.667969 291.753906 152.8125 291.597656 152.976562 C 291.441406 153.140625 291.304688 153.320312 291.1875 153.511719 C 289.253906 156.757812 287.03125 158.445312 284.390625 158.667969 C 278.320312 159.171875 270.894531 152.113281 268.546875 149.351562 C 268.378906 149.160156 268.191406 148.988281 267.980469 148.839844 C 267.769531 148.695312 267.546875 148.574219 267.304688 148.484375 C 267.066406 148.390625 266.816406 148.332031 266.5625 148.300781 C 266.308594 148.269531 266.050781 148.273438 265.796875 148.304688 C 265.542969 148.339844 265.296875 148.402344 265.058594 148.496094 C 264.816406 148.59375 264.59375 148.714844 264.386719 148.863281 C 264.175781 149.015625 263.992188 149.1875 263.824219 149.382812 C 263.660156 149.578125 263.523438 149.792969 263.410156 150.023438 C 261.6875 153.777344 259.339844 157.667969 254.722656 155.847656 C 252.636719 154.964844 250.488281 154.273438 248.277344 153.773438 C 246.070312 153.269531 243.832031 152.964844 241.566406 152.859375 C 239.304688 152.753906 237.046875 152.84375 234.800781 153.136719 C 232.554688 153.429688 230.351562 153.917969 228.1875 154.597656 C 245.386719 138.414062 269.699219 132.785156 283.375 135.953125 C 283.773438 136.050781 284.171875 136.070312 284.578125 136.007812 C 284.980469 135.949219 285.355469 135.8125 285.707031 135.601562 C 286.058594 135.390625 286.351562 135.121094 286.59375 134.792969 C 286.835938 134.464844 287.007812 134.105469 287.105469 133.707031 C 287.203125 133.3125 287.222656 132.914062 287.160156 132.511719 C 287.101562 132.109375 286.964844 131.730469 286.753906 131.382812 C 286.542969 131.035156 286.273438 130.738281 285.945312 130.496094 C 285.613281 130.253906 285.253906 130.085938 284.855469 129.988281 C 262.527344 125.941406 232.964844 135.050781 209.726562 165.554688 C 206.546875 169.519531 203.296875 173.464844 200.074219 177.277344 C 199.8125 177.589844 199.617188 177.9375 199.496094 178.324219 C 199.371094 178.714844 199.324219 179.109375 199.359375 179.515625 C 199.394531 179.921875 199.507812 180.304688 199.695312 180.667969 C 199.882812 181.03125 200.132812 181.34375 200.445312 181.605469 C 200.757812 181.867188 201.105469 182.058594 201.496094 182.183594 C 201.886719 182.308594 202.28125 182.351562 202.691406 182.316406 C 203.097656 182.28125 203.480469 182.171875 203.84375 181.984375 C 204.207031 181.796875 204.519531 181.546875 204.78125 181.238281 C 208.007812 177.421875 211.257812 173.476562 214.4375 169.507812 C 215.496094 168.441406 225.023438 159.210938 238.890625 158.925781 C 226.824219 174.488281 214.007812 189.414062 200.4375 203.691406 L 179.378906 224.695312 C 179.203125 224.882812 179.050781 225.085938 178.917969 225.308594 C 154.808594 248.328125 125.105469 272.785156 91.324219 292.753906 C 94.136719 285.722656 96.515625 277.539062 99.953125 271.007812 C 128.285156 256.070312 157.222656 232.921875 186.074219 202.242188 C 186.351562 201.945312 186.5625 201.605469 186.707031 201.226562 C 186.851562 200.84375 186.917969 200.449219 186.90625 200.042969 C 186.890625 199.636719 186.800781 199.246094 186.632812 198.875 C 186.464844 198.503906 186.230469 198.179688 185.933594 197.902344 C 185.632812 197.625 185.292969 197.414062 184.910156 197.269531 C 184.53125 197.125 184.132812 197.058594 183.726562 197.074219 C 183.316406 197.085938 182.929688 197.175781 182.554688 197.34375 C 182.183594 197.511719 181.859375 197.746094 181.578125 198.042969 C 156.152344 225.097656 130.675781 246.136719 105.726562 260.75 C 117.714844 241.851562 143.777344 206.257812 187.152344 173.417969 C 195.5625 167.382812 203.375 160.65625 210.589844 153.242188 C 222.933594 145.195312 234.582031 136.253906 245.539062 126.417969 C 245.941406 126.175781 246.304688 125.878906 246.621094 125.535156 C 260.171875 114.664062 267.671875 114.6875 281.230469 115.761719 C 286.957031 116.21875 290.558594 117.824219 291.375 120.28125 C 291.679688 121.214844 292.109375 122.089844 292.660156 122.902344 C 293.214844 123.71875 293.871094 124.4375 294.628906 125.066406 C 295.386719 125.695312 296.21875 126.203125 297.121094 126.597656 C 298.027344 126.992188 298.964844 127.25 299.945312 127.378906 C 305.941406 128.222656 310.832031 131.140625 310.082031 136.402344 Z M 310.082031 136.402344 "/>
</g>
<path style=" stroke:none;fill-rule:nonzero;fill:rgb(0%,0%,0%);fill-opacity:1;" d="M 244.683594 215.886719 C 245.09375 215.882812 245.488281 215.800781 245.867188 215.640625 C 246.25 215.484375 246.582031 215.257812 246.875 214.96875 C 247.164062 214.679688 247.390625 214.34375 247.546875 213.964844 C 247.707031 213.585938 247.789062 213.191406 247.789062 212.78125 C 247.792969 212.371094 247.71875 211.976562 247.566406 211.59375 C 247.410156 211.214844 247.191406 210.878906 246.90625 210.582031 C 246.617188 210.289062 246.285156 210.058594 245.910156 209.894531 C 245.53125 209.730469 245.136719 209.644531 244.726562 209.636719 C 244.316406 209.640625 243.917969 209.71875 243.539062 209.878906 C 243.160156 210.039062 242.824219 210.261719 242.535156 210.550781 C 242.246094 210.84375 242.019531 211.175781 241.859375 211.554688 C 241.703125 211.933594 241.621094 212.328125 241.617188 212.738281 C 241.617188 213.148438 241.691406 213.542969 241.84375 213.925781 C 241.996094 214.304688 242.21875 214.644531 242.503906 214.9375 C 242.789062 215.234375 243.121094 215.460938 243.5 215.625 C 243.875 215.789062 244.269531 215.875 244.683594 215.886719 Z M 244.683594 215.886719 "/>
<path style=" stroke:none;fill-rule:nonzero;fill:rgb(0%,0%,0%);fill-opacity:1;" d="M 193.152344 186.585938 C 192.742188 186.589844 192.347656 186.671875 191.96875 186.828125 C 191.589844 186.988281 191.253906 187.210938 190.960938 187.503906 C 190.671875 187.792969 190.445312 188.128906 190.289062 188.507812 C 190.128906 188.882812 190.050781 189.277344 190.046875 189.691406 C 190.042969 190.101562 190.117188 190.496094 190.273438 190.875 C 190.425781 191.257812 190.644531 191.59375 190.933594 191.890625 C 191.21875 192.183594 191.550781 192.414062 191.929688 192.578125 C 192.304688 192.738281 192.699219 192.828125 193.109375 192.835938 C 193.523438 192.832031 193.917969 192.75 194.296875 192.59375 C 194.675781 192.433594 195.011719 192.210938 195.300781 191.917969 C 195.59375 191.628906 195.816406 191.292969 195.976562 190.914062 C 196.136719 190.535156 196.214844 190.140625 196.21875 189.730469 C 196.222656 189.320312 196.144531 188.925781 195.992188 188.546875 C 195.839844 188.164062 195.621094 187.828125 195.332031 187.53125 C 195.046875 187.238281 194.714844 187.007812 194.335938 186.84375 C 193.960938 186.679688 193.566406 186.59375 193.152344 186.585938 Z M 193.152344 186.585938 "/>
</g>
</svg>
