<?xml version="1.0" encoding="UTF-8"?>
<svg xmlns="http://www.w3.org/2000/svg" xmlns:xlink="http://www.w3.org/1999/xlink" width="375pt" height="374.999991pt" viewBox="0 0 375 374.999991" version="1.2">
<defs>
<clipPath id="clip1">
  <path d="M 49.3125 47 L 325 47 L 325 337 L 49.3125 337 Z M 49.3125 47 "/>
</clipPath>
</defs>
<g id="surface1">
<g clip-path="url(#clip1)" clip-rule="nonzero">
<path style=" stroke:none;fill-rule:nonzero;fill:rgb(100%,100%,100%);fill-opacity:1;" d="M 323.460938 80.792969 C 320.554688 73.078125 312.515625 73.578125 305.933594 75.136719 C 306.371094 74.148438 306.65625 73.121094 306.78125 72.050781 C 306.910156 70.980469 306.878906 69.917969 306.683594 68.855469 C 306.488281 67.796875 306.144531 66.789062 305.644531 65.832031 C 305.148438 64.875 304.519531 64.015625 303.757812 63.246094 C 303 62.480469 302.144531 61.84375 301.195312 61.332031 C 300.242188 60.824219 299.238281 60.46875 298.175781 60.261719 C 297.117188 60.054688 296.050781 60.011719 294.980469 60.125 C 293.90625 60.242188 292.875 60.511719 291.882812 60.9375 C 288.808594 62.105469 285.90625 63.597656 283.167969 65.414062 C 280.355469 59.808594 272.375 59.328125 267.953125 63.742188 C 266.175781 65.417969 264.5 67.1875 262.921875 69.050781 C 262.652344 69.363281 262.457031 69.710938 262.328125 70.101562 C 262.199219 70.492188 262.152344 70.890625 262.183594 71.300781 C 262.214844 71.707031 262.324219 72.09375 262.511719 72.460938 C 262.699219 72.824219 262.949219 73.140625 263.261719 73.40625 C 263.574219 73.667969 263.925781 73.863281 264.320312 73.988281 C 264.710938 74.113281 265.109375 74.15625 265.519531 74.121094 C 265.929688 74.085938 266.316406 73.972656 266.679688 73.78125 C 267.042969 73.589844 267.355469 73.335938 267.617188 73.019531 C 269.046875 71.332031 270.5625 69.726562 272.171875 68.207031 C 274.375 66.214844 277.523438 66.425781 277.949219 69.101562 C 278.011719 69.617188 278.027344 70.132812 277.996094 70.652344 C 277.964844 71.277344 278.109375 71.855469 278.429688 72.390625 C 278.75 72.925781 279.191406 73.328125 279.753906 73.59375 C 280.320312 73.863281 280.910156 73.953125 281.527344 73.867188 C 282.144531 73.777344 282.6875 73.523438 283.152344 73.109375 C 286.414062 70.339844 290.042969 68.199219 294.046875 66.691406 C 298.617188 64.824219 302.25 69.15625 299.953125 73.460938 C 298.96875 75.507812 297.769531 77.417969 296.351562 79.191406 C 294.167969 81.824219 297.546875 85.578125 300.40625 83.710938 C 300.453125 83.679688 305.351562 80.628906 313.464844 80.316406 C 313.914062 80.261719 314.363281 80.285156 314.804688 80.382812 C 315.246094 80.480469 315.660156 80.648438 316.042969 80.890625 C 316.429688 81.128906 316.761719 81.425781 317.046875 81.777344 C 317.328125 82.128906 317.546875 82.519531 317.695312 82.949219 C 319.683594 88 313.09375 92.167969 308.71875 93.628906 C 308.15625 93.839844 307.691406 94.183594 307.324219 94.660156 C 306.960938 95.140625 306.753906 95.679688 306.703125 96.277344 C 306.652344 96.878906 306.765625 97.445312 307.046875 97.976562 C 307.328125 98.511719 307.730469 98.925781 308.253906 99.226562 C 309.777344 100.171875 311.148438 101.304688 312.363281 102.625 C 315.972656 106.398438 313.9375 113 309.667969 115.679688 C 306.5 117.777344 303.175781 119.59375 299.695312 121.121094 C 299.027344 120.914062 298.449219 120.566406 297.953125 120.078125 C 297.457031 119.589844 297.097656 119.015625 296.882812 118.351562 C 295.722656 114.84375 292.09375 110.488281 281.398438 109.640625 C 275.777344 109.191406 270.964844 108.917969 266.285156 109.464844 C 278.625 101.464844 286.789062 99.710938 286.910156 99.6875 C 287.308594 99.609375 287.679688 99.457031 288.019531 99.230469 C 288.359375 99.003906 288.640625 98.722656 288.867188 98.386719 C 289.09375 98.046875 289.25 97.675781 289.328125 97.277344 C 289.410156 96.878906 289.410156 96.480469 289.328125 96.078125 C 289.25 95.679688 289.097656 95.3125 288.871094 94.972656 C 288.644531 94.632812 288.363281 94.351562 288.023438 94.125 C 287.6875 93.898438 287.316406 93.742188 286.917969 93.664062 C 286.515625 93.582031 286.117188 93.582031 285.714844 93.664062 C 285.152344 93.773438 275.363281 95.804688 260.9375 105.609375 C 265.746094 95.519531 262.792969 85.632812 254.984375 80.910156 C 257.660156 74.15625 259.046875 64.269531 251.117188 59.941406 C 244.933594 56.566406 239.792969 58.058594 236.351562 60.5625 C 236.140625 60.160156 235.90625 59.773438 235.652344 59.398438 C 235.394531 59.019531 235.117188 58.664062 234.816406 58.320312 C 234.519531 57.976562 234.199219 57.652344 233.863281 57.347656 C 233.527344 57.042969 233.171875 56.761719 232.800781 56.496094 C 232.429688 56.234375 232.042969 55.992188 231.644531 55.777344 C 231.246094 55.558594 230.835938 55.363281 230.414062 55.195312 C 229.992188 55.027344 229.558594 54.882812 229.121094 54.765625 C 228.679688 54.644531 228.234375 54.554688 227.785156 54.488281 C 227.335938 54.421875 226.882812 54.382812 226.429688 54.371094 C 225.972656 54.359375 225.519531 54.371094 225.066406 54.414062 C 224.613281 54.453125 224.164062 54.523438 223.71875 54.617188 C 223.273438 54.710938 222.835938 54.832031 222.40625 54.976562 C 221.972656 55.121094 221.554688 55.292969 221.144531 55.488281 C 220.730469 55.683594 220.335938 55.902344 219.949219 56.144531 C 219.566406 56.390625 219.195312 56.652344 218.84375 56.9375 C 218.488281 57.226562 218.152344 57.53125 217.835938 57.855469 C 213.367188 62.320312 213.160156 67.839844 214.34375 73.027344 C 202.789062 70.863281 197.074219 85.730469 206.878906 92.722656 C 206.269531 93.160156 205.707031 93.648438 205.1875 94.1875 C 204.667969 94.726562 204.203125 95.3125 203.796875 95.941406 C 203.386719 96.566406 203.039062 97.226562 202.757812 97.921875 C 202.472656 98.613281 202.253906 99.324219 202.105469 100.058594 C 201.953125 100.792969 201.871094 101.535156 201.863281 102.28125 C 201.851562 103.03125 201.910156 103.773438 202.039062 104.511719 C 202.167969 105.25 202.363281 105.96875 202.628906 106.667969 C 202.890625 107.371094 203.21875 108.039062 203.609375 108.679688 C 206.644531 113.464844 208.832031 118.609375 210.175781 124.113281 C 206.300781 129.117188 201.984375 133.699219 197.226562 137.867188 C 197.707031 134.65625 197.652344 131.453125 197.058594 128.261719 C 196.46875 125.070312 195.371094 122.058594 193.769531 119.234375 C 193.550781 118.894531 193.277344 118.605469 192.949219 118.371094 C 192.617188 118.136719 192.257812 117.972656 191.863281 117.878906 C 191.46875 117.789062 191.070312 117.777344 190.671875 117.839844 C 190.269531 117.90625 189.898438 118.042969 189.554688 118.257812 C 189.207031 118.46875 188.917969 118.738281 188.679688 119.066406 C 188.441406 119.390625 188.273438 119.753906 188.175781 120.144531 C 188.082031 120.539062 188.0625 120.933594 188.125 121.335938 C 188.1875 121.734375 188.320312 122.109375 188.53125 122.453125 C 188.867188 122.90625 195.730469 134.839844 186.964844 146.25 C 183.945312 148.535156 180.664062 150.796875 177.429688 153.003906 C 174.542969 147.671875 161.625 136.894531 171.105469 134.84375 C 171.714844 134.730469 172.242188 134.457031 172.6875 134.03125 C 173.132812 133.601562 173.425781 133.085938 173.558594 132.480469 C 173.695312 131.878906 173.652344 131.285156 173.433594 130.707031 C 173.214844 130.128906 172.855469 129.660156 172.351562 129.296875 C 158.132812 119.03125 157.253906 113.589844 165 110.425781 C 165.246094 110.34375 165.476562 110.234375 165.691406 110.097656 C 165.910156 109.957031 166.105469 109.796875 166.28125 109.609375 C 166.457031 109.421875 166.609375 109.214844 166.734375 108.992188 C 166.859375 108.765625 166.953125 108.53125 167.019531 108.28125 C 167.085938 108.035156 167.121094 107.78125 167.125 107.527344 C 167.125 107.269531 167.097656 107.015625 167.039062 106.765625 C 166.976562 106.515625 166.886719 106.277344 166.769531 106.050781 C 166.648438 105.824219 166.503906 105.613281 166.332031 105.421875 C 162.535156 101.515625 160.492188 97 164.054688 92.972656 C 173.308594 83.546875 184.554688 103.261719 184.671875 104.902344 C 184.886719 105.445312 185.226562 105.890625 185.695312 106.238281 C 186.164062 106.589844 186.6875 106.792969 187.269531 106.84375 C 187.851562 106.898438 188.402344 106.796875 188.925781 106.535156 C 189.449219 106.277344 189.867188 105.902344 190.175781 105.40625 C 191.746094 102.824219 193.375 101.125 195.019531 100.347656 C 195.386719 100.171875 195.703125 99.933594 195.976562 99.632812 C 196.246094 99.328125 196.449219 98.988281 196.585938 98.605469 C 196.71875 98.222656 196.777344 97.832031 196.757812 97.425781 C 196.738281 97.019531 196.640625 96.636719 196.46875 96.269531 C 196.292969 95.902344 196.058594 95.582031 195.757812 95.308594 C 195.457031 95.039062 195.117188 94.832031 194.734375 94.695312 C 194.355469 94.554688 193.960938 94.496094 193.554688 94.511719 C 193.148438 94.527344 192.761719 94.621094 192.394531 94.792969 C 190.757812 95.59375 189.320312 96.667969 188.082031 98.007812 C 185.648438 93.828125 181.007812 87.800781 174.257812 85.214844 C 171.300781 76.808594 176.601562 74.1875 177.695312 73.75 C 178.179688 73.570312 178.59375 73.28125 178.9375 72.890625 C 179.277344 72.5 179.503906 72.050781 179.617188 71.542969 C 180.183594 68.859375 176.898438 67.222656 175.828125 65.257812 C 173.082031 61.554688 174 57.902344 175.621094 55.894531 C 182.371094 48.148438 192.6875 60.527344 193.546875 63.128906 C 193.707031 63.464844 193.921875 63.757812 194.191406 64.011719 C 194.457031 64.269531 194.761719 64.46875 195.101562 64.617188 C 195.441406 64.761719 195.796875 64.84375 196.167969 64.863281 C 196.535156 64.882812 196.898438 64.835938 197.25 64.722656 C 197.605469 64.609375 197.925781 64.441406 198.21875 64.214844 C 198.511719 63.984375 198.753906 63.714844 198.945312 63.398438 C 199.140625 63.082031 199.273438 62.742188 199.34375 62.378906 C 199.414062 62.015625 199.417969 61.652344 199.359375 61.289062 C 198.566406 58.246094 199.914062 55.671875 201.613281 54.828125 C 202.109375 54.539062 202.636719 54.320312 203.191406 54.179688 C 203.75 54.039062 204.3125 53.976562 204.886719 53.992188 C 205.460938 54.007812 206.023438 54.105469 206.570312 54.277344 C 207.117188 54.453125 207.628906 54.699219 208.105469 55.015625 C 211.535156 57.132812 214.796875 52.070312 211.417969 49.839844 C 205.753906 46.035156 197.429688 47.875 194.300781 53.886719 C 178.582031 37.46875 159.515625 55.15625 171.910156 70.21875 C 168.003906 73.394531 166.324219 79.074219 167.652344 84.433594 C 166.460938 84.609375 165.3125 84.9375 164.210938 85.417969 C 163.105469 85.902344 162.085938 86.519531 161.148438 87.273438 C 160.207031 88.023438 159.386719 88.886719 158.679688 89.863281 C 157.972656 90.835938 157.402344 91.882812 156.976562 93.007812 C 156.550781 94.132812 156.277344 95.292969 156.160156 96.488281 C 156.042969 97.683594 156.085938 98.875 156.289062 100.0625 C 156.492188 101.246094 156.84375 102.386719 157.351562 103.476562 C 157.859375 104.566406 158.5 105.570312 159.273438 106.492188 C 149.804688 113.21875 153.84375 122.765625 164.671875 131.234375 C 159.1875 136.332031 161.191406 142.457031 167.277344 149.765625 C 169.144531 151.910156 170.851562 154.171875 172.398438 156.550781 C 135.789062 182.269531 57.066406 255.867188 56.800781 304.683594 L 53.890625 306.976562 C 53.261719 307.480469 52.695312 308.039062 52.1875 308.660156 C 51.679688 309.277344 51.238281 309.945312 50.871094 310.65625 C 50.503906 311.367188 50.210938 312.109375 50 312.882812 C 49.789062 313.65625 49.65625 314.441406 49.609375 315.242188 C 49.5625 316.039062 49.601562 316.835938 49.71875 317.628906 C 49.839844 318.421875 50.042969 319.191406 50.324219 319.941406 C 50.605469 320.691406 50.964844 321.402344 51.394531 322.078125 C 51.828125 322.753906 52.324219 323.375 52.890625 323.945312 L 62.027344 333.074219 C 62.558594 333.597656 63.132812 334.066406 63.757812 334.476562 C 64.378906 334.890625 65.035156 335.238281 65.726562 335.519531 C 66.417969 335.804688 67.128906 336.019531 67.859375 336.164062 C 68.59375 336.308594 69.332031 336.378906 70.078125 336.378906 C 70.824219 336.378906 71.566406 336.308594 72.296875 336.164062 C 73.03125 336.019531 73.742188 335.804688 74.433594 335.519531 C 75.125 335.238281 75.78125 334.890625 76.402344 334.476562 C 77.023438 334.066406 77.601562 333.597656 78.132812 333.074219 C 80.183594 331.003906 82.632812 328.347656 85.25 327.054688 C 124.535156 306.066406 164.753906 274.730469 198.496094 238.820312 C 201.144531 235.914062 196.90625 231.671875 194.007812 234.621094 C 160.714844 270.054688 121.0625 300.957031 82.351562 321.636719 C 80.242188 322.765625 78.339844 324.175781 76.648438 325.867188 L 73.785156 328.726562 C 73.539062 328.96875 73.273438 329.183594 72.988281 329.375 C 72.703125 329.566406 72.402344 329.726562 72.085938 329.859375 C 71.765625 329.988281 71.4375 330.089844 71.101562 330.15625 C 70.765625 330.222656 70.425781 330.253906 70.082031 330.253906 C 69.738281 330.253906 69.394531 330.222656 69.058594 330.15625 C 68.722656 330.089844 68.394531 329.988281 68.078125 329.859375 C 67.757812 329.726562 67.457031 329.566406 67.171875 329.375 C 66.886719 329.183594 66.621094 328.96875 66.378906 328.726562 L 57.238281 319.601562 C 56.980469 319.339844 56.75 319.050781 56.550781 318.742188 C 56.351562 318.429688 56.1875 318.105469 56.058594 317.757812 C 55.925781 317.414062 55.832031 317.058594 55.777344 316.695312 C 55.722656 316.332031 55.707031 315.964844 55.726562 315.597656 C 55.75 315.226562 55.808594 314.867188 55.90625 314.511719 C 56.003906 314.15625 56.136719 313.8125 56.308594 313.488281 C 56.476562 313.160156 56.679688 312.855469 56.914062 312.570312 C 57.148438 312.285156 57.410156 312.027344 57.699219 311.796875 L 59.554688 310.335938 L 68.273438 319.046875 C 68.5625 319.335938 68.894531 319.558594 69.273438 319.714844 C 69.648438 319.867188 70.042969 319.945312 70.449219 319.945312 C 70.855469 319.945312 71.25 319.867188 71.625 319.714844 C 72.003906 319.558594 72.335938 319.335938 72.625 319.046875 C 72.914062 318.757812 73.136719 318.425781 73.292969 318.050781 C 73.445312 317.675781 73.523438 317.28125 73.523438 316.875 C 73.523438 316.46875 73.445312 316.074219 73.292969 315.699219 C 73.136719 315.324219 72.914062 314.992188 72.625 314.703125 L 62.960938 305.050781 C 66.761719 249.722656 146.84375 183.890625 171.472656 164.914062 C 185.207031 154.988281 201.910156 143.8125 211.144531 132.636719 C 211.042969 142.449219 206.617188 148.191406 206.089844 148.839844 C 199.105469 156.023438 191.546875 162.546875 183.417969 168.40625 C 138.570312 202.335938 111.730469 239.460938 99.832031 258.449219 C 94.613281 266.90625 90.503906 275.871094 87.503906 285.34375 C 86.015625 290.160156 83.808594 294.621094 80.875 298.722656 L 73.542969 303.207031 C 73.195312 303.421875 72.898438 303.691406 72.660156 304.019531 C 72.421875 304.351562 72.253906 304.714844 72.15625 305.109375 C 72.0625 305.503906 72.046875 305.902344 72.109375 306.304688 C 72.171875 306.707031 72.3125 307.082031 72.523438 307.429688 C 72.738281 307.777344 73.007812 308.070312 73.339844 308.3125 C 73.667969 308.550781 74.03125 308.71875 74.429688 308.8125 C 74.824219 308.910156 75.226562 308.925781 75.628906 308.859375 C 76.03125 308.796875 76.40625 308.660156 76.753906 308.445312 L 84.511719 303.703125 C 123.148438 282.355469 156.898438 254.773438 183.703125 229.058594 C 185.957031 227.863281 194.972656 224.152344 209.414062 231.851562 C 210.074219 232.203125 210.757812 232.496094 211.460938 232.738281 C 212.167969 232.976562 212.890625 233.160156 213.628906 233.285156 C 214.363281 233.410156 215.105469 233.472656 215.851562 233.476562 C 216.597656 233.480469 217.339844 233.425781 218.078125 233.3125 C 218.816406 233.195312 219.542969 233.023438 220.25 232.792969 C 220.960938 232.558594 221.648438 232.273438 222.3125 231.929688 C 222.976562 231.589844 223.605469 231.195312 224.207031 230.75 C 224.804688 230.304688 225.367188 229.816406 225.886719 229.28125 C 232.992188 236.761719 247.789062 246.304688 253.679688 231.089844 C 258.363281 232.382812 264.648438 230.503906 266.886719 225.21875 C 271.433594 228 275.925781 230.589844 281.066406 230.882812 C 286.734375 231.039062 292.171875 226.128906 292.53125 220.457031 C 301.714844 221.746094 308.4375 210.863281 303.449219 203.140625 C 304.75 202.175781 305.847656 201.023438 306.738281 199.671875 C 307.628906 198.320312 308.261719 196.859375 308.632812 195.285156 C 323.957031 190.675781 323.28125 171.667969 309.921875 164.191406 C 309.570312 163.984375 309.195312 163.855469 308.789062 163.796875 C 308.386719 163.742188 307.988281 163.765625 307.59375 163.867188 C 307.195312 163.96875 306.835938 164.144531 306.511719 164.390625 C 306.1875 164.632812 305.921875 164.933594 305.714844 165.285156 C 305.507812 165.636719 305.375 166.011719 305.320312 166.414062 C 305.261719 166.820312 305.285156 167.21875 305.386719 167.613281 C 305.492188 168.007812 305.664062 168.367188 305.910156 168.691406 C 306.15625 169.015625 306.453125 169.28125 306.804688 169.488281 C 311.976562 172.523438 314.132812 176.449219 313.796875 182.21875 C 313.566406 186.164062 308.714844 189.324219 305.605469 189.675781 C 305.246094 189.71875 304.902344 189.824219 304.578125 189.988281 C 304.253906 190.15625 303.964844 190.371094 303.714844 190.636719 C 303.46875 190.902344 303.273438 191.203125 303.128906 191.535156 C 302.984375 191.871094 302.902344 192.21875 302.882812 192.585938 C 302.78125 193.765625 302.429688 194.863281 301.828125 195.886719 C 301.226562 196.90625 300.4375 197.75 299.457031 198.414062 C 297.644531 196.722656 295.660156 195.257812 293.503906 194.023438 C 297.410156 188.292969 294.296875 179.4375 287.617188 177.375 C 279.160156 174.59375 270.476562 173.15625 261.574219 173.058594 C 257.53125 173.066406 257.378906 179.019531 261.425781 179.203125 C 269.691406 179.28125 277.753906 180.609375 285.609375 183.179688 C 286.054688 183.335938 286.46875 183.542969 286.855469 183.8125 C 287.238281 184.078125 287.582031 184.394531 287.878906 184.753906 C 288.179688 185.117188 288.421875 185.511719 288.613281 185.941406 C 288.800781 186.371094 288.929688 186.816406 288.996094 187.28125 C 289.070312 187.71875 289.085938 188.15625 289.039062 188.597656 C 288.996094 189.039062 288.890625 189.464844 288.726562 189.878906 C 288.5625 190.289062 288.34375 190.671875 288.074219 191.023438 C 287.804688 191.378906 287.492188 191.6875 287.136719 191.953125 C 286.824219 192.097656 286.542969 192.289062 286.289062 192.523438 C 286.035156 192.757812 285.824219 193.023438 285.652344 193.324219 C 285.484375 193.621094 285.359375 193.9375 285.285156 194.273438 C 285.210938 194.609375 285.191406 194.949219 285.21875 195.292969 C 285.292969 195.871094 285.511719 196.386719 285.878906 196.839844 C 286.246094 197.292969 286.707031 197.617188 287.257812 197.808594 C 289.386719 198.652344 291.359375 199.769531 293.175781 201.160156 C 294.996094 202.550781 296.59375 204.160156 297.964844 205.992188 C 298.292969 206.4375 298.539062 206.921875 298.714844 207.449219 C 298.886719 207.972656 298.972656 208.511719 298.976562 209.066406 C 298.980469 209.621094 298.898438 210.160156 298.730469 210.6875 C 298.5625 211.214844 298.320312 211.703125 298 212.152344 C 296.625 214.296875 293.671875 215.265625 290.121094 213.304688 C 287.621094 211.980469 284.714844 214.898438 285.996094 217.398438 C 286.199219 217.867188 286.332031 218.355469 286.390625 218.863281 C 286.449219 219.367188 286.433594 219.871094 286.34375 220.375 C 286.25 220.878906 286.089844 221.355469 285.855469 221.808594 C 285.621094 222.261719 285.324219 222.671875 284.96875 223.039062 C 284.625 223.410156 284.238281 223.726562 283.804688 223.984375 C 283.371094 224.246094 282.910156 224.441406 282.421875 224.570312 C 281.933594 224.699219 281.4375 224.757812 280.933594 224.742188 C 280.425781 224.730469 279.933594 224.648438 279.453125 224.496094 C 275.5 223.238281 271.855469 221.367188 268.527344 218.890625 C 269.023438 210.105469 261.042969 204.105469 255.03125 200.855469 C 255.714844 199.910156 256.179688 198.867188 256.417969 197.722656 C 269.378906 198.875 274.335938 202.433594 276.878906 202.734375 C 277.222656 202.730469 277.558594 202.671875 277.886719 202.554688 C 278.210938 202.4375 278.507812 202.269531 278.777344 202.054688 C 279.046875 201.839844 279.273438 201.582031 279.457031 201.292969 C 279.640625 201 279.769531 200.683594 279.847656 200.347656 C 279.925781 200.011719 279.945312 199.671875 279.910156 199.328125 C 279.875 198.984375 279.78125 198.660156 279.632812 198.347656 C 279.488281 198.035156 279.292969 197.753906 279.054688 197.507812 C 278.8125 197.257812 278.539062 197.058594 278.230469 196.902344 C 270.925781 193.703125 263.289062 191.898438 255.324219 191.488281 C 254.488281 190.21875 253.382812 189.257812 252.007812 188.605469 C 249.164062 187.234375 246.191406 186.265625 243.085938 185.691406 C 247.46875 179.664062 255.246094 168.8125 259.414062 162.074219 C 260.945312 161.667969 262.335938 160.976562 263.582031 160.003906 C 264.828125 159.027344 265.832031 157.84375 266.59375 156.457031 C 273.441406 163.175781 286.089844 169.820312 294.316406 159.296875 C 295 159.667969 295.707031 159.976562 296.445312 160.222656 C 297.179688 160.46875 297.933594 160.648438 298.703125 160.761719 C 299.46875 160.871094 300.242188 160.917969 301.019531 160.890625 C 301.796875 160.867188 302.5625 160.773438 303.324219 160.613281 C 304.082031 160.453125 304.824219 160.226562 305.542969 159.933594 C 306.261719 159.640625 306.949219 159.289062 307.605469 158.875 C 308.261719 158.460938 308.878906 157.992188 309.453125 157.46875 C 310.023438 156.945312 310.546875 156.375 311.019531 155.761719 C 312.832031 153.664062 315.109375 149.53125 312.105469 143.878906 C 318.636719 138.035156 316.5 127.632812 308.289062 123.691406 C 309.9375 122.773438 311.542969 121.808594 313.078125 120.785156 C 321.164062 115.714844 323.171875 103.375 315.605469 97.183594 C 321.734375 94.007812 325.988281 87.351562 323.460938 80.792969 Z M 208.402344 100.3125 C 210.511719 94.855469 216.488281 98.402344 217.277344 93.753906 C 217.316406 93.414062 217.296875 93.078125 217.222656 92.742188 C 217.148438 92.40625 217.019531 92.09375 216.839844 91.804688 C 216.660156 91.511719 216.4375 91.257812 216.175781 91.039062 C 215.910156 90.820312 215.617188 90.652344 215.292969 90.53125 C 213.757812 89.960938 209.5 87.847656 208.265625 85.003906 C 207.167969 83.070312 209.046875 79.445312 210.671875 79.195312 C 212.824219 78.417969 216.535156 79.992188 217.558594 80.632812 C 217.835938 80.792969 218.128906 80.90625 218.4375 80.976562 C 218.75 81.046875 219.0625 81.066406 219.382812 81.039062 C 219.699219 81.011719 220.003906 80.9375 220.296875 80.8125 C 220.59375 80.691406 220.863281 80.527344 221.105469 80.324219 C 221.347656 80.117188 221.554688 79.882812 221.726562 79.613281 C 221.894531 79.34375 222.023438 79.054688 222.101562 78.746094 C 222.183594 78.441406 222.21875 78.128906 222.203125 77.808594 C 222.1875 77.492188 222.121094 77.183594 222.011719 76.886719 C 219.148438 69.578125 219.199219 65.1875 222.1875 62.207031 C 222.628906 61.730469 223.140625 61.347656 223.722656 61.054688 C 224.304688 60.765625 224.917969 60.585938 225.5625 60.519531 C 226.210938 60.453125 226.847656 60.5 227.476562 60.667969 C 228.105469 60.832031 228.6875 61.101562 229.214844 61.476562 C 230.011719 62.164062 230.660156 62.972656 231.160156 63.894531 C 231.664062 64.816406 231.988281 65.800781 232.132812 66.839844 C 232.261719 67.453125 232.550781 67.980469 233 68.417969 C 233.449219 68.855469 233.980469 69.132812 234.601562 69.246094 C 235.21875 69.359375 235.816406 69.289062 236.390625 69.035156 C 236.964844 68.785156 237.421875 68.394531 237.757812 67.863281 C 238.40625 66.84375 241.960938 61.945312 248.167969 65.335938 C 254.246094 68.652344 248.328125 80.753906 248.269531 80.871094 C 248.074219 81.261719 247.96875 81.671875 247.949219 82.101562 C 247.929688 82.535156 247.996094 82.953125 248.148438 83.355469 C 248.304688 83.761719 248.53125 84.117188 248.835938 84.425781 C 249.140625 84.734375 249.492188 84.96875 249.894531 85.128906 C 265.28125 93.191406 256.214844 111.453125 223.976562 136.117188 C 240.445312 111.347656 239.296875 92.992188 239.226562 92.070312 C 239.191406 91.664062 239.082031 91.28125 238.898438 90.921875 C 238.714844 90.558594 238.464844 90.246094 238.15625 89.984375 C 237.847656 89.71875 237.5 89.527344 237.113281 89.398438 C 236.730469 89.273438 236.332031 89.226562 235.929688 89.257812 C 235.523438 89.285156 235.140625 89.394531 234.777344 89.574219 C 234.414062 89.757812 234.101562 90.003906 233.835938 90.308594 C 233.570312 90.617188 233.371094 90.960938 233.242188 91.347656 C 233.113281 91.730469 233.0625 92.125 233.09375 92.53125 C 233.105469 92.746094 234.117188 110.882812 217.21875 135.085938 C 217.792969 127.335938 216.117188 117.304688 208.855469 105.480469 C 208.371094 104.703125 208.089844 103.859375 208.011719 102.949219 C 207.929688 102.039062 208.0625 101.160156 208.402344 100.3125 Z M 245.847656 159.605469 C 248.09375 160.082031 250.28125 160.757812 252.40625 161.636719 C 247.152344 169.683594 238.699219 181.296875 235.886719 185.128906 C 231.421875 185.261719 227.109375 186.140625 222.949219 187.765625 C 233.5 175.597656 241.269531 165.671875 245.847656 159.605469 Z M 250.40625 196.457031 C 250.363281 196.6875 250.277344 196.902344 250.148438 197.097656 C 250.023438 197.296875 249.863281 197.460938 249.671875 197.597656 C 249.476562 197.730469 249.265625 197.824219 249.039062 197.875 C 248.808594 197.925781 248.578125 197.933594 248.347656 197.894531 C 244.5 196.863281 242.914062 202.492188 246.636719 203.789062 C 246.8125 203.847656 264.023438 210.050781 262.265625 219.597656 C 261.765625 222.296875 260.769531 224.046875 259.3125 224.796875 C 257.15625 225.910156 254.003906 224.910156 252.988281 224.433594 C 252.78125 224.335938 252.566406 224.261719 252.34375 224.210938 C 252.121094 224.160156 251.894531 224.136719 251.664062 224.132812 C 251.4375 224.132812 251.210938 224.160156 250.988281 224.210938 C 250.761719 224.257812 250.546875 224.332031 250.339844 224.433594 C 250.132812 224.53125 249.941406 224.648438 249.761719 224.789062 C 249.582031 224.933594 249.417969 225.089844 249.273438 225.269531 C 249.128906 225.445312 249.007812 225.636719 248.90625 225.84375 C 248.804688 226.046875 248.726562 226.261719 248.671875 226.484375 C 248.027344 229.132812 246.765625 232.414062 244.410156 232.976562 C 239.710938 234.101562 231.253906 226.351562 227.894531 222.425781 C 227.28125 221.707031 226.5 221.351562 225.558594 221.351562 C 224.929688 221.355469 224.355469 221.53125 223.835938 221.878906 C 223.3125 222.230469 222.933594 222.695312 222.695312 223.273438 C 222.457031 223.71875 222.179688 224.136719 221.863281 224.527344 C 221.542969 224.917969 221.1875 225.273438 220.800781 225.59375 C 220.410156 225.914062 219.996094 226.191406 219.550781 226.429688 C 219.105469 226.667969 218.644531 226.859375 218.160156 227.007812 C 217.679688 227.15625 217.1875 227.253906 216.683594 227.300781 C 216.183594 227.351562 215.679688 227.351562 215.179688 227.300781 C 214.675781 227.253906 214.183594 227.15625 213.703125 227.007812 C 213.21875 226.863281 212.757812 226.667969 212.3125 226.433594 C 205.152344 222.613281 199.007812 221.214844 194.027344 221.015625 C 213.636719 208.554688 229.753906 212.089844 230.546875 212.277344 C 230.9375 212.355469 231.328125 212.355469 231.71875 212.285156 C 232.109375 212.210938 232.472656 212.066406 232.804688 211.851562 C 233.140625 211.640625 233.421875 211.371094 233.652344 211.046875 C 233.882812 210.726562 234.046875 210.371094 234.140625 209.984375 C 234.230469 209.597656 234.25 209.210938 234.191406 208.816406 C 234.132812 208.425781 234.003906 208.058594 233.804688 207.714844 C 233.605469 207.371094 233.347656 207.082031 233.03125 206.835938 C 232.71875 206.59375 232.371094 206.417969 231.988281 206.3125 C 231.265625 206.136719 219.238281 203.390625 203.15625 209.542969 C 218.648438 193.101562 234.160156 187.199219 249.339844 194.136719 C 249.550781 194.234375 249.742188 194.367188 249.90625 194.535156 C 250.074219 194.699219 250.203125 194.890625 250.300781 195.101562 C 250.398438 195.316406 250.457031 195.539062 250.476562 195.773438 C 250.492188 196.003906 250.472656 196.234375 250.40625 196.460938 Z M 309.730469 136.402344 C 309.117188 138.929688 306.480469 140.539062 306.472656 140.542969 C 306.285156 140.652344 306.109375 140.78125 305.949219 140.925781 C 305.789062 141.074219 305.644531 141.234375 305.515625 141.414062 C 305.390625 141.589844 305.285156 141.777344 305.195312 141.980469 C 305.109375 142.179688 305.046875 142.386719 305.003906 142.597656 C 304.960938 142.8125 304.941406 143.027344 304.945312 143.246094 C 304.949219 143.464844 304.972656 143.679688 305.023438 143.890625 C 305.074219 144.101562 305.144531 144.308594 305.234375 144.503906 C 305.328125 144.703125 305.441406 144.886719 305.574219 145.058594 C 308.65625 149.097656 307.109375 150.886719 306.363281 151.75 C 302.78125 156.269531 298.007812 154.890625 295.558594 152.792969 C 295.386719 152.644531 295.203125 152.515625 295.003906 152.40625 C 294.804688 152.296875 294.597656 152.207031 294.378906 152.144531 C 294.164062 152.082031 293.941406 152.042969 293.714844 152.027344 C 293.488281 152.011719 293.261719 152.019531 293.039062 152.054688 C 292.816406 152.089844 292.597656 152.148438 292.386719 152.230469 C 292.175781 152.3125 291.976562 152.414062 291.785156 152.542969 C 291.597656 152.667969 291.425781 152.8125 291.269531 152.976562 C 291.113281 153.140625 290.976562 153.320312 290.859375 153.511719 C 288.929688 156.757812 286.710938 158.445312 284.070312 158.667969 C 278.007812 159.171875 270.59375 152.113281 268.25 149.351562 C 268.082031 149.160156 267.894531 148.988281 267.683594 148.839844 C 267.472656 148.695312 267.25 148.574219 267.011719 148.484375 C 266.769531 148.390625 266.523438 148.332031 266.269531 148.300781 C 266.011719 148.269531 265.757812 148.273438 265.503906 148.304688 C 265.25 148.339844 265.003906 148.402344 264.765625 148.496094 C 264.527344 148.59375 264.300781 148.714844 264.09375 148.863281 C 263.886719 149.015625 263.699219 149.1875 263.535156 149.382812 C 263.371094 149.578125 263.230469 149.792969 263.121094 150.023438 C 261.398438 153.777344 259.054688 157.667969 254.445312 155.847656 C 252.363281 154.964844 250.214844 154.273438 248.007812 153.773438 C 245.800781 153.269531 243.570312 152.964844 241.308594 152.859375 C 239.046875 152.753906 236.792969 152.847656 234.550781 153.136719 C 232.304688 153.429688 230.105469 153.917969 227.945312 154.597656 C 245.121094 138.414062 269.402344 132.785156 283.058594 135.953125 C 283.453125 136.050781 283.855469 136.070312 284.257812 136.007812 C 284.660156 135.949219 285.039062 135.8125 285.386719 135.601562 C 285.734375 135.390625 286.03125 135.121094 286.273438 134.792969 C 286.515625 134.464844 286.6875 134.105469 286.785156 133.707031 C 286.882812 133.3125 286.898438 132.914062 286.839844 132.511719 C 286.777344 132.109375 286.640625 131.730469 286.433594 131.382812 C 286.222656 131.035156 285.953125 130.738281 285.625 130.496094 C 285.292969 130.253906 284.933594 130.085938 284.535156 129.988281 C 262.238281 125.941406 232.714844 135.050781 209.507812 165.554688 C 206.332031 169.519531 203.089844 173.464844 199.871094 177.277344 C 199.609375 177.589844 199.414062 177.9375 199.289062 178.324219 C 199.167969 178.714844 199.121094 179.109375 199.15625 179.515625 C 199.191406 179.921875 199.304688 180.304688 199.488281 180.667969 C 199.675781 181.03125 199.925781 181.34375 200.238281 181.605469 C 200.550781 181.867188 200.902344 182.058594 201.289062 182.183594 C 201.679688 182.308594 202.074219 182.351562 202.480469 182.316406 C 202.886719 182.28125 203.273438 182.171875 203.632812 181.984375 C 203.996094 181.796875 204.308594 181.546875 204.574219 181.238281 C 207.792969 177.421875 211.039062 173.476562 214.214844 169.507812 C 215.269531 168.441406 224.785156 159.210938 238.632812 158.925781 C 226.585938 174.488281 213.785156 189.414062 200.234375 203.695312 L 179.203125 224.695312 C 179.027344 224.882812 178.875 225.085938 178.742188 225.308594 C 154.667969 248.328125 125.003906 272.785156 91.265625 292.753906 C 94.074219 285.722656 96.453125 277.539062 99.886719 271.007812 C 128.175781 256.070312 157.074219 232.921875 185.886719 202.242188 C 186.167969 201.945312 186.378906 201.605469 186.523438 201.226562 C 186.664062 200.84375 186.730469 200.449219 186.71875 200.042969 C 186.703125 199.636719 186.613281 199.246094 186.445312 198.875 C 186.277344 198.503906 186.042969 198.179688 185.746094 197.902344 C 185.449219 197.625 185.109375 197.414062 184.726562 197.269531 C 184.347656 197.125 183.953125 197.058594 183.542969 197.074219 C 183.136719 197.085938 182.746094 197.175781 182.375 197.34375 C 182.003906 197.511719 181.679688 197.746094 181.398438 198.042969 C 156.007812 225.097656 130.566406 246.136719 105.652344 260.75 C 117.621094 241.851562 143.648438 206.257812 186.96875 173.417969 C 195.367188 167.382812 203.167969 160.65625 210.375 153.242188 C 222.699219 145.195312 234.332031 136.253906 245.273438 126.417969 C 245.675781 126.175781 246.039062 125.878906 246.355469 125.535156 C 259.886719 114.664062 267.375 114.6875 280.914062 115.761719 C 286.636719 116.21875 290.234375 117.824219 291.046875 120.28125 C 291.351562 121.214844 291.777344 122.089844 292.332031 122.902344 C 292.882812 123.71875 293.539062 124.4375 294.296875 125.066406 C 295.054688 125.695312 295.882812 126.203125 296.785156 126.597656 C 297.6875 126.992188 298.628906 127.25 299.605469 127.378906 C 305.59375 128.222656 310.480469 131.140625 309.730469 136.402344 Z M 309.730469 136.402344 "/>
</g>
<path style=" stroke:none;fill-rule:nonzero;fill:rgb(100%,100%,100%);fill-opacity:1;" d="M 244.417969 215.886719 C 244.828125 215.882812 245.222656 215.800781 245.601562 215.640625 C 245.980469 215.484375 246.316406 215.257812 246.605469 214.96875 C 246.898438 214.679688 247.121094 214.34375 247.28125 213.964844 C 247.4375 213.585938 247.519531 213.191406 247.523438 212.78125 C 247.523438 212.371094 247.449219 211.976562 247.296875 211.59375 C 247.144531 211.214844 246.921875 210.878906 246.636719 210.582031 C 246.351562 210.289062 246.019531 210.058594 245.644531 209.894531 C 245.265625 209.730469 244.871094 209.644531 244.460938 209.636719 C 244.050781 209.640625 243.65625 209.71875 243.277344 209.878906 C 242.898438 210.039062 242.5625 210.261719 242.273438 210.550781 C 241.984375 210.84375 241.757812 211.175781 241.601562 211.554688 C 241.441406 211.933594 241.359375 212.328125 241.359375 212.738281 C 241.355469 213.148438 241.429688 213.542969 241.582031 213.925781 C 241.734375 214.304688 241.957031 214.644531 242.242188 214.9375 C 242.527344 215.234375 242.859375 215.460938 243.238281 215.625 C 243.613281 215.789062 244.007812 215.875 244.417969 215.886719 Z M 244.417969 215.886719 "/>
<path style=" stroke:none;fill-rule:nonzero;fill:rgb(100%,100%,100%);fill-opacity:1;" d="M 192.960938 186.585938 C 192.546875 186.589844 192.152344 186.671875 191.773438 186.828125 C 191.394531 186.988281 191.0625 187.210938 190.769531 187.503906 C 190.480469 187.792969 190.257812 188.128906 190.097656 188.507812 C 189.9375 188.886719 189.859375 189.28125 189.855469 189.691406 C 189.851562 190.101562 189.929688 190.496094 190.082031 190.875 C 190.234375 191.257812 190.453125 191.59375 190.742188 191.890625 C 191.027344 192.183594 191.359375 192.414062 191.734375 192.578125 C 192.113281 192.742188 192.503906 192.828125 192.917969 192.835938 C 193.328125 192.832031 193.722656 192.75 194.101562 192.59375 C 194.480469 192.433594 194.816406 192.210938 195.105469 191.917969 C 195.394531 191.628906 195.621094 191.292969 195.777344 190.914062 C 195.9375 190.535156 196.015625 190.140625 196.019531 189.730469 C 196.023438 189.320312 195.949219 188.925781 195.792969 188.546875 C 195.640625 188.164062 195.421875 187.828125 195.136719 187.53125 C 194.847656 187.238281 194.515625 187.007812 194.140625 186.84375 C 193.765625 186.679688 193.371094 186.59375 192.960938 186.585938 Z M 192.960938 186.585938 "/>
</g>
</svg>
