<?xml version="1.0" encoding="UTF-8"?>
<svg xmlns="http://www.w3.org/2000/svg" xmlns:xlink="http://www.w3.org/1999/xlink" width="375pt" height="374.999991pt" viewBox="0 0 375 374.999991" version="1.2">
<defs>
<clipPath id="clip1">
  <path d="M 66.9375 38 L 308.4375 38 L 308.4375 337 L 66.9375 337 Z M 66.9375 38 "/>
</clipPath>
</defs>
<g id="surface1">
<path style=" stroke:none;fill-rule:nonzero;fill:rgb(0%,0%,0%);fill-opacity:1;" d="M 152.898438 61.683594 L 152.898438 61.6875 L 152.898438 61.683594 L 152.894531 61.683594 L 152.898438 61.6875 "/>
<path style=" stroke:none;fill-rule:nonzero;fill:rgb(0%,0%,0%);fill-opacity:1;" d="M 153.054688 61.714844 L 153.054688 61.71875 C 153.054688 61.714844 153.054688 61.714844 153.054688 61.714844 L 153.058594 61.714844 C 153.058594 61.714844 153.0625 61.71875 153.0625 61.71875 L 153.066406 61.71875 C 153.066406 61.71875 153.070312 61.71875 153.070312 61.71875 L 153.082031 61.71875 L 153.074219 61.722656 L 153.074219 61.71875 L 153.074219 61.722656 C 153.070312 61.722656 153.066406 61.71875 153.0625 61.71875 C 153.058594 61.71875 153.058594 61.71875 153.058594 61.71875 C 153.054688 61.71875 153.054688 61.71875 153.054688 61.71875 C 153.050781 61.714844 153.050781 61.714844 153.050781 61.714844 L 153.046875 61.714844 L 153.054688 61.714844 "/>
<path style=" stroke:none;fill-rule:nonzero;fill:rgb(0%,0%,0%);fill-opacity:1;" d="M 153.082031 61.722656 L 153.09375 61.722656 C 153.09375 61.722656 153.097656 61.722656 153.101562 61.726562 C 153.097656 61.726562 153.09375 61.726562 153.09375 61.726562 L 153.089844 61.726562 L 153.085938 61.722656 L 153.078125 61.722656 C 153.074219 61.722656 153.074219 61.722656 153.074219 61.722656 L 153.082031 61.722656 "/>
<path style=" stroke:none;fill-rule:nonzero;fill:rgb(0%,0%,0%);fill-opacity:1;" d="M 253.019531 181.914062 L 253.019531 181.917969 L 252.851562 182.085938 L 252.855469 182.085938 C 252.835938 182.160156 252.8125 182.238281 252.785156 182.3125 C 252.765625 182.371094 252.734375 182.449219 252.695312 182.546875 C 252.617188 182.730469 252.539062 182.890625 252.460938 183.019531 L 252.621094 182.769531 L 252.761719 182.519531 L 252.882812 182.273438 L 252.988281 182.027344 L 253.027344 181.914062 L 253.019531 181.917969 "/>
<path style=" stroke:none;fill-rule:nonzero;fill:rgb(0%,0%,0%);fill-opacity:1;" d="M 213.105469 194.4375 L 213.046875 194.484375 C 212.691406 194.773438 212.355469 194.992188 212.042969 195.136719 C 211.933594 195.195312 211.757812 195.253906 211.527344 195.308594 C 211.398438 195.332031 211.269531 195.34375 211.140625 195.335938 C 210.90625 195.601562 210.710938 195.832031 210.554688 196.027344 C 210.894531 196.023438 211.238281 196.023438 211.578125 196.023438 L 213.109375 194.4375 L 213.105469 194.441406 Z M 213.105469 194.4375 "/>
<path style=" stroke:none;fill-rule:nonzero;fill:rgb(0%,0%,0%);fill-opacity:1;" d="M 215.917969 190.160156 L 215.921875 190.175781 C 215.949219 190.433594 215.933594 190.683594 215.878906 190.921875 C 215.851562 191.039062 215.8125 191.152344 215.765625 191.257812 L 215.6875 191.414062 C 215.628906 191.515625 215.5625 191.613281 215.484375 191.703125 C 215.480469 191.71875 215.320312 191.882812 215 192.195312 C 215.007812 192.203125 214.902344 192.367188 214.679688 192.6875 C 214.597656 192.8125 214.457031 193 214.253906 193.257812 C 215.144531 192.335938 216.035156 191.414062 216.925781 190.492188 L 215.917969 190.160156 "/>
<path style=" stroke:none;fill-rule:nonzero;fill:rgb(0%,0%,0%);fill-opacity:1;" d="M 171.460938 178.589844 L 171.457031 196.023438 L 161.421875 196.023438 L 152.4375 186.773438 C 153.722656 186.582031 157.296875 185.332031 163.167969 183.03125 C 163.976562 182.695312 164.972656 182.214844 166.152344 181.59375 C 166.933594 181.203125 168.703125 180.203125 171.460938 178.589844 M 177.320312 135.210938 L 177.273438 135.226562 C 175.148438 135.171875 174.066406 135.371094 174.027344 135.828125 C 173.371094 136.246094 172.519531 137.675781 171.46875 140.117188 L 171.464844 165.863281 C 168.972656 167.996094 166.109375 169.890625 162.871094 171.539062 C 157.292969 174.433594 150.949219 176.558594 143.84375 177.914062 L 128.214844 161.8125 C 124.832031 160.195312 122.117188 160.785156 120.074219 163.582031 L 133.84375 178.457031 L 137.875 183.746094 C 140.210938 186.167969 148.628906 193.617188 163.125 206.097656 L 164.03125 206.613281 L 181.449219 206.507812 C 181.644531 205.957031 181.804688 201.226562 181.933594 192.3125 L 181.878906 146.003906 C 181.84375 144.84375 181.46875 141.25 180.761719 135.226562 Z M 177.320312 135.210938 "/>
<path style=" stroke:none;fill-rule:nonzero;fill:rgb(0%,0%,0%);fill-opacity:1;" d="M 152.933594 61.691406 L 152.9375 61.691406 L 152.953125 61.695312 L 152.957031 61.695312 C 152.984375 61.699219 153.011719 61.707031 153.039062 61.710938 L 153.03125 61.714844 L 153.027344 61.714844 L 153.027344 61.710938 L 153.023438 61.714844 L 153.023438 61.710938 L 153.027344 61.714844 L 153.023438 61.710938 L 153.023438 61.714844 C 153.019531 61.710938 153.015625 61.710938 153.011719 61.710938 L 152.960938 61.699219 C 152.960938 61.699219 152.960938 61.699219 152.957031 61.699219 C 152.949219 61.695312 152.941406 61.695312 152.933594 61.691406 C 152.933594 61.691406 152.933594 61.695312 152.933594 61.695312 L 152.933594 61.691406 "/>
<path style=" stroke:none;fill-rule:nonzero;fill:rgb(0%,0%,0%);fill-opacity:1;" d="M 220.914062 201.621094 L 220.910156 201.625 C 220.84375 201.707031 220.785156 201.792969 220.726562 201.882812 C 220.691406 201.933594 220.652344 201.996094 220.609375 202.074219 C 220.601562 202.085938 220.589844 202.109375 220.570312 202.140625 L 220.578125 202.144531 C 220.613281 202.078125 220.65625 202.003906 220.707031 201.925781 C 220.761719 201.839844 220.832031 201.738281 220.917969 201.621094 L 220.914062 201.621094 "/>
<path style=" stroke:none;fill-rule:nonzero;fill:rgb(0%,0%,0%);fill-opacity:1;" d="M 203.980469 181.828125 L 204.109375 181.832031 C 204.40625 181.863281 204.671875 181.96875 204.898438 182.144531 L 205.097656 182.316406 C 205.367188 182.714844 205.535156 182.945312 205.601562 183.007812 L 206.179688 183.488281 L 206.570312 183.722656 C 206.875 183.6875 207.148438 183.722656 207.386719 183.824219 C 207.40625 183.820312 207.589844 183.933594 207.933594 184.175781 C 208.667969 184.65625 209.410156 185.292969 210.167969 186.078125 L 213.660156 187.714844 C 214.007812 187.988281 214.230469 188.25 214.324219 188.5 C 214.566406 188.535156 214.90625 188.734375 215.351562 189.097656 C 215.640625 189.410156 215.808594 189.664062 215.859375 189.851562 C 216.003906 190.394531 215.941406 190.929688 215.664062 191.460938 C 215.59375 191.597656 215.371094 191.84375 215 192.195312 C 214.839844 192.488281 214.527344 192.917969 214.0625 193.492188 C 213.960938 193.621094 213.707031 193.878906 213.3125 194.261719 C 212.378906 195.054688 211.652344 195.410156 211.140625 195.335938 C 210.609375 196 210.269531 196.367188 210.121094 196.441406 C 209.964844 196.546875 209.707031 196.617188 209.347656 196.65625 C 209.3125 196.71875 209.085938 196.828125 208.664062 196.984375 C 208.5 197.042969 208.242188 197.097656 207.902344 197.15625 C 207.304688 197.097656 206.394531 197.042969 205.175781 197 C 204.691406 196.933594 204.292969 196.851562 203.984375 196.75 C 203.121094 196.304688 202.625 195.878906 202.492188 195.46875 C 202.394531 195.054688 202.34375 194.808594 202.34375 194.734375 L 202.320312 190.746094 C 201.890625 189.5625 201.722656 187.996094 201.824219 186.054688 C 202.007812 185.164062 202.175781 184.730469 202.320312 184.753906 C 202.144531 184.449219 202.105469 184.078125 202.199219 183.636719 L 202.683594 182.527344 C 202.886719 182.152344 203.320312 181.917969 203.980469 181.828125 M 192.542969 135.304688 L 192.566406 196.023438 C 192.429688 195.644531 192.304688 195.796875 192.203125 196.484375 L 191.945312 206.503906 L 208.957031 206.503906 L 208.957031 206.816406 C 210.175781 206.601562 211.984375 206.710938 214.390625 207.144531 L 215.90625 205.707031 C 217.578125 204.105469 219.316406 202.554688 221.113281 201.0625 C 221.976562 200.386719 222.414062 200.164062 222.433594 200.390625 L 232.386719 190.101562 L 237.078125 184.90625 C 237.375 183.671875 237.734375 182.847656 238.148438 182.445312 C 238.507812 182.027344 239.125 181.632812 239.996094 181.261719 C 247.511719 172.652344 252.207031 167.457031 254.082031 165.679688 L 250.628906 162.355469 L 249.730469 161.824219 C 247.703125 161.277344 246.15625 161.28125 245.097656 161.835938 L 243.496094 162.992188 L 225.261719 181.863281 C 219.425781 180.117188 215.3125 178.652344 212.917969 177.476562 C 210.550781 176.339844 207.257812 174.1875 203.039062 171.023438 L 202.992188 139.296875 L 202.710938 138.570312 C 201.761719 137.207031 200.820312 136.207031 199.882812 135.570312 Z M 192.542969 135.304688 "/>
<path style=" stroke:none;fill-rule:nonzero;fill:rgb(0%,0%,0%);fill-opacity:1;" d="M 220.40625 202.488281 L 220.402344 202.488281 L 220.402344 202.492188 L 220.40625 202.488281 L 220.40625 202.492188 L 220.40625 202.488281 L 220.40625 202.492188 L 220.40625 202.488281 L 220.40625 202.492188 L 220.40625 202.488281 "/>
<path style=" stroke:none;fill-rule:nonzero;fill:rgb(0%,0%,0%);fill-opacity:1;" d="M 220.957031 201.574219 L 220.953125 201.574219 L 220.953125 201.578125 L 220.953125 201.574219 L 220.953125 201.578125 L 220.953125 201.574219 L 220.953125 201.578125 L 220.957031 201.578125 L 220.957031 201.574219 "/>
<path style=" stroke:none;fill-rule:nonzero;fill:rgb(0%,0%,0%);fill-opacity:1;" d="M 277.882812 185.371094 L 277.847656 185.402344 C 277.621094 185.621094 277.398438 185.859375 277.183594 186.109375 C 277.273438 186.035156 277.359375 185.957031 277.4375 185.878906 C 277.515625 185.808594 277.597656 185.71875 277.6875 185.617188 C 277.734375 185.5625 277.777344 185.511719 277.816406 185.464844 L 277.886719 185.371094 L 277.882812 185.371094 "/>
<path style=" stroke:none;fill-rule:nonzero;fill:rgb(0%,0%,0%);fill-opacity:1;" d="M 263.800781 87.515625 L 263.796875 87.515625 C 263.875 87.535156 263.949219 87.550781 264.027344 87.570312 C 264.011719 87.5625 263.992188 87.554688 263.972656 87.546875 L 263.949219 87.539062 L 263.921875 87.53125 L 263.898438 87.527344 L 263.871094 87.519531 L 263.847656 87.519531 L 263.824219 87.515625 L 263.800781 87.515625 "/>
<path style=" stroke:none;fill-rule:nonzero;fill:rgb(0%,0%,0%);fill-opacity:1;" d="M 278.039062 185.210938 L 278.027344 185.226562 C 277.984375 185.265625 277.945312 185.304688 277.902344 185.347656 L 277.9375 185.320312 C 277.960938 185.296875 277.976562 185.28125 277.984375 185.277344 C 278.003906 185.253906 278.027344 185.234375 278.046875 185.210938 L 278.039062 185.214844 "/>
<path style=" stroke:none;fill-rule:nonzero;fill:rgb(0%,0%,0%);fill-opacity:1;" d="M 220.507812 202.261719 L 220.507812 202.265625 L 220.511719 202.261719 L 220.511719 202.265625 L 220.511719 202.261719 L 220.507812 202.261719 "/>
<path style=" stroke:none;fill-rule:nonzero;fill:rgb(0%,0%,0%);fill-opacity:1;" d="M 220.949219 201.574219 L 220.949219 201.578125 L 220.949219 201.574219 L 220.949219 201.578125 L 220.949219 201.574219 L 220.953125 201.578125 L 220.949219 201.574219 "/>
<path style=" stroke:none;fill-rule:nonzero;fill:rgb(0%,0%,0%);fill-opacity:1;" d="M 264.121094 87.5625 L 264.109375 87.5625 C 264.085938 87.5625 264.0625 87.570312 264.042969 87.582031 L 264.347656 87.652344 C 264.328125 87.640625 264.308594 87.628906 264.289062 87.617188 C 264.273438 87.605469 264.253906 87.597656 264.238281 87.589844 L 264.210938 87.578125 L 264.1875 87.570312 L 264.140625 87.5625 L 264.121094 87.5625 "/>
<path style=" stroke:none;fill-rule:nonzero;fill:rgb(0%,0%,0%);fill-opacity:1;" d="M 264.398438 87.640625 L 264.394531 87.640625 C 264.378906 87.640625 264.363281 87.644531 264.351562 87.65625 L 264.527344 87.695312 L 264.503906 87.679688 C 264.492188 87.671875 264.480469 87.664062 264.464844 87.65625 C 264.441406 87.644531 264.417969 87.640625 264.398438 87.640625 "/>
<path style=" stroke:none;fill-rule:nonzero;fill:rgb(0%,0%,0%);fill-opacity:1;" d="M 264.574219 87.671875 L 264.570312 87.671875 C 264.554688 87.671875 264.542969 87.683594 264.535156 87.699219 C 264.585938 87.710938 264.636719 87.722656 264.6875 87.734375 C 264.664062 87.714844 264.644531 87.703125 264.628906 87.691406 L 264.617188 87.683594 L 264.59375 87.675781 L 264.585938 87.671875 L 264.574219 87.671875 "/>
<path style=" stroke:none;fill-rule:nonzero;fill:rgb(0%,0%,0%);fill-opacity:1;" d="M 278.230469 185.054688 L 278.214844 185.066406 C 278.175781 185.097656 278.132812 185.128906 278.089844 185.164062 C 278.113281 185.152344 278.132812 185.136719 278.15625 185.121094 C 278.179688 185.105469 278.199219 185.089844 278.222656 185.070312 L 278.238281 185.054688 L 278.230469 185.058594 "/>
<g clip-path="url(#clip1)" clip-rule="nonzero">
<path style=" stroke:none;fill-rule:nonzero;fill:rgb(0%,0%,0%);fill-opacity:1;" d="M 220.953125 201.574219 L 220.953125 201.574219 M 220.949219 201.574219 L 220.949219 201.578125 L 220.949219 201.574219 M 186.324219 48.773438 L 189.773438 48.894531 C 193.464844 48.414062 200.0625 50.339844 209.566406 54.671875 C 221.847656 64.089844 228.246094 70.457031 228.757812 73.769531 C 242.355469 72.964844 253.792969 76.1875 263.070312 83.4375 C 264.035156 84.242188 265.332031 85.847656 266.953125 88.257812 L 264.691406 87.746094 C 265.449219 88.542969 268.132812 93.398438 272.742188 102.316406 C 281.535156 107.683594 288.570312 114.363281 293.839844 122.351562 C 295.386719 124.402344 296.675781 131.113281 297.710938 142.488281 C 291.757812 159.980469 285.933594 169.683594 280.238281 171.597656 C 279.894531 179.476562 279.234375 183.957031 278.257812 185.039062 C 279.246094 184.066406 279.382812 185.105469 278.667969 188.164062 C 276.917969 192.746094 275.273438 196.007812 273.738281 197.957031 C 260.242188 206.839844 250.886719 208.921875 245.671875 204.214844 L 265.53125 183.65625 L 267.097656 179.113281 L 262.160156 174.0625 L 255.757812 179.328125 C 231.800781 205.765625 216.195312 221.863281 208.949219 227.628906 L 208.957031 326.347656 L 163.523438 326.347656 L 163.527344 223.132812 L 126.910156 188.207031 L 107.035156 173.640625 C 106.457031 172.988281 106.367188 176.089844 106.761719 182.945312 L 133.765625 210.886719 C 118.679688 220.375 107.570312 221.300781 100.445312 213.660156 C 96.75 210.011719 94.128906 204.414062 92.585938 196.863281 L 93.148438 190.730469 L 96.992188 182.441406 C 97.117188 178.867188 97.972656 174.8125 99.570312 170.273438 C 98.445312 171.800781 92.535156 165.625 81.839844 151.746094 C 79.386719 148.460938 78.023438 141.917969 77.746094 132.109375 C 78.175781 126.953125 79.816406 121.910156 82.667969 116.980469 C 87.503906 110.890625 93.429688 105.734375 100.453125 101.511719 C 99.167969 102.472656 98.722656 98.226562 99.109375 88.777344 C 100.332031 85.796875 102.820312 82.792969 106.574219 79.769531 C 114.542969 73.253906 127.511719 70.359375 145.488281 71.082031 C 148.164062 66.464844 154.441406 60.636719 164.320312 53.601562 C 168.082031 51.714844 175.417969 50.105469 186.324219 48.773438 M 188.535156 38.039062 L 185.375 38.089844 C 181.191406 37.765625 174.207031 39.210938 164.421875 42.425781 C 154.714844 47.359375 146.695312 53.304688 140.359375 60.265625 C 125.550781 58.921875 110.089844 64.25 93.972656 76.253906 C 90.496094 81.5625 88.546875 88.492188 88.117188 97.046875 C 86.824219 95.222656 81.027344 102.542969 70.730469 119.003906 C 68.6875 125.632812 67.421875 132.664062 66.933594 140.09375 C 69.386719 153.128906 76.710938 164.976562 88.902344 175.636719 C 85.871094 179.039062 83.671875 185.152344 82.304688 193.984375 C 83.007812 204.667969 85.453125 212.351562 89.636719 217.039062 C 114.359375 233.183594 131.507812 233.65625 141.074219 218.453125 L 153.011719 230.800781 L 153.007812 332.078125 L 153.992188 334.707031 L 157.394531 336.855469 L 215.636719 336.851562 C 216.078125 337.160156 217.339844 335.699219 219.421875 332.476562 L 219.464844 231.339844 L 238.0625 212.089844 C 248.175781 220.132812 263.074219 217.335938 282.757812 203.699219 C 286.4375 199.230469 288.589844 190.710938 289.21875 178.136719 C 299.523438 167.472656 304.960938 160.09375 305.53125 155.996094 C 307.71875 148.703125 308.488281 140.074219 307.84375 130.113281 C 306.691406 126.207031 303.351562 119.191406 297.820312 109.066406 C 296.578125 106.820312 290.367188 101.8125 279.191406 94.042969 C 277.347656 84.488281 273.304688 77.46875 267.058594 72.980469 C 254.242188 65.921875 243.460938 62.785156 234.71875 63.570312 C 225.820312 53.316406 219.753906 47.332031 216.519531 45.617188 C 204.8125 40.976562 195.484375 38.449219 188.535156 38.039062 Z M 188.535156 38.039062 "/>
</g>
</g>
</svg>
