<?xml version="1.0" encoding="UTF-8"?>
<svg xmlns="http://www.w3.org/2000/svg" xmlns:xlink="http://www.w3.org/1999/xlink" width="375pt" height="374.999991pt" viewBox="0 0 375 374.999991" version="1.2">
<defs>
<clipPath id="clip1">
  <path d="M 66.9375 38 L 308 38 L 308 337 L 66.9375 337 Z M 66.9375 38 "/>
</clipPath>
</defs>
<g id="surface1">
<path style=" stroke:none;fill-rule:nonzero;fill:rgb(100%,100%,100%);fill-opacity:1;" d="M 152.765625 61.683594 L 152.765625 61.6875 L 152.765625 61.683594 L 152.761719 61.683594 L 152.765625 61.6875 "/>
<path style=" stroke:none;fill-rule:nonzero;fill:rgb(100%,100%,100%);fill-opacity:1;" d="M 152.921875 61.714844 L 152.921875 61.71875 C 152.921875 61.714844 152.921875 61.714844 152.921875 61.714844 L 152.925781 61.714844 C 152.925781 61.714844 152.929688 61.71875 152.929688 61.71875 L 152.933594 61.71875 C 152.933594 61.71875 152.933594 61.71875 152.9375 61.71875 L 152.949219 61.71875 L 152.941406 61.722656 L 152.941406 61.71875 L 152.9375 61.722656 C 152.9375 61.722656 152.933594 61.71875 152.929688 61.71875 C 152.925781 61.71875 152.925781 61.71875 152.925781 61.71875 C 152.921875 61.71875 152.921875 61.71875 152.917969 61.71875 C 152.917969 61.714844 152.917969 61.714844 152.914062 61.714844 L 152.921875 61.714844 "/>
<path style=" stroke:none;fill-rule:nonzero;fill:rgb(100%,100%,100%);fill-opacity:1;" d="M 152.945312 61.722656 L 152.960938 61.722656 C 152.960938 61.722656 152.964844 61.722656 152.964844 61.726562 C 152.964844 61.726562 152.960938 61.726562 152.960938 61.726562 L 152.957031 61.726562 L 152.953125 61.722656 L 152.949219 61.722656 C 152.949219 61.722656 152.949219 61.722656 152.945312 61.722656 C 152.941406 61.722656 152.941406 61.722656 152.941406 61.722656 L 152.945312 61.722656 "/>
<path style=" stroke:none;fill-rule:nonzero;fill:rgb(100%,100%,100%);fill-opacity:1;" d="M 252.730469 181.914062 L 252.730469 181.917969 L 252.5625 182.085938 L 252.570312 182.085938 C 252.546875 182.160156 252.523438 182.238281 252.496094 182.3125 C 252.476562 182.371094 252.445312 182.449219 252.40625 182.546875 C 252.328125 182.730469 252.25 182.890625 252.171875 183.019531 L 252.332031 182.769531 L 252.472656 182.519531 L 252.59375 182.273438 L 252.699219 182.027344 L 252.738281 181.914062 L 252.730469 181.917969 "/>
<path style=" stroke:none;fill-rule:nonzero;fill:rgb(100%,100%,100%);fill-opacity:1;" d="M 212.878906 194.4375 L 212.820312 194.484375 C 212.464844 194.773438 212.128906 194.992188 211.820312 195.136719 C 211.707031 195.195312 211.535156 195.253906 211.300781 195.308594 C 211.171875 195.332031 211.046875 195.34375 210.917969 195.335938 C 210.683594 195.601562 210.488281 195.832031 210.332031 196.027344 C 210.671875 196.023438 211.011719 196.023438 211.351562 196.023438 L 212.882812 194.4375 L 212.878906 194.441406 Z M 212.878906 194.4375 "/>
<path style=" stroke:none;fill-rule:nonzero;fill:rgb(100%,100%,100%);fill-opacity:1;" d="M 215.6875 190.160156 L 215.691406 190.175781 C 215.71875 190.433594 215.703125 190.683594 215.644531 190.921875 C 215.617188 191.039062 215.582031 191.152344 215.535156 191.257812 L 215.457031 191.414062 C 215.398438 191.515625 215.332031 191.613281 215.253906 191.703125 C 215.25 191.71875 215.089844 191.882812 214.773438 192.195312 C 214.777344 192.203125 214.671875 192.367188 214.449219 192.6875 C 214.371094 192.8125 214.226562 193 214.023438 193.257812 C 214.914062 192.335938 215.804688 191.414062 216.695312 190.492188 L 215.6875 190.160156 "/>
<path style=" stroke:none;fill-rule:nonzero;fill:rgb(100%,100%,100%);fill-opacity:1;" d="M 171.296875 178.589844 L 171.292969 196.023438 L 161.273438 196.023438 L 152.304688 186.773438 C 153.585938 186.582031 157.15625 185.332031 163.019531 183.03125 C 163.828125 182.695312 164.820312 182.214844 166 181.59375 C 166.777344 181.203125 168.542969 180.203125 171.296875 178.589844 M 177.148438 135.210938 L 177.101562 135.226562 C 174.980469 135.171875 173.902344 135.371094 173.859375 135.828125 C 173.207031 136.246094 172.355469 137.675781 171.304688 140.117188 L 171.300781 165.863281 C 168.8125 167.996094 165.953125 169.890625 162.722656 171.539062 C 157.152344 174.433594 150.820312 176.558594 143.726562 177.914062 L 128.117188 161.8125 C 124.742188 160.195312 122.035156 160.785156 119.992188 163.582031 L 133.738281 178.457031 L 137.765625 183.746094 C 140.097656 186.167969 148.5 193.617188 162.976562 206.097656 L 163.882812 206.613281 L 181.269531 206.507812 C 181.464844 205.957031 181.625 201.226562 181.757812 192.3125 L 181.703125 146.003906 C 181.664062 144.84375 181.292969 141.25 180.585938 135.226562 Z M 177.148438 135.210938 "/>
<path style=" stroke:none;fill-rule:nonzero;fill:rgb(100%,100%,100%);fill-opacity:1;" d="M 152.800781 61.691406 L 152.804688 61.691406 L 152.820312 61.695312 C 152.847656 61.699219 152.875 61.707031 152.902344 61.710938 L 152.898438 61.714844 L 152.894531 61.714844 L 152.894531 61.710938 L 152.886719 61.714844 L 152.886719 61.710938 L 152.894531 61.714844 L 152.890625 61.710938 L 152.890625 61.714844 C 152.886719 61.710938 152.882812 61.710938 152.878906 61.710938 L 152.828125 61.699219 C 152.828125 61.699219 152.828125 61.699219 152.824219 61.699219 C 152.816406 61.695312 152.808594 61.695312 152.800781 61.691406 C 152.800781 61.691406 152.800781 61.695312 152.800781 61.695312 L 152.800781 61.691406 "/>
<path style=" stroke:none;fill-rule:nonzero;fill:rgb(100%,100%,100%);fill-opacity:1;" d="M 220.675781 201.621094 L 220.671875 201.625 C 220.605469 201.707031 220.542969 201.792969 220.488281 201.882812 C 220.453125 201.933594 220.414062 201.996094 220.371094 202.074219 C 220.363281 202.085938 220.351562 202.109375 220.332031 202.140625 L 220.339844 202.144531 C 220.375 202.078125 220.417969 202.003906 220.46875 201.925781 C 220.519531 201.839844 220.59375 201.738281 220.679688 201.621094 L 220.675781 201.621094 "/>
<path style=" stroke:none;fill-rule:nonzero;fill:rgb(100%,100%,100%);fill-opacity:1;" d="M 203.765625 181.828125 L 203.894531 181.832031 C 204.191406 181.863281 204.457031 181.96875 204.683594 182.144531 L 204.882812 182.316406 C 205.152344 182.714844 205.320312 182.945312 205.386719 183.007812 L 205.960938 183.488281 L 206.351562 183.722656 C 206.65625 183.6875 206.929688 183.722656 207.167969 183.824219 C 207.1875 183.820312 207.371094 183.933594 207.714844 184.175781 C 208.445312 184.65625 209.191406 185.292969 209.945312 186.078125 L 213.433594 187.714844 C 213.78125 187.988281 214 188.25 214.097656 188.5 C 214.335938 188.535156 214.679688 188.734375 215.121094 189.097656 C 215.410156 189.410156 215.578125 189.664062 215.625 189.851562 C 215.773438 190.394531 215.710938 190.929688 215.433594 191.460938 C 215.359375 191.597656 215.140625 191.84375 214.773438 192.195312 C 214.609375 192.488281 214.296875 192.917969 213.835938 193.492188 C 213.730469 193.621094 213.480469 193.878906 213.085938 194.261719 C 212.152344 195.054688 211.429688 195.410156 210.917969 195.335938 C 210.386719 196 210.046875 196.367188 209.898438 196.441406 C 209.746094 196.546875 209.488281 196.617188 209.125 196.65625 C 209.089844 196.71875 208.863281 196.828125 208.445312 196.984375 C 208.277344 197.042969 208.023438 197.097656 207.683594 197.15625 C 207.085938 197.097656 206.179688 197.042969 204.960938 197 C 204.476562 196.933594 204.078125 196.851562 203.769531 196.75 C 202.910156 196.304688 202.414062 195.878906 202.28125 195.46875 C 202.183594 195.054688 202.132812 194.808594 202.132812 194.734375 L 202.113281 190.746094 C 201.679688 189.5625 201.511719 187.996094 201.613281 186.054688 C 201.800781 185.164062 201.964844 184.730469 202.109375 184.753906 C 201.9375 184.449219 201.894531 184.078125 201.988281 183.636719 L 202.472656 182.527344 C 202.675781 182.152344 203.105469 181.917969 203.765625 181.828125 M 192.347656 135.304688 L 192.371094 196.023438 C 192.234375 195.644531 192.113281 195.796875 192.007812 196.484375 L 191.75 206.503906 L 208.734375 206.503906 L 208.734375 206.816406 C 209.953125 206.601562 211.761719 206.710938 214.160156 207.144531 L 215.671875 205.707031 C 217.34375 204.105469 219.078125 202.554688 220.875 201.0625 C 221.734375 200.386719 222.175781 200.164062 222.191406 200.390625 L 232.128906 190.101562 L 236.816406 184.90625 C 237.113281 183.671875 237.46875 182.847656 237.882812 182.445312 C 238.242188 182.027344 238.859375 181.632812 239.730469 181.261719 C 247.230469 172.652344 251.917969 167.457031 253.789062 165.679688 L 250.34375 162.355469 L 249.449219 161.824219 C 247.421875 161.277344 245.878906 161.28125 244.820312 161.835938 L 243.222656 162.992188 L 225.015625 181.863281 C 219.191406 180.117188 215.082031 178.652344 212.691406 177.476562 C 210.328125 176.339844 207.042969 174.1875 202.828125 171.023438 L 202.78125 139.296875 L 202.5 138.570312 C 201.554688 137.207031 200.613281 136.207031 199.675781 135.570312 Z M 192.347656 135.304688 "/>
<path style=" stroke:none;fill-rule:nonzero;fill:rgb(100%,100%,100%);fill-opacity:1;" d="M 220.714844 201.574219 L 220.710938 201.574219 L 220.714844 201.574219 L 220.714844 201.578125 L 220.714844 201.574219 "/>
<path style=" stroke:none;fill-rule:nonzero;fill:rgb(100%,100%,100%);fill-opacity:1;" d="M 220.167969 202.488281 L 220.164062 202.488281 L 220.164062 202.492188 L 220.167969 202.488281 L 220.167969 202.492188 L 220.167969 202.488281 L 220.167969 202.492188 L 220.167969 202.488281 L 220.167969 202.492188 L 220.167969 202.488281 "/>
<path style=" stroke:none;fill-rule:nonzero;fill:rgb(100%,100%,100%);fill-opacity:1;" d="M 220.71875 201.574219 L 220.714844 201.574219 L 220.714844 201.578125 L 220.714844 201.574219 L 220.714844 201.578125 L 220.714844 201.574219 L 220.714844 201.578125 L 220.714844 201.574219 L 220.71875 201.574219 "/>
<path style=" stroke:none;fill-rule:nonzero;fill:rgb(100%,100%,100%);fill-opacity:1;" d="M 277.554688 185.371094 L 277.519531 185.402344 C 277.292969 185.621094 277.070312 185.859375 276.855469 186.109375 C 276.945312 186.035156 277.03125 185.957031 277.113281 185.878906 C 277.1875 185.808594 277.269531 185.71875 277.363281 185.617188 C 277.410156 185.5625 277.449219 185.511719 277.488281 185.464844 L 277.5625 185.371094 L 277.554688 185.371094 "/>
<path style=" stroke:none;fill-rule:nonzero;fill:rgb(100%,100%,100%);fill-opacity:1;" d="M 263.496094 87.515625 L 263.492188 87.515625 C 263.566406 87.535156 263.644531 87.550781 263.722656 87.570312 C 263.703125 87.5625 263.6875 87.554688 263.667969 87.546875 L 263.640625 87.539062 L 263.617188 87.53125 L 263.589844 87.527344 L 263.566406 87.519531 L 263.542969 87.519531 L 263.519531 87.515625 L 263.496094 87.515625 "/>
<path style=" stroke:none;fill-rule:nonzero;fill:rgb(100%,100%,100%);fill-opacity:1;" d="M 277.710938 185.210938 L 277.699219 185.226562 C 277.660156 185.265625 277.617188 185.304688 277.578125 185.347656 L 277.609375 185.320312 C 277.636719 185.296875 277.652344 185.28125 277.65625 185.277344 C 277.675781 185.253906 277.699219 185.234375 277.71875 185.210938 L 277.710938 185.214844 "/>
<path style=" stroke:none;fill-rule:nonzero;fill:rgb(100%,100%,100%);fill-opacity:1;" d="M 220.269531 202.261719 L 220.269531 202.265625 L 220.269531 202.261719 L 220.273438 202.265625 L 220.273438 202.261719 L 220.269531 202.261719 "/>
<path style=" stroke:none;fill-rule:nonzero;fill:rgb(100%,100%,100%);fill-opacity:1;" d="M 263.8125 87.5625 L 263.804688 87.5625 C 263.78125 87.5625 263.757812 87.570312 263.734375 87.582031 L 264.039062 87.652344 C 264.019531 87.640625 264.003906 87.628906 263.984375 87.617188 C 263.964844 87.605469 263.949219 87.597656 263.929688 87.589844 L 263.90625 87.578125 L 263.882812 87.570312 L 263.835938 87.5625 L 263.8125 87.5625 "/>
<path style=" stroke:none;fill-rule:nonzero;fill:rgb(100%,100%,100%);fill-opacity:1;" d="M 264.09375 87.640625 L 264.089844 87.640625 C 264.074219 87.640625 264.058594 87.644531 264.042969 87.65625 L 264.222656 87.695312 L 264.207031 87.6875 L 264.195312 87.679688 C 264.183594 87.671875 264.171875 87.664062 264.160156 87.65625 C 264.132812 87.644531 264.113281 87.640625 264.09375 87.640625 "/>
<path style=" stroke:none;fill-rule:nonzero;fill:rgb(100%,100%,100%);fill-opacity:1;" d="M 264.269531 87.671875 L 264.261719 87.671875 C 264.246094 87.671875 264.234375 87.683594 264.226562 87.699219 C 264.277344 87.710938 264.328125 87.722656 264.378906 87.734375 C 264.359375 87.714844 264.339844 87.703125 264.324219 87.691406 L 264.308594 87.683594 L 264.296875 87.679688 L 264.289062 87.675781 L 264.277344 87.671875 L 264.269531 87.671875 "/>
<path style=" stroke:none;fill-rule:nonzero;fill:rgb(100%,100%,100%);fill-opacity:1;" d="M 277.902344 185.054688 L 277.890625 185.066406 C 277.847656 185.097656 277.804688 185.128906 277.761719 185.164062 C 277.785156 185.152344 277.804688 185.136719 277.828125 185.121094 C 277.851562 185.105469 277.871094 185.089844 277.894531 185.070312 L 277.910156 185.054688 L 277.902344 185.058594 "/>
<g clip-path="url(#clip1)" clip-rule="nonzero">
<path style=" stroke:none;fill-rule:nonzero;fill:rgb(100%,100%,100%);fill-opacity:1;" d="M 220.714844 201.574219 L 220.714844 201.574219 M 220.710938 201.574219 L 220.710938 201.578125 L 220.710938 201.574219 M 186.136719 48.773438 L 189.582031 48.894531 C 193.269531 48.414062 199.855469 50.339844 209.34375 54.671875 C 221.605469 64.089844 227.996094 70.457031 228.507812 73.769531 C 242.082031 72.964844 253.5 76.1875 262.765625 83.4375 C 263.730469 84.242188 265.023438 85.847656 266.644531 88.257812 L 264.386719 87.746094 C 265.144531 88.542969 267.820312 93.398438 272.425781 102.316406 C 281.203125 107.683594 288.222656 114.363281 293.488281 122.351562 C 295.03125 124.402344 296.320312 131.113281 297.355469 142.488281 C 291.410156 159.980469 285.59375 169.683594 279.90625 171.597656 C 279.5625 179.476562 278.902344 183.957031 277.929688 185.039062 C 278.917969 184.066406 279.050781 185.105469 278.339844 188.164062 C 276.589844 192.746094 274.953125 196.007812 273.417969 197.957031 C 259.941406 206.839844 250.597656 208.921875 245.394531 204.214844 L 265.222656 183.65625 L 266.785156 179.113281 L 261.855469 174.0625 L 255.464844 179.328125 C 231.542969 205.765625 215.964844 221.863281 208.730469 227.628906 L 208.734375 326.347656 L 163.375 326.347656 L 163.378906 223.132812 L 126.816406 188.207031 L 106.972656 173.640625 C 106.394531 172.988281 106.304688 176.089844 106.703125 182.945312 L 133.664062 210.886719 C 118.597656 220.375 107.507812 221.300781 100.394531 213.660156 C 96.703125 210.011719 94.085938 204.414062 92.546875 196.863281 L 93.109375 190.730469 L 96.945312 182.441406 C 97.070312 178.867188 97.925781 174.8125 99.519531 170.273438 C 98.398438 171.800781 92.496094 165.625 81.816406 151.746094 C 79.367188 148.460938 78.003906 141.917969 77.730469 132.109375 C 78.160156 126.953125 79.796875 121.910156 82.644531 116.980469 C 87.46875 110.890625 93.390625 105.734375 100.402344 101.511719 C 99.121094 102.472656 98.671875 98.226562 99.058594 88.777344 C 100.28125 85.796875 102.761719 82.792969 106.511719 79.769531 C 114.46875 73.253906 127.417969 70.359375 145.367188 71.082031 C 148.035156 66.464844 154.304688 60.636719 164.167969 53.601562 C 167.925781 51.714844 175.25 50.105469 186.136719 48.773438 M 188.347656 38.039062 L 185.191406 38.089844 C 181.015625 37.765625 174.042969 39.210938 164.269531 42.425781 C 154.582031 47.359375 146.574219 53.304688 140.246094 60.265625 C 125.460938 58.921875 110.023438 64.25 93.929688 76.253906 C 90.460938 81.5625 88.511719 88.492188 88.085938 97.046875 C 86.792969 95.222656 81.007812 102.542969 70.722656 119.003906 C 68.683594 125.632812 67.421875 132.664062 66.933594 140.09375 C 69.382812 153.128906 76.695312 164.976562 88.867188 175.636719 C 85.84375 179.039062 83.648438 185.152344 82.28125 193.984375 C 82.980469 204.667969 85.421875 212.351562 89.601562 217.039062 C 114.289062 233.183594 131.40625 233.65625 140.960938 218.453125 L 152.878906 230.800781 L 152.875 332.078125 L 153.855469 334.707031 L 157.253906 336.855469 L 215.40625 336.851562 C 215.84375 337.160156 217.105469 335.699219 219.183594 332.476562 L 219.230469 231.339844 L 237.796875 212.089844 C 247.894531 220.132812 262.769531 217.335938 282.421875 203.699219 C 286.09375 199.230469 288.246094 190.710938 288.875 178.136719 C 299.160156 167.472656 304.589844 160.09375 305.164062 155.996094 C 307.34375 148.703125 308.113281 140.074219 307.46875 130.113281 C 306.320312 126.207031 302.984375 119.191406 297.460938 109.066406 C 296.21875 106.820312 290.019531 101.8125 278.863281 94.042969 C 277.023438 84.488281 272.984375 77.46875 266.746094 72.980469 C 253.949219 65.921875 243.1875 62.785156 234.460938 63.570312 C 225.574219 53.316406 219.515625 47.332031 216.289062 45.617188 C 204.601562 40.976562 195.285156 38.449219 188.347656 38.039062 Z M 188.347656 38.039062 "/>
</g>
</g>
</svg>
