<?xml version="1.0" encoding="UTF-8"?>
<svg xmlns="http://www.w3.org/2000/svg" xmlns:xlink="http://www.w3.org/1999/xlink" width="375pt" height="374.999991pt" viewBox="0 0 375 374.999991" version="1.2">
<defs>
<clipPath id="clip1">
  <path d="M 54.726562 32.660156 L 320.179688 32.660156 L 320.179688 342.410156 L 54.726562 342.410156 Z M 54.726562 32.660156 "/>
</clipPath>
</defs>
<g id="surface1">
<g clip-path="url(#clip1)" clip-rule="nonzero">
<path style=" stroke:none;fill-rule:nonzero;fill:rgb(0%,0%,0%);fill-opacity:1;" d="M 187.453125 32.660156 C 139.761719 32.660156 107.570312 52.640625 88.296875 78.722656 C 69.019531 104.804688 62.152344 136.378906 62.152344 161.007812 L 62.152344 186.828125 C 62.15625 186.894531 62.164062 186.960938 62.167969 187.027344 C 57.859375 192.113281 54.785156 199.316406 54.785156 208.238281 C 54.785156 224.976562 66.515625 238.375 81.832031 242.226562 C 91.785156 267.324219 104.203125 291.515625 120.800781 309.988281 C 138.144531 329.292969 160.417969 342.492188 187.453125 342.492188 C 214.484375 342.492188 236.769531 329.296875 254.117188 309.886719 C 270.707031 291.324219 283.121094 266.953125 293.070312 241.519531 C 308.226562 237.808594 320.121094 224.957031 320.121094 208.238281 C 320.121094 199.300781 317.035156 192.074219 312.707031 186.984375 C 312.738281 186.695312 312.753906 186.402344 312.75 186.105469 L 312.75 161.007812 C 312.75 126.179688 303.753906 94.070312 283.195312 70.511719 C 262.636719 46.949219 230.6875 32.660156 187.453125 32.660156 Z M 187.453125 47.414062 C 227.511719 47.414062 254.515625 60.058594 272.097656 80.207031 C 289.675781 100.355469 298.007812 128.71875 298.007812 161.007812 L 298.007812 186.105469 C 297.996094 187.253906 298.234375 188.34375 298.726562 189.378906 C 298.5625 190.550781 298.671875 191.699219 299.058594 192.816406 C 299.441406 193.9375 300.0625 194.910156 300.917969 195.730469 C 303.203125 198.019531 305.378906 201.894531 305.378906 208.238281 C 305.378906 219.304688 297.507812 227.070312 286.9375 228.179688 C 286.261719 228.25 285.605469 228.410156 284.972656 228.664062 C 284.339844 228.917969 283.753906 229.253906 283.214844 229.667969 C 282.671875 230.085938 282.199219 230.566406 281.792969 231.113281 C 281.386719 231.660156 281.0625 232.253906 280.820312 232.890625 C 271.042969 258.589844 258.585938 282.753906 243.132812 300.046875 C 227.679688 317.335938 209.792969 327.738281 187.453125 327.738281 C 165.109375 327.738281 147.226562 317.335938 131.769531 300.132812 C 116.3125 282.929688 103.84375 258.953125 94.070312 233.625 C 93.824219 232.992188 93.5 232.40625 93.09375 231.859375 C 92.691406 231.316406 92.21875 230.839844 91.679688 230.425781 C 91.144531 230.015625 90.5625 229.679688 89.933594 229.429688 C 89.304688 229.175781 88.652344 229.015625 87.980469 228.941406 C 77.644531 227.832031 69.523438 219.304688 69.523438 208.238281 C 69.523438 201.882812 71.699219 198.023438 73.988281 195.730469 C 74.75 194.988281 75.320312 194.125 75.707031 193.132812 C 76.09375 192.140625 76.261719 191.117188 76.203125 190.054688 C 76.679688 189.03125 76.910156 187.957031 76.894531 186.828125 L 76.894531 161.007812 C 76.894531 139.191406 83.300781 110.289062 100.144531 87.496094 C 116.988281 64.707031 143.765625 47.414062 187.453125 47.414062 Z M 143.445312 76.921875 C 142.953125 76.90625 142.460938 76.941406 141.976562 77.027344 C 141.492188 77.109375 141.019531 77.242188 140.558594 77.421875 C 140.097656 77.597656 139.660156 77.824219 139.246094 78.089844 C 138.832031 78.355469 138.445312 78.660156 138.09375 79.003906 C 137.738281 79.347656 137.421875 79.726562 137.144531 80.132812 C 136.867188 80.539062 136.632812 80.96875 136.441406 81.425781 C 136.246094 81.878906 136.101562 82.347656 136.003906 82.832031 C 135.90625 83.316406 135.859375 83.804688 135.859375 84.300781 C 135.859375 116.238281 128.15625 131.050781 119.503906 141.457031 C 110.855469 151.859375 99.324219 157.78125 93.664062 171.46875 C 93.472656 171.917969 93.324219 172.378906 93.222656 172.859375 C 93.121094 173.335938 93.070312 173.820312 93.0625 174.308594 C 93.058594 174.796875 93.101562 175.28125 93.191406 175.761719 C 93.285156 176.242188 93.421875 176.710938 93.605469 177.164062 C 93.789062 177.617188 94.015625 178.046875 94.285156 178.453125 C 94.554688 178.863281 94.859375 179.238281 95.203125 179.585938 C 95.546875 179.933594 95.921875 180.242188 96.328125 180.515625 C 96.734375 180.785156 97.164062 181.015625 97.613281 181.203125 C 98.0625 181.390625 98.53125 181.53125 99.007812 181.625 C 99.488281 181.71875 99.972656 181.765625 100.460938 181.765625 C 100.949219 181.765625 101.433594 181.714844 101.910156 181.617188 C 102.386719 181.519531 102.851562 181.375 103.300781 181.183594 C 103.753906 180.996094 104.179688 180.761719 104.582031 180.488281 C 104.988281 180.210938 105.359375 179.898438 105.699219 179.550781 C 106.042969 179.199219 106.347656 178.820312 106.613281 178.410156 C 106.878906 178.003906 107.101562 177.570312 107.285156 177.117188 C 110.464844 169.425781 120.316406 163.542969 130.835938 150.894531 C 138.695312 141.4375 144.480469 125.742188 147.589844 105.25 C 154.820312 114.453125 163.097656 121.492188 172.582031 124.554688 C 187.585938 129.40625 203.402344 128.519531 217.609375 128.472656 C 231.816406 128.429688 244.074219 129.3125 252.347656 134.613281 C 260.617188 139.914062 266.972656 149.890625 268.539062 173.3125 C 268.574219 173.796875 268.652344 174.273438 268.777344 174.738281 C 268.902344 175.207031 269.074219 175.660156 269.289062 176.09375 C 269.503906 176.527344 269.757812 176.9375 270.050781 177.320312 C 270.347656 177.703125 270.675781 178.054688 271.042969 178.375 C 271.40625 178.695312 271.796875 178.972656 272.21875 179.214844 C 272.636719 179.457031 273.074219 179.65625 273.535156 179.8125 C 273.992188 179.96875 274.460938 180.078125 274.941406 180.140625 C 275.421875 180.203125 275.902344 180.21875 276.386719 180.183594 C 276.871094 180.152344 277.34375 180.074219 277.8125 179.949219 C 278.28125 179.820312 278.730469 179.652344 279.164062 179.4375 C 279.597656 179.222656 280.007812 178.96875 280.390625 178.671875 C 280.773438 178.375 281.125 178.046875 281.445312 177.683594 C 281.761719 177.316406 282.042969 176.925781 282.285156 176.503906 C 282.527344 176.085938 282.726562 175.644531 282.878906 175.1875 C 283.035156 174.730469 283.144531 174.257812 283.207031 173.777344 C 283.269531 173.296875 283.285156 172.816406 283.253906 172.332031 C 281.511719 146.335938 273.136719 130.410156 260.292969 122.179688 C 247.445312 113.945312 232.195312 113.675781 217.566406 113.71875 C 202.9375 113.765625 188.578125 114.210938 177.117188 110.507812 C 165.652344 106.804688 156.570312 99.875 150.167969 81.835938 C 149.917969 81.132812 149.574219 80.484375 149.128906 79.890625 C 148.6875 79.292969 148.164062 78.777344 147.566406 78.339844 C 146.964844 77.898438 146.316406 77.558594 145.613281 77.320312 C 144.910156 77.078125 144.1875 76.945312 143.445312 76.921875 Z M 146.914062 194.953125 C 140.8125 194.953125 135.859375 199.910156 135.859375 206.019531 C 135.859375 212.128906 140.8125 217.085938 146.914062 217.085938 C 153.015625 217.085938 157.96875 212.128906 157.96875 206.019531 C 157.96875 199.910156 153.015625 194.953125 146.914062 194.953125 Z M 227.988281 194.953125 C 221.886719 194.953125 216.933594 199.910156 216.933594 206.019531 C 216.933594 212.128906 221.886719 217.085938 227.988281 217.085938 C 234.09375 217.085938 239.042969 212.128906 239.042969 206.019531 C 239.042969 199.910156 234.09375 194.953125 227.988281 194.953125 Z M 227.988281 194.953125 "/>
</g>
</g>
</svg>
