<?xml version="1.0" encoding="UTF-8"?>
<svg xmlns="http://www.w3.org/2000/svg" xmlns:xlink="http://www.w3.org/1999/xlink" width="375pt" height="374.999991pt" viewBox="0 0 375 374.999991" version="1.2">
<defs>
<clipPath id="clip1">
  <path d="M 54.726562 32.660156 L 320.226562 32.660156 L 320.226562 342.410156 L 54.726562 342.410156 Z M 54.726562 32.660156 "/>
</clipPath>
</defs>
<g id="surface1">
<g clip-path="url(#clip1)" clip-rule="nonzero">
<path style=" stroke:none;fill-rule:nonzero;fill:rgb(100%,100%,100%);fill-opacity:1;" d="M 187.476562 32.660156 C 139.777344 32.660156 107.582031 52.636719 88.300781 78.710938 C 69.023438 104.785156 62.15625 136.351562 62.15625 160.972656 L 62.15625 186.785156 C 62.160156 186.855469 62.164062 186.921875 62.167969 186.988281 C 57.863281 192.070312 54.785156 199.273438 54.785156 208.191406 C 54.785156 224.925781 66.515625 238.320312 81.835938 242.171875 C 91.792969 267.261719 104.210938 291.445312 120.8125 309.914062 C 138.160156 329.214844 160.4375 342.410156 187.476562 342.410156 C 214.511719 342.410156 236.800781 329.214844 254.152344 309.8125 C 270.746094 291.257812 283.160156 266.894531 293.113281 241.464844 C 308.273438 237.753906 320.167969 224.90625 320.167969 208.191406 C 320.167969 199.257812 317.078125 192.03125 312.75 186.945312 C 312.785156 186.652344 312.796875 186.359375 312.792969 186.066406 L 312.792969 160.972656 C 312.792969 126.15625 303.796875 94.054688 283.234375 70.5 C 262.671875 46.945312 230.714844 32.660156 187.476562 32.660156 Z M 187.476562 47.410156 C 227.542969 47.410156 254.550781 60.050781 272.136719 80.195312 C 289.71875 100.335938 298.050781 128.695312 298.050781 160.972656 L 298.050781 186.066406 C 298.039062 187.210938 298.277344 188.300781 298.769531 189.335938 C 298.605469 190.507812 298.714844 191.65625 299.101562 192.777344 C 299.488281 193.894531 300.105469 194.867188 300.960938 195.6875 C 303.246094 197.976562 305.421875 201.847656 305.421875 208.191406 C 305.421875 219.253906 297.550781 227.019531 286.980469 228.125 C 286.300781 228.199219 285.644531 228.359375 285.011719 228.613281 C 284.378906 228.867188 283.792969 229.199219 283.253906 229.617188 C 282.714844 230.03125 282.242188 230.511719 281.832031 231.0625 C 281.425781 231.609375 281.101562 232.199219 280.859375 232.835938 C 271.082031 258.53125 258.621094 282.691406 243.167969 299.976562 C 227.710938 317.261719 209.820312 327.660156 187.476562 327.660156 C 165.128906 327.660156 147.242188 317.261719 131.785156 300.0625 C 116.324219 282.863281 103.851562 258.890625 94.074219 233.570312 C 93.832031 232.9375 93.507812 232.351562 93.101562 231.808594 C 92.695312 231.265625 92.226562 230.789062 91.6875 230.375 C 91.152344 229.960938 90.566406 229.628906 89.9375 229.378906 C 89.308594 229.125 88.660156 228.960938 87.984375 228.890625 C 77.648438 227.777344 69.527344 219.253906 69.527344 208.191406 C 69.527344 201.839844 71.703125 197.976562 73.992188 195.6875 C 74.75 194.945312 75.324219 194.082031 75.710938 193.089844 C 76.097656 192.101562 76.265625 191.074219 76.207031 190.011719 C 76.683594 188.992188 76.914062 187.914062 76.898438 186.785156 L 76.898438 160.972656 C 76.898438 139.164062 83.304688 110.269531 100.152344 87.484375 C 117 64.699219 143.78125 47.410156 187.476562 47.410156 Z M 143.460938 76.910156 C 142.96875 76.894531 142.476562 76.929688 141.992188 77.015625 C 141.507812 77.097656 141.03125 77.230469 140.574219 77.410156 C 140.113281 77.585938 139.675781 77.808594 139.261719 78.078125 C 138.847656 78.34375 138.460938 78.648438 138.109375 78.992188 C 137.753906 79.335938 137.4375 79.710938 137.160156 80.121094 C 136.882812 80.527344 136.644531 80.957031 136.453125 81.414062 C 136.261719 81.867188 136.117188 82.335938 136.019531 82.820312 C 135.921875 83.304688 135.871094 83.792969 135.871094 84.285156 C 135.871094 116.214844 128.171875 131.023438 119.515625 141.425781 C 110.863281 151.828125 99.332031 157.75 93.671875 171.429688 C 93.480469 171.878906 93.332031 172.34375 93.230469 172.820312 C 93.128906 173.300781 93.078125 173.78125 93.070312 174.273438 C 93.066406 174.761719 93.109375 175.246094 93.199219 175.726562 C 93.289062 176.203125 93.429688 176.671875 93.613281 177.125 C 93.796875 177.578125 94.023438 178.007812 94.292969 178.414062 C 94.558594 178.824219 94.867188 179.199219 95.210938 179.546875 C 95.554688 179.894531 95.929688 180.203125 96.335938 180.476562 C 96.742188 180.746094 97.167969 180.976562 97.621094 181.164062 C 98.070312 181.351562 98.539062 181.492188 99.015625 181.585938 C 99.496094 181.679688 99.980469 181.726562 100.46875 181.726562 C 100.957031 181.722656 101.441406 181.675781 101.917969 181.578125 C 102.398438 181.480469 102.859375 181.335938 103.3125 181.144531 C 103.761719 180.953125 104.1875 180.722656 104.59375 180.449219 C 104.996094 180.171875 105.367188 179.859375 105.710938 179.511719 C 106.050781 179.164062 106.355469 178.78125 106.621094 178.375 C 106.890625 177.964844 107.113281 177.53125 107.292969 177.078125 C 110.472656 169.386719 120.328125 163.507812 130.847656 150.863281 C 138.710938 141.410156 144.496094 125.714844 147.605469 105.230469 C 154.835938 114.433594 163.117188 121.464844 172.601562 124.53125 C 187.609375 129.378906 203.429688 128.492188 217.640625 128.449219 C 231.847656 128.40625 244.105469 129.285156 252.382812 134.585938 C 260.65625 139.882812 267.011719 149.859375 268.578125 173.273438 C 268.609375 173.757812 268.691406 174.234375 268.816406 174.703125 C 268.941406 175.167969 269.113281 175.621094 269.324219 176.054688 C 269.539062 176.488281 269.796875 176.898438 270.089844 177.28125 C 270.386719 177.664062 270.714844 178.015625 271.078125 178.335938 C 271.445312 178.65625 271.835938 178.9375 272.253906 179.175781 C 272.675781 179.417969 273.113281 179.617188 273.574219 179.773438 C 274.03125 179.929688 274.5 180.039062 274.980469 180.101562 C 275.460938 180.164062 275.941406 180.179688 276.425781 180.144531 C 276.910156 180.113281 277.382812 180.035156 277.851562 179.910156 C 278.320312 179.785156 278.769531 179.613281 279.203125 179.398438 C 279.636719 179.183594 280.046875 178.929688 280.429688 178.632812 C 280.8125 178.339844 281.164062 178.007812 281.484375 177.644531 C 281.804688 177.28125 282.082031 176.886719 282.324219 176.46875 C 282.566406 176.046875 282.765625 175.609375 282.921875 175.148438 C 283.074219 174.691406 283.183594 174.222656 283.246094 173.742188 C 283.308594 173.261719 283.324219 172.777344 283.292969 172.296875 C 281.550781 146.308594 273.175781 130.382812 260.328125 122.15625 C 247.480469 113.925781 232.226562 113.652344 217.59375 113.699219 C 202.964844 113.746094 188.601562 114.191406 177.136719 110.488281 C 165.671875 106.785156 156.589844 99.855469 150.183594 81.824219 C 149.9375 81.121094 149.589844 80.472656 149.148438 79.878906 C 148.703125 79.28125 148.183594 78.765625 147.582031 78.324219 C 146.980469 77.886719 146.332031 77.546875 145.628906 77.308594 C 144.925781 77.066406 144.203125 76.933594 143.460938 76.910156 Z M 146.929688 194.910156 C 140.828125 194.910156 135.871094 199.867188 135.871094 205.972656 C 135.871094 212.078125 140.828125 217.035156 146.929688 217.035156 C 153.035156 217.035156 157.988281 212.078125 157.988281 205.972656 C 157.988281 199.867188 153.035156 194.910156 146.929688 194.910156 Z M 228.019531 194.910156 C 221.914062 194.910156 216.960938 199.867188 216.960938 205.972656 C 216.960938 212.078125 221.914062 217.035156 228.019531 217.035156 C 234.125 217.035156 239.078125 212.078125 239.078125 205.972656 C 239.078125 199.867188 234.125 194.910156 228.019531 194.910156 Z M 228.019531 194.910156 "/>
</g>
</g>
</svg>
