<?xml version="1.0" encoding="UTF-8"?>
<svg xmlns="http://www.w3.org/2000/svg" xmlns:xlink="http://www.w3.org/1999/xlink" width="375pt" height="374.999991pt" viewBox="0 0 375 374.999991" version="1.2">
<defs>
<clipPath id="clip1">
  <path d="M 37.5 37.5 L 337.5 37.5 L 337.5 337.5 L 37.5 337.5 Z M 37.5 37.5 "/>
</clipPath>
</defs>
<g id="surface1">
<path style=" stroke:none;fill-rule:nonzero;fill:rgb(0%,0%,0%);fill-opacity:1;" d="M 107.5 107.5 C 107.5 104.746094 109.746094 102.5 112.5 102.5 C 115.253906 102.5 117.5 104.746094 117.5 107.5 C 117.5 110.253906 115.253906 112.5 112.5 112.5 C 109.746094 112.5 107.5 110.253906 107.5 107.5 Z M 127.5 107.5 C 127.5 99.21875 120.78125 92.5 112.5 92.5 C 104.21875 92.5 97.5 99.21875 97.5 107.5 C 97.5 115.78125 104.21875 122.5 112.5 122.5 C 120.78125 122.5 127.5 115.78125 127.5 107.5 "/>
<g clip-path="url(#clip1)" clip-rule="nonzero">
<path style=" stroke:none;fill-rule:nonzero;fill:rgb(0%,0%,0%);fill-opacity:1;" d="M 292.5 107.5 L 292.5 117.5 L 327.148438 117.5 C 324.707031 134.433594 310.097656 147.5 292.5 147.5 L 292.5 157.5 L 327.148438 157.5 C 324.707031 174.433594 310.097656 187.5 292.5 187.5 L 287.5 187.5 L 287.5 192.5 C 287.5 243.652344 231.132812 287.5 185 287.5 C 128.476562 287.5 82.5 241.523438 82.5 185 L 82.5 109.277344 C 82.5 100.429688 86.054688 92.207031 92.5 86.132812 C 98.457031 80.527344 106.132812 77.5 114.257812 77.5 C 114.921875 77.5 115.605469 77.519531 116.269531 77.558594 C 127.773438 78.261719 138.222656 85.644531 143.554688 96.816406 L 187.5 189.140625 L 218.359375 124.296875 C 231.914062 95.878906 261.015625 77.5 292.5 77.5 L 327.148438 77.5 C 324.707031 94.433594 310.097656 107.5 292.5 107.5 Z M 197.5 327.5 L 177.5 327.5 L 177.5 317.5 L 187.5 317.5 L 187.5 307.5 L 177.5 307.5 L 177.5 297.226562 C 179.980469 297.382812 182.480469 297.5 185 297.5 C 189.21875 297.5 193.398438 297.207031 197.5 296.699219 Z M 60 172.5 C 53.105469 172.5 47.5 166.894531 47.5 160 L 47.5 157.65625 C 47.5 153.183594 49.921875 149.023438 53.808594 146.796875 L 72.5 136.113281 L 72.5 160 C 72.5 166.894531 66.894531 172.5 60 172.5 Z M 72.5 105.078125 L 72.5 119.921875 L 55.195312 112.5 Z M 132.5 47.5 L 151.992188 47.5 C 149.667969 58.90625 139.570312 67.5 127.5 67.5 L 108.007812 67.5 C 110.332031 56.09375 120.429688 47.5 132.5 47.5 Z M 209.335938 120.019531 L 187.5 165.859375 L 152.578125 92.539062 C 149.296875 85.644531 144.433594 79.902344 138.652344 75.644531 C 152.5 70.976562 162.5 57.890625 162.5 42.5 C 162.5 39.746094 160.253906 37.5 157.5 37.5 L 132.5 37.5 C 113.710938 37.5 98.359375 52.402344 97.578125 71.015625 C 93.242188 72.910156 89.199219 75.507812 85.644531 78.847656 C 81.445312 82.8125 78.164062 87.578125 75.917969 92.792969 C 75.78125 92.832031 75.664062 92.851562 75.527344 92.910156 L 40.527344 107.910156 C 38.691406 108.691406 37.5 110.488281 37.5 112.5 C 37.5 114.511719 38.691406 116.308594 40.527344 117.089844 L 66.308594 128.144531 L 48.847656 138.125 C 41.835938 142.109375 37.5 149.589844 37.5 157.65625 L 37.5 160 C 37.5 172.402344 47.597656 182.5 60 182.5 C 64.628906 182.5 68.925781 181.09375 72.5 178.691406 L 72.5 185 C 72.5 241.074219 113.75 287.695312 167.5 296.132812 L 167.5 327.5 L 147.5 327.5 L 147.5 337.5 L 227.5 337.5 L 227.5 327.5 L 207.5 327.5 L 207.5 317.5 L 217.5 317.5 L 217.5 307.5 L 207.5 307.5 L 207.5 294.980469 C 257.03125 283.867188 294.570312 237.832031 297.34375 197.246094 C 319.882812 194.824219 337.5 175.683594 337.5 152.5 L 337.5 147.5 L 320.761719 147.5 C 330.957031 139.238281 337.5 126.621094 337.5 112.5 L 337.5 107.5 L 320.761719 107.5 C 330.957031 99.238281 337.5 86.621094 337.5 72.5 L 337.5 67.5 L 292.5 67.5 C 257.167969 67.5 224.53125 88.105469 209.335938 120.019531 "/>
</g>
<path style=" stroke:none;fill-rule:nonzero;fill:rgb(0%,0%,0%);fill-opacity:1;" d="M 202.5 197.5 L 261.25 197.5 C 256.601562 212.089844 242.851562 222.5 227.148438 222.5 L 212.5 222.5 L 212.5 232.5 L 241.25 232.5 C 236.601562 247.089844 222.851562 257.5 207.148438 257.5 L 187.5 257.5 C 151.660156 257.5 122.5 228.339844 122.5 192.5 L 122.5 187.5 L 112.5 187.5 L 112.5 192.5 C 112.5 233.867188 146.152344 267.5 187.5 267.5 L 207.148438 267.5 C 229.765625 267.5 249.257812 250.605469 252.441406 228.203125 L 252.988281 224.433594 C 263.261719 217.363281 270.585938 206.210938 272.441406 193.203125 L 273.261719 187.5 L 202.5 187.5 L 202.5 197.5 "/>
</g>
</svg>
