<?xml version="1.0" encoding="UTF-8"?>
<svg xmlns="http://www.w3.org/2000/svg" xmlns:xlink="http://www.w3.org/1999/xlink" width="375pt" height="374.999991pt" viewBox="0 0 375 374.999991" version="1.2">
<defs>
<clipPath id="clip1">
  <path d="M 37.5 110 L 253 110 L 253 324 L 37.5 324 Z M 37.5 110 "/>
</clipPath>
<clipPath id="clip2">
  <path d="M 146 37.5 L 270 37.5 L 270 113 L 146 113 Z M 146 37.5 "/>
</clipPath>
</defs>
<g id="surface1">
<g clip-path="url(#clip1)" clip-rule="nonzero">
<path style=" stroke:none;fill-rule:nonzero;fill:rgb(100%,100%,100%);fill-opacity:1;" d="M 252.613281 179.894531 C 236.871094 139.558594 196.230469 110.941406 148.550781 110.941406 C 87.242188 110.941406 37.5 158.417969 37.5 217.113281 C 37.5 275.808594 87.242188 323.335938 148.550781 323.335938 C 162.179688 323.335938 175.257812 320.972656 187.378906 316.648438 C 185.617188 316.246094 183.910156 315.84375 182.351562 315.441406 C 178.375 314.234375 174.554688 312.875 170.882812 311.316406 C 163.691406 312.824219 156.246094 313.679688 148.550781 313.679688 C 92.472656 313.679688 47.15625 270.375 47.15625 217.113281 C 47.15625 163.851562 92.472656 120.597656 148.550781 120.597656 C 193.265625 120.597656 231.136719 148.109375 244.664062 186.234375 Z M 252.613281 179.894531 "/>
</g>
<g clip-path="url(#clip2)" clip-rule="nonzero">
<path style=" stroke:none;fill-rule:nonzero;fill:rgb(100%,100%,100%);fill-opacity:1;" d="M 210.0625 94.746094 C 179.835938 96.808594 168.21875 99.472656 155.492188 107.371094 L 146.339844 112.953125 L 148.199219 102.390625 C 151.769531 82.273438 172.84375 49.832031 196.382812 40.878906 C 204.027344 38.0625 212.675781 36.957031 222.183594 37.207031 C 233.800781 37.609375 245.722656 40.125 256.9375 43.597656 C 260.558594 44.753906 269.660156 48.375 269.660156 48.375 C 269.660156 48.375 264.785156 57.375 262.46875 60.695312 C 258.699219 66.078125 254.222656 71.460938 249.089844 76.289062 C 237.675781 87.050781 224.648438 93.789062 210.0625 94.746094 Z M 199.800781 49.984375 C 179.9375 57.476562 165.851562 83.078125 161.074219 93.539062 C 172.289062 88.8125 185.570312 86.800781 209.410156 85.191406 C 221.53125 84.335938 232.542969 78.601562 242.453125 69.296875 C 247.078125 64.972656 253.316406 57.226562 255.679688 53.453125 C 244.464844 49.582031 232.445312 47.265625 221.882812 46.863281 C 213.53125 46.613281 206.089844 47.621094 199.800781 49.984375 Z M 199.800781 49.984375 "/>
</g>
<path style=" stroke:none;fill-rule:nonzero;fill:rgb(100%,100%,100%);fill-opacity:1;" d="M 142.816406 93.289062 C 144.023438 105.761719 144.226562 119.039062 143.875 130.957031 C 143.824219 132.820312 143.773438 134.125 143.722656 134.78125 C 143.574219 137.394531 145.632812 139.710938 148.300781 139.808594 C 150.964844 140.011719 153.230469 137.949219 153.378906 135.285156 C 153.429688 134.578125 153.480469 133.121094 153.53125 131.261719 C 153.882812 118.988281 153.679688 105.257812 152.425781 92.332031 C 150.5625 72.566406 146.691406 58.28125 139.648438 50.988281 C 137.839844 49.027344 134.769531 48.976562 132.859375 50.886719 C 130.898438 52.648438 130.847656 55.765625 132.707031 57.628906 C 137.6875 62.859375 141.15625 75.683594 142.816406 93.289062 Z M 142.816406 93.289062 "/>
<path style=" stroke:none;fill-rule:evenodd;fill:rgb(100%,100%,100%);fill-opacity:1;" d="M 127.527344 283.402344 C 166.960938 330.378906 236.96875 336.515625 283.945312 297.082031 C 330.972656 257.652344 337.058594 187.691406 297.675781 140.613281 L 290.234375 146.851562 C 326.242188 189.804688 320.660156 253.730469 277.757812 289.738281 C 234.859375 325.699219 170.882812 320.117188 134.921875 277.214844 Z M 127.527344 283.402344 "/>
<path style=" stroke:none;fill-rule:evenodd;fill:rgb(100%,100%,100%);fill-opacity:1;" d="M 194.070312 227.523438 L 201.511719 221.390625 C 206.640625 227.523438 215.746094 228.277344 221.882812 223.148438 C 228.019531 217.96875 228.824219 208.816406 223.691406 202.78125 L 231.085938 196.492188 C 239.636719 206.703125 238.328125 221.941406 228.117188 230.542969 C 217.910156 239.09375 202.667969 237.734375 194.070312 227.523438 Z M 194.070312 227.523438 "/>
<path style=" stroke:none;fill-rule:evenodd;fill:rgb(100%,100%,100%);fill-opacity:1;" d="M 142.316406 270.980469 L 149.707031 264.84375 C 178.828125 299.496094 230.632812 304.023438 265.335938 274.902344 C 300.089844 245.78125 304.617188 194.027344 275.445312 159.324219 L 282.839844 153.039062 C 315.429688 191.867188 310.351562 249.703125 271.574219 282.296875 C 232.746094 314.9375 174.855469 309.808594 142.316406 270.980469 Z M 142.316406 270.980469 "/>
<path style=" stroke:none;fill-rule:evenodd;fill:rgb(100%,100%,100%);fill-opacity:1;" d="M 290.835938 140.113281 L 128.132812 276.5625 C 126.070312 278.375 125.867188 281.492188 127.527344 283.402344 C 129.238281 285.464844 132.207031 285.765625 134.316406 283.957031 L 297.023438 147.503906 C 299.085938 145.796875 299.335938 142.675781 297.675781 140.613281 C 295.917969 138.601562 292.949219 138.351562 290.835938 140.113281 Z M 290.835938 140.113281 "/>
<path style=" stroke:none;fill-rule:evenodd;fill:rgb(100%,100%,100%);fill-opacity:1;" d="M 224.144531 203.332031 L 294.003906 181.355469 L 296.921875 190.507812 L 227.0625 212.535156 C 227.113281 210.925781 226.910156 209.316406 226.410156 207.707031 C 225.90625 206.097656 225.101562 204.589844 224.144531 203.332031 Z M 226.910156 214.097656 L 291.890625 247.894531 L 287.464844 256.496094 L 222.484375 222.644531 C 224.898438 220.332031 226.457031 217.363281 226.910156 214.097656 Z M 221.277344 223.652344 L 243.308594 293.511719 L 234.101562 296.378906 L 212.074219 226.519531 C 213.683594 226.570312 215.34375 226.417969 216.953125 225.863281 C 218.5625 225.363281 220.019531 224.609375 221.277344 223.652344 Z M 210.566406 226.417969 L 176.714844 291.398438 L 168.167969 286.871094 L 202.015625 221.941406 C 204.226562 224.304688 207.296875 225.914062 210.566406 226.417969 Z M 210.566406 226.417969 "/>
</g>
</svg>
