<?xml version="1.0" encoding="UTF-8"?>
<svg xmlns="http://www.w3.org/2000/svg" xmlns:xlink="http://www.w3.org/1999/xlink" width="375pt" height="374.999991pt" viewBox="0 0 375 374.999991" version="1.2">
<defs>
<clipPath id="clip1">
  <path d="M 57.125 31.128906 L 136 31.128906 L 136 109 L 57.125 109 Z M 57.125 31.128906 "/>
</clipPath>
<clipPath id="clip2">
  <path d="M 239 31.128906 L 318 31.128906 L 318 109 L 239 109 Z M 239 31.128906 "/>
</clipPath>
</defs>
<g id="surface1">
<g clip-path="url(#clip1)" clip-rule="nonzero">
<path style=" stroke:none;fill-rule:nonzero;fill:rgb(0%,0%,0%);fill-opacity:1;" d="M 96.738281 108.996094 C 75.230469 108.996094 57.730469 91.527344 57.730469 70.0625 C 57.730469 48.597656 75.230469 31.128906 96.738281 31.128906 C 118.242188 31.128906 135.746094 48.597656 135.746094 70.0625 C 135.746094 91.527344 118.242188 108.996094 96.738281 108.996094 Z M 96.738281 50.59375 C 85.984375 50.59375 77.234375 59.328125 77.234375 70.0625 C 77.234375 80.792969 85.984375 89.527344 96.738281 89.527344 C 107.492188 89.527344 116.242188 80.792969 116.242188 70.0625 C 116.242188 59.328125 107.492188 50.59375 96.738281 50.59375 Z M 96.738281 50.59375 "/>
</g>
<g clip-path="url(#clip2)" clip-rule="nonzero">
<path style=" stroke:none;fill-rule:nonzero;fill:rgb(0%,0%,0%);fill-opacity:1;" d="M 278.769531 108.996094 C 257.265625 108.996094 239.765625 91.527344 239.765625 70.0625 C 239.765625 48.597656 257.265625 31.128906 278.769531 31.128906 C 300.277344 31.128906 317.777344 48.597656 317.777344 70.0625 C 317.777344 91.527344 300.277344 108.996094 278.769531 108.996094 Z M 278.769531 50.59375 C 268.019531 50.59375 259.265625 59.328125 259.265625 70.0625 C 259.265625 80.792969 268.019531 89.527344 278.769531 89.527344 C 289.523438 89.527344 298.273438 80.792969 298.273438 70.0625 C 298.273438 59.328125 289.523438 50.59375 278.769531 50.59375 Z M 278.769531 50.59375 "/>
</g>
<path style=" stroke:none;fill-rule:nonzero;fill:rgb(0%,0%,0%);fill-opacity:1;" d="M 151.984375 144.683594 C 147.292969 144.683594 143.15625 141.296875 142.375 136.519531 C 139.582031 119.441406 130.023438 103.804688 116.175781 93.589844 C 111.847656 90.410156 110.910156 84.3125 114.109375 79.988281 C 117.308594 75.667969 123.40625 74.734375 127.75 77.925781 C 145.664062 91.125 158.003906 111.332031 161.621094 133.378906 C 162.492188 138.6875 158.890625 143.683594 153.570312 144.554688 C 153.039062 144.644531 152.503906 144.683594 151.984375 144.683594 Z M 151.984375 144.683594 "/>
<path style=" stroke:none;fill-rule:nonzero;fill:rgb(0%,0%,0%);fill-opacity:1;" d="M 223.523438 144.683594 C 223.003906 144.683594 222.46875 144.644531 221.9375 144.554688 C 216.621094 143.683594 213.019531 138.675781 213.890625 133.378906 C 217.503906 111.332031 229.84375 91.125 247.761719 77.9375 C 252.089844 74.734375 258.203125 75.667969 261.398438 79.988281 C 264.597656 84.3125 263.675781 90.410156 259.34375 93.601562 C 245.496094 103.804688 235.941406 119.441406 233.144531 136.535156 C 232.351562 141.296875 228.21875 144.683594 223.523438 144.683594 Z M 223.523438 144.683594 "/>
<path style=" stroke:none;fill-rule:nonzero;fill:rgb(0%,0%,0%);fill-opacity:1;" d="M 187.753906 251.789062 C 171.304688 251.789062 154.871094 244.429688 138.878906 229.699219 C 134.925781 226.054688 134.679688 219.890625 138.332031 215.945312 C 142 212 148.175781 211.765625 152.113281 215.398438 C 176.429688 237.8125 199.078125 237.8125 223.394531 215.398438 C 227.347656 211.765625 233.507812 212 237.175781 215.945312 C 240.828125 219.890625 240.582031 226.054688 236.628906 229.699219 C 220.636719 244.429688 204.203125 251.789062 187.753906 251.789062 Z M 187.753906 251.789062 "/>
<path style=" stroke:none;fill-rule:nonzero;fill:rgb(0%,0%,0%);fill-opacity:1;" d="M 158.5 264.726562 C 153.117188 264.726562 148.746094 260.367188 148.746094 254.992188 L 148.746094 235.527344 C 148.746094 230.152344 153.117188 225.792969 158.5 225.792969 C 163.882812 225.792969 168.25 230.152344 168.25 235.527344 L 168.25 254.992188 C 168.25 260.367188 163.882812 264.726562 158.5 264.726562 Z M 158.5 264.726562 "/>
<path style=" stroke:none;fill-rule:nonzero;fill:rgb(0%,0%,0%);fill-opacity:1;" d="M 217.007812 264.726562 C 211.625 264.726562 207.257812 260.367188 207.257812 254.992188 L 207.257812 235.527344 C 207.257812 230.152344 211.625 225.792969 217.007812 225.792969 C 222.394531 225.792969 226.761719 230.152344 226.761719 235.527344 L 226.761719 254.992188 C 226.761719 260.367188 222.394531 264.726562 217.007812 264.726562 Z M 217.007812 264.726562 "/>
<path style=" stroke:none;fill-rule:nonzero;fill:rgb(0%,0%,0%);fill-opacity:1;" d="M 282.398438 342.59375 C 278.472656 342.59375 274.597656 341.554688 271.214844 339.609375 L 233.25 317.675781 C 233.027344 317.558594 230.832031 317.546875 230.597656 317.675781 L 200.199219 338.882812 C 193.34375 343.65625 182.164062 343.65625 175.3125 338.882812 L 144.859375 317.636719 C 144.714844 317.585938 142.480469 317.546875 142.246094 317.6875 L 104.304688 339.59375 C 100.898438 341.554688 97.023438 342.59375 93.109375 342.59375 C 80.769531 342.59375 70.734375 332.585938 70.734375 320.285156 C 70.734375 315.417969 72.28125 310.785156 75.21875 306.902344 L 85.308594 293.484375 C 92.679688 283.6875 96.738281 271.554688 96.738281 259.316406 L 96.738281 212.816406 C 96.738281 162.722656 137.566406 121.972656 187.753906 121.972656 C 237.945312 121.972656 278.769531 162.722656 278.769531 212.816406 L 278.769531 261.613281 C 278.769531 272.371094 282.332031 283.039062 288.808594 291.640625 L 300.289062 306.902344 C 303.226562 310.785156 304.777344 315.417969 304.777344 320.285156 C 304.777344 332.585938 294.738281 342.59375 282.398438 342.59375 Z M 231.921875 297.988281 C 235.941406 297.988281 239.777344 298.976562 243 300.832031 L 280.96875 322.761719 C 282.722656 323.761719 285.273438 322.375 285.273438 320.296875 C 285.273438 319.519531 284.972656 318.945312 284.714844 318.609375 L 273.21875 303.347656 C 264.222656 291.394531 259.265625 276.574219 259.265625 261.625 L 259.265625 212.816406 C 259.265625 173.453125 227.191406 141.4375 187.753906 141.4375 C 148.316406 141.4375 116.242188 173.453125 116.242188 212.816406 L 116.242188 259.316406 C 116.242188 275.746094 110.792969 292.03125 100.898438 305.179688 L 90.796875 318.597656 C 90.535156 318.933594 90.238281 319.503906 90.238281 320.285156 C 90.238281 322.359375 92.746094 323.800781 94.554688 322.738281 L 132.496094 300.832031 C 139.4375 296.808594 149.59375 297.195312 156.027344 301.6875 L 186.441406 322.90625 C 186.738281 323.0625 188.859375 323.023438 189.082031 322.890625 L 219.480469 301.6875 C 222.914062 299.300781 227.320312 297.988281 231.921875 297.988281 Z M 231.921875 297.988281 "/>
</g>
</svg>
