<?xml version="1.0" encoding="UTF-8"?>
<svg xmlns="http://www.w3.org/2000/svg" xmlns:xlink="http://www.w3.org/1999/xlink" width="375pt" height="374.999991pt" viewBox="0 0 375 374.999991" version="1.2">
<defs>
<clipPath id="clip1">
  <path d="M 57.125 31.128906 L 136 31.128906 L 136 109 L 57.125 109 Z M 57.125 31.128906 "/>
</clipPath>
<clipPath id="clip2">
  <path d="M 239 31.128906 L 318 31.128906 L 318 109 L 239 109 Z M 239 31.128906 "/>
</clipPath>
</defs>
<g id="surface1">
<g clip-path="url(#clip1)" clip-rule="nonzero">
<path style=" stroke:none;fill-rule:nonzero;fill:rgb(100%,100%,100%);fill-opacity:1;" d="M 96.699219 108.992188 C 75.214844 108.992188 57.730469 91.523438 57.730469 70.058594 C 57.730469 48.597656 75.214844 31.128906 96.699219 31.128906 C 118.183594 31.128906 135.667969 48.597656 135.667969 70.058594 C 135.667969 91.523438 118.183594 108.992188 96.699219 108.992188 Z M 96.699219 50.59375 C 85.957031 50.59375 77.214844 59.328125 77.214844 70.058594 C 77.214844 80.792969 85.957031 89.527344 96.699219 89.527344 C 107.441406 89.527344 116.183594 80.792969 116.183594 70.058594 C 116.183594 59.328125 107.441406 50.59375 96.699219 50.59375 Z M 96.699219 50.59375 "/>
</g>
<g clip-path="url(#clip2)" clip-rule="nonzero">
<path style=" stroke:none;fill-rule:nonzero;fill:rgb(100%,100%,100%);fill-opacity:1;" d="M 278.550781 108.992188 C 257.066406 108.992188 239.582031 91.523438 239.582031 70.058594 C 239.582031 48.597656 257.066406 31.128906 278.550781 31.128906 C 300.035156 31.128906 317.519531 48.597656 317.519531 70.058594 C 317.519531 91.523438 300.035156 108.992188 278.550781 108.992188 Z M 278.550781 50.59375 C 267.808594 50.59375 259.066406 59.328125 259.066406 70.058594 C 259.066406 80.792969 267.808594 89.527344 278.550781 89.527344 C 289.292969 89.527344 298.035156 80.792969 298.035156 70.058594 C 298.035156 59.328125 289.292969 50.59375 278.550781 50.59375 Z M 278.550781 50.59375 "/>
</g>
<path style=" stroke:none;fill-rule:nonzero;fill:rgb(100%,100%,100%);fill-opacity:1;" d="M 151.890625 144.679688 C 147.203125 144.679688 143.070312 141.292969 142.292969 136.515625 C 139.5 119.4375 129.953125 103.800781 116.117188 93.589844 C 111.792969 90.410156 110.855469 84.308594 114.050781 79.988281 C 117.25 75.667969 123.339844 74.730469 127.679688 77.925781 C 145.578125 91.121094 157.90625 111.328125 161.515625 133.375 C 162.386719 138.683594 158.789062 143.679688 153.476562 144.550781 C 152.941406 144.640625 152.410156 144.679688 151.890625 144.679688 Z M 151.890625 144.679688 "/>
<path style=" stroke:none;fill-rule:nonzero;fill:rgb(100%,100%,100%);fill-opacity:1;" d="M 223.359375 144.679688 C 222.839844 144.679688 222.308594 144.640625 221.773438 144.550781 C 216.460938 143.679688 212.863281 138.671875 213.734375 133.375 C 217.34375 111.328125 229.671875 91.121094 247.570312 77.9375 C 251.898438 74.730469 258.003906 75.667969 261.199219 79.988281 C 264.394531 84.308594 263.472656 90.410156 259.144531 93.601562 C 245.3125 103.800781 235.765625 119.4375 232.972656 136.53125 C 232.179688 141.292969 228.046875 144.679688 223.359375 144.679688 Z M 223.359375 144.679688 "/>
<path style=" stroke:none;fill-rule:nonzero;fill:rgb(100%,100%,100%);fill-opacity:1;" d="M 187.625 251.78125 C 171.195312 251.78125 154.773438 244.421875 138.796875 229.691406 C 134.847656 226.046875 134.601562 219.882812 138.253906 215.9375 C 141.914062 211.992188 148.085938 211.757812 152.019531 215.390625 C 176.3125 237.804688 198.9375 237.804688 223.230469 215.390625 C 227.179688 211.757812 233.335938 211.992188 237 215.9375 C 240.648438 219.882812 240.402344 226.046875 236.453125 229.691406 C 220.476562 244.421875 204.058594 251.78125 187.625 251.78125 Z M 187.625 251.78125 "/>
<path style=" stroke:none;fill-rule:nonzero;fill:rgb(100%,100%,100%);fill-opacity:1;" d="M 158.398438 264.71875 C 153.019531 264.71875 148.65625 260.359375 148.65625 254.984375 L 148.65625 235.519531 C 148.65625 230.148438 153.019531 225.785156 158.398438 225.785156 C 163.777344 225.785156 168.140625 230.148438 168.140625 235.519531 L 168.140625 254.984375 C 168.140625 260.359375 163.777344 264.71875 158.398438 264.71875 Z M 158.398438 264.71875 "/>
<path style=" stroke:none;fill-rule:nonzero;fill:rgb(100%,100%,100%);fill-opacity:1;" d="M 216.851562 264.71875 C 211.472656 264.71875 207.109375 260.359375 207.109375 254.984375 L 207.109375 235.519531 C 207.109375 230.148438 211.472656 225.785156 216.851562 225.785156 C 222.230469 225.785156 226.59375 230.148438 226.59375 235.519531 L 226.59375 254.984375 C 226.59375 260.359375 222.230469 264.71875 216.851562 264.71875 Z M 216.851562 264.71875 "/>
<path style=" stroke:none;fill-rule:nonzero;fill:rgb(100%,100%,100%);fill-opacity:1;" d="M 282.175781 342.582031 C 278.253906 342.582031 274.382812 341.542969 271.003906 339.597656 L 233.074219 317.664062 C 232.855469 317.546875 230.660156 317.535156 230.425781 317.664062 L 200.054688 338.871094 C 193.210938 343.644531 182.039062 343.644531 175.195312 338.871094 L 144.773438 317.625 C 144.628906 317.574219 142.394531 317.535156 142.160156 317.679688 L 104.257812 339.582031 C 100.855469 341.542969 96.984375 342.582031 93.074219 342.582031 C 80.746094 342.582031 70.71875 332.574219 70.71875 320.273438 C 70.71875 315.40625 72.265625 310.773438 75.199219 306.894531 L 85.28125 293.476562 C 92.644531 283.675781 96.699219 271.542969 96.699219 259.304688 L 96.699219 212.808594 C 96.699219 162.71875 137.484375 121.96875 187.625 121.96875 C 237.765625 121.96875 278.550781 162.71875 278.550781 212.808594 L 278.550781 261.601562 C 278.550781 272.363281 282.109375 283.027344 288.578125 291.632812 L 300.050781 306.894531 C 302.984375 310.773438 304.53125 315.40625 304.53125 320.273438 C 304.53125 332.574219 294.503906 342.582031 282.175781 342.582031 Z M 231.75 297.976562 C 235.765625 297.976562 239.597656 298.964844 242.816406 300.820312 L 280.746094 322.75 C 282.5 323.75 285.046875 322.363281 285.046875 320.285156 C 285.046875 319.507812 284.746094 318.9375 284.488281 318.597656 L 273.003906 303.339844 C 264.015625 291.386719 259.066406 276.566406 259.066406 261.617188 L 259.066406 212.808594 C 259.066406 173.449219 227.023438 141.433594 187.625 141.433594 C 148.226562 141.433594 116.183594 173.449219 116.183594 212.808594 L 116.183594 259.304688 C 116.183594 275.734375 110.742188 292.023438 100.855469 305.167969 L 90.761719 318.585938 C 90.503906 318.921875 90.203125 319.496094 90.203125 320.273438 C 90.203125 322.347656 92.710938 323.789062 94.515625 322.726562 L 132.417969 300.820312 C 139.355469 296.796875 149.5 297.1875 155.929688 301.675781 L 186.3125 322.894531 C 186.613281 323.050781 188.730469 323.011719 188.949219 322.882812 L 219.320312 301.675781 C 222.75 299.289062 227.152344 297.976562 231.75 297.976562 Z M 231.75 297.976562 "/>
</g>
</svg>
