<?xml version="1.0" encoding="UTF-8"?>
<svg xmlns="http://www.w3.org/2000/svg" xmlns:xlink="http://www.w3.org/1999/xlink" width="375pt" height="374.999991pt" viewBox="0 0 375 374.999991" version="1.2">
<defs>
<clipPath id="clip1">
  <path d="M 38 38 L 337.5 38 L 337.5 337 L 38 337 Z M 38 38 "/>
</clipPath>
</defs>
<g id="surface1">
<path style=" stroke:none;fill-rule:nonzero;fill:rgb(100%,100%,100%);fill-opacity:1;" d="M 206.191406 164.835938 C 204.324219 162.96875 201.519531 162.96875 199.648438 164.835938 C 197.78125 166.707031 197.78125 169.507812 199.648438 171.378906 L 220.675781 192.40625 C 221.613281 193.339844 223.015625 193.808594 223.949219 193.808594 C 224.882812 193.808594 226.285156 193.339844 227.21875 192.40625 C 229.089844 190.539062 229.089844 187.734375 227.21875 185.863281 Z M 206.191406 164.835938 "/>
<path style=" stroke:none;fill-rule:nonzero;fill:rgb(100%,100%,100%);fill-opacity:1;" d="M 201.519531 192.40625 C 199.648438 190.539062 196.847656 190.539062 194.976562 192.40625 C 193.109375 194.277344 193.109375 197.078125 194.976562 198.949219 L 208.0625 212.03125 C 208.996094 212.96875 210.398438 213.433594 211.332031 213.433594 C 212.265625 213.433594 213.667969 212.96875 214.601562 212.03125 C 216.472656 210.164062 216.472656 207.359375 214.601562 205.492188 Z M 201.519531 192.40625 "/>
<path style=" stroke:none;fill-rule:nonzero;fill:rgb(100%,100%,100%);fill-opacity:1;" d="M 112.265625 233.0625 C 110.398438 231.191406 107.59375 231.191406 105.722656 233.0625 C 103.855469 234.929688 103.855469 237.734375 105.722656 239.601562 L 125.351562 259.230469 C 126.285156 260.164062 127.6875 260.632812 128.621094 260.632812 C 129.554688 260.632812 130.957031 260.164062 131.890625 259.230469 C 133.761719 257.359375 133.761719 254.554688 131.890625 252.6875 Z M 112.265625 233.0625 "/>
<g clip-path="url(#clip1)" clip-rule="nonzero">
<path style=" stroke:none;fill-rule:nonzero;fill:rgb(100%,100%,100%);fill-opacity:1;" d="M 290.769531 41.941406 C 290.304688 40.539062 289.371094 39.136719 287.96875 38.667969 C 286.566406 38.199219 285.164062 38.199219 283.761719 38.667969 C 271.144531 46.144531 258.996094 60.632812 251.050781 77.921875 C 246.847656 87.265625 244.042969 97.078125 242.640625 106.894531 C 235.164062 103.15625 226.753906 101.285156 218.339844 101.285156 C 203.386719 101.285156 189.835938 106.894531 179.554688 117.640625 C 162.265625 134.460938 58.0625 262.96875 38.902344 314.835938 C 37.5 320.910156 38.902344 327.453125 43.574219 331.660156 C 46.847656 334.929688 51.050781 336.800781 55.722656 336.800781 C 57.125 336.800781 58.996094 336.800781 60.863281 335.863281 C 112.265625 316.707031 240.304688 212.5 257.59375 195.210938 C 274.882812 177.921875 278.152344 151.753906 267.875 131.191406 C 277.21875 130.257812 287.5 127.453125 297.3125 122.78125 C 315.070312 114.835938 329.089844 103.621094 336.566406 90.539062 C 337.5 89.136719 337.5 87.734375 336.566406 86.332031 C 336.097656 84.929688 334.695312 83.996094 333.292969 83.527344 C 326.285156 82.125 318.808594 82.59375 310.398438 83.527344 C 314.601562 76.050781 317.875 68.574219 318.808594 61.097656 C 319.277344 59.695312 318.808594 57.828125 317.40625 56.894531 C 316.003906 55.957031 314.601562 55.492188 313.199219 55.492188 C 306.191406 56.894531 298.246094 59.695312 290.769531 63.902344 C 292.171875 56.425781 292.171875 48.949219 290.769531 41.941406 Z M 256.191406 182.125 L 237.5 163.433594 C 235.628906 161.566406 232.828125 161.566406 230.957031 163.433594 C 229.089844 165.304688 229.089844 168.109375 230.957031 169.976562 L 250.585938 189.601562 C 244.507812 195.679688 227.21875 210.164062 204.789062 227.921875 L 179.089844 202.21875 C 177.21875 200.351562 174.414062 200.351562 172.546875 202.21875 C 170.675781 204.089844 170.675781 206.894531 172.546875 208.761719 L 197.3125 233.527344 C 187.96875 240.539062 178.152344 248.480469 168.339844 255.957031 L 155.257812 242.875 C 153.386719 241.003906 150.585938 241.003906 148.714844 242.875 C 146.847656 244.742188 146.847656 247.546875 148.714844 249.417969 L 160.863281 261.566406 C 151.050781 269.042969 141.238281 276.050781 131.425781 283.0625 L 117.40625 269.976562 C 115.539062 268.109375 112.734375 268.109375 110.863281 269.976562 C 108.996094 271.847656 108.996094 274.648438 110.863281 276.519531 L 123.015625 288.667969 C 118.808594 291.472656 115.070312 294.277344 110.863281 297.078125 L 105.722656 291.941406 C 103.855469 290.070312 101.050781 290.070312 99.183594 291.941406 C 97.3125 293.808594 97.3125 296.613281 99.183594 298.480469 L 102.921875 302.21875 C 85.164062 313.902344 69.277344 322.78125 57.59375 326.984375 C 54.789062 327.921875 51.984375 326.984375 49.648438 325.117188 C 47.78125 323.246094 46.847656 319.976562 47.3125 317.640625 C 50.117188 310.632812 54.324219 301.753906 59.929688 291.941406 L 74.414062 306.425781 C 75.351562 307.359375 76.753906 307.828125 77.6875 307.828125 C 78.621094 307.828125 80.023438 307.359375 80.957031 306.425781 C 82.828125 304.554688 82.828125 301.753906 80.957031 299.882812 L 65.070312 283.996094 C 71.144531 274.183594 78.152344 263.433594 86.097656 252.21875 L 87.96875 254.089844 C 88.902344 255.023438 90.304688 255.492188 91.238281 255.492188 C 92.640625 255.492188 93.574219 255.023438 94.507812 254.089844 C 96.378906 252.21875 96.378906 249.417969 94.507812 247.546875 L 91.707031 243.808594 C 102.921875 227.921875 115.070312 211.566406 126.753906 196.144531 L 149.183594 218.574219 C 150.117188 219.507812 151.519531 219.976562 152.453125 219.976562 C 153.386719 219.976562 154.789062 219.507812 155.722656 218.574219 C 157.59375 216.707031 157.59375 213.902344 155.722656 212.03125 L 132.359375 188.667969 C 135.164062 184.929688 137.96875 181.191406 140.769531 177.921875 L 144.042969 181.191406 C 144.976562 182.125 146.378906 182.59375 147.3125 182.59375 C 148.246094 182.59375 149.648438 182.125 150.585938 181.191406 C 152.453125 179.324219 152.453125 176.519531 150.585938 174.648438 L 146.378906 170.445312 C 149.183594 166.707031 151.984375 162.96875 154.789062 159.695312 L 169.742188 174.648438 C 170.675781 175.585938 172.078125 176.050781 173.015625 176.050781 C 173.949219 176.050781 175.351562 175.585938 176.285156 174.648438 C 178.152344 172.78125 178.152344 169.976562 176.285156 168.109375 L 160.863281 152.6875 C 164.136719 148.949219 166.9375 145.210938 169.742188 141.941406 L 173.480469 145.679688 C 174.414062 146.613281 175.816406 147.078125 176.753906 147.078125 C 177.6875 147.078125 179.089844 146.613281 180.023438 145.679688 C 181.890625 143.808594 181.890625 141.003906 180.023438 139.136719 L 175.816406 134.929688 C 180.023438 129.789062 183.292969 126.050781 185.632812 124.183594 C 194.042969 115.769531 205.722656 110.632812 217.875 110.632812 C 230.023438 110.632812 241.707031 115.304688 250.117188 124.183594 C 266.472656 139.601562 268.339844 164.371094 256.191406 182.125 Z M 323.480469 92.40625 C 316.472656 101.285156 305.257812 109.230469 292.640625 114.835938 C 286.566406 117.640625 280.492188 119.507812 273.949219 120.910156 C 280.492188 116.707031 287.03125 111.566406 292.640625 105.957031 C 296.378906 102.21875 299.183594 98.949219 302.453125 95.210938 C 309.929688 93.339844 317.40625 91.941406 323.480469 92.40625 Z M 268.808594 81.660156 C 266.472656 83.996094 264.136719 86.332031 261.800781 89.136719 C 259.929688 91.003906 260.398438 94.277344 262.265625 95.679688 C 264.136719 97.546875 267.40625 97.078125 268.808594 95.210938 C 270.675781 92.875 273.015625 90.539062 274.882812 88.199219 C 285.628906 78.386719 296.847656 70.910156 307.59375 67.171875 C 303.855469 77.921875 296.378906 89.136719 286.566406 99.417969 C 278.152344 107.828125 268.339844 114.835938 258.527344 119.042969 C 258.0625 118.109375 257.59375 117.640625 257.125 117.640625 C 255.257812 115.769531 253.386719 114.371094 251.519531 112.96875 C 252.453125 103.15625 255.257812 92.875 259.929688 82.59375 C 266.003906 69.507812 273.949219 58.761719 282.359375 51.753906 C 282.359375 58.292969 281.425781 65.304688 279.554688 72.78125 C 276.285156 75.117188 272.546875 78.386719 268.808594 81.660156 Z M 268.808594 81.660156 "/>
</g>
</g>
</svg>
