<?xml version="1.0" encoding="UTF-8"?>
<svg xmlns="http://www.w3.org/2000/svg" xmlns:xlink="http://www.w3.org/1999/xlink" width="375pt" height="374.999991pt" viewBox="0 0 375 374.999991" version="1.2">
<defs>
<clipPath id="clip1">
  <path d="M 50 27 L 327.769531 27 L 327.769531 351 L 50 351 Z M 50 27 "/>
</clipPath>
</defs>
<g id="surface1">
<path style=" stroke:none;fill-rule:nonzero;fill:rgb(0%,0%,0%);fill-opacity:1;" d="M 313.464844 153.300781 C 311.695312 152.082031 311.25 149.660156 312.464844 147.890625 C 313.6875 146.121094 316.105469 145.671875 317.878906 146.890625 C 319.648438 148.109375 320.09375 150.53125 318.878906 152.300781 C 317.65625 154.074219 315.238281 154.519531 313.464844 153.300781 "/>
<path style=" stroke:none;fill-rule:nonzero;fill:rgb(0%,0%,0%);fill-opacity:1;" d="M 301.039062 171.355469 C 299.269531 170.132812 298.824219 167.710938 300.042969 165.941406 C 301.257812 164.171875 303.683594 163.722656 305.453125 164.941406 C 307.222656 166.160156 307.671875 168.582031 306.449219 170.355469 C 305.230469 172.125 302.808594 172.570312 301.039062 171.355469 "/>
<path style=" stroke:none;fill-rule:nonzero;fill:rgb(0%,0%,0%);fill-opacity:1;" d="M 288.617188 189.402344 C 286.84375 188.1875 286.398438 185.761719 287.617188 183.992188 C 288.835938 182.222656 291.257812 181.773438 293.027344 182.992188 C 294.796875 184.210938 295.246094 186.636719 294.027344 188.40625 C 292.808594 190.175781 290.382812 190.625 288.617188 189.402344 "/>
<path style=" stroke:none;fill-rule:nonzero;fill:rgb(0%,0%,0%);fill-opacity:1;" d="M 276.191406 207.453125 C 274.417969 206.234375 273.972656 203.8125 275.191406 202.042969 C 276.410156 200.269531 278.832031 199.824219 280.601562 201.042969 C 282.371094 202.261719 282.816406 204.6875 281.601562 206.453125 C 280.382812 208.226562 277.960938 208.675781 276.191406 207.453125 "/>
<path style=" stroke:none;fill-rule:nonzero;fill:rgb(0%,0%,0%);fill-opacity:1;" d="M 263.761719 225.507812 C 261.992188 224.285156 261.546875 221.867188 262.765625 220.09375 C 263.984375 218.324219 266.40625 217.878906 268.179688 219.09375 C 269.945312 220.3125 270.394531 222.734375 269.175781 224.507812 C 267.957031 226.277344 265.535156 226.722656 263.761719 225.507812 "/>
<path style=" stroke:none;fill-rule:nonzero;fill:rgb(0%,0%,0%);fill-opacity:1;" d="M 251.335938 243.558594 C 249.570312 242.339844 249.121094 239.914062 250.339844 238.144531 C 251.558594 236.375 253.980469 235.925781 255.75 237.144531 C 257.523438 238.367188 257.96875 240.789062 256.75 242.558594 C 255.53125 244.328125 253.109375 244.773438 251.335938 243.558594 "/>
<path style=" stroke:none;fill-rule:nonzero;fill:rgb(0%,0%,0%);fill-opacity:1;" d="M 238.914062 261.605469 C 237.140625 260.390625 236.695312 257.964844 237.914062 256.195312 C 239.132812 254.425781 241.558594 253.976562 243.324219 255.199219 C 245.09375 256.414062 245.542969 258.839844 244.324219 260.609375 C 243.105469 262.382812 240.683594 262.828125 238.914062 261.605469 "/>
<path style=" stroke:none;fill-rule:nonzero;fill:rgb(0%,0%,0%);fill-opacity:1;" d="M 226.488281 279.660156 C 224.714844 278.4375 224.269531 276.019531 225.488281 274.246094 C 226.707031 272.476562 229.128906 272.03125 230.902344 273.25 C 232.671875 274.464844 233.117188 276.890625 231.898438 278.660156 C 230.679688 280.429688 228.257812 280.878906 226.488281 279.660156 "/>
<path style=" stroke:none;fill-rule:nonzero;fill:rgb(0%,0%,0%);fill-opacity:1;" d="M 214.058594 297.710938 C 212.292969 296.492188 211.84375 294.070312 213.0625 292.296875 C 214.285156 290.527344 216.703125 290.082031 218.476562 291.296875 C 220.246094 292.519531 220.691406 294.941406 219.476562 296.710938 C 218.253906 298.480469 215.832031 298.925781 214.058594 297.710938 "/>
<path style=" stroke:none;fill-rule:nonzero;fill:rgb(0%,0%,0%);fill-opacity:1;" d="M 201.636719 315.761719 C 199.867188 314.542969 199.421875 312.117188 200.636719 310.351562 C 201.855469 308.578125 204.28125 308.128906 206.046875 309.351562 C 207.820312 310.570312 208.269531 312.992188 207.046875 314.761719 C 205.828125 316.535156 203.40625 316.980469 201.636719 315.761719 "/>
<path style=" stroke:none;fill-rule:nonzero;fill:rgb(0%,0%,0%);fill-opacity:1;" d="M 189.210938 333.8125 C 187.441406 332.59375 186.992188 330.167969 188.214844 328.398438 C 189.429688 326.628906 191.855469 326.183594 193.625 327.402344 C 195.394531 328.617188 195.839844 331.042969 194.621094 332.8125 C 193.402344 334.585938 190.980469 335.03125 189.210938 333.8125 "/>
<path style=" stroke:none;fill-rule:nonzero;fill:rgb(0%,0%,0%);fill-opacity:1;" d="M 307.742188 136.058594 C 305.972656 134.839844 305.523438 132.414062 306.746094 130.648438 C 307.964844 128.875 310.386719 128.425781 312.15625 129.648438 C 313.925781 130.867188 314.375 133.289062 313.152344 135.058594 C 311.9375 136.828125 309.511719 137.277344 307.742188 136.058594 "/>
<path style=" stroke:none;fill-rule:nonzero;fill:rgb(0%,0%,0%);fill-opacity:1;" d="M 295.320312 154.109375 C 293.546875 152.890625 293.101562 150.464844 294.320312 148.695312 C 295.539062 146.925781 297.960938 146.476562 299.730469 147.699219 C 301.5 148.914062 301.949219 151.339844 300.730469 153.109375 C 299.511719 154.882812 297.085938 155.328125 295.320312 154.109375 "/>
<path style=" stroke:none;fill-rule:nonzero;fill:rgb(0%,0%,0%);fill-opacity:1;" d="M 282.890625 172.160156 C 281.121094 170.941406 280.675781 168.519531 281.894531 166.746094 C 283.113281 164.976562 285.535156 164.53125 287.308594 165.75 C 289.074219 166.96875 289.523438 169.390625 288.304688 171.164062 C 287.082031 172.929688 284.664062 173.378906 282.890625 172.160156 "/>
<path style=" stroke:none;fill-rule:nonzero;fill:rgb(0%,0%,0%);fill-opacity:1;" d="M 270.464844 190.210938 C 268.699219 188.992188 268.25 186.570312 269.46875 184.800781 C 270.6875 183.027344 273.109375 182.582031 274.878906 183.796875 C 276.652344 185.019531 277.097656 187.441406 275.878906 189.210938 C 274.660156 190.980469 272.238281 191.429688 270.464844 190.210938 "/>
<path style=" stroke:none;fill-rule:nonzero;fill:rgb(0%,0%,0%);fill-opacity:1;" d="M 258.042969 208.261719 C 256.269531 207.042969 255.824219 204.617188 257.042969 202.851562 C 258.261719 201.078125 260.6875 200.628906 262.453125 201.851562 C 264.222656 203.070312 264.671875 205.492188 263.453125 207.261719 C 262.234375 209.035156 259.808594 209.480469 258.042969 208.261719 "/>
<path style=" stroke:none;fill-rule:nonzero;fill:rgb(0%,0%,0%);fill-opacity:1;" d="M 245.617188 226.316406 C 243.84375 225.09375 243.398438 222.671875 244.617188 220.898438 C 245.835938 219.132812 248.257812 218.683594 250.03125 219.902344 C 251.796875 221.121094 252.246094 223.542969 251.027344 225.316406 C 249.808594 227.085938 247.386719 227.53125 245.617188 226.316406 "/>
<path style=" stroke:none;fill-rule:nonzero;fill:rgb(0%,0%,0%);fill-opacity:1;" d="M 233.1875 244.363281 C 231.421875 243.148438 230.972656 240.722656 232.191406 238.949219 C 233.410156 237.183594 235.832031 236.734375 237.605469 237.953125 C 239.375 239.171875 239.820312 241.59375 238.601562 243.367188 C 237.382812 245.132812 234.960938 245.582031 233.1875 244.363281 "/>
<path style=" stroke:none;fill-rule:nonzero;fill:rgb(0%,0%,0%);fill-opacity:1;" d="M 220.765625 262.414062 C 218.996094 261.195312 218.550781 258.773438 219.765625 257.003906 C 220.984375 255.230469 223.40625 254.785156 225.175781 256.007812 C 226.949219 257.222656 227.394531 259.648438 226.175781 261.414062 C 224.957031 263.1875 222.535156 263.636719 220.765625 262.414062 "/>
<path style=" stroke:none;fill-rule:nonzero;fill:rgb(0%,0%,0%);fill-opacity:1;" d="M 208.339844 280.46875 C 206.570312 279.246094 206.121094 276.824219 207.34375 275.054688 C 208.558594 273.285156 210.984375 272.835938 212.753906 274.054688 C 214.523438 275.273438 214.96875 277.695312 213.75 279.46875 C 212.535156 281.238281 210.109375 281.683594 208.339844 280.46875 "/>
<path style=" stroke:none;fill-rule:nonzero;fill:rgb(0%,0%,0%);fill-opacity:1;" d="M 195.914062 298.519531 C 194.144531 297.300781 193.695312 294.875 194.914062 293.105469 C 196.136719 291.335938 198.554688 290.886719 200.328125 292.105469 C 202.097656 293.328125 202.542969 295.746094 201.324219 297.519531 C 200.109375 299.289062 197.683594 299.734375 195.914062 298.519531 "/>
<path style=" stroke:none;fill-rule:nonzero;fill:rgb(0%,0%,0%);fill-opacity:1;" d="M 183.488281 316.566406 C 181.71875 315.351562 181.273438 312.925781 182.488281 311.15625 C 183.710938 309.386719 186.132812 308.9375 187.902344 310.15625 C 189.671875 311.375 190.117188 313.800781 188.902344 315.570312 C 187.679688 317.339844 185.261719 317.789062 183.488281 316.566406 "/>
<path style=" stroke:none;fill-rule:nonzero;fill:rgb(0%,0%,0%);fill-opacity:1;" d="M 171.0625 334.621094 C 169.292969 333.398438 168.847656 330.976562 170.066406 329.207031 C 171.28125 327.4375 173.707031 326.988281 175.476562 328.210938 C 177.246094 329.425781 177.695312 331.851562 176.472656 333.621094 C 175.257812 335.390625 172.832031 335.839844 171.0625 334.621094 "/>
<path style=" stroke:none;fill-rule:nonzero;fill:rgb(0%,0%,0%);fill-opacity:1;" d="M 299.308594 116.945312 C 297.539062 115.726562 297.09375 113.304688 298.308594 111.53125 C 299.527344 109.765625 301.953125 109.316406 303.71875 110.535156 C 305.492188 111.753906 305.941406 114.175781 304.71875 115.949219 C 303.5 117.71875 301.078125 118.164062 299.308594 116.945312 "/>
<path style=" stroke:none;fill-rule:nonzero;fill:rgb(0%,0%,0%);fill-opacity:1;" d="M 286.882812 134.996094 C 285.113281 133.78125 284.664062 131.355469 285.886719 129.585938 C 287.101562 127.8125 289.527344 127.367188 291.296875 128.585938 C 293.066406 129.804688 293.515625 132.230469 292.292969 134 C 291.078125 135.769531 288.652344 136.21875 286.882812 134.996094 "/>
<path style=" stroke:none;fill-rule:nonzero;fill:rgb(0%,0%,0%);fill-opacity:1;" d="M 274.460938 153.046875 C 272.6875 151.828125 272.238281 149.40625 273.460938 147.636719 C 274.679688 145.867188 277.101562 145.417969 278.871094 146.636719 C 280.640625 147.855469 281.085938 150.28125 279.871094 152.046875 C 278.652344 153.820312 276.226562 154.269531 274.460938 153.046875 "/>
<path style=" stroke:none;fill-rule:nonzero;fill:rgb(0%,0%,0%);fill-opacity:1;" d="M 262.03125 171.101562 C 260.261719 169.878906 259.816406 167.460938 261.035156 165.6875 C 262.253906 163.917969 264.675781 163.472656 266.445312 164.6875 C 268.214844 165.90625 268.664062 168.328125 267.445312 170.101562 C 266.222656 171.871094 263.804688 172.316406 262.03125 171.101562 "/>
<path style=" stroke:none;fill-rule:nonzero;fill:rgb(0%,0%,0%);fill-opacity:1;" d="M 249.605469 189.148438 C 247.839844 187.933594 247.390625 185.507812 248.609375 183.738281 C 249.824219 181.96875 252.25 181.519531 254.019531 182.738281 C 255.792969 183.960938 256.238281 186.382812 255.019531 188.152344 C 253.800781 189.921875 251.378906 190.371094 249.605469 189.148438 "/>
<path style=" stroke:none;fill-rule:nonzero;fill:rgb(0%,0%,0%);fill-opacity:1;" d="M 237.183594 207.199219 C 235.410156 205.984375 234.964844 203.558594 236.183594 201.789062 C 237.402344 200.015625 239.824219 199.570312 241.59375 200.792969 C 243.363281 202.007812 243.8125 204.433594 242.59375 206.203125 C 241.375 207.972656 238.949219 208.421875 237.183594 207.199219 "/>
<path style=" stroke:none;fill-rule:nonzero;fill:rgb(0%,0%,0%);fill-opacity:1;" d="M 224.757812 225.253906 C 222.984375 224.03125 222.539062 221.613281 223.757812 219.839844 C 224.976562 218.070312 227.398438 217.625 229.171875 218.839844 C 230.9375 220.058594 231.386719 222.484375 230.167969 224.253906 C 228.949219 226.023438 226.527344 226.472656 224.757812 225.253906 "/>
<path style=" stroke:none;fill-rule:nonzero;fill:rgb(0%,0%,0%);fill-opacity:1;" d="M 212.328125 243.304688 C 210.5625 242.085938 210.113281 239.664062 211.332031 237.890625 C 212.550781 236.121094 214.972656 235.675781 216.746094 236.890625 C 218.515625 238.113281 218.960938 240.535156 217.746094 242.304688 C 216.523438 244.074219 214.101562 244.523438 212.328125 243.304688 "/>
<path style=" stroke:none;fill-rule:nonzero;fill:rgb(0%,0%,0%);fill-opacity:1;" d="M 199.90625 261.355469 C 198.136719 260.136719 197.691406 257.710938 198.90625 255.945312 C 200.125 254.171875 202.546875 253.722656 204.316406 254.945312 C 206.089844 256.164062 206.535156 258.585938 205.316406 260.355469 C 204.097656 262.128906 201.675781 262.574219 199.90625 261.355469 "/>
<path style=" stroke:none;fill-rule:nonzero;fill:rgb(0%,0%,0%);fill-opacity:1;" d="M 187.480469 279.40625 C 185.710938 278.1875 185.261719 275.765625 186.484375 273.992188 C 187.699219 272.226562 190.125 271.777344 191.894531 272.996094 C 193.664062 274.210938 194.109375 276.636719 192.890625 278.40625 C 191.671875 280.175781 189.25 280.625 187.480469 279.40625 "/>
<path style=" stroke:none;fill-rule:nonzero;fill:rgb(0%,0%,0%);fill-opacity:1;" d="M 175.054688 297.457031 C 173.285156 296.238281 172.835938 293.816406 174.054688 292.042969 C 175.273438 290.273438 177.695312 289.828125 179.46875 291.046875 C 181.238281 292.265625 181.683594 294.6875 180.464844 296.457031 C 179.25 298.226562 176.824219 298.675781 175.054688 297.457031 "/>
<path style=" stroke:none;fill-rule:nonzero;fill:rgb(0%,0%,0%);fill-opacity:1;" d="M 162.628906 315.507812 C 160.859375 314.289062 160.410156 311.867188 161.628906 310.097656 C 162.851562 308.324219 165.273438 307.878906 167.042969 309.097656 C 168.8125 310.316406 169.257812 312.738281 168.042969 314.507812 C 166.820312 316.28125 164.398438 316.726562 162.628906 315.507812 "/>
<path style=" stroke:none;fill-rule:nonzero;fill:rgb(0%,0%,0%);fill-opacity:1;" d="M 150.203125 333.558594 C 148.433594 332.339844 147.988281 329.914062 149.207031 328.148438 C 150.421875 326.375 152.847656 325.929688 154.617188 327.148438 C 156.386719 328.367188 156.835938 330.789062 155.613281 332.558594 C 154.394531 334.332031 151.972656 334.777344 150.203125 333.558594 "/>
<g clip-path="url(#clip1)" clip-rule="nonzero">
<path style=" stroke:none;fill-rule:nonzero;fill:rgb(0%,0%,0%);fill-opacity:1;" d="M 198.921875 316.988281 C 184.277344 330.464844 164.140625 336.511719 144.480469 333.628906 C 142.800781 333.382812 141.140625 333.0625 139.496094 332.675781 C 142.050781 329.039062 144.535156 325.351562 147.054688 321.691406 C 161.417969 300.824219 175.785156 279.957031 190.148438 259.085938 C 209.523438 230.9375 228.898438 202.789062 248.273438 174.640625 C 263.679688 152.265625 279.082031 129.890625 294.484375 107.515625 C 297.96875 102.449219 301.46875 97.386719 304.945312 92.3125 C 305.054688 92.152344 305.160156 91.988281 305.269531 91.824219 C 307.671875 95.398438 309.71875 99.207031 311.394531 103.167969 C 319.015625 121.195312 318.179688 142.742188 308.578125 159.894531 C 305.664062 165.101562 302.027344 169.957031 298.648438 174.867188 C 284.054688 196.0625 269.464844 217.257812 254.875 238.457031 C 240.921875 258.726562 226.96875 278.996094 213.015625 299.269531 C 208.707031 305.527344 204.570312 311.796875 198.921875 316.988281 Z M 290.410156 93.789062 C 277.28125 112.863281 264.148438 131.9375 251.019531 151.015625 C 232.546875 177.855469 214.070312 204.691406 195.597656 231.527344 C 179.515625 254.890625 163.433594 278.257812 147.347656 301.621094 C 142.703125 308.371094 138.054688 315.125 133.40625 321.875 C 131.726562 324.316406 130.078125 326.691406 128.25 328.878906 C 125.667969 331.96875 122.730469 334.675781 118.851562 336.636719 C 118.683594 336.722656 118.523438 336.8125 118.355469 336.894531 C 108.71875 341.507812 97.511719 340.550781 88.664062 334.664062 C 79.347656 328.246094 75.144531 317.59375 76.242188 307.183594 C 76.667969 303.140625 77.890625 299.132812 79.929688 295.421875 C 80.410156 294.550781 80.933594 293.699219 81.5 292.863281 C 84.449219 288.539062 87.4375 284.242188 90.402344 279.929688 C 104.617188 259.277344 118.832031 238.628906 133.050781 217.976562 C 151.71875 190.859375 170.386719 163.742188 189.050781 136.621094 C 204.261719 114.523438 219.476562 92.425781 234.683594 70.328125 C 238.507812 64.773438 242.332031 59.21875 246.15625 53.664062 C 247.1875 52.160156 248.308594 50.742188 249.492188 49.40625 C 252.210938 46.328125 255.316406 43.75 258.785156 41.863281 C 263.332031 39.394531 268.496094 38.109375 274.253906 38.503906 C 291.621094 39.683594 302.824219 55.320312 301.472656 70.960938 C 301.125 74.960938 299.960938 78.960938 297.859375 82.722656 C 297.46875 83.421875 297.054688 84.113281 296.601562 84.796875 C 294.574219 87.816406 292.472656 90.789062 290.410156 93.789062 Z M 62.253906 261.582031 C 59.089844 244.433594 62.96875 226.902344 72.757812 212.523438 C 76.050781 207.683594 79.394531 202.882812 82.710938 198.0625 C 98.152344 175.625 113.597656 153.191406 129.039062 130.753906 C 141.75 112.292969 154.453125 93.835938 167.164062 75.375 C 173.503906 66.160156 180.863281 58.027344 190.769531 52.480469 C 205.214844 44.390625 222.1875 41.96875 238.152344 45.65625 C 236.628906 47.777344 235.183594 49.964844 233.703125 52.113281 C 220.5 71.292969 207.296875 90.472656 194.09375 109.652344 C 174.84375 137.621094 155.59375 165.582031 136.34375 193.550781 C 119.996094 217.296875 103.652344 241.042969 87.304688 264.789062 C 82.949219 271.121094 78.59375 277.449219 74.234375 283.777344 C 73.640625 284.644531 73.070312 285.515625 72.519531 286.398438 C 67.476562 279.035156 63.925781 270.671875 62.253906 261.582031 Z M 250.605469 264.296875 C 267.222656 240.160156 283.835938 216.023438 300.453125 191.882812 C 304.78125 185.59375 309.121094 179.304688 313.445312 173.011719 C 322.371094 160.019531 327.664062 144.859375 327.640625 129 C 327.621094 111.34375 321.625 94.222656 310.714844 80.601562 C 314.320312 69.433594 313.367188 57.171875 306.878906 46.695312 C 294.070312 26.015625 264.980469 21.078125 246.316406 36.5625 C 238.140625 33.847656 229.546875 32.480469 220.507812 32.867188 C 198.671875 33.800781 178.289062 43.714844 164.25 60.507812 C 160.195312 65.355469 156.78125 70.816406 153.203125 76.015625 C 146.511719 85.734375 139.824219 95.453125 133.128906 105.171875 C 116.160156 129.824219 99.1875 154.480469 82.21875 179.136719 C 70.484375 196.183594 55.949219 213.347656 51.660156 234.050781 C 47.324219 254.960938 52.03125 276.890625 64.328125 294.3125 C 65.179688 295.519531 66.078125 296.671875 67 297.792969 C 65.109375 303.375 64.328125 309.277344 65.117188 315.609375 C 66.523438 326.898438 72.996094 337.394531 82.351562 343.835938 C 97.71875 354.066406 117.414062 352.691406 131.136719 341.699219 C 162.441406 351.496094 198.039062 340.355469 217.617188 312.222656 C 228.695312 296.304688 239.609375 280.273438 250.605469 264.296875 "/>
</g>
<path style=" stroke:none;fill-rule:nonzero;fill:rgb(0%,0%,0%);fill-opacity:1;" d="M 249.539062 68.664062 C 251.320312 78.695312 253.101562 88.726562 254.882812 98.757812 C 255.609375 102.84375 257.101562 107.492188 252.882812 110.351562 C 251.253906 111.453125 249.148438 111.644531 247.246094 112.007812 C 244.28125 112.578125 241.3125 113.144531 238.34375 113.710938 C 233.296875 114.679688 227.511719 115.089844 222.804688 117.308594 C 214.46875 121.238281 211.230469 129.835938 212.65625 138.546875 C 213.582031 144.175781 214.65625 149.789062 215.65625 155.40625 C 216.511719 160.234375 218.027344 166.191406 211.78125 168.171875 C 207.160156 169.636719 201.992188 170.089844 197.242188 171 C 192.019531 172 185.871094 172.429688 181.347656 175.46875 C 168.238281 184.28125 174.511719 201.296875 176.757812 213.9375 C 177.652344 218.976562 177.746094 224.007812 171.460938 225.355469 C 166.402344 226.4375 161.277344 227.304688 156.191406 228.277344 C 150.308594 229.40625 144.40625 230.023438 139.765625 234.277344 C 133.804688 239.738281 133.335938 246.988281 134.652344 254.398438 C 135.710938 260.351562 136.769531 266.300781 137.824219 272.253906 C 138.683594 277.105469 137.484375 281.179688 132.023438 282.328125 C 121.476562 284.542969 110.839844 286.382812 100.257812 288.40625 C 99.164062 288.617188 98.0625 288.828125 96.964844 289.039062 C 89.457031 290.472656 92.636719 301.933594 100.121094 300.503906 C 110.402344 298.535156 120.683594 296.566406 130.964844 294.597656 C 136.683594 293.503906 141.976562 292.171875 145.898438 287.351562 C 150.9375 281.167969 150.214844 274.3125 148.929688 267.074219 C 147.894531 261.246094 146.570312 255.398438 145.8125 249.53125 C 145.113281 244.125 148.746094 241.773438 153.511719 240.863281 C 159.601562 239.699219 165.695312 238.53125 171.789062 237.363281 C 179.242188 235.933594 185.65625 232.296875 188.308594 224.699219 C 190.359375 218.832031 188.542969 212.578125 187.492188 206.679688 C 186.621094 201.765625 185.167969 196.628906 184.824219 191.648438 C 184.367188 185.03125 190.914062 184.28125 195.757812 183.351562 C 201.535156 182.246094 207.332031 181.203125 213.09375 180.035156 C 221.835938 178.265625 228.617188 170.78125 228.53125 161.636719 C 228.488281 156.335938 226.847656 150.734375 225.925781 145.550781 C 225.191406 141.417969 222.625 134.785156 224.910156 130.777344 C 227.304688 126.578125 234.597656 126.496094 238.828125 125.6875 C 243.730469 124.75 248.753906 124.054688 253.597656 122.835938 C 263.597656 120.328125 268.832031 110.664062 267.28125 100.855469 C 265.601562 90.226562 263.515625 79.644531 261.632812 69.050781 C 261.421875 67.867188 261.210938 66.683594 261 65.503906 C 259.667969 57.984375 248.207031 61.171875 249.539062 68.664062 "/>
</g>
</svg>
