<?xml version="1.0" encoding="UTF-8"?>
<svg xmlns="http://www.w3.org/2000/svg" xmlns:xlink="http://www.w3.org/1999/xlink" width="375pt" height="374.999991pt" viewBox="0 0 375 374.999991" version="1.2">
<defs>
<clipPath id="clip1">
  <path d="M 50 27 L 327.769531 27 L 327.769531 351 L 50 351 Z M 50 27 "/>
</clipPath>
</defs>
<g id="surface1">
<path style=" stroke:none;fill-rule:nonzero;fill:rgb(100%,100%,100%);fill-opacity:1;" d="M 313.511719 153.347656 C 311.738281 152.128906 311.292969 149.707031 312.511719 147.933594 C 313.730469 146.164062 316.152344 145.71875 317.921875 146.933594 C 319.695312 148.15625 320.140625 150.578125 318.921875 152.347656 C 317.703125 154.121094 315.28125 154.566406 313.511719 153.347656 "/>
<path style=" stroke:none;fill-rule:nonzero;fill:rgb(100%,100%,100%);fill-opacity:1;" d="M 301.082031 171.40625 C 299.3125 170.1875 298.863281 167.761719 300.085938 165.992188 C 301.300781 164.222656 303.726562 163.773438 305.496094 164.992188 C 307.265625 166.214844 307.714844 168.636719 306.496094 170.40625 C 305.273438 172.179688 302.851562 172.625 301.082031 171.40625 "/>
<path style=" stroke:none;fill-rule:nonzero;fill:rgb(100%,100%,100%);fill-opacity:1;" d="M 288.65625 189.460938 C 286.886719 188.246094 286.4375 185.820312 287.65625 184.046875 C 288.875 182.28125 291.296875 181.832031 293.070312 183.050781 C 294.839844 184.269531 295.285156 186.695312 294.070312 188.464844 C 292.847656 190.234375 290.425781 190.683594 288.65625 189.460938 "/>
<path style=" stroke:none;fill-rule:nonzero;fill:rgb(100%,100%,100%);fill-opacity:1;" d="M 276.226562 207.519531 C 274.457031 206.300781 274.011719 203.878906 275.226562 202.105469 C 276.449219 200.335938 278.867188 199.886719 280.640625 201.105469 C 282.410156 202.328125 282.855469 204.75 281.640625 206.519531 C 280.421875 208.292969 278 208.742188 276.226562 207.519531 "/>
<path style=" stroke:none;fill-rule:nonzero;fill:rgb(100%,100%,100%);fill-opacity:1;" d="M 263.800781 225.578125 C 262.027344 224.359375 261.582031 221.9375 262.800781 220.164062 C 264.019531 218.394531 266.445312 217.945312 268.214844 219.164062 C 269.984375 220.382812 270.433594 222.804688 269.210938 224.578125 C 267.996094 226.351562 265.570312 226.796875 263.800781 225.578125 "/>
<path style=" stroke:none;fill-rule:nonzero;fill:rgb(100%,100%,100%);fill-opacity:1;" d="M 251.371094 243.636719 C 249.601562 242.417969 249.152344 239.992188 250.375 238.222656 C 251.59375 236.449219 254.015625 236 255.785156 237.222656 C 257.558594 238.441406 258.003906 240.863281 256.785156 242.636719 C 255.566406 244.410156 253.140625 244.855469 251.371094 243.636719 "/>
<path style=" stroke:none;fill-rule:nonzero;fill:rgb(100%,100%,100%);fill-opacity:1;" d="M 238.945312 261.691406 C 237.175781 260.476562 236.726562 258.050781 237.945312 256.277344 C 239.164062 254.507812 241.589844 254.058594 243.359375 255.28125 C 245.128906 256.496094 245.574219 258.921875 244.359375 260.695312 C 243.136719 262.464844 240.714844 262.914062 238.945312 261.691406 "/>
<path style=" stroke:none;fill-rule:nonzero;fill:rgb(100%,100%,100%);fill-opacity:1;" d="M 226.515625 279.75 C 224.746094 278.53125 224.300781 276.109375 225.519531 274.335938 C 226.738281 272.5625 229.160156 272.117188 230.933594 273.339844 C 232.703125 274.554688 233.148438 276.980469 231.929688 278.753906 C 230.710938 280.519531 228.289062 280.96875 226.515625 279.75 "/>
<path style=" stroke:none;fill-rule:nonzero;fill:rgb(100%,100%,100%);fill-opacity:1;" d="M 214.089844 297.808594 C 212.320312 296.589844 211.871094 294.164062 213.089844 292.394531 C 214.3125 290.621094 216.734375 290.175781 218.503906 291.394531 C 220.273438 292.613281 220.71875 295.035156 219.503906 296.808594 C 218.285156 298.578125 215.859375 299.027344 214.089844 297.808594 "/>
<path style=" stroke:none;fill-rule:nonzero;fill:rgb(100%,100%,100%);fill-opacity:1;" d="M 201.664062 315.867188 C 199.890625 314.644531 199.445312 312.222656 200.664062 310.453125 C 201.882812 308.679688 204.308594 308.230469 206.074219 309.453125 C 207.847656 310.671875 208.296875 313.09375 207.074219 314.867188 C 205.855469 316.636719 203.433594 317.082031 201.664062 315.867188 "/>
<path style=" stroke:none;fill-rule:nonzero;fill:rgb(100%,100%,100%);fill-opacity:1;" d="M 189.234375 333.921875 C 187.464844 332.703125 187.015625 330.277344 188.238281 328.507812 C 189.453125 326.738281 191.878906 326.289062 193.648438 327.507812 C 195.421875 328.726562 195.867188 331.152344 194.648438 332.925781 C 193.425781 334.695312 191.003906 335.140625 189.234375 333.921875 "/>
<path style=" stroke:none;fill-rule:nonzero;fill:rgb(100%,100%,100%);fill-opacity:1;" d="M 307.785156 136.101562 C 306.015625 134.878906 305.570312 132.453125 306.789062 130.683594 C 308.007812 128.914062 310.429688 128.464844 312.199219 129.683594 C 313.972656 130.90625 314.417969 133.328125 313.199219 135.097656 C 311.980469 136.871094 309.554688 137.316406 307.785156 136.101562 "/>
<path style=" stroke:none;fill-rule:nonzero;fill:rgb(100%,100%,100%);fill-opacity:1;" d="M 295.359375 154.15625 C 293.589844 152.9375 293.144531 150.511719 294.359375 148.742188 C 295.578125 146.972656 298.003906 146.523438 299.773438 147.742188 C 301.542969 148.960938 301.992188 151.386719 300.773438 153.15625 C 299.550781 154.929688 297.128906 155.375 295.359375 154.15625 "/>
<path style=" stroke:none;fill-rule:nonzero;fill:rgb(100%,100%,100%);fill-opacity:1;" d="M 282.929688 172.210938 C 281.160156 170.992188 280.714844 168.570312 281.933594 166.796875 C 283.152344 165.027344 285.574219 164.582031 287.347656 165.800781 C 289.113281 167.019531 289.5625 169.445312 288.34375 171.214844 C 287.125 172.984375 284.703125 173.433594 282.929688 172.210938 "/>
<path style=" stroke:none;fill-rule:nonzero;fill:rgb(100%,100%,100%);fill-opacity:1;" d="M 270.503906 190.269531 C 268.734375 189.050781 268.285156 186.628906 269.507812 184.855469 C 270.726562 183.085938 273.148438 182.640625 274.917969 183.855469 C 276.6875 185.078125 277.136719 187.5 275.914062 189.269531 C 274.699219 191.042969 272.273438 191.488281 270.503906 190.269531 "/>
<path style=" stroke:none;fill-rule:nonzero;fill:rgb(100%,100%,100%);fill-opacity:1;" d="M 258.078125 208.328125 C 256.304688 207.109375 255.859375 204.683594 257.078125 202.914062 C 258.296875 201.144531 260.722656 200.695312 262.488281 201.914062 C 264.261719 203.132812 264.707031 205.558594 263.488281 207.328125 C 262.269531 209.101562 259.84375 209.546875 258.078125 208.328125 "/>
<path style=" stroke:none;fill-rule:nonzero;fill:rgb(100%,100%,100%);fill-opacity:1;" d="M 245.648438 226.386719 C 243.878906 225.167969 243.433594 222.742188 244.648438 220.96875 C 245.867188 219.203125 248.292969 218.753906 250.0625 219.972656 C 251.832031 221.191406 252.28125 223.613281 251.0625 225.386719 C 249.84375 227.160156 247.421875 227.605469 245.648438 226.386719 "/>
<path style=" stroke:none;fill-rule:nonzero;fill:rgb(100%,100%,100%);fill-opacity:1;" d="M 233.21875 244.441406 C 231.453125 243.226562 231.003906 240.800781 232.222656 239.027344 C 233.441406 237.257812 235.863281 236.808594 237.636719 238.03125 C 239.40625 239.246094 239.851562 241.671875 238.632812 243.445312 C 237.414062 245.214844 234.992188 245.664062 233.21875 244.441406 "/>
<path style=" stroke:none;fill-rule:nonzero;fill:rgb(100%,100%,100%);fill-opacity:1;" d="M 220.792969 262.5 C 219.023438 261.28125 218.578125 258.859375 219.792969 257.085938 C 221.015625 255.3125 223.4375 254.867188 225.207031 256.089844 C 226.976562 257.304688 227.425781 259.730469 226.207031 261.5 C 224.988281 263.273438 222.566406 263.722656 220.792969 262.5 "/>
<path style=" stroke:none;fill-rule:nonzero;fill:rgb(100%,100%,100%);fill-opacity:1;" d="M 208.367188 280.558594 C 206.59375 279.339844 206.148438 276.914062 207.371094 275.144531 C 208.585938 273.371094 211.011719 272.925781 212.78125 274.144531 C 214.550781 275.363281 215 277.785156 213.777344 279.558594 C 212.5625 281.328125 210.136719 281.777344 208.367188 280.558594 "/>
<path style=" stroke:none;fill-rule:nonzero;fill:rgb(100%,100%,100%);fill-opacity:1;" d="M 195.9375 298.617188 C 194.167969 297.394531 193.722656 294.972656 194.941406 293.203125 C 196.160156 291.429688 198.582031 290.980469 200.351562 292.203125 C 202.125 293.421875 202.570312 295.84375 201.351562 297.617188 C 200.132812 299.386719 197.707031 299.835938 195.9375 298.617188 "/>
<path style=" stroke:none;fill-rule:nonzero;fill:rgb(100%,100%,100%);fill-opacity:1;" d="M 183.511719 316.671875 C 181.742188 315.453125 181.296875 313.027344 182.511719 311.257812 C 183.730469 309.488281 186.15625 309.039062 187.925781 310.261719 C 189.695312 311.476562 190.140625 313.902344 188.925781 315.675781 C 187.703125 317.445312 185.285156 317.890625 183.511719 316.671875 "/>
<path style=" stroke:none;fill-rule:nonzero;fill:rgb(100%,100%,100%);fill-opacity:1;" d="M 171.082031 334.730469 C 169.3125 333.507812 168.867188 331.085938 170.085938 329.316406 C 171.304688 327.542969 173.726562 327.097656 175.5 328.316406 C 177.265625 329.535156 177.714844 331.960938 176.496094 333.734375 C 175.277344 335.5 172.855469 335.949219 171.082031 334.730469 "/>
<path style=" stroke:none;fill-rule:nonzero;fill:rgb(100%,100%,100%);fill-opacity:1;" d="M 299.351562 116.980469 C 297.582031 115.761719 297.132812 113.335938 298.351562 111.566406 C 299.570312 109.796875 301.996094 109.347656 303.761719 110.566406 C 305.535156 111.785156 305.984375 114.210938 304.761719 115.980469 C 303.542969 117.753906 301.121094 118.199219 299.351562 116.980469 "/>
<path style=" stroke:none;fill-rule:nonzero;fill:rgb(100%,100%,100%);fill-opacity:1;" d="M 286.921875 135.039062 C 285.15625 133.820312 284.707031 131.394531 285.925781 129.621094 C 287.140625 127.851562 289.566406 127.40625 291.339844 128.625 C 293.109375 129.84375 293.554688 132.269531 292.335938 134.039062 C 291.117188 135.808594 288.695312 136.257812 286.921875 135.039062 "/>
<path style=" stroke:none;fill-rule:nonzero;fill:rgb(100%,100%,100%);fill-opacity:1;" d="M 274.496094 153.09375 C 272.726562 151.875 272.277344 149.453125 273.496094 147.679688 C 274.71875 145.910156 277.136719 145.464844 278.910156 146.679688 C 280.679688 147.902344 281.125 150.328125 279.910156 152.09375 C 278.691406 153.867188 276.265625 154.316406 274.496094 153.09375 "/>
<path style=" stroke:none;fill-rule:nonzero;fill:rgb(100%,100%,100%);fill-opacity:1;" d="M 262.070312 171.152344 C 260.296875 169.933594 259.851562 167.511719 261.070312 165.738281 C 262.289062 163.96875 264.710938 163.519531 266.480469 164.738281 C 268.25 165.960938 268.699219 168.382812 267.480469 170.152344 C 266.261719 171.925781 263.839844 172.371094 262.070312 171.152344 "/>
<path style=" stroke:none;fill-rule:nonzero;fill:rgb(100%,100%,100%);fill-opacity:1;" d="M 249.640625 189.207031 C 247.871094 187.992188 247.421875 185.566406 248.644531 183.796875 C 249.859375 182.027344 252.285156 181.578125 254.054688 182.796875 C 255.828125 184.015625 256.273438 186.4375 255.050781 188.210938 C 253.835938 189.984375 251.410156 190.429688 249.640625 189.207031 "/>
<path style=" stroke:none;fill-rule:nonzero;fill:rgb(100%,100%,100%);fill-opacity:1;" d="M 237.214844 207.265625 C 235.445312 206.050781 234.996094 203.625 236.214844 201.851562 C 237.433594 200.082031 239.855469 199.632812 241.625 200.855469 C 243.398438 202.074219 243.84375 204.496094 242.625 206.269531 C 241.40625 208.039062 238.984375 208.488281 237.214844 207.265625 "/>
<path style=" stroke:none;fill-rule:nonzero;fill:rgb(100%,100%,100%);fill-opacity:1;" d="M 224.785156 225.324219 C 223.015625 224.105469 222.570312 221.683594 223.789062 219.910156 C 225.003906 218.140625 227.429688 217.691406 229.203125 218.910156 C 230.96875 220.128906 231.417969 222.554688 230.199219 224.324219 C 228.976562 226.097656 226.558594 226.546875 224.785156 225.324219 "/>
<path style=" stroke:none;fill-rule:nonzero;fill:rgb(100%,100%,100%);fill-opacity:1;" d="M 212.355469 243.382812 C 210.589844 242.164062 210.140625 239.742188 211.359375 237.96875 C 212.578125 236.195312 215 235.75 216.773438 236.96875 C 218.542969 238.1875 218.988281 240.609375 217.773438 242.382812 C 216.554688 244.152344 214.128906 244.601562 212.355469 243.382812 "/>
<path style=" stroke:none;fill-rule:nonzero;fill:rgb(100%,100%,100%);fill-opacity:1;" d="M 199.933594 261.441406 C 198.160156 260.222656 197.714844 257.796875 198.933594 256.027344 C 200.152344 254.253906 202.574219 253.804688 204.34375 255.027344 C 206.117188 256.246094 206.5625 258.667969 205.34375 260.441406 C 204.125 262.210938 201.699219 262.660156 199.933594 261.441406 "/>
<path style=" stroke:none;fill-rule:nonzero;fill:rgb(100%,100%,100%);fill-opacity:1;" d="M 187.503906 279.496094 C 185.730469 278.277344 185.285156 275.855469 186.507812 274.082031 C 187.722656 272.3125 190.148438 271.863281 191.917969 273.085938 C 193.6875 274.300781 194.136719 276.726562 192.914062 278.5 C 191.695312 280.265625 189.273438 280.714844 187.503906 279.496094 "/>
<path style=" stroke:none;fill-rule:nonzero;fill:rgb(100%,100%,100%);fill-opacity:1;" d="M 175.074219 297.554688 C 173.308594 296.332031 172.859375 293.910156 174.078125 292.140625 C 175.292969 290.367188 177.71875 289.921875 179.488281 291.140625 C 181.261719 292.359375 181.707031 294.785156 180.488281 296.554688 C 179.269531 298.324219 176.847656 298.773438 175.074219 297.554688 "/>
<path style=" stroke:none;fill-rule:nonzero;fill:rgb(100%,100%,100%);fill-opacity:1;" d="M 162.648438 315.613281 C 160.878906 314.390625 160.429688 311.96875 161.648438 310.199219 C 162.867188 308.425781 165.292969 307.980469 167.0625 309.199219 C 168.832031 310.417969 169.277344 312.839844 168.0625 314.613281 C 166.839844 316.382812 164.417969 316.828125 162.648438 315.613281 "/>
<path style=" stroke:none;fill-rule:nonzero;fill:rgb(100%,100%,100%);fill-opacity:1;" d="M 150.222656 333.671875 C 148.449219 332.449219 148.003906 330.023438 149.222656 328.257812 C 150.441406 326.484375 152.863281 326.035156 154.636719 327.253906 C 156.402344 328.476562 156.851562 330.898438 155.632812 332.671875 C 154.414062 334.441406 151.992188 334.886719 150.222656 333.671875 "/>
<g clip-path="url(#clip1)" clip-rule="nonzero">
<path style=" stroke:none;fill-rule:nonzero;fill:rgb(100%,100%,100%);fill-opacity:1;" d="M 198.949219 317.09375 C 184.296875 330.574219 164.160156 336.621094 144.496094 333.738281 C 142.816406 333.492188 141.15625 333.171875 139.511719 332.785156 C 142.066406 329.148438 144.550781 325.460938 147.070312 321.796875 C 161.4375 300.921875 175.804688 280.046875 190.171875 259.171875 C 209.550781 231.011719 228.929688 202.851562 248.308594 174.695312 C 263.714844 152.3125 279.121094 129.929688 294.523438 107.546875 C 298.011719 102.476562 301.507812 97.414062 304.988281 92.339844 C 305.097656 92.179688 305.203125 92.011719 305.3125 91.847656 C 307.714844 95.425781 309.765625 99.234375 311.4375 103.195312 C 319.0625 121.230469 318.222656 142.785156 308.621094 159.945312 C 305.707031 165.152344 302.070312 170.011719 298.6875 174.921875 C 284.09375 196.125 269.503906 217.328125 254.910156 238.53125 C 240.953125 258.8125 227 279.085938 213.042969 299.367188 C 208.734375 305.625 204.59375 311.898438 198.949219 317.09375 Z M 290.453125 93.8125 C 277.316406 112.898438 264.1875 131.976562 251.050781 151.058594 C 232.578125 177.910156 214.097656 204.753906 195.621094 231.601562 C 179.535156 254.972656 163.453125 278.347656 147.367188 301.71875 C 142.71875 308.472656 138.070312 315.226562 133.421875 321.980469 C 131.742188 324.421875 130.089844 326.800781 128.261719 328.988281 C 125.683594 332.078125 122.742188 334.785156 118.863281 336.75 C 118.695312 336.832031 118.535156 336.921875 118.367188 337.007812 C 108.730469 341.621094 97.523438 340.664062 88.671875 334.773438 C 79.351562 328.355469 75.152344 317.695312 76.246094 307.285156 C 76.675781 303.238281 77.894531 299.230469 79.933594 295.519531 C 80.414062 294.648438 80.9375 293.792969 81.507812 292.960938 C 84.457031 288.632812 87.441406 284.335938 90.410156 280.023438 C 104.628906 259.363281 118.847656 238.707031 133.0625 218.046875 C 151.734375 190.917969 170.40625 163.789062 189.078125 136.664062 C 204.289062 114.558594 219.503906 92.449219 234.714844 70.34375 C 238.539062 64.785156 242.363281 59.234375 246.1875 53.675781 C 247.222656 52.171875 248.34375 50.753906 249.527344 49.414062 C 252.246094 46.339844 255.351562 43.757812 258.820312 41.871094 C 263.367188 39.398438 268.535156 38.113281 274.292969 38.507812 C 291.664062 39.6875 302.867188 55.332031 301.515625 70.980469 C 301.167969 74.980469 300.003906 78.984375 297.902344 82.742188 C 297.511719 83.441406 297.097656 84.136719 296.640625 84.816406 C 294.617188 87.839844 292.515625 90.816406 290.453125 93.8125 Z M 62.253906 261.667969 C 59.089844 244.511719 62.972656 226.976562 72.761719 212.589844 C 76.054688 207.75 79.398438 202.945312 82.71875 198.121094 C 98.164062 175.679688 113.609375 153.238281 129.054688 130.792969 C 141.765625 112.328125 154.472656 93.859375 167.183594 75.394531 C 173.527344 66.179688 180.886719 58.039062 190.792969 52.492188 C 205.242188 44.398438 222.214844 41.976562 238.183594 45.664062 C 236.660156 47.789062 235.214844 49.976562 233.734375 52.125 C 220.527344 71.308594 207.324219 90.5 194.121094 109.683594 C 174.863281 137.660156 155.613281 165.632812 136.359375 193.609375 C 120.011719 217.367188 103.660156 241.121094 87.3125 264.875 C 82.957031 271.207031 78.601562 277.539062 74.242188 283.871094 C 73.644531 284.738281 73.078125 285.609375 72.523438 286.492188 C 67.480469 279.128906 63.929688 270.757812 62.253906 261.667969 Z M 250.640625 264.382812 C 267.257812 240.238281 283.875 216.089844 300.496094 191.945312 C 304.824219 185.652344 309.164062 179.363281 313.488281 173.066406 C 322.417969 160.066406 327.710938 144.902344 327.6875 129.039062 C 327.667969 111.375 321.671875 94.246094 310.757812 80.621094 C 314.363281 69.453125 313.410156 57.1875 306.921875 46.703125 C 294.113281 26.019531 265.015625 21.078125 246.347656 36.570312 C 238.175781 33.851562 229.578125 32.484375 220.539062 32.871094 C 198.695312 33.804688 178.308594 43.722656 164.269531 60.523438 C 160.214844 65.371094 156.800781 70.832031 153.222656 76.035156 C 146.53125 85.757812 139.839844 95.480469 133.144531 105.203125 C 116.171875 129.863281 99.195312 154.53125 82.226562 179.191406 C 70.488281 196.246094 55.949219 213.414062 51.660156 234.128906 C 47.324219 255.042969 52.03125 276.980469 64.332031 294.410156 C 65.183594 295.617188 66.082031 296.765625 67.003906 297.890625 C 65.113281 303.472656 64.328125 309.378906 65.117188 315.710938 C 66.527344 327.007812 73 337.503906 82.355469 343.949219 C 97.726562 354.183594 117.429688 352.808594 131.152344 341.8125 C 162.460938 351.613281 198.066406 340.46875 217.644531 312.324219 C 228.722656 296.402344 239.640625 280.363281 250.640625 264.382812 "/>
</g>
<path style=" stroke:none;fill-rule:nonzero;fill:rgb(100%,100%,100%);fill-opacity:1;" d="M 249.570312 68.679688 C 251.355469 78.714844 253.136719 88.753906 254.917969 98.785156 C 255.644531 102.875 257.136719 107.523438 252.917969 110.382812 C 251.289062 111.484375 249.183594 111.675781 247.28125 112.039062 C 244.3125 112.609375 241.34375 113.175781 238.375 113.742188 C 233.328125 114.710938 227.542969 115.125 222.835938 117.339844 C 214.496094 121.273438 211.257812 129.875 212.6875 138.585938 C 213.613281 144.21875 214.683594 149.832031 215.683594 155.453125 C 216.539062 160.285156 218.058594 166.242188 211.808594 168.222656 C 207.1875 169.6875 202.019531 170.144531 197.269531 171.050781 C 192.046875 172.050781 185.894531 172.480469 181.371094 175.523438 C 168.261719 184.339844 174.53125 201.359375 176.777344 214.003906 C 177.675781 219.046875 177.769531 224.078125 171.484375 225.425781 C 166.421875 226.511719 161.296875 227.378906 156.207031 228.351562 C 150.324219 229.480469 144.421875 230.097656 139.78125 234.355469 C 133.820312 239.816406 133.351562 247.070312 134.667969 254.480469 C 135.722656 260.433594 136.78125 266.386719 137.839844 272.34375 C 138.699219 277.195312 137.496094 281.269531 132.035156 282.421875 C 121.488281 284.636719 110.851562 286.476562 100.269531 288.5 C 99.171875 288.710938 98.070312 288.921875 96.972656 289.132812 C 89.464844 290.570312 92.644531 302.035156 100.132812 300.601562 C 110.414062 298.632812 120.699219 296.664062 130.980469 294.695312 C 136.699219 293.597656 141.992188 292.265625 145.917969 287.449219 C 150.953125 281.257812 150.234375 274.402344 148.945312 267.160156 C 147.910156 261.332031 146.589844 255.480469 145.832031 249.613281 C 145.128906 244.203125 148.761719 241.851562 153.527344 240.9375 C 159.621094 239.773438 165.714844 238.605469 171.808594 237.4375 C 179.265625 236.011719 185.679688 232.371094 188.332031 224.769531 C 190.382812 218.902344 188.566406 212.644531 187.515625 206.742188 C 186.640625 201.828125 185.191406 196.691406 184.847656 191.707031 C 184.390625 185.089844 190.9375 184.339844 195.78125 183.410156 C 201.5625 182.304688 207.355469 181.261719 213.121094 180.09375 C 221.867188 178.320312 228.648438 170.835938 228.5625 161.6875 C 228.515625 156.386719 226.878906 150.777344 225.957031 145.597656 C 225.222656 141.460938 222.65625 134.828125 224.941406 130.816406 C 227.335938 126.617188 234.628906 126.535156 238.859375 125.726562 C 243.761719 124.789062 248.789062 124.089844 253.632812 122.875 C 263.636719 120.363281 268.867188 110.695312 267.320312 100.882812 C 265.636719 90.25 263.550781 79.667969 261.667969 69.066406 C 261.457031 67.882812 261.25 66.703125 261.039062 65.519531 C 259.703125 57.996094 248.242188 61.183594 249.570312 68.679688 "/>
</g>
</svg>
