<?xml version="1.0" encoding="UTF-8"?>
<svg xmlns="http://www.w3.org/2000/svg" xmlns:xlink="http://www.w3.org/1999/xlink" width="375pt" height="374.999991pt" viewBox="0 0 375 374.999991" version="1.2">
<defs>
<clipPath id="clip1">
  <path d="M 31.71875 31.71875 L 342.664062 31.71875 L 342.664062 342.664062 L 31.71875 342.664062 Z M 31.71875 31.71875 "/>
</clipPath>
</defs>
<g id="surface1">
<g clip-path="url(#clip1)" clip-rule="nonzero">
<path style=" stroke:none;fill-rule:nonzero;fill:rgb(0%,0%,0%);fill-opacity:1;" d="M 167.757812 211.484375 C 167.757812 201.109375 163.707031 191.34375 156.371094 184.003906 C 141.6875 169.3125 116.082031 169.324219 101.410156 184.003906 C 94.074219 191.34375 90.023438 201.109375 90.023438 211.484375 C 90.023438 221.863281 94.074219 231.628906 101.410156 238.964844 C 108.746094 246.3125 118.511719 250.355469 128.890625 250.355469 C 139.269531 250.355469 149.035156 246.3125 156.371094 238.964844 C 163.707031 231.628906 167.757812 221.863281 167.757812 211.484375 Z M 142.628906 225.226562 C 135.285156 232.570312 122.496094 232.570312 115.152344 225.226562 C 111.476562 221.550781 109.457031 216.675781 109.457031 211.484375 C 109.457031 206.296875 111.476562 201.417969 115.152344 197.746094 C 118.824219 194.074219 123.703125 192.050781 128.890625 192.050781 C 134.078125 192.050781 138.957031 194.074219 142.628906 197.746094 C 146.304688 201.417969 148.324219 206.296875 148.324219 211.484375 C 148.324219 216.675781 146.304688 221.550781 142.628906 225.226562 Z M 158.042969 260.070312 L 187.191406 211.484375 L 216.34375 260.070312 Z M 187.191406 279.496094 L 235.789062 279.515625 L 235.789062 298.949219 L 187.191406 298.929688 L 138.609375 298.949219 L 138.597656 279.515625 Z M 245.496094 172.617188 C 235.117188 172.617188 225.351562 176.667969 218.015625 183.996094 C 210.667969 191.34375 206.628906 201.109375 206.628906 211.484375 C 206.628906 221.863281 210.667969 231.628906 218.015625 238.964844 C 225.351562 246.3125 235.117188 250.355469 245.496094 250.355469 C 255.871094 250.355469 265.636719 246.3125 272.976562 238.964844 C 280.320312 231.628906 284.363281 221.863281 284.363281 211.484375 C 284.363281 201.109375 280.320312 191.34375 272.976562 184.003906 C 265.636719 176.667969 255.871094 172.617188 245.496094 172.617188 Z M 259.234375 225.226562 C 251.890625 232.570312 239.101562 232.570312 231.753906 225.226562 C 228.082031 221.550781 226.0625 216.675781 226.0625 211.484375 C 226.0625 206.296875 228.082031 201.417969 231.753906 197.746094 C 235.429688 194.074219 240.304688 192.050781 245.496094 192.050781 C 250.683594 192.050781 255.5625 194.074219 259.234375 197.746094 C 262.90625 201.417969 264.929688 206.296875 264.929688 211.484375 C 264.929688 216.675781 262.90625 221.550781 259.234375 225.226562 Z M 313.523438 183.605469 L 313.523438 158.042969 C 313.523438 136.65625 296.09375 128.890625 284.375 128.890625 L 196.910156 128.890625 L 196.910156 88.234375 C 208.191406 84.210938 216.34375 73.523438 216.34375 60.871094 C 216.34375 44.800781 203.265625 31.71875 187.191406 31.71875 C 171.121094 31.71875 158.042969 44.800781 158.042969 60.871094 C 158.042969 73.523438 166.195312 84.210938 177.476562 88.234375 L 177.476562 128.890625 L 90.023438 128.890625 C 68.636719 128.890625 60.871094 146.324219 60.871094 158.042969 L 60.871094 183.605469 C 45.238281 187.203125 31.71875 199.15625 31.71875 221.203125 L 31.71875 260.128906 C 31.914062 276.902344 41.097656 293.757812 60.871094 297.929688 L 60.871094 313.515625 C 60.871094 334.902344 78.304688 342.664062 90.023438 342.664062 L 284.375 342.664062 C 305.761719 342.664062 313.523438 325.234375 313.523438 313.515625 L 313.523438 297.929688 C 333.289062 293.75 342.472656 276.882812 342.664062 260.023438 L 342.664062 221.203125 C 342.664062 199.164062 329.160156 187.203125 313.523438 183.605469 Z M 187.191406 51.152344 C 192.546875 51.152344 196.910156 55.515625 196.910156 60.871094 C 196.910156 66.226562 192.546875 70.589844 187.191406 70.589844 C 181.839844 70.589844 177.476562 66.226562 177.476562 60.871094 C 177.476562 55.515625 181.839844 51.152344 187.191406 51.152344 Z M 51.152344 260.011719 L 51.152344 221.203125 C 51.152344 211.078125 55.671875 206.113281 60.871094 203.761719 L 60.871094 277.640625 C 52.765625 273.925781 51.222656 265.503906 51.152344 260.011719 Z M 294.089844 313.398438 C 293.972656 317.886719 292.203125 323.230469 284.375 323.230469 L 90.128906 323.230469 C 85.648438 323.113281 80.304688 321.347656 80.304688 313.515625 L 80.304688 158.148438 C 80.414062 153.667969 82.191406 148.324219 90.023438 148.324219 L 284.265625 148.324219 C 288.753906 148.441406 294.101562 150.21875 294.101562 158.042969 L 294.101562 313.398438 Z M 323.230469 259.894531 C 323.164062 265.464844 321.628906 273.90625 313.523438 277.628906 L 313.523438 203.75 C 318.714844 206.121094 323.230469 211.078125 323.230469 221.203125 Z M 323.230469 259.894531 "/>
</g>
</g>
</svg>
