<?xml version="1.0" encoding="UTF-8"?>
<svg xmlns="http://www.w3.org/2000/svg" xmlns:xlink="http://www.w3.org/1999/xlink" width="375pt" height="374.999991pt" viewBox="0 0 375 374.999991" version="1.2">
<defs>
<clipPath id="clip1">
  <path d="M 31.71875 31.71875 L 342.96875 31.71875 L 342.96875 342.96875 L 31.71875 342.96875 Z M 31.71875 31.71875 "/>
</clipPath>
</defs>
<g id="surface1">
<g clip-path="url(#clip1)" clip-rule="nonzero">
<path style=" stroke:none;fill-rule:nonzero;fill:rgb(100%,100%,100%);fill-opacity:1;" d="M 167.890625 211.660156 C 167.890625 201.273438 163.835938 191.5 156.492188 184.15625 C 141.796875 169.449219 116.167969 169.457031 101.480469 184.15625 C 94.136719 191.5 90.078125 201.273438 90.078125 211.660156 C 90.078125 222.050781 94.136719 231.824219 101.480469 239.167969 C 108.824219 246.519531 118.597656 250.566406 128.984375 250.566406 C 139.375 250.566406 149.148438 246.519531 156.492188 239.167969 C 163.835938 231.824219 167.890625 222.050781 167.890625 211.660156 Z M 142.738281 225.414062 C 135.386719 232.769531 122.585938 232.769531 115.230469 225.414062 C 111.554688 221.738281 109.53125 216.855469 109.53125 211.660156 C 109.53125 206.46875 111.554688 201.585938 115.230469 197.90625 C 118.910156 194.230469 123.792969 192.207031 128.984375 192.207031 C 134.179688 192.207031 139.0625 194.230469 142.738281 197.90625 C 146.414062 201.585938 148.4375 206.46875 148.4375 211.660156 C 148.4375 216.855469 146.414062 221.738281 142.738281 225.414062 Z M 158.164062 260.292969 L 187.34375 211.660156 L 216.523438 260.292969 Z M 187.34375 279.738281 L 235.988281 279.757812 L 235.988281 299.210938 L 187.34375 299.191406 L 138.710938 299.210938 L 138.703125 279.757812 Z M 245.703125 172.753906 C 235.316406 172.753906 225.542969 176.8125 218.199219 184.144531 C 210.84375 191.5 206.796875 201.273438 206.796875 211.660156 C 206.796875 222.050781 210.84375 231.824219 218.199219 239.167969 C 225.542969 246.519531 235.316406 250.566406 245.703125 250.566406 C 256.09375 250.566406 265.867188 246.519531 273.210938 239.167969 C 280.5625 231.824219 284.609375 222.050781 284.609375 211.660156 C 284.609375 201.273438 280.5625 191.5 273.210938 184.15625 C 265.867188 176.8125 256.09375 172.753906 245.703125 172.753906 Z M 259.457031 225.414062 C 252.105469 232.769531 239.304688 232.769531 231.949219 225.414062 C 228.273438 221.738281 226.25 216.855469 226.25 211.660156 C 226.25 206.46875 228.273438 201.585938 231.949219 197.90625 C 235.628906 194.230469 240.511719 192.207031 245.703125 192.207031 C 250.898438 192.207031 255.78125 194.230469 259.457031 197.90625 C 263.132812 201.585938 265.15625 206.46875 265.15625 211.660156 C 265.15625 216.855469 263.132812 221.738281 259.457031 225.414062 Z M 313.800781 183.757812 L 313.800781 158.164062 C 313.800781 136.757812 296.351562 128.984375 284.621094 128.984375 L 197.070312 128.984375 L 197.070312 88.289062 C 208.363281 84.261719 216.523438 73.5625 216.523438 60.898438 C 216.523438 44.8125 203.433594 31.71875 187.34375 31.71875 C 171.257812 31.71875 158.164062 44.8125 158.164062 60.898438 C 158.164062 73.5625 166.324219 84.261719 177.617188 88.289062 L 177.617188 128.984375 L 90.078125 128.984375 C 68.671875 128.984375 60.898438 146.433594 60.898438 158.164062 L 60.898438 183.757812 C 45.25 187.355469 31.71875 199.320312 31.71875 221.386719 L 31.71875 260.351562 C 31.914062 277.140625 41.105469 294.015625 60.898438 298.1875 L 60.898438 313.789062 C 60.898438 335.199219 78.347656 342.96875 90.078125 342.96875 L 284.621094 342.96875 C 306.027344 342.96875 313.800781 325.519531 313.800781 313.789062 L 313.800781 298.1875 C 333.582031 294.007812 342.777344 277.121094 342.96875 260.246094 L 342.96875 221.386719 C 342.96875 199.328125 329.449219 187.355469 313.800781 183.757812 Z M 187.34375 51.171875 C 192.703125 51.171875 197.070312 55.539062 197.070312 60.898438 C 197.070312 66.257812 192.703125 70.625 187.34375 70.625 C 181.984375 70.625 177.617188 66.257812 177.617188 60.898438 C 177.617188 55.539062 181.984375 51.171875 187.34375 51.171875 Z M 51.171875 260.234375 L 51.171875 221.386719 C 51.171875 211.253906 55.695312 206.28125 60.898438 203.929688 L 60.898438 277.878906 C 52.789062 274.164062 51.242188 265.730469 51.171875 260.234375 Z M 294.347656 313.671875 C 294.230469 318.167969 292.460938 323.515625 284.621094 323.515625 L 90.1875 323.515625 C 85.703125 323.398438 80.351562 321.628906 80.351562 313.789062 L 80.351562 158.273438 C 80.460938 153.789062 82.238281 148.4375 90.078125 148.4375 L 284.511719 148.4375 C 289.007812 148.554688 294.355469 150.335938 294.355469 158.164062 L 294.355469 313.671875 Z M 323.515625 260.121094 C 323.449219 265.691406 321.910156 274.144531 313.800781 277.871094 L 313.800781 203.917969 C 318.992188 206.292969 323.515625 211.253906 323.515625 221.386719 Z M 323.515625 260.121094 "/>
</g>
</g>
</svg>
