<?xml version="1.0" encoding="UTF-8"?>
<svg xmlns="http://www.w3.org/2000/svg" xmlns:xlink="http://www.w3.org/1999/xlink" width="375pt" height="374.999991pt" viewBox="0 0 375 374.999991" version="1.2">
<defs>
<clipPath id="clip1">
  <path d="M 83 251 L 204 251 L 204 335.25 L 83 335.25 Z M 83 251 "/>
</clipPath>
<clipPath id="clip2">
  <path d="M 196 265 L 287 265 L 287 335.25 L 196 335.25 Z M 196 265 "/>
</clipPath>
</defs>
<g id="surface1">
<path style=" stroke:none;fill-rule:nonzero;fill:rgb(0%,0%,0%);fill-opacity:1;" d="M 78.300781 177.273438 C 73.207031 162.648438 66.71875 148.253906 60.46875 134.554688 C 57.6875 128.285156 54.910156 122.246094 52.359375 116.210938 C 76.910156 115.976562 108.871094 111.335938 138.75 103.441406 L 153.105469 99.261719 C 178.121094 91.132812 202.667969 79.527344 220.039062 67.453125 C 220.964844 71.863281 221.660156 77.667969 222.585938 84.167969 C 223.515625 90.4375 224.441406 97.636719 225.828125 105.296875 C 225.828125 105.296875 226.0625 105.53125 226.0625 105.53125 C 231.621094 110.636719 235.789062 116.675781 238.566406 123.410156 C 233.242188 97.636719 231.15625 74.183594 228.609375 62.113281 C 227.914062 58.398438 225.136719 56.074219 222.125 56.074219 C 220.734375 56.074219 219.34375 56.539062 218.1875 57.46875 C 199.660156 71.167969 169.085938 85.5625 138.515625 93.921875 C 103.777344 103.207031 71.582031 106.921875 50.972656 106.921875 C 50.277344 106.921875 49.351562 106.921875 48.65625 106.921875 C 43.328125 106.921875 41.011719 112.726562 43.097656 117.605469 C 52.824219 140.589844 66.027344 166.59375 73.667969 192.597656 C 74.59375 195.617188 75.289062 198.636719 76.214844 201.65625 C 75.984375 200.03125 75.984375 198.636719 75.984375 197.011719 C 75.753906 190.742188 76.679688 184.007812 78.300781 177.273438 Z M 78.300781 177.273438 "/>
<path style=" stroke:none;fill-rule:nonzero;fill:rgb(0%,0%,0%);fill-opacity:1;" d="M 216.796875 46.554688 C 218.882812 45.160156 219.34375 42.144531 217.957031 40.054688 C 216.566406 37.964844 213.554688 37.5 211.46875 38.894531 C 189.699219 54.449219 166.773438 64.898438 145.234375 72.09375 C 145.925781 73.023438 146.390625 74.183594 146.621094 75.347656 C 147.316406 77.4375 147.316406 79.527344 147.085938 81.382812 C 169.550781 74.183594 193.867188 63.039062 216.796875 46.554688 Z M 216.796875 46.554688 "/>
<path style=" stroke:none;fill-rule:nonzero;fill:rgb(0%,0%,0%);fill-opacity:1;" d="M 56.761719 96.011719 C 70.65625 96.011719 93.816406 94.851562 121.144531 88.582031 C 119.988281 87.1875 119.0625 85.332031 118.597656 83.472656 C 118.136719 82.078125 118.136719 80.917969 118.136719 79.527344 C 76.449219 88.582031 44.71875 86.257812 44.023438 86.257812 C 41.476562 86.027344 39.160156 87.882812 38.929688 90.4375 C 38.695312 92.992188 40.550781 95.3125 43.097656 95.546875 C 44.023438 95.546875 48.886719 96.011719 56.761719 96.011719 Z M 56.761719 96.011719 "/>
<path style=" stroke:none;fill-rule:nonzero;fill:rgb(0%,0%,0%);fill-opacity:1;" d="M 131.105469 74.882812 C 128.558594 75.578125 126.9375 78.363281 127.863281 80.917969 C 128.558594 83.472656 131.335938 84.867188 133.882812 84.167969 C 136.433594 83.472656 138.054688 80.6875 137.125 78.132812 C 136.433594 75.578125 133.652344 74.183594 131.105469 74.882812 Z M 131.105469 74.882812 "/>
<path style=" stroke:none;fill-rule:nonzero;fill:rgb(0%,0%,0%);fill-opacity:1;" d="M 96.828125 261.558594 C 95.902344 254.59375 94.742188 246.699219 93.355469 237.875 C 93.121094 237.644531 92.890625 237.644531 92.890625 237.410156 C 87.5625 232.535156 83.394531 226.5 80.617188 219.765625 C 84.554688 238.339844 86.636719 253.894531 88.257812 265.96875 C 90.808594 264.113281 93.585938 262.488281 96.828125 261.558594 Z M 96.828125 261.558594 "/>
<g clip-path="url(#clip1)" clip-rule="nonzero">
<path style=" stroke:none;fill-rule:nonzero;fill:rgb(0%,0%,0%);fill-opacity:1;" d="M 193.636719 255.058594 C 190.625 252.734375 187.152344 251.808594 183.445312 251.808594 C 179.277344 251.808594 174.878906 252.96875 171.402344 255.058594 C 171.402344 255.058594 156.117188 264.34375 150.558594 267.828125 C 150.558594 267.828125 143.378906 273.167969 130.875 273.167969 C 127.167969 273.167969 123 272.703125 118.367188 271.542969 C 114.429688 270.382812 110.722656 269.453125 106.789062 269.453125 C 105.628906 269.453125 104.472656 269.453125 103.3125 269.683594 C 92.660156 271.308594 85.015625 279.667969 83.859375 290.347656 C 82.699219 302.421875 87.332031 314.730469 96.363281 322.855469 C 106.324219 331.910156 119.0625 335.625 132.03125 335.625 C 138.285156 335.625 144.539062 334.695312 150.558594 333.070312 C 156.8125 331.445312 163.066406 329.125 168.625 326.105469 C 184.835938 318.210938 200.816406 307.53125 203.363281 283.382812 C 204.058594 277.347656 203.132812 270.382812 200.585938 264.34375 C 199.195312 260.628906 196.878906 257.378906 193.636719 255.058594 Z M 148.476562 324.015625 C 142.917969 325.410156 137.589844 326.105469 132.261719 326.105469 C 124.15625 326.105469 112.34375 324.25 102.851562 315.65625 C 95.902344 309.386719 92.429688 300.332031 93.355469 291.046875 C 93.816406 285.242188 97.753906 280.828125 102.851562 279.203125 C 106.09375 287.796875 119.523438 316.121094 155.191406 321.695312 C 152.875 322.625 150.558594 323.320312 148.476562 324.015625 Z M 148.476562 324.015625 "/>
</g>
<path style=" stroke:none;fill-rule:nonzero;fill:rgb(0%,0%,0%);fill-opacity:1;" d="M 266.128906 214.191406 C 266.824219 214.65625 269.371094 216.050781 272.148438 217.675781 C 262.421875 196.082031 250.378906 169.613281 243.429688 143.375 C 243.199219 142.679688 242.96875 141.75 242.738281 141.054688 C 242.738281 142.449219 242.96875 143.839844 242.96875 145.464844 C 242.96875 151.96875 242.273438 158.46875 240.421875 165.203125 C 245.980469 181.222656 252.695312 197.011719 258.949219 210.941406 C 261.496094 211.640625 263.8125 212.566406 265.898438 213.960938 C 266.128906 214.191406 266.128906 214.191406 266.128906 214.191406 Z M 266.128906 214.191406 "/>
<path style=" stroke:none;fill-rule:nonzero;fill:rgb(0%,0%,0%);fill-opacity:1;" d="M 226.0625 231.140625 C 192.941406 236.714844 155.191406 248.554688 124.621094 263.183594 C 126.703125 263.648438 128.789062 263.648438 130.875 263.648438 C 139.90625 263.648438 145 260.164062 145.234375 260.164062 L 145.695312 259.699219 C 150.792969 256.683594 163.992188 248.554688 166.308594 247.164062 C 166.308594 247.164062 166.539062 246.929688 166.539062 246.929688 C 171.402344 243.914062 177.425781 242.289062 183.445312 242.289062 C 188.773438 242.289062 193.867188 243.679688 198.039062 246.464844 C 207.070312 244.144531 216.101562 242.289062 224.671875 240.660156 C 224.671875 237.644531 225.136719 234.394531 226.0625 231.140625 Z M 226.0625 231.140625 "/>
<path style=" stroke:none;fill-rule:nonzero;fill:rgb(0%,0%,0%);fill-opacity:1;" d="M 177.195312 151.269531 C 176.730469 150.804688 176.265625 150.574219 175.804688 150.34375 C 175.339844 150.109375 174.644531 149.878906 173.953125 149.878906 C 173.257812 149.878906 172.792969 149.878906 172.097656 150.109375 C 171.402344 150.34375 170.941406 150.574219 170.476562 151.039062 L 167.234375 154.289062 L 173.71875 161.023438 L 176.960938 157.773438 C 177.425781 157.308594 177.65625 156.84375 178.121094 156.378906 C 178.351562 155.914062 178.582031 155.21875 178.582031 154.519531 C 178.582031 153.824219 178.582031 153.359375 178.351562 152.664062 C 177.886719 152.199219 177.65625 151.734375 177.195312 151.269531 Z M 177.195312 151.269531 "/>
<path style=" stroke:none;fill-rule:nonzero;fill:rgb(0%,0%,0%);fill-opacity:1;" d="M 219.34375 112.496094 C 210.3125 104.136719 197.804688 99.957031 182.984375 100.421875 C 176.035156 100.65625 158.433594 104.136719 143.613281 111.800781 C 133.882812 116.90625 125.082031 123.640625 116.976562 131.535156 C 97.058594 150.804688 85.480469 175.1875 85.710938 197.011719 C 85.941406 210.476562 90.574219 221.855469 99.375 229.980469 C 108.175781 238.109375 119.988281 242.054688 133.191406 242.054688 C 155.191406 242.054688 181.132812 231.140625 201.742188 210.941406 C 221.660156 191.671875 233.242188 167.292969 233.007812 145.464844 C 232.777344 132.230469 228.144531 120.621094 219.34375 112.496094 Z M 138.980469 216.746094 C 138.285156 219.070312 136.894531 221.160156 135.042969 223.015625 L 134.578125 223.246094 C 133.191406 224.640625 131.570312 225.570312 129.949219 226.265625 C 129.484375 226.5 129.019531 226.730469 128.324219 226.730469 C 127.167969 227.195312 125.777344 227.195312 124.621094 227.195312 C 122.769531 227.195312 121.144531 226.960938 119.292969 226.265625 C 117.441406 225.570312 116.050781 224.640625 114.660156 223.246094 L 108.640625 216.980469 C 107.25 215.585938 106.324219 213.960938 105.628906 212.335938 C 104.933594 210.710938 104.703125 208.851562 104.703125 206.996094 C 104.703125 205.136719 105.167969 203.511719 105.859375 201.65625 C 106.554688 200.03125 107.714844 198.402344 109.335938 196.777344 C 110.261719 196.082031 110.957031 195.386719 111.652344 194.921875 C 112.808594 194.226562 114.199219 193.527344 115.589844 193.0625 L 116.050781 193.0625 C 118.367188 192.367188 120.683594 192.367188 123 193.0625 C 123.230469 193.0625 123.695312 193.296875 124.15625 193.527344 C 124.621094 193.761719 125.082031 193.992188 125.316406 194.457031 C 126.242188 195.386719 126.703125 196.546875 126.703125 197.941406 C 126.703125 199.332031 126.242188 200.492188 125.316406 201.421875 C 124.621094 202.117188 123.695312 202.582031 122.769531 202.582031 C 122.074219 202.582031 121.144531 202.582031 120.453125 202.351562 C 119.757812 202.117188 119.292969 202.117188 118.597656 202.351562 C 117.902344 202.582031 117.210938 202.816406 116.515625 203.28125 C 116.515625 203.28125 116.28125 203.511719 116.050781 203.746094 C 115.589844 204.207031 115.125 204.671875 114.894531 205.371094 C 114.660156 206.066406 114.429688 206.53125 114.429688 207.226562 C 114.429688 207.691406 114.429688 208.386719 114.660156 208.851562 C 114.894531 209.316406 115.125 210.011719 115.589844 210.476562 L 121.609375 216.515625 C 122.074219 216.980469 122.535156 217.441406 123.230469 217.675781 C 123.925781 217.90625 124.390625 218.140625 125.082031 218.140625 C 125.777344 218.140625 126.242188 217.90625 126.9375 217.675781 C 127.632812 217.441406 128.09375 216.980469 128.558594 216.515625 L 129.019531 216.050781 C 129.484375 215.355469 129.714844 214.65625 129.949219 214.191406 C 130.179688 213.496094 130.179688 213.03125 129.949219 212.335938 C 129.714844 211.636719 129.714844 210.710938 129.714844 210.011719 C 129.714844 209.085938 130.179688 208.15625 131.105469 207.460938 C 132.03125 206.53125 133.191406 206.066406 134.578125 206.066406 C 135.96875 206.066406 137.125 206.53125 138.054688 207.460938 C 138.515625 207.921875 138.75 208.15625 138.980469 208.621094 C 139.210938 209.085938 139.210938 209.316406 139.441406 209.78125 C 139.675781 212.101562 139.675781 214.425781 138.980469 216.746094 Z M 164.6875 193.992188 C 164.457031 194.6875 163.992188 195.152344 163.53125 195.617188 C 162.601562 196.546875 161.675781 196.777344 160.285156 196.777344 C 158.898438 196.777344 157.738281 196.316406 156.8125 195.386719 L 151.484375 190.046875 L 144.769531 196.546875 L 150.097656 201.886719 C 151.023438 202.816406 151.484375 203.976562 151.484375 205.371094 C 151.484375 206.761719 151.023438 207.691406 150.097656 208.621094 C 149.402344 209.316406 148.707031 209.78125 148.011719 210.011719 C 147.316406 210.011719 146.855469 210.011719 146.390625 210.011719 C 145 210.011719 143.84375 209.550781 142.917969 208.621094 L 124.15625 189.347656 C 123.230469 188.421875 122.769531 187.027344 122.769531 185.632812 C 123 184.472656 123.460938 183.3125 124.390625 182.382812 C 125.316406 181.453125 126.472656 180.992188 127.863281 180.992188 C 129.253906 180.992188 130.410156 181.453125 131.105469 182.382812 L 137.820312 189.347656 L 144.539062 182.847656 L 137.820312 175.882812 C 136.894531 174.953125 136.433594 173.792969 136.433594 172.398438 C 136.433594 171.007812 136.894531 170.078125 137.820312 169.148438 C 138.75 168.21875 139.90625 167.753906 141.0625 167.753906 C 142.453125 167.753906 143.613281 168.21875 144.539062 169.148438 L 163.296875 188.421875 C 163.761719 188.882812 163.992188 189.347656 164.222656 190.046875 C 164.457031 190.511719 164.457031 191.207031 164.457031 191.902344 C 164.917969 192.597656 164.917969 193.296875 164.6875 193.992188 Z M 173.257812 186.332031 C 172.5625 187.027344 171.867188 187.257812 171.171875 187.492188 C 170.707031 187.722656 170.246094 187.722656 169.78125 187.722656 C 168.394531 187.722656 167.234375 187.257812 166.308594 186.332031 L 147.550781 167.058594 C 146.621094 166.128906 146.160156 164.96875 146.160156 163.808594 C 146.160156 162.414062 146.621094 161.253906 147.78125 160.324219 C 148.707031 159.398438 149.863281 158.933594 151.253906 158.933594 C 152.644531 158.933594 153.800781 159.398438 154.496094 160.324219 L 173.257812 179.597656 C 174.183594 180.527344 174.644531 181.6875 174.644531 183.078125 C 174.644531 184.242188 174.183594 185.402344 173.257812 186.332031 Z M 186.921875 160.09375 C 186.226562 161.71875 185.066406 163.34375 183.679688 164.738281 L 180.4375 167.988281 L 182.984375 170.542969 C 183.910156 171.472656 184.375 172.632812 184.375 174.023438 C 184.375 175.417969 183.910156 176.347656 182.984375 177.273438 C 182.289062 177.738281 181.824219 178.203125 180.898438 178.4375 C 180.4375 178.667969 179.972656 178.667969 179.511719 178.667969 C 178.121094 178.667969 176.960938 178.203125 176.035156 177.273438 L 157.042969 157.539062 C 156.117188 156.609375 155.65625 155.449219 155.65625 154.058594 C 155.65625 152.664062 156.117188 151.734375 157.042969 150.804688 L 163.761719 144.304688 C 165.152344 142.910156 166.773438 141.984375 168.625 141.285156 C 170.476562 140.589844 172.332031 140.359375 173.953125 140.359375 C 175.804688 140.359375 177.65625 140.824219 179.277344 141.519531 C 181.132812 142.214844 182.519531 143.375 183.910156 144.769531 C 185.300781 146.164062 186.226562 147.789062 186.921875 149.414062 C 187.617188 151.269531 187.847656 152.894531 187.847656 154.753906 C 188.078125 156.609375 187.617188 158.234375 186.921875 160.09375 Z M 214.714844 145 C 214.25 146.394531 213.324219 147.789062 212.164062 148.714844 L 205.21875 155.449219 C 204.523438 156.148438 203.828125 156.378906 203.132812 156.609375 C 202.667969 156.84375 202.207031 156.84375 201.742188 156.84375 C 200.355469 156.84375 199.425781 156.378906 198.269531 155.449219 C 197.34375 154.519531 196.878906 153.359375 196.878906 151.96875 C 196.878906 150.574219 197.34375 149.414062 198.269531 148.484375 L 205.21875 141.75 C 205.679688 141.285156 205.679688 141.054688 205.914062 140.359375 C 205.914062 139.894531 205.679688 139.429688 205.449219 138.964844 C 204.984375 138.5 204.523438 138.5 204.058594 138.5 C 203.597656 138.5 202.902344 138.734375 202.667969 138.964844 L 200.121094 141.519531 C 198.964844 142.449219 197.804688 143.375 196.183594 143.839844 C 194.796875 144.304688 193.40625 144.769531 191.785156 144.769531 C 190.394531 144.769531 188.773438 144.539062 187.382812 144.074219 C 185.996094 143.609375 184.605469 142.679688 183.445312 141.519531 C 182.519531 140.359375 181.59375 139.195312 181.132812 137.804688 C 180.667969 136.410156 180.4375 135.019531 180.4375 133.390625 C 180.4375 132 180.667969 130.375 181.363281 128.980469 C 181.824219 127.585938 182.753906 126.195312 183.910156 125.035156 L 190.859375 118.300781 C 191.785156 117.371094 192.941406 116.90625 194.332031 116.90625 C 195.492188 116.90625 196.648438 117.371094 197.804688 118.300781 C 198.734375 119.230469 199.195312 120.390625 199.195312 121.78125 C 199.195312 122.945312 198.734375 124.105469 197.574219 125.035156 L 190.625 131.765625 C 190.164062 132.230469 190.164062 132.464844 190.164062 133.160156 C 190.164062 133.625 190.394531 134.320312 190.859375 134.785156 C 191.089844 135.019531 191.554688 135.25 192.246094 135.25 C 192.480469 135.25 192.710938 135.25 192.710938 135.25 C 192.941406 135.25 193.175781 135.019531 193.40625 134.785156 L 195.953125 132.230469 C 197.113281 131.300781 198.269531 130.375 199.660156 129.910156 C 201.046875 129.445312 202.4375 129.214844 204.058594 129.214844 C 205.449219 129.214844 207.070312 129.445312 208.460938 130.140625 C 209.847656 130.605469 211.238281 131.535156 212.398438 132.695312 C 213.554688 133.855469 214.25 135.019531 214.714844 136.410156 C 215.175781 137.804688 215.40625 139.195312 215.40625 140.824219 C 215.640625 142.214844 215.40625 143.609375 214.714844 145 Z M 214.714844 145 "/>
<g clip-path="url(#clip2)" clip-rule="nonzero">
<path style=" stroke:none;fill-rule:nonzero;fill:rgb(0%,0%,0%);fill-opacity:1;" d="M 197.574219 317.050781 C 197.34375 317.515625 197.113281 317.980469 196.878906 318.210938 C 201.511719 321.695312 206.605469 324.710938 211.703125 327.265625 C 216.796875 329.820312 222.355469 331.910156 227.683594 333.304688 C 233.007812 334.695312 238.566406 335.625 244.125 335.625 C 255.476562 335.625 266.824219 332.375 275.625 324.25 C 283.5 317.050781 287.898438 306.136719 286.742188 295.457031 C 285.8125 285.9375 278.867188 278.507812 269.601562 277.113281 C 268.675781 276.882812 267.519531 276.882812 266.589844 276.882812 C 263.117188 276.882812 259.875 277.8125 256.402344 278.738281 C 252.230469 279.902344 248.527344 280.132812 245.285156 280.132812 C 234.167969 280.132812 227.914062 275.488281 227.914062 275.488281 C 223.976562 273.167969 214.714844 267.363281 211.007812 265.273438 C 211.007812 265.503906 211.007812 266.203125 211.007812 266.898438 C 212.628906 272.472656 213.09375 278.507812 212.398438 284.542969 C 210.777344 298.707031 204.984375 309.15625 197.574219 317.050781 Z M 274.003906 288.722656 C 276.085938 290.582031 277.246094 293.136719 277.476562 296.152344 C 278.171875 304.046875 275.160156 311.941406 269.371094 317.28125 C 261.265625 324.710938 251.074219 326.105469 244.125 326.105469 C 239.496094 326.105469 234.863281 325.410156 230 324.25 C 228.839844 324.015625 227.683594 323.550781 226.523438 323.320312 C 258.253906 319.140625 270.527344 297.082031 274.003906 288.722656 Z M 274.003906 288.722656 "/>
</g>
<path style=" stroke:none;fill-rule:nonzero;fill:rgb(0%,0%,0%);fill-opacity:1;" d="M 318.933594 234.160156 C 318.007812 233.929688 317.082031 233.929688 316.152344 233.929688 C 312.679688 233.929688 309.667969 234.855469 306.195312 235.554688 C 302.257812 236.484375 298.785156 236.945312 295.542969 236.945312 C 285.121094 236.945312 278.867188 232.535156 278.867188 232.535156 C 274.234375 229.75 261.265625 222.085938 261.265625 222.085938 C 258.253906 220.460938 254.78125 219.300781 251.074219 219.300781 C 247.832031 219.300781 244.820312 219.996094 242.273438 221.855469 C 239.726562 223.945312 237.640625 226.5 236.25 229.515625 C 233.9375 234.394531 233.242188 240.199219 233.9375 245.304688 C 234.167969 246.464844 234.167969 247.628906 234.398438 248.554688 C 224.902344 249.71875 215.871094 251.109375 207.300781 252.96875 C 207.996094 253.199219 208.460938 253.433594 209.15625 253.664062 C 213.785156 254.128906 218.417969 255.523438 222.355469 257.84375 L 224.207031 259.003906 C 224.441406 259.003906 224.671875 259.238281 224.671875 259.238281 C 228.839844 258.539062 233.007812 258.074219 237.410156 257.613281 C 239.726562 262.71875 242.96875 266.898438 246.90625 270.382812 C 246.90625 270.382812 247.136719 270.382812 247.136719 270.382812 C 247.832031 270.382812 248.757812 270.148438 249.453125 270.148438 C 250.84375 269.917969 252.230469 269.683594 253.621094 269.21875 C 257.558594 268.058594 261.496094 267.132812 266.359375 267.132812 C 267.75 267.132812 269.371094 267.132812 270.761719 267.363281 C 274.464844 267.828125 277.707031 268.988281 280.71875 270.613281 C 280.71875 270.613281 280.949219 270.613281 280.949219 270.613281 C 283.960938 272.238281 286.507812 274.328125 288.59375 276.882812 C 306.425781 265.503906 311.984375 244.375 312.21875 243.449219 C 313.605469 243.214844 314.765625 242.984375 315.921875 242.984375 C 316.386719 242.984375 316.847656 242.984375 317.542969 242.984375 C 322.175781 243.679688 325.648438 247.164062 326.113281 251.808594 C 326.808594 259.003906 324.027344 266.203125 318.46875 271.078125 C 310.828125 277.8125 301.101562 279.4375 294.613281 279.4375 C 293.226562 279.4375 291.835938 279.4375 290.445312 279.203125 C 292.53125 281.992188 293.921875 285.242188 295.078125 288.722656 C 305.964844 288.722656 316.386719 285.472656 324.722656 278.042969 C 332.367188 271.308594 336.304688 261.09375 335.375 251.109375 C 334.449219 242.519531 327.734375 235.320312 318.933594 234.160156 Z M 318.933594 234.160156 "/>
</g>
</svg>
