<?xml version="1.0" encoding="UTF-8"?>
<svg xmlns="http://www.w3.org/2000/svg" xmlns:xlink="http://www.w3.org/1999/xlink" width="375pt" height="374.999991pt" viewBox="0 0 375 374.999991" version="1.2">
<defs>
<clipPath id="clip1">
  <path d="M 83 251 L 204 251 L 204 335.25 L 83 335.25 Z M 83 251 "/>
</clipPath>
<clipPath id="clip2">
  <path d="M 196 264 L 287 264 L 287 335.25 L 196 335.25 Z M 196 264 "/>
</clipPath>
</defs>
<g id="surface1">
<path style=" stroke:none;fill-rule:nonzero;fill:rgb(100%,100%,100%);fill-opacity:1;" d="M 78.300781 177.097656 C 73.207031 162.488281 66.71875 148.113281 60.46875 134.429688 C 57.6875 128.171875 54.910156 122.140625 52.359375 116.113281 C 76.910156 115.878906 108.871094 111.242188 138.75 103.359375 L 153.105469 99.183594 C 178.121094 91.066406 202.667969 79.472656 220.039062 67.414062 C 220.964844 71.820312 221.660156 77.617188 222.585938 84.109375 C 223.515625 90.371094 224.441406 97.558594 225.828125 105.210938 C 225.828125 105.210938 226.0625 105.445312 226.0625 105.445312 C 231.621094 110.546875 235.789062 116.574219 238.566406 123.300781 C 233.242188 97.558594 231.15625 74.140625 228.609375 62.082031 C 227.914062 58.371094 225.136719 56.050781 222.125 56.050781 C 220.734375 56.050781 219.34375 56.515625 218.1875 57.441406 C 199.660156 71.125 169.085938 85.5 138.515625 93.851562 C 103.777344 103.125 71.582031 106.835938 50.972656 106.835938 C 50.277344 106.835938 49.351562 106.835938 48.65625 106.835938 C 43.328125 106.835938 41.011719 112.632812 43.097656 117.503906 C 52.824219 140.460938 66.027344 166.433594 73.667969 192.40625 C 74.59375 195.417969 75.289062 198.433594 76.214844 201.449219 C 75.984375 199.824219 75.984375 198.433594 75.984375 196.808594 C 75.753906 190.550781 76.679688 183.824219 78.300781 177.097656 Z M 78.300781 177.097656 "/>
<path style=" stroke:none;fill-rule:nonzero;fill:rgb(100%,100%,100%);fill-opacity:1;" d="M 216.796875 46.542969 C 218.882812 45.152344 219.34375 42.136719 217.957031 40.050781 C 216.566406 37.964844 213.554688 37.5 211.46875 38.890625 C 189.699219 54.429688 166.773438 64.863281 145.234375 72.050781 C 145.925781 72.980469 146.390625 74.140625 146.621094 75.296875 C 147.316406 77.386719 147.316406 79.472656 147.085938 81.328125 C 169.550781 74.140625 193.867188 63.007812 216.796875 46.542969 Z M 216.796875 46.542969 "/>
<path style=" stroke:none;fill-rule:nonzero;fill:rgb(100%,100%,100%);fill-opacity:1;" d="M 56.761719 95.9375 C 70.65625 95.9375 93.816406 94.777344 121.144531 88.515625 C 119.988281 87.125 119.0625 85.269531 118.597656 83.414062 C 118.136719 82.023438 118.136719 80.863281 118.136719 79.472656 C 76.449219 88.515625 44.71875 86.199219 44.023438 86.199219 C 41.476562 85.964844 39.160156 87.820312 38.929688 90.371094 C 38.695312 92.921875 40.550781 95.242188 43.097656 95.472656 C 44.023438 95.472656 48.886719 95.9375 56.761719 95.9375 Z M 56.761719 95.9375 "/>
<path style=" stroke:none;fill-rule:nonzero;fill:rgb(100%,100%,100%);fill-opacity:1;" d="M 131.105469 74.835938 C 128.558594 75.53125 126.9375 78.3125 127.863281 80.863281 C 128.558594 83.414062 131.335938 84.804688 133.882812 84.109375 C 136.433594 83.414062 138.054688 80.632812 137.125 78.082031 C 136.433594 75.53125 133.652344 74.140625 131.105469 74.835938 Z M 131.105469 74.835938 "/>
<path style=" stroke:none;fill-rule:nonzero;fill:rgb(100%,100%,100%);fill-opacity:1;" d="M 96.828125 261.277344 C 95.902344 254.320312 94.742188 246.433594 93.355469 237.625 C 93.121094 237.390625 92.890625 237.390625 92.890625 237.160156 C 87.5625 232.289062 83.394531 226.261719 80.617188 219.535156 C 84.554688 238.085938 86.636719 253.625 88.257812 265.683594 C 90.808594 263.828125 93.585938 262.203125 96.828125 261.277344 Z M 96.828125 261.277344 "/>
<g clip-path="url(#clip1)" clip-rule="nonzero">
<path style=" stroke:none;fill-rule:nonzero;fill:rgb(100%,100%,100%);fill-opacity:1;" d="M 193.636719 254.785156 C 190.625 252.464844 187.152344 251.535156 183.445312 251.535156 C 179.277344 251.535156 174.878906 252.695312 171.402344 254.785156 C 171.402344 254.785156 156.117188 264.058594 150.558594 267.539062 C 150.558594 267.539062 143.378906 272.871094 130.875 272.871094 C 127.167969 272.871094 123 272.40625 118.367188 271.246094 C 114.429688 270.089844 110.722656 269.160156 106.789062 269.160156 C 105.628906 269.160156 104.472656 269.160156 103.3125 269.394531 C 92.660156 271.015625 85.015625 279.363281 83.859375 290.03125 C 82.699219 302.089844 87.332031 314.378906 96.363281 322.496094 C 106.324219 331.539062 119.0625 335.25 132.03125 335.25 C 138.285156 335.25 144.539062 334.324219 150.558594 332.699219 C 156.8125 331.074219 163.066406 328.757812 168.625 325.742188 C 184.835938 317.859375 200.816406 307.191406 203.363281 283.074219 C 204.058594 277.046875 203.132812 270.089844 200.585938 264.058594 C 199.195312 260.347656 196.878906 257.101562 193.636719 254.785156 Z M 148.476562 323.65625 C 142.917969 325.046875 137.589844 325.742188 132.261719 325.742188 C 124.15625 325.742188 112.34375 323.886719 102.851562 315.308594 C 95.902344 309.046875 92.429688 300.003906 93.355469 290.726562 C 93.816406 284.929688 97.753906 280.523438 102.851562 278.898438 C 106.09375 287.480469 119.523438 315.769531 155.191406 321.335938 C 152.875 322.265625 150.558594 322.960938 148.476562 323.65625 Z M 148.476562 323.65625 "/>
</g>
<path style=" stroke:none;fill-rule:nonzero;fill:rgb(100%,100%,100%);fill-opacity:1;" d="M 266.128906 213.96875 C 266.824219 214.433594 269.371094 215.824219 272.148438 217.449219 C 262.421875 195.882812 250.378906 169.445312 243.429688 143.242188 C 243.199219 142.546875 242.96875 141.621094 242.738281 140.925781 C 242.738281 142.316406 242.96875 143.707031 242.96875 145.332031 C 242.96875 151.824219 242.273438 158.316406 240.421875 165.039062 C 245.980469 181.042969 252.695312 196.808594 258.949219 210.722656 C 261.496094 211.417969 263.8125 212.347656 265.898438 213.738281 C 266.128906 213.96875 266.128906 213.96875 266.128906 213.96875 Z M 266.128906 213.96875 "/>
<path style=" stroke:none;fill-rule:nonzero;fill:rgb(100%,100%,100%);fill-opacity:1;" d="M 226.0625 230.898438 C 192.941406 236.464844 155.191406 248.289062 124.621094 262.898438 C 126.703125 263.363281 128.789062 263.363281 130.875 263.363281 C 139.90625 263.363281 145 259.886719 145.234375 259.886719 L 145.695312 259.421875 C 150.792969 256.40625 163.992188 248.289062 166.308594 246.898438 C 166.308594 246.898438 166.539062 246.667969 166.539062 246.667969 C 171.402344 243.652344 177.425781 242.03125 183.445312 242.03125 C 188.773438 242.03125 193.867188 243.421875 198.039062 246.203125 C 207.070312 243.882812 216.101562 242.03125 224.671875 240.40625 C 224.671875 237.390625 225.136719 234.144531 226.0625 230.898438 Z M 226.0625 230.898438 "/>
<path style=" stroke:none;fill-rule:nonzero;fill:rgb(100%,100%,100%);fill-opacity:1;" d="M 177.195312 151.128906 C 176.730469 150.664062 176.265625 150.433594 175.804688 150.199219 C 175.339844 149.96875 174.644531 149.734375 173.953125 149.734375 C 173.257812 149.734375 172.792969 149.734375 172.097656 149.96875 C 171.402344 150.199219 170.941406 150.433594 170.476562 150.894531 L 167.234375 154.140625 L 173.71875 160.867188 L 176.960938 157.621094 C 177.425781 157.15625 177.65625 156.691406 178.121094 156.230469 C 178.351562 155.765625 178.582031 155.070312 178.582031 154.375 C 178.582031 153.679688 178.582031 153.214844 178.351562 152.519531 C 177.886719 152.054688 177.65625 151.589844 177.195312 151.128906 Z M 177.195312 151.128906 "/>
<path style=" stroke:none;fill-rule:nonzero;fill:rgb(100%,100%,100%);fill-opacity:1;" d="M 219.34375 112.402344 C 210.3125 104.054688 197.804688 99.878906 182.984375 100.34375 C 176.035156 100.574219 158.433594 104.054688 143.613281 111.707031 C 133.882812 116.808594 125.082031 123.53125 116.976562 131.417969 C 97.058594 150.664062 85.480469 175.011719 85.710938 196.808594 C 85.941406 210.261719 90.574219 221.621094 99.375 229.738281 C 108.175781 237.855469 119.988281 241.796875 133.191406 241.796875 C 155.191406 241.796875 181.132812 230.898438 201.742188 210.722656 C 221.660156 191.476562 233.242188 167.128906 233.007812 145.332031 C 232.777344 132.113281 228.144531 120.519531 219.34375 112.402344 Z M 138.980469 216.519531 C 138.285156 218.839844 136.894531 220.925781 135.042969 222.78125 L 134.578125 223.015625 C 133.191406 224.40625 131.570312 225.332031 129.949219 226.027344 C 129.484375 226.261719 129.019531 226.492188 128.324219 226.492188 C 127.167969 226.957031 125.777344 226.957031 124.621094 226.957031 C 122.769531 226.957031 121.144531 226.722656 119.292969 226.027344 C 117.441406 225.332031 116.050781 224.40625 114.660156 223.015625 L 108.640625 216.753906 C 107.25 215.363281 106.324219 213.738281 105.628906 212.113281 C 104.933594 210.492188 104.703125 208.636719 104.703125 206.78125 C 104.703125 204.925781 105.167969 203.304688 105.859375 201.449219 C 106.554688 199.824219 107.714844 198.203125 109.335938 196.578125 C 110.261719 195.882812 110.957031 195.1875 111.652344 194.722656 C 112.808594 194.027344 114.199219 193.332031 115.589844 192.867188 L 116.050781 192.867188 C 118.367188 192.171875 120.683594 192.171875 123 192.867188 C 123.230469 192.867188 123.695312 193.101562 124.15625 193.332031 C 124.621094 193.5625 125.082031 193.796875 125.316406 194.257812 C 126.242188 195.1875 126.703125 196.347656 126.703125 197.738281 C 126.703125 199.128906 126.242188 200.289062 125.316406 201.214844 C 124.621094 201.910156 123.695312 202.375 122.769531 202.375 C 122.074219 202.375 121.144531 202.375 120.453125 202.144531 C 119.757812 201.910156 119.292969 201.910156 118.597656 202.144531 C 117.902344 202.375 117.210938 202.609375 116.515625 203.070312 C 116.515625 203.070312 116.28125 203.304688 116.050781 203.535156 C 115.589844 204 115.125 204.460938 114.894531 205.160156 C 114.660156 205.855469 114.429688 206.316406 114.429688 207.011719 C 114.429688 207.476562 114.429688 208.171875 114.660156 208.636719 C 114.894531 209.101562 115.125 209.796875 115.589844 210.261719 L 121.609375 216.289062 C 122.074219 216.753906 122.535156 217.214844 123.230469 217.449219 C 123.925781 217.679688 124.390625 217.914062 125.082031 217.914062 C 125.777344 217.914062 126.242188 217.679688 126.9375 217.449219 C 127.632812 217.214844 128.09375 216.753906 128.558594 216.289062 L 129.019531 215.824219 C 129.484375 215.128906 129.714844 214.433594 129.949219 213.96875 C 130.179688 213.273438 130.179688 212.8125 129.949219 212.113281 C 129.714844 211.417969 129.714844 210.492188 129.714844 209.796875 C 129.714844 208.867188 130.179688 207.941406 131.105469 207.246094 C 132.03125 206.316406 133.191406 205.855469 134.578125 205.855469 C 135.96875 205.855469 137.125 206.316406 138.054688 207.246094 C 138.515625 207.710938 138.75 207.941406 138.980469 208.40625 C 139.210938 208.867188 139.210938 209.101562 139.441406 209.5625 C 139.675781 211.882812 139.675781 214.203125 138.980469 216.519531 Z M 164.6875 193.796875 C 164.457031 194.492188 163.992188 194.957031 163.53125 195.417969 C 162.601562 196.347656 161.675781 196.578125 160.285156 196.578125 C 158.898438 196.578125 157.738281 196.113281 156.8125 195.1875 L 151.484375 189.851562 L 144.769531 196.347656 L 150.097656 201.679688 C 151.023438 202.609375 151.484375 203.765625 151.484375 205.160156 C 151.484375 206.550781 151.023438 207.476562 150.097656 208.40625 C 149.402344 209.101562 148.707031 209.5625 148.011719 209.796875 C 147.316406 209.796875 146.855469 209.796875 146.390625 209.796875 C 145 209.796875 143.84375 209.332031 142.917969 208.40625 L 124.15625 189.15625 C 123.230469 188.230469 122.769531 186.839844 122.769531 185.449219 C 123 184.289062 123.460938 183.128906 124.390625 182.199219 C 125.316406 181.273438 126.472656 180.808594 127.863281 180.808594 C 129.253906 180.808594 130.410156 181.273438 131.105469 182.199219 L 137.820312 189.15625 L 144.539062 182.664062 L 137.820312 175.707031 C 136.894531 174.78125 136.433594 173.621094 136.433594 172.230469 C 136.433594 170.839844 136.894531 169.910156 137.820312 168.984375 C 138.75 168.054688 139.90625 167.59375 141.0625 167.59375 C 142.453125 167.59375 143.613281 168.054688 144.539062 168.984375 L 163.296875 188.230469 C 163.761719 188.695312 163.992188 189.15625 164.222656 189.851562 C 164.457031 190.316406 164.457031 191.011719 164.457031 191.707031 C 164.917969 192.40625 164.917969 193.101562 164.6875 193.796875 Z M 173.257812 186.144531 C 172.5625 186.839844 171.867188 187.070312 171.171875 187.300781 C 170.707031 187.535156 170.246094 187.535156 169.78125 187.535156 C 168.394531 187.535156 167.234375 187.070312 166.308594 186.144531 L 147.550781 166.894531 C 146.621094 165.96875 146.160156 164.808594 146.160156 163.648438 C 146.160156 162.257812 146.621094 161.097656 147.78125 160.171875 C 148.707031 159.242188 149.863281 158.78125 151.253906 158.78125 C 152.644531 158.78125 153.800781 159.242188 154.496094 160.171875 L 173.257812 179.417969 C 174.183594 180.347656 174.644531 181.503906 174.644531 182.898438 C 174.644531 184.054688 174.183594 185.214844 173.257812 186.144531 Z M 186.921875 159.9375 C 186.226562 161.5625 185.066406 163.1875 183.679688 164.578125 L 180.4375 167.824219 L 182.984375 170.375 C 183.910156 171.300781 184.375 172.460938 184.375 173.851562 C 184.375 175.246094 183.910156 176.171875 182.984375 177.097656 C 182.289062 177.5625 181.824219 178.027344 180.898438 178.257812 C 180.4375 178.492188 179.972656 178.492188 179.511719 178.492188 C 178.121094 178.492188 176.960938 178.027344 176.035156 177.097656 L 157.042969 157.386719 C 156.117188 156.460938 155.65625 155.300781 155.65625 153.910156 C 155.65625 152.519531 156.117188 151.589844 157.042969 150.664062 L 163.761719 144.171875 C 165.152344 142.78125 166.773438 141.851562 168.625 141.15625 C 170.476562 140.460938 172.332031 140.226562 173.953125 140.226562 C 175.804688 140.226562 177.65625 140.691406 179.277344 141.386719 C 181.132812 142.082031 182.519531 143.242188 183.910156 144.632812 C 185.300781 146.027344 186.226562 147.648438 186.921875 149.273438 C 187.617188 151.128906 187.847656 152.75 187.847656 154.605469 C 188.078125 156.460938 187.617188 158.085938 186.921875 159.9375 Z M 214.714844 144.867188 C 214.25 146.257812 213.324219 147.648438 212.164062 148.578125 L 205.21875 155.300781 C 204.523438 155.996094 203.828125 156.230469 203.132812 156.460938 C 202.667969 156.691406 202.207031 156.691406 201.742188 156.691406 C 200.355469 156.691406 199.425781 156.230469 198.269531 155.300781 C 197.34375 154.375 196.878906 153.214844 196.878906 151.824219 C 196.878906 150.433594 197.34375 149.273438 198.269531 148.34375 L 205.21875 141.621094 C 205.679688 141.15625 205.679688 140.925781 205.914062 140.226562 C 205.914062 139.765625 205.679688 139.300781 205.449219 138.835938 C 204.984375 138.375 204.523438 138.375 204.058594 138.375 C 203.597656 138.375 202.902344 138.605469 202.667969 138.835938 L 200.121094 141.386719 C 198.964844 142.316406 197.804688 143.242188 196.183594 143.707031 C 194.796875 144.171875 193.40625 144.632812 191.785156 144.632812 C 190.394531 144.632812 188.773438 144.402344 187.382812 143.9375 C 185.996094 143.476562 184.605469 142.546875 183.445312 141.386719 C 182.519531 140.226562 181.59375 139.070312 181.132812 137.675781 C 180.667969 136.285156 180.4375 134.894531 180.4375 133.273438 C 180.4375 131.878906 180.667969 130.257812 181.363281 128.867188 C 181.824219 127.472656 182.753906 126.082031 183.910156 124.921875 L 190.859375 118.199219 C 191.785156 117.269531 192.941406 116.808594 194.332031 116.808594 C 195.492188 116.808594 196.648438 117.269531 197.804688 118.199219 C 198.734375 119.125 199.195312 120.285156 199.195312 121.675781 C 199.195312 122.835938 198.734375 123.996094 197.574219 124.921875 L 190.625 131.648438 C 190.164062 132.113281 190.164062 132.34375 190.164062 133.039062 C 190.164062 133.503906 190.394531 134.199219 190.859375 134.664062 C 191.089844 134.894531 191.554688 135.125 192.246094 135.125 C 192.480469 135.125 192.710938 135.125 192.710938 135.125 C 192.941406 135.125 193.175781 134.894531 193.40625 134.664062 L 195.953125 132.113281 C 197.113281 131.183594 198.269531 130.257812 199.660156 129.792969 C 201.046875 129.328125 202.4375 129.097656 204.058594 129.097656 C 205.449219 129.097656 207.070312 129.328125 208.460938 130.023438 C 209.847656 130.488281 211.238281 131.417969 212.398438 132.574219 C 213.554688 133.734375 214.25 134.894531 214.714844 136.285156 C 215.175781 137.675781 215.40625 139.070312 215.40625 140.691406 C 215.640625 142.082031 215.40625 143.476562 214.714844 144.867188 Z M 214.714844 144.867188 "/>
<g clip-path="url(#clip2)" clip-rule="nonzero">
<path style=" stroke:none;fill-rule:nonzero;fill:rgb(100%,100%,100%);fill-opacity:1;" d="M 197.574219 316.699219 C 197.34375 317.164062 197.113281 317.625 196.878906 317.859375 C 201.511719 321.335938 206.605469 324.351562 211.703125 326.902344 C 216.796875 329.453125 222.355469 331.539062 227.683594 332.929688 C 233.007812 334.324219 238.566406 335.25 244.125 335.25 C 255.476562 335.25 266.824219 332.003906 275.625 323.886719 C 283.5 316.699219 287.898438 305.800781 286.742188 295.132812 C 285.8125 285.625 278.867188 278.203125 269.601562 276.8125 C 268.675781 276.582031 267.519531 276.582031 266.589844 276.582031 C 263.117188 276.582031 259.875 277.507812 256.402344 278.4375 C 252.230469 279.597656 248.527344 279.828125 245.285156 279.828125 C 234.167969 279.828125 227.914062 275.191406 227.914062 275.191406 C 223.976562 272.871094 214.714844 267.074219 211.007812 264.988281 C 211.007812 265.21875 211.007812 265.914062 211.007812 266.609375 C 212.628906 272.175781 213.09375 278.203125 212.398438 284.234375 C 210.777344 298.378906 204.984375 308.8125 197.574219 316.699219 Z M 274.003906 288.40625 C 276.085938 290.261719 277.246094 292.8125 277.476562 295.828125 C 278.171875 303.710938 275.160156 311.597656 269.371094 316.929688 C 261.265625 324.351562 251.074219 325.742188 244.125 325.742188 C 239.496094 325.742188 234.863281 325.046875 230 323.886719 C 228.839844 323.65625 227.683594 323.191406 226.523438 322.960938 C 258.253906 318.785156 270.527344 296.757812 274.003906 288.40625 Z M 274.003906 288.40625 "/>
</g>
<path style=" stroke:none;fill-rule:nonzero;fill:rgb(100%,100%,100%);fill-opacity:1;" d="M 318.933594 233.914062 C 318.007812 233.679688 317.082031 233.679688 316.152344 233.679688 C 312.679688 233.679688 309.667969 234.609375 306.195312 235.304688 C 302.257812 236.230469 298.785156 236.695312 295.542969 236.695312 C 285.121094 236.695312 278.867188 232.289062 278.867188 232.289062 C 274.234375 229.507812 261.265625 221.855469 261.265625 221.855469 C 258.253906 220.230469 254.78125 219.070312 251.074219 219.070312 C 247.832031 219.070312 244.820312 219.769531 242.273438 221.621094 C 239.726562 223.710938 237.640625 226.261719 236.25 229.273438 C 233.9375 234.144531 233.242188 239.941406 233.9375 245.042969 C 234.167969 246.203125 234.167969 247.363281 234.398438 248.289062 C 224.902344 249.449219 215.871094 250.839844 207.300781 252.695312 C 207.996094 252.929688 208.460938 253.160156 209.15625 253.390625 C 213.785156 253.855469 218.417969 255.246094 222.355469 257.566406 L 224.207031 258.726562 C 224.441406 258.726562 224.671875 258.957031 224.671875 258.957031 C 228.839844 258.261719 233.007812 257.796875 237.410156 257.335938 C 239.726562 262.4375 242.96875 266.609375 246.90625 270.089844 C 246.90625 270.089844 247.136719 270.089844 247.136719 270.089844 C 247.832031 270.089844 248.757812 269.855469 249.453125 269.855469 C 250.84375 269.625 252.230469 269.394531 253.621094 268.929688 C 257.558594 267.769531 261.496094 266.84375 266.359375 266.84375 C 267.75 266.84375 269.371094 266.84375 270.761719 267.074219 C 274.464844 267.539062 277.707031 268.695312 280.71875 270.320312 C 280.71875 270.320312 280.949219 270.320312 280.949219 270.320312 C 283.960938 271.945312 286.507812 274.03125 288.59375 276.582031 C 306.425781 265.21875 311.984375 244.117188 312.21875 243.1875 C 313.605469 242.957031 314.765625 242.726562 315.921875 242.726562 C 316.386719 242.726562 316.847656 242.726562 317.542969 242.726562 C 322.175781 243.421875 325.648438 246.898438 326.113281 251.535156 C 326.808594 258.726562 324.027344 265.914062 318.46875 270.785156 C 310.828125 277.507812 301.101562 279.132812 294.613281 279.132812 C 293.226562 279.132812 291.835938 279.132812 290.445312 278.898438 C 292.53125 281.683594 293.921875 284.929688 295.078125 288.40625 C 305.964844 288.40625 316.386719 285.160156 324.722656 277.742188 C 332.367188 271.015625 336.304688 260.8125 335.375 250.839844 C 334.449219 242.261719 327.734375 235.074219 318.933594 233.914062 Z M 318.933594 233.914062 "/>
</g>
</svg>
