<?xml version="1.0" encoding="UTF-8"?>
<svg xmlns="http://www.w3.org/2000/svg" xmlns:xlink="http://www.w3.org/1999/xlink" width="375pt" height="374.999991pt" viewBox="0 0 375 374.999991" version="1.2">
<defs>
<clipPath id="clip1">
  <path d="M 80.4375 37.5 L 294.9375 37.5 L 294.9375 337.5 L 80.4375 337.5 Z M 80.4375 37.5 "/>
</clipPath>
</defs>
<g id="surface1">
<g clip-path="url(#clip1)" clip-rule="nonzero">
<path style=" stroke:none;fill-rule:nonzero;fill:rgb(0%,0%,0%);fill-opacity:1;" d="M 264.917969 315.183594 C 264.230469 323.769531 256.933594 330.492188 248.304688 330.492188 L 168.269531 330.492188 C 159.648438 330.492188 152.347656 323.769531 151.660156 315.183594 L 149.777344 291.796875 L 266.800781 291.796875 Z M 110.839844 203.628906 C 108.277344 203.628906 105.8125 203.214844 103.5 202.453125 C 109.777344 199.453125 114.835938 193.550781 114.835938 186.40625 C 114.835938 176.722656 122.730469 168.84375 132.429688 168.84375 L 132.949219 168.84375 L 134.953125 193.769531 L 134.980469 194.085938 L 134.953125 194.085938 L 135.722656 203.628906 Z M 87.324219 180.15625 L 87.324219 176.359375 C 87.324219 163.414062 97.875 152.882812 110.839844 152.882812 L 121.679688 152.882812 L 121.679688 153.542969 C 121.679688 157.25 123.359375 160.570312 125.992188 162.800781 C 115.589844 165.628906 107.917969 175.136719 107.917969 186.40625 C 107.917969 192.417969 101.121094 197.300781 95.195312 197.660156 C 90.371094 193.359375 87.324219 187.105469 87.324219 180.15625 Z M 170.496094 119.320312 L 122.179688 54.714844 C 121.828125 54.246094 121.679688 53.667969 121.777344 53.09375 C 121.867188 52.511719 122.179688 52.011719 122.660156 51.671875 L 131.863281 45.238281 C 132.34375 44.902344 132.929688 44.78125 133.503906 44.890625 C 134.082031 45.003906 134.570312 45.335938 134.898438 45.839844 L 179.164062 113.226562 C 183.425781 119.832031 190.289062 124.566406 197.984375 126.214844 L 204.957031 127.707031 C 207.441406 128.238281 209.644531 129.574219 211.265625 131.472656 C 210.300781 132.738281 209.429688 134.085938 208.667969 135.519531 C 207.640625 137.449219 206.019531 138.976562 203.980469 139.9375 C 201.050781 141.316406 198.558594 143.390625 196.667969 145.976562 L 175.632812 145.976562 L 176.269531 141.394531 C 177.351562 133.609375 175.242188 125.554688 170.496094 119.320312 Z M 282.734375 158.460938 L 133.84375 158.460938 C 130.953125 158.460938 128.597656 156.113281 128.597656 153.226562 L 128.597656 153.199219 L 287.980469 153.199219 L 287.980469 153.226562 C 287.980469 156.113281 285.628906 158.460938 282.734375 158.460938 Z M 141.894531 193.769531 L 139.636719 165.683594 L 276.941406 165.683594 L 274.683594 193.769531 Z M 267.378906 284.578125 L 149.195312 284.578125 L 142.476562 200.992188 L 274.101562 200.992188 L 273.390625 209.851562 Z M 236.390625 126.644531 C 247.207031 127.285156 256.011719 135.453125 257.597656 145.976562 L 207.324219 145.976562 C 210.542969 144.363281 213.117188 141.882812 214.777344 138.753906 C 218.964844 130.867188 227.457031 126.121094 236.390625 126.644531 Z M 264.582031 145.976562 C 262.945312 131.765625 251.246094 120.605469 236.800781 119.753906 C 229.160156 119.300781 221.789062 121.804688 216.078125 126.480469 C 213.527344 123.710938 210.164062 121.757812 206.40625 120.957031 L 199.4375 119.464844 C 193.523438 118.199219 188.253906 114.558594 184.964844 109.460938 L 140.6875 42.058594 C 139.339844 39.984375 137.253906 38.585938 134.816406 38.113281 C 132.386719 37.644531 129.925781 38.164062 127.894531 39.585938 L 118.695312 46.015625 C 116.664062 47.4375 115.332031 49.5625 114.941406 52.007812 C 114.554688 54.453125 115.160156 56.886719 116.640625 58.855469 L 164.972656 123.472656 C 168.628906 128.277344 170.25 134.464844 169.417969 140.441406 L 168.648438 145.976562 L 110.839844 145.976562 C 94.0625 145.976562 80.40625 159.609375 80.40625 176.359375 L 80.40625 180.15625 C 80.40625 196.90625 94.0625 210.535156 110.839844 210.535156 L 136.277344 210.535156 L 142.8125 291.796875 L 142.835938 291.796875 L 144.761719 315.738281 C 145.738281 327.882812 156.066406 337.394531 168.269531 337.394531 L 248.304688 337.394531 C 260.511719 337.394531 270.839844 327.882812 271.816406 315.738281 L 273.742188 291.796875 L 273.765625 291.796875 L 281.625 194.085938 L 281.597656 194.085938 L 283.886719 165.625 C 290.054688 165.042969 294.898438 159.847656 294.898438 153.542969 L 294.898438 145.976562 L 264.582031 145.976562 "/>
</g>
<path style=" stroke:none;fill-rule:nonzero;fill:rgb(0%,0%,0%);fill-opacity:1;" d="M 208.289062 267.792969 C 188.910156 267.792969 173.136719 256.589844 173.011719 242.785156 C 173.136719 228.980469 188.910156 217.777344 208.289062 217.777344 C 227.667969 217.777344 243.445312 228.980469 243.5625 242.785156 C 243.445312 256.589844 227.667969 267.792969 208.289062 267.792969 Z M 250.488281 242.628906 C 250.488281 224.945312 231.558594 210.554688 208.289062 210.554688 C 185.019531 210.554688 166.089844 224.945312 166.089844 242.628906 C 166.089844 242.679688 166.097656 242.730469 166.097656 242.785156 C 166.097656 242.835938 166.089844 242.890625 166.089844 242.941406 C 166.089844 260.625 185.019531 275.011719 208.289062 275.011719 C 231.558594 275.011719 250.488281 260.625 250.488281 242.941406 C 250.488281 242.890625 250.484375 242.835938 250.480469 242.785156 C 250.484375 242.730469 250.488281 242.679688 250.488281 242.628906 "/>
</g>
</svg>
