<?xml version="1.0" encoding="UTF-8"?>
<svg xmlns="http://www.w3.org/2000/svg" xmlns:xlink="http://www.w3.org/1999/xlink" width="375pt" height="374.999991pt" viewBox="0 0 375 374.999991" version="1.2">
<defs>
<clipPath id="clip1">
  <path d="M 55 28.027344 L 320 28.027344 L 320 346.777344 L 55 346.777344 Z M 55 28.027344 "/>
</clipPath>
</defs>
<g id="surface1">
<g clip-path="url(#clip1)" clip-rule="nonzero">
<path style=" stroke:none;fill-rule:nonzero;fill:rgb(100%,100%,100%);fill-opacity:1;" d="M 289.496094 271.277344 C 256.171875 332.402344 239.484375 333.382812 226.074219 334.171875 C 219.117188 334.585938 213.277344 331.308594 207.03125 327.828125 C 200.972656 324.449219 194.703125 320.960938 187.304688 320.960938 C 179.902344 320.960938 173.636719 324.449219 167.578125 327.828125 C 161.332031 331.308594 155.492188 334.578125 148.535156 334.171875 C 135.125 333.382812 118.4375 332.402344 85.109375 271.277344 C 66.144531 236.492188 61.980469 194.972656 74.242188 162.925781 C 81.3125 144.441406 93.386719 131.363281 108.238281 126.097656 C 119.320312 122.171875 130.804688 120.179688 142.363281 120.179688 C 167.117188 120.179688 184.238281 129.382812 184.394531 129.464844 L 187.300781 131.058594 L 190.199219 129.476562 C 190.371094 129.382812 207.488281 120.179688 232.242188 120.179688 C 243.804688 120.179688 255.285156 122.171875 266.371094 126.097656 C 281.21875 131.363281 293.292969 144.441406 300.367188 162.925781 C 312.628906 194.972656 308.464844 236.492188 289.496094 271.277344 Z M 152.289062 79.890625 C 121.691406 79.890625 107.003906 58.316406 101.574219 47.503906 C 111.867188 45.125 121.84375 43.914062 131.308594 43.914062 C 160.277344 43.914062 178.191406 54.933594 186.355469 61.570312 C 186.140625 62.097656 185.933594 62.632812 185.726562 63.167969 C 167.253906 59.015625 133.023438 52.5625 131.304688 52.238281 L 129.082031 64.058594 C 129.488281 64.136719 162.402344 70.339844 181.113281 74.460938 C 170.820312 78.066406 161.15625 79.890625 152.289062 79.890625 Z M 311.597656 158.625 C 303.246094 136.792969 288.609375 121.214844 270.386719 114.757812 C 258.011719 110.375 245.175781 108.148438 232.242188 108.148438 C 217.1875 108.148438 204.734375 111.136719 196.300781 113.96875 C 196.1875 92.855469 200.832031 56.515625 223.703125 44.882812 L 215.136719 28.027344 C 204.804688 33.285156 197.265625 41.328125 191.769531 50.582031 C 181.257812 42.671875 161.40625 31.882812 131.308594 31.882812 C 118.722656 31.882812 105.386719 33.808594 91.671875 37.613281 L 85.589844 39.296875 L 87.566406 45.292969 C 87.726562 45.773438 91.554688 57.179688 101.34375 68.578125 C 114.460938 83.851562 132.078125 91.921875 152.289062 91.921875 L 152.292969 91.921875 C 160.820312 91.921875 169.890625 90.488281 179.386719 87.664062 C 177.824219 97.664062 177.441406 106.886719 177.457031 113.6875 C 169.046875 110.941406 156.917969 108.148438 142.363281 108.148438 C 129.429688 108.148438 116.597656 110.375 104.222656 114.757812 C 85.996094 121.214844 71.363281 136.792969 63.011719 158.625 C 49.523438 193.871094 53.949219 239.246094 74.554688 277.039062 C 108.324219 338.980469 127.71875 345.003906 147.828125 346.183594 C 158.222656 346.796875 166.351562 342.28125 173.429688 338.339844 C 178.582031 335.46875 183.027344 332.992188 187.304688 332.992188 C 191.578125 332.992188 196.027344 335.46875 201.179688 338.339844 C 207.824219 342.042969 215.355469 346.242188 224.894531 346.242188 C 225.515625 346.242188 226.144531 346.222656 226.78125 346.183594 C 246.890625 345.003906 266.28125 338.980469 300.054688 277.039062 C 320.660156 239.246094 325.085938 193.871094 311.597656 158.625 "/>
</g>
<path style=" stroke:none;fill-rule:nonzero;fill:rgb(100%,100%,100%);fill-opacity:1;" d="M 265.957031 135.320312 L 260.949219 146.261719 C 261.226562 146.386719 288.730469 159.582031 289.886719 212.46875 L 301.910156 212.203125 C 300.589844 151.863281 267.367188 135.96875 265.957031 135.320312 "/>
<path style=" stroke:none;fill-rule:nonzero;fill:rgb(100%,100%,100%);fill-opacity:1;" d="M 282.398438 241.5 L 293.507812 246.105469 L 299.136719 232.523438 L 288.027344 227.917969 L 282.398438 241.5 "/>
</g>
</svg>
