<?xml version="1.0" encoding="UTF-8"?>
<svg xmlns="http://www.w3.org/2000/svg" xmlns:xlink="http://www.w3.org/1999/xlink" width="375pt" height="374.999991pt" viewBox="0 0 375 374.999991" version="1.2">
<defs>
<clipPath id="clip1">
  <path d="M 274 53 L 344.378906 53 L 344.378906 188 L 274 188 Z M 274 53 "/>
</clipPath>
</defs>
<g id="surface1">
<path style=" stroke:none;fill-rule:evenodd;fill:rgb(0%,0%,0%);fill-opacity:1;" d="M 84.511719 181.265625 L 291.789062 181.265625 C 295.152344 181.265625 297.3125 183.933594 296.550781 187.363281 L 262.066406 348.40625 C 261.625 350.375 259.65625 351.960938 257.6875 351.960938 L 118.613281 351.960938 C 116.582031 351.960938 114.613281 350.3125 114.230469 348.40625 L 79.6875 187.363281 C 78.988281 183.996094 81.148438 181.265625 84.511719 181.265625 Z M 282.769531 193.457031 L 251.398438 339.769531 L 124.835938 339.769531 L 93.464844 193.457031 Z M 282.769531 193.457031 "/>
<path style=" stroke:none;fill-rule:evenodd;fill:rgb(0%,0%,0%);fill-opacity:1;" d="M 176.847656 23.082031 L 201.359375 24.351562 C 204.660156 24.542969 207.203125 27.398438 207.074219 30.828125 L 203.898438 91.347656 L 189.675781 129.574219 L 194.5625 36.226562 L 182.371094 35.589844 L 177.609375 126.652344 L 168.335938 70.453125 L 170.496094 28.796875 C 170.6875 25.492188 173.480469 22.890625 176.847656 23.082031 Z M 176.847656 23.082031 "/>
<path style=" stroke:none;fill-rule:evenodd;fill:rgb(0%,0%,0%);fill-opacity:1;" d="M 35.613281 80.679688 L 57.078125 68.804688 C 59.9375 67.152344 63.621094 68.167969 65.269531 71.152344 L 88.957031 113.953125 L 92.769531 145.894531 L 57.585938 82.457031 L 46.917969 88.363281 L 101.976562 187.679688 L 88.003906 187.679688 L 33.265625 88.871094 C 31.675781 85.949219 32.628906 82.328125 35.613281 80.679688 Z M 35.613281 80.679688 "/>
<g clip-path="url(#clip1)" clip-rule="nonzero">
<path style=" stroke:none;fill-rule:evenodd;fill:rgb(0%,0%,0%);fill-opacity:1;" d="M 341.066406 64.546875 L 319.03125 53.816406 C 316.046875 52.355469 312.363281 53.6875 310.902344 56.675781 L 290.960938 97.570312 L 281.246094 145.324219 L 319.222656 67.46875 L 330.207031 72.804688 L 274.199219 187.679688 L 287.722656 187.679688 L 343.796875 72.675781 C 345.257812 69.691406 344.113281 66.070312 341.066406 64.546875 Z M 341.066406 64.546875 "/>
</g>
<path style=" stroke:none;fill-rule:evenodd;fill:rgb(0%,0%,0%);fill-opacity:1;" d="M 251.84375 44.542969 L 227.648438 40.734375 C 224.347656 40.164062 221.234375 42.449219 220.726562 45.878906 L 213.296875 92.808594 L 217.679688 102.460938 L 225.300781 94.710938 L 231.839844 53.6875 L 243.84375 55.59375 L 222.949219 187.679688 L 235.269531 187.679688 L 256.859375 51.59375 C 257.367188 48.226562 255.210938 45.054688 251.84375 44.542969 Z M 251.84375 44.542969 "/>
<path style=" stroke:none;fill-rule:evenodd;fill:rgb(0%,0%,0%);fill-opacity:1;" d="M 112.707031 106.652344 L 89.273438 113.828125 C 86.101562 114.84375 84.257812 118.144531 85.273438 121.511719 L 105.53125 187.679688 L 118.296875 187.679688 L 98.738281 123.734375 L 110.359375 120.113281 L 130.996094 187.679688 L 143.761719 187.679688 L 120.265625 110.714844 C 119.25 107.539062 115.945312 105.699219 112.707031 106.652344 Z M 112.707031 106.652344 "/>
<path style=" stroke:none;fill-rule:evenodd;fill:rgb(0%,0%,0%);fill-opacity:1;" d="M 291.28125 97.632812 L 268.101562 89.695312 C 264.988281 88.550781 261.558594 90.140625 260.480469 93.378906 L 227.96875 187.679688 L 240.921875 187.679688 L 269.941406 103.222656 L 281.5 107.160156 L 253.8125 187.679688 L 266.703125 187.679688 L 295.027344 105.378906 C 296.105469 102.207031 294.519531 98.777344 291.28125 97.632812 Z M 291.28125 97.632812 "/>
<path style=" stroke:none;fill-rule:evenodd;fill:rgb(0%,0%,0%);fill-opacity:1;" d="M 226.0625 94.839844 L 201.867188 91.027344 C 198.566406 90.519531 195.453125 92.871094 194.945312 96.171875 L 180.464844 187.679688 L 192.785156 187.679688 L 206.058594 104.046875 L 218.058594 105.953125 L 205.167969 187.679688 L 217.488281 187.679688 L 231.078125 101.824219 C 231.585938 98.523438 229.425781 95.410156 226.0625 94.839844 Z M 226.0625 94.839844 "/>
<path style=" stroke:none;fill-rule:evenodd;fill:rgb(0%,0%,0%);fill-opacity:1;" d="M 173.542969 70.644531 L 149.03125 69.820312 C 145.667969 69.691406 142.871094 72.296875 142.808594 75.597656 L 138.871094 187.679688 L 151.0625 187.679688 L 154.746094 82.203125 L 166.941406 82.648438 L 163.257812 187.679688 L 175.449219 187.679688 L 179.324219 76.996094 C 179.449219 73.628906 176.910156 70.769531 173.542969 70.644531 Z M 173.542969 70.644531 "/>
<path style=" stroke:none;fill-rule:evenodd;fill:rgb(0%,0%,0%);fill-opacity:1;" d="M 91.75 41.941406 L 115.628906 36.417969 C 118.867188 35.65625 122.171875 37.6875 122.867188 40.925781 L 141.222656 120.304688 L 148.015625 138.71875 L 139.570312 167.421875 L 112.390625 49.6875 L 100.515625 52.417969 L 113.027344 106.585938 L 113.027344 115.351562 L 101.339844 110.144531 L 87.242188 49.242188 C 86.480469 45.941406 88.449219 42.703125 91.75 41.941406 Z M 91.75 41.941406 "/>
</g>
</svg>
