<?xml version="1.0" encoding="UTF-8"?>
<svg xmlns="http://www.w3.org/2000/svg" xmlns:xlink="http://www.w3.org/1999/xlink" width="375pt" height="374.999991pt" viewBox="0 0 375 374.999991" version="1.2">
<defs>
<clipPath id="clip1">
  <path d="M 273 53 L 344.378906 53 L 344.378906 188 L 273 188 Z M 273 53 "/>
</clipPath>
</defs>
<g id="surface1">
<path style=" stroke:none;fill-rule:evenodd;fill:rgb(100%,100%,100%);fill-opacity:1;" d="M 84.46875 181.136719 L 291.574219 181.136719 C 294.9375 181.136719 297.09375 183.800781 296.332031 187.226562 L 261.878906 348.140625 C 261.433594 350.105469 259.46875 351.691406 257.5 351.691406 L 118.542969 351.691406 C 116.511719 351.691406 114.542969 350.042969 114.164062 348.140625 L 79.644531 187.226562 C 78.949219 183.863281 81.105469 181.136719 84.46875 181.136719 Z M 282.5625 193.320312 L 251.21875 339.511719 L 124.761719 339.511719 L 93.414062 193.320312 Z M 282.5625 193.320312 "/>
<path style=" stroke:none;fill-rule:evenodd;fill:rgb(100%,100%,100%);fill-opacity:1;" d="M 176.726562 23.082031 L 201.21875 24.347656 C 204.519531 24.539062 207.054688 27.394531 206.929688 30.820312 L 203.757812 91.289062 L 189.542969 129.488281 L 194.429688 36.214844 L 182.246094 35.582031 L 177.488281 126.570312 L 168.222656 70.414062 L 170.382812 28.792969 C 170.570312 25.492188 173.363281 22.890625 176.726562 23.082031 Z M 176.726562 23.082031 "/>
<path style=" stroke:none;fill-rule:evenodd;fill:rgb(100%,100%,100%);fill-opacity:1;" d="M 35.609375 80.628906 L 57.058594 68.765625 C 59.914062 67.117188 63.59375 68.128906 65.242188 71.113281 L 88.910156 113.878906 L 92.71875 145.792969 L 57.566406 82.40625 L 46.90625 88.308594 L 101.917969 187.546875 L 87.957031 187.546875 L 33.261719 88.816406 C 31.675781 85.898438 32.628906 82.28125 35.609375 80.628906 Z M 35.609375 80.628906 "/>
<g clip-path="url(#clip1)" clip-rule="nonzero">
<path style=" stroke:none;fill-rule:evenodd;fill:rgb(100%,100%,100%);fill-opacity:1;" d="M 340.8125 64.515625 L 318.792969 53.789062 C 315.8125 52.332031 312.132812 53.664062 310.671875 56.644531 L 290.75 97.507812 L 281.039062 145.222656 L 318.984375 67.433594 L 329.960938 72.761719 L 273.996094 187.546875 L 287.511719 187.546875 L 343.539062 72.636719 C 345 69.652344 343.855469 66.035156 340.8125 64.515625 Z M 340.8125 64.515625 "/>
</g>
<path style=" stroke:none;fill-rule:evenodd;fill:rgb(100%,100%,100%);fill-opacity:1;" d="M 251.664062 44.527344 L 227.488281 40.71875 C 224.1875 40.148438 221.078125 42.433594 220.570312 45.859375 L 213.148438 92.75 L 217.527344 102.394531 L 225.140625 94.652344 L 231.675781 53.664062 L 243.667969 55.566406 L 222.792969 187.546875 L 235.101562 187.546875 L 256.675781 51.570312 C 257.183594 48.207031 255.023438 45.035156 251.664062 44.527344 Z M 251.664062 44.527344 "/>
<path style=" stroke:none;fill-rule:evenodd;fill:rgb(100%,100%,100%);fill-opacity:1;" d="M 112.640625 106.582031 L 89.226562 113.75 C 86.054688 114.765625 84.214844 118.066406 85.230469 121.429688 L 105.472656 187.546875 L 118.222656 187.546875 L 98.679688 123.648438 L 110.292969 120.035156 L 130.914062 187.546875 L 143.667969 187.546875 L 120.191406 110.644531 C 119.175781 107.46875 115.875 105.628906 112.640625 106.582031 Z M 112.640625 106.582031 "/>
<path style=" stroke:none;fill-rule:evenodd;fill:rgb(100%,100%,100%);fill-opacity:1;" d="M 291.066406 97.570312 L 267.90625 89.640625 C 264.796875 88.5 261.371094 90.085938 260.292969 93.320312 L 227.804688 187.546875 L 240.75 187.546875 L 269.746094 103.15625 L 281.292969 107.089844 L 253.628906 187.546875 L 266.511719 187.546875 L 294.808594 105.3125 C 295.886719 102.140625 294.300781 98.714844 291.066406 97.570312 Z M 291.066406 97.570312 "/>
<path style=" stroke:none;fill-rule:evenodd;fill:rgb(100%,100%,100%);fill-opacity:1;" d="M 225.902344 94.78125 L 201.726562 90.972656 C 198.425781 90.464844 195.316406 92.8125 194.808594 96.113281 L 180.34375 187.546875 L 192.652344 187.546875 L 205.914062 103.980469 L 217.90625 105.882812 L 205.027344 187.546875 L 217.335938 187.546875 L 230.914062 101.757812 C 231.421875 98.460938 229.265625 95.351562 225.902344 94.78125 Z M 225.902344 94.78125 "/>
<path style=" stroke:none;fill-rule:evenodd;fill:rgb(100%,100%,100%);fill-opacity:1;" d="M 173.425781 70.605469 L 148.933594 69.78125 C 145.570312 69.652344 142.78125 72.253906 142.714844 75.554688 L 138.78125 187.546875 L 150.964844 187.546875 L 154.644531 82.152344 L 166.828125 82.597656 L 163.148438 187.546875 L 175.332031 187.546875 L 179.199219 76.949219 C 179.328125 73.585938 176.789062 70.730469 173.425781 70.605469 Z M 173.425781 70.605469 "/>
<path style=" stroke:none;fill-rule:evenodd;fill:rgb(100%,100%,100%);fill-opacity:1;" d="M 91.703125 41.925781 L 115.558594 36.40625 C 118.796875 35.644531 122.09375 37.675781 122.792969 40.910156 L 141.128906 120.222656 L 147.917969 138.625 L 139.480469 167.304688 L 112.324219 49.667969 L 100.457031 52.394531 L 112.957031 106.519531 L 112.957031 115.273438 L 101.28125 110.070312 L 87.195312 49.222656 C 86.433594 45.921875 88.402344 42.6875 91.703125 41.925781 Z M 91.703125 41.925781 "/>
</g>
</svg>
