<?xml version="1.0" encoding="UTF-8"?>
<svg xmlns="http://www.w3.org/2000/svg" xmlns:xlink="http://www.w3.org/1999/xlink" width="375pt" height="374.999991pt" viewBox="0 0 375 374.999991" version="1.2">
<g id="surface1">
<path style=" stroke:none;fill-rule:nonzero;fill:rgb(0%,0%,0%);fill-opacity:1;" d="M 51.882812 160.949219 C 51.882812 164.332031 54.628906 167.074219 58.011719 167.074219 C 61.394531 167.074219 64.136719 164.332031 64.136719 160.949219 L 64.136719 136.441406 C 64.136719 133.058594 61.394531 130.3125 58.011719 130.3125 C 54.628906 130.3125 51.882812 133.058594 51.882812 136.441406 Z M 51.882812 160.949219 "/>
<path style=" stroke:none;fill-rule:nonzero;fill:rgb(0%,0%,0%);fill-opacity:1;" d="M 309.226562 222.222656 C 309.226562 225.605469 311.972656 228.347656 315.355469 228.347656 C 318.738281 228.347656 321.480469 225.605469 321.480469 222.222656 L 321.480469 197.710938 C 321.480469 194.328125 318.738281 191.585938 315.355469 191.585938 C 311.972656 191.585938 309.226562 194.328125 309.226562 197.710938 Z M 309.226562 222.222656 "/>
<path style=" stroke:none;fill-rule:nonzero;fill:rgb(0%,0%,0%);fill-opacity:1;" d="M 313.949219 203.648438 C 317.207031 204.476562 320.523438 202.433594 321.289062 199.117188 C 322.121094 195.859375 320.078125 192.542969 316.757812 191.777344 L 59.414062 130.503906 C 56.160156 129.675781 52.839844 131.714844 52.074219 135.035156 C 51.246094 138.289062 53.289062 141.609375 56.605469 142.375 Z M 313.949219 203.648438 "/>
<path style=" stroke:none;fill-rule:nonzero;fill:rgb(0%,0%,0%);fill-opacity:1;" d="M 231.167969 110.207031 C 241.957031 108.164062 256.0625 114.421875 261.871094 123.738281 L 310.183594 200.96875 C 311.972656 203.839844 315.738281 204.667969 318.609375 202.882812 C 321.480469 201.09375 322.375 197.328125 320.523438 194.457031 L 272.273438 117.226562 C 263.785156 103.632812 244.636719 95.207031 228.933594 98.144531 L 56.863281 130.441406 C 53.542969 131.015625 51.375 134.207031 52.011719 137.589844 C 52.585938 140.90625 55.839844 143.078125 59.160156 142.4375 Z M 231.167969 110.207031 "/>
<path style=" stroke:none;fill-rule:nonzero;fill:rgb(0%,0%,0%);fill-opacity:1;" d="M 51.882812 209.964844 C 51.882812 213.347656 54.628906 216.09375 58.011719 216.09375 C 61.394531 216.09375 64.136719 213.347656 64.136719 209.964844 L 64.136719 185.457031 C 64.136719 182.074219 61.394531 179.332031 58.011719 179.332031 C 54.628906 179.332031 51.882812 182.074219 51.882812 185.457031 Z M 51.882812 209.964844 "/>
<path style=" stroke:none;fill-rule:nonzero;fill:rgb(0%,0%,0%);fill-opacity:1;" d="M 309.226562 271.238281 C 309.226562 274.621094 311.972656 277.367188 315.355469 277.367188 C 318.738281 277.367188 321.480469 274.621094 321.480469 271.238281 L 321.480469 249.410156 C 321.480469 246.027344 318.738281 243.285156 315.355469 243.285156 C 311.972656 243.285156 309.226562 246.027344 309.226562 249.410156 Z M 309.226562 271.238281 "/>
<path style=" stroke:none;fill-rule:nonzero;fill:rgb(0%,0%,0%);fill-opacity:1;" d="M 313.949219 277.175781 C 317.207031 278.003906 320.523438 275.960938 321.289062 272.644531 C 322.121094 269.386719 320.078125 266.070312 316.757812 265.304688 L 59.414062 204.03125 C 56.160156 203.199219 52.839844 205.242188 52.074219 208.5625 C 51.246094 211.816406 53.289062 215.136719 56.605469 215.902344 Z M 313.949219 277.175781 "/>
<path style=" stroke:none;fill-rule:nonzero;fill:rgb(0%,0%,0%);fill-opacity:1;" d="M 313.949219 228.15625 C 317.207031 228.988281 320.523438 226.945312 321.289062 223.625 C 322.121094 220.371094 320.078125 217.050781 316.757812 216.285156 L 59.414062 155.011719 C 56.160156 154.183594 52.839844 156.226562 52.074219 159.542969 C 51.246094 162.800781 53.289062 166.117188 56.605469 166.882812 Z M 313.949219 228.15625 "/>
<path style=" stroke:none;fill-rule:nonzero;fill:rgb(0%,0%,0%);fill-opacity:1;" d="M 46.585938 160.183594 C 40.332031 166.117188 37.585938 173.90625 41.289062 182.585938 C 45.054688 191.519531 49.714844 192.160156 66.308594 190.753906 C 75.820312 189.925781 81.816406 189.863281 89.09375 191.203125 C 89.347656 191.203125 90.816406 192.542969 94.074219 196.117188 C 99.304688 201.859375 101.921875 204.09375 106.453125 204.859375 C 110.984375 205.691406 114.304688 205.117188 122.476562 203.074219 C 123.816406 202.753906 124.324219 202.5625 125.089844 202.433594 C 129.175781 201.414062 131.792969 201.160156 133.964844 201.476562 C 137.410156 201.988281 140.089844 204.03125 145.578125 210.03125 C 145.898438 210.347656 145.898438 210.347656 146.21875 210.667969 C 154.003906 219.15625 158.472656 222.605469 166.066406 223.753906 C 171.363281 224.519531 176.597656 223.945312 187.703125 221.839844 C 198.042969 219.859375 201.9375 219.347656 205.320312 219.605469 C 209.980469 219.988281 215.023438 223.242188 222.617188 230.136719 C 220.636719 228.285156 228.871094 235.945312 230.785156 237.476562 C 234.105469 240.285156 236.851562 242.132812 239.65625 243.09375 C 244.507812 244.75 248.339844 244.625 262.636719 243.285156 C 267.484375 242.835938 270.359375 242.582031 273.421875 242.453125 C 279.230469 242.199219 283.953125 242.453125 287.910156 243.285156 C 291.738281 244.113281 295.3125 245.453125 300.164062 247.75 C 318.929688 256.496094 322.695312 257.390625 329.90625 248.390625 C 336.160156 240.601562 334.375 228.15625 324.164062 221.136719 C 320.90625 218.902344 317.652344 217.371094 315.355469 216.476562 C 312.164062 215.265625 308.652344 216.921875 307.441406 220.050781 C 306.292969 223.242188 307.886719 226.753906 311.015625 227.964844 C 312.484375 228.476562 314.90625 229.625 317.269531 231.285156 C 322.3125 234.730469 323.332031 237.15625 320.460938 240.601562 C 318.738281 242.707031 317.90625 242.515625 305.398438 236.644531 C 299.78125 233.964844 295.378906 232.304688 290.464844 231.285156 C 285.355469 230.199219 279.675781 229.945312 272.910156 230.199219 C 269.59375 230.390625 266.527344 230.644531 261.488281 231.09375 C 249.742188 232.175781 245.976562 232.304688 243.679688 231.476562 C 241.574219 230.773438 241.957031 231.09375 230.851562 221.070312 C 221.339844 212.390625 214.574219 208.117188 206.339844 207.414062 C 201.425781 206.964844 197.085938 207.605469 186.109375 209.648438 C 175.832031 211.5625 171.300781 212.136719 167.855469 211.625 C 163.960938 211.050781 161.152344 208.816406 155.21875 202.371094 C 154.898438 202.050781 154.898438 202.050781 154.578125 201.734375 C 147.238281 193.691406 142.898438 190.371094 135.75 189.351562 C 131.664062 188.710938 127.707031 189.160156 122.21875 190.5 C 121.453125 190.691406 120.816406 190.820312 119.410156 191.203125 C 113.09375 192.796875 110.667969 193.179688 108.496094 192.796875 C 107.921875 192.734375 106.261719 191.328125 103.136719 187.882812 C 97.390625 181.5625 95.539062 179.90625 91.265625 179.140625 C 82.648438 177.605469 75.753906 177.605469 65.222656 178.5 C 54.628906 179.457031 53.160156 179.265625 52.585938 177.796875 C 51.183594 174.480469 52.140625 171.800781 55.074219 169.054688 C 56.414062 167.714844 57.882812 166.820312 58.648438 166.4375 C 61.648438 164.90625 62.863281 161.203125 61.332031 158.203125 C 59.796875 155.140625 56.097656 153.929688 53.097656 155.460938 C 51.375 156.351562 49.011719 157.886719 46.585938 160.183594 Z M 46.585938 160.183594 "/>
</g>
</svg>
