<?xml version="1.0" encoding="UTF-8"?>
<svg xmlns="http://www.w3.org/2000/svg" xmlns:xlink="http://www.w3.org/1999/xlink" width="375pt" height="374.999991pt" viewBox="0 0 375 374.999991" version="1.2">
<defs>
<clipPath id="clip1">
  <path d="M 37.5 37.5 L 337.5 37.5 L 337.5 337.5 L 37.5 337.5 Z M 37.5 37.5 "/>
</clipPath>
</defs>
<g id="surface1">
<g clip-path="url(#clip1)" clip-rule="nonzero">
<path style=" stroke:none;fill-rule:nonzero;fill:rgb(0%,0%,0%);fill-opacity:1;" d="M 187.5 37.5 C 104.742188 37.5 37.5 104.742188 37.5 187.5 C 37.5 270.257812 104.742188 337.5 187.5 337.5 C 270.257812 337.5 337.5 270.257812 337.5 187.5 C 337.5 183.0625 337.222656 178.792969 336.859375 174.664062 C 336.636719 172.183594 335.15625 169.976562 332.925781 168.863281 C 330.664062 167.746094 328.011719 167.886719 325.894531 169.222656 C 321.957031 171.734375 317.4375 173.214844 312.5 173.214844 C 301.898438 173.214844 292.996094 166.65625 289.3125 157.449219 C 288.558594 155.550781 287.027344 154.074219 285.128906 153.375 C 283.203125 152.679688 281.082031 152.816406 279.269531 153.792969 C 273.242188 157.058594 266.324219 158.929688 258.929688 158.929688 C 235.183594 158.929688 216.070312 139.816406 216.070312 116.070312 C 216.070312 108.675781 217.941406 101.757812 221.207031 95.730469 C 222.183594 93.917969 222.320312 91.796875 221.625 89.871094 C 220.925781 87.972656 219.449219 86.441406 217.550781 85.6875 C 208.34375 82.003906 201.785156 73.101562 201.785156 62.5 C 201.785156 57.5625 203.265625 53.042969 205.777344 49.105469 C 207.113281 46.988281 207.253906 44.335938 206.136719 42.074219 C 205.023438 39.84375 202.816406 38.363281 200.335938 38.140625 C 196.207031 37.777344 191.9375 37.5 187.5 37.5 Z M 280.355469 37.5 C 272.460938 37.5 266.070312 43.890625 266.070312 51.785156 C 266.070312 59.683594 272.460938 66.070312 280.355469 66.070312 C 288.253906 66.070312 294.644531 59.683594 294.644531 51.785156 C 294.644531 43.890625 288.253906 37.5 280.355469 37.5 Z M 187.5 51.785156 C 188.53125 51.785156 189.59375 51.898438 190.625 51.953125 C 189.535156 55.496094 187.5 58.59375 187.5 62.5 C 187.5 76.339844 195.621094 87.386719 206.5 94.363281 C 203.710938 101.117188 201.785156 108.34375 201.785156 116.070312 C 201.785156 147.542969 227.457031 173.214844 258.929688 173.214844 C 266.65625 173.214844 273.882812 171.289062 280.636719 168.5 C 287.613281 179.378906 298.660156 187.5 312.5 187.5 C 316.40625 187.5 319.503906 185.464844 323.074219 184.375 C 323.101562 185.40625 323.214844 186.46875 323.214844 187.5 C 323.214844 262.527344 262.527344 323.214844 187.5 323.214844 C 112.472656 323.214844 51.785156 262.527344 51.785156 187.5 C 51.785156 112.472656 112.472656 51.785156 187.5 51.785156 Z M 269.644531 94.644531 C 263.726562 94.644531 258.929688 99.441406 258.929688 105.355469 C 258.929688 111.273438 263.726562 116.070312 269.644531 116.070312 C 275.558594 116.070312 280.355469 111.273438 280.355469 105.355469 C 280.355469 99.441406 275.558594 94.644531 269.644531 94.644531 Z M 162.5 116.070312 C 156.585938 116.070312 151.785156 120.871094 151.785156 126.785156 C 151.785156 132.699219 156.585938 137.5 162.5 137.5 C 168.414062 137.5 173.214844 132.699219 173.214844 126.785156 C 173.214844 120.871094 168.414062 116.070312 162.5 116.070312 Z M 330.355469 116.070312 C 326.421875 116.070312 323.214844 119.28125 323.214844 123.214844 C 323.214844 127.148438 326.421875 130.355469 330.355469 130.355469 C 334.292969 130.355469 337.5 127.148438 337.5 123.214844 C 337.5 119.28125 334.292969 116.070312 330.355469 116.070312 Z M 116.070312 151.785156 C 104.242188 151.785156 94.644531 161.382812 94.644531 173.214844 C 94.644531 185.042969 104.242188 194.644531 116.070312 194.644531 C 127.902344 194.644531 137.5 185.042969 137.5 173.214844 C 137.5 161.382812 127.902344 151.785156 116.070312 151.785156 Z M 183.929688 180.355469 C 178.011719 180.355469 173.214844 185.15625 173.214844 191.070312 C 173.214844 196.988281 178.011719 201.785156 183.929688 201.785156 C 189.84375 201.785156 194.644531 196.988281 194.644531 191.070312 C 194.644531 185.15625 189.84375 180.355469 183.929688 180.355469 Z M 130.355469 230.355469 C 122.460938 230.355469 116.070312 236.746094 116.070312 244.644531 C 116.070312 252.539062 122.460938 258.929688 130.355469 258.929688 C 138.253906 258.929688 144.644531 252.539062 144.644531 244.644531 C 144.644531 236.746094 138.253906 230.355469 130.355469 230.355469 Z M 226.785156 237.5 C 216.9375 237.5 208.929688 245.507812 208.929688 255.355469 C 208.929688 265.207031 216.9375 273.214844 226.785156 273.214844 C 236.636719 273.214844 244.644531 265.207031 244.644531 255.355469 C 244.644531 245.507812 236.636719 237.5 226.785156 237.5 Z M 226.785156 237.5 "/>
</g>
</g>
</svg>
