<?xml version="1.0" encoding="UTF-8"?>
<svg xmlns="http://www.w3.org/2000/svg" xmlns:xlink="http://www.w3.org/1999/xlink" width="375pt" height="374.999991pt" viewBox="0 0 375 374.999991" version="1.2">
<defs>
<clipPath id="clip1">
  <path d="M 87 163 L 250 163 L 250 337.5 L 87 337.5 Z M 87 163 "/>
</clipPath>
<clipPath id="clip2">
  <path d="M 62.4375 138 L 275 138 L 275 176 L 62.4375 176 Z M 62.4375 138 "/>
</clipPath>
<clipPath id="clip3">
  <path d="M 137 38 L 312.9375 38 L 312.9375 313 L 137 313 Z M 137 38 "/>
</clipPath>
</defs>
<g id="surface1">
<g clip-path="url(#clip1)" clip-rule="nonzero">
<path style=" stroke:none;fill-rule:nonzero;fill:rgb(0%,0%,0%);fill-opacity:1;" d="M 218.453125 337.449219 L 118.605469 337.449219 C 115.519531 337.449219 112.898438 335.210938 112.4375 332.175781 L 87.476562 170.402344 C 87.199219 168.597656 87.726562 166.78125 88.898438 165.398438 C 90.097656 164.019531 91.820312 163.234375 93.640625 163.234375 L 243.417969 163.234375 C 245.238281 163.234375 246.960938 164.019531 248.160156 165.398438 C 249.347656 166.78125 249.871094 168.597656 249.582031 170.402344 L 224.621094 332.175781 C 224.160156 335.210938 221.539062 337.449219 218.453125 337.449219 Z M 123.957031 325.007812 L 213.113281 325.007812 L 236.152344 175.679688 L 100.917969 175.679688 Z M 123.957031 325.007812 "/>
</g>
<g clip-path="url(#clip2)" clip-rule="nonzero">
<path style=" stroke:none;fill-rule:nonzero;fill:rgb(0%,0%,0%);fill-opacity:1;" d="M 268.378906 175.679688 L 68.679688 175.679688 C 65.222656 175.679688 62.4375 172.890625 62.4375 169.457031 L 62.4375 144.566406 C 62.4375 141.121094 65.222656 138.347656 68.679688 138.347656 L 268.378906 138.347656 C 271.824219 138.347656 274.621094 141.121094 274.621094 144.566406 L 274.621094 169.457031 C 274.621094 172.890625 271.824219 175.679688 268.378906 175.679688 Z M 74.917969 163.234375 L 262.140625 163.234375 L 262.140625 150.789062 L 74.917969 150.789062 Z M 74.917969 163.234375 "/>
</g>
<path style=" stroke:none;fill-rule:nonzero;fill:rgb(0%,0%,0%);fill-opacity:1;" d="M 243.417969 150.789062 C 239.960938 150.789062 237.175781 148.003906 237.175781 144.566406 C 237.175781 106.824219 206.371094 76.125 168.527344 76.125 C 130.6875 76.125 99.882812 106.824219 99.882812 144.566406 C 99.882812 148.003906 97.085938 150.789062 93.640625 150.789062 C 90.195312 150.789062 87.398438 148.003906 87.398438 144.566406 C 87.398438 99.96875 123.796875 63.683594 168.527344 63.683594 C 213.261719 63.683594 249.65625 99.96875 249.65625 144.566406 C 249.65625 148.003906 246.863281 150.789062 243.417969 150.789062 Z M 243.417969 150.789062 "/>
<g clip-path="url(#clip3)" clip-rule="nonzero">
<path style=" stroke:none;fill-rule:nonzero;fill:rgb(0%,0%,0%);fill-opacity:1;" d="M 143.566406 312.5625 C 142.71875 312.5625 141.855469 312.386719 141.03125 312.027344 C 137.886719 310.632812 136.464844 306.949219 137.863281 303.8125 L 237.714844 79.820312 C 238.238281 78.652344 239.097656 77.667969 240.210938 77.007812 L 302.617188 39.675781 C 305.539062 37.921875 309.40625 38.855469 311.179688 41.804688 C 312.964844 44.753906 311.988281 48.574219 309.03125 50.34375 L 248.324219 86.667969 L 149.269531 308.867188 C 148.234375 311.179688 145.949219 312.5625 143.566406 312.5625 Z M 143.566406 312.5625 "/>
</g>
<path style=" stroke:none;fill-rule:nonzero;fill:rgb(0%,0%,0%);fill-opacity:1;" d="M 230.9375 250.34375 L 106.121094 250.34375 C 102.664062 250.34375 99.882812 247.554688 99.882812 244.121094 C 99.882812 240.6875 102.664062 237.898438 106.121094 237.898438 L 230.9375 237.898438 C 234.382812 237.898438 237.175781 240.6875 237.175781 244.121094 C 237.175781 247.554688 234.382812 250.34375 230.9375 250.34375 Z M 230.9375 250.34375 "/>
</g>
</svg>
