<?xml version="1.0" encoding="UTF-8"?>
<svg xmlns="http://www.w3.org/2000/svg" xmlns:xlink="http://www.w3.org/1999/xlink" width="375pt" height="374.999991pt" viewBox="0 0 375 374.999991" version="1.2">
<defs>
<clipPath id="clip1">
  <path d="M 87 163 L 250 163 L 250 337.5 L 87 337.5 Z M 87 163 "/>
</clipPath>
<clipPath id="clip2">
  <path d="M 62.4375 138 L 275 138 L 275 176 L 62.4375 176 Z M 62.4375 138 "/>
</clipPath>
</defs>
<g id="surface1">
<g clip-path="url(#clip1)" clip-rule="nonzero">
<path style=" stroke:none;fill-rule:nonzero;fill:rgb(100%,100%,100%);fill-opacity:1;" d="M 218.222656 337.449219 L 118.519531 337.449219 C 115.441406 337.449219 112.824219 335.210938 112.363281 332.175781 L 87.4375 170.402344 C 87.164062 168.597656 87.6875 166.78125 88.859375 165.398438 C 90.054688 164.019531 91.773438 163.234375 93.59375 163.234375 L 243.144531 163.234375 C 244.964844 163.234375 246.6875 164.019531 247.882812 165.398438 C 249.066406 166.78125 249.589844 168.597656 249.304688 170.402344 L 224.378906 332.175781 C 223.917969 335.210938 221.300781 337.449219 218.222656 337.449219 Z M 123.867188 325.007812 L 212.886719 325.007812 L 235.894531 175.679688 L 100.859375 175.679688 Z M 123.867188 325.007812 "/>
</g>
<g clip-path="url(#clip2)" clip-rule="nonzero">
<path style=" stroke:none;fill-rule:nonzero;fill:rgb(100%,100%,100%);fill-opacity:1;" d="M 268.070312 175.679688 L 68.667969 175.679688 C 65.214844 175.679688 62.4375 172.890625 62.4375 169.457031 L 62.4375 144.566406 C 62.4375 141.121094 65.214844 138.347656 68.667969 138.347656 L 268.070312 138.347656 C 271.511719 138.347656 274.304688 141.121094 274.304688 144.566406 L 274.304688 169.457031 C 274.304688 172.890625 271.511719 175.679688 268.070312 175.679688 Z M 74.898438 163.234375 L 261.839844 163.234375 L 261.839844 150.789062 L 74.898438 150.789062 Z M 74.898438 163.234375 "/>
</g>
<path style=" stroke:none;fill-rule:nonzero;fill:rgb(100%,100%,100%);fill-opacity:1;" d="M 243.144531 150.789062 C 239.695312 150.789062 236.914062 148.003906 236.914062 144.566406 C 236.914062 106.824219 206.15625 76.125 168.371094 76.125 C 130.582031 76.125 99.824219 106.824219 99.824219 144.566406 C 99.824219 148.003906 97.035156 150.789062 93.59375 150.789062 C 90.15625 150.789062 87.363281 148.003906 87.363281 144.566406 C 87.363281 99.96875 123.703125 63.683594 168.371094 63.683594 C 213.035156 63.683594 249.378906 99.96875 249.378906 144.566406 C 249.378906 148.003906 246.585938 150.789062 243.144531 150.789062 Z M 243.144531 150.789062 "/>
<path style=" stroke:none;fill-rule:nonzero;fill:rgb(100%,100%,100%);fill-opacity:1;" d="M 143.445312 312.5625 C 142.597656 312.5625 141.738281 312.386719 140.914062 312.027344 C 137.773438 310.632812 136.355469 306.949219 137.75 303.816406 L 237.449219 79.820312 C 237.972656 78.652344 238.835938 77.667969 239.945312 77.007812 L 302.257812 39.675781 C 305.171875 37.921875 309.035156 38.855469 310.804688 41.804688 C 312.589844 44.753906 311.617188 48.574219 308.664062 50.34375 L 248.042969 86.667969 L 149.140625 308.867188 C 148.105469 311.179688 145.824219 312.5625 143.445312 312.5625 Z M 143.445312 312.5625 "/>
<path style=" stroke:none;fill-rule:nonzero;fill:rgb(100%,100%,100%);fill-opacity:1;" d="M 230.683594 250.34375 L 106.058594 250.34375 C 102.605469 250.34375 99.824219 247.554688 99.824219 244.121094 C 99.824219 240.6875 102.605469 237.898438 106.058594 237.898438 L 230.683594 237.898438 C 234.125 237.898438 236.914062 240.6875 236.914062 244.121094 C 236.914062 247.554688 234.125 250.34375 230.683594 250.34375 Z M 230.683594 250.34375 "/>
</g>
</svg>
