<?xml version="1.0" encoding="UTF-8"?>
<svg xmlns="http://www.w3.org/2000/svg" xmlns:xlink="http://www.w3.org/1999/xlink" width="375pt" height="374.999991pt" viewBox="0 0 375 374.999991" version="1.2">
<defs>
<clipPath id="clip1">
  <path d="M 37.5 45 L 341.25 45 L 341.25 330.46875 L 37.5 330.46875 Z M 37.5 45 "/>
</clipPath>
</defs>
<g id="surface1">
<g clip-path="url(#clip1)" clip-rule="nonzero">
<path style=" stroke:none;fill-rule:nonzero;fill:rgb(0%,0%,0%);fill-opacity:1;" d="M 252.902344 297.882812 C 252.898438 297.886719 252.894531 297.890625 252.890625 297.890625 C 252.878906 297.894531 252.863281 297.898438 252.851562 297.902344 C 252.648438 298 231.832031 307.355469 187.902344 307.355469 C 144.085938 307.355469 123.410156 296.761719 123.214844 296.660156 C 123.195312 296.652344 123.171875 296.644531 123.148438 296.632812 C 123.132812 296.625 123.121094 296.609375 123.101562 296.601562 C 74.816406 273.078125 50.726562 210.363281 45.742188 173.035156 C 67.59375 189.851562 129.976562 198.796875 189.371094 198.796875 C 248.777344 198.796875 311.171875 189.847656 333.015625 173.027344 C 327.738281 212.589844 300.992188 276.386719 252.902344 297.882812 Z M 250.78125 311.429688 C 248.191406 313.910156 235.203125 323.339844 187.945312 323.339844 C 140.339844 323.339844 127.515625 313.769531 125.109375 311.472656 L 125.109375 305.238281 C 134.015625 308.601562 154.410156 314.503906 187.902344 314.503906 C 221.574219 314.503906 241.980469 309.25 250.78125 306.3125 Z M 189.371094 127.664062 C 211.195312 127.664062 231.308594 128.777344 249.183594 130.675781 C 248.429688 131.914062 247.675781 133.152344 246.917969 134.390625 C 240.242188 133.726562 233.4375 133.191406 226.652344 132.761719 C 223.738281 130.359375 220.0625 128.890625 216.089844 128.820312 C 215.984375 128.816406 215.882812 128.816406 215.777344 128.816406 C 212.261719 128.816406 208.957031 129.929688 206.191406 131.8125 C 199.894531 131.621094 193.757812 131.523438 187.945312 131.523438 C 186.109375 131.523438 184.226562 131.539062 182.328125 131.558594 C 174.859375 127.542969 167.621094 130.808594 165.507812 131.953125 C 156.96875 132.265625 148.183594 132.757812 139.480469 133.457031 C 136.992188 132.410156 134.261719 131.914062 131.453125 132.148438 C 128.386719 132.378906 125.542969 133.410156 123.089844 135.023438 C 111.9375 136.28125 101.335938 137.910156 92.019531 139.945312 C 88.503906 139.761719 85.132812 140.828125 82.609375 142.28125 C 67.683594 146.484375 57.902344 152.058594 57.902344 159.265625 C 57.902344 179.617188 135.671875 187.007812 187.945312 187.007812 C 240.222656 187.007812 317.996094 179.617188 317.996094 159.265625 C 317.996094 149.472656 299.96875 142.6875 275.464844 138.277344 C 276.324219 137.09375 277.183594 135.910156 278.042969 134.738281 C 312.992188 141.050781 334 150.65625 334 159.65625 C 334 174.789062 274.601562 191.644531 189.371094 191.644531 C 104.144531 191.644531 44.75 174.789062 44.75 159.65625 C 44.75 144.523438 104.144531 127.664062 189.371094 127.664062 Z M 270.257812 164.621094 C 270.617188 164.730469 270.976562 164.785156 271.332031 164.785156 C 272.851562 164.785156 274.265625 163.804688 274.746094 162.277344 C 274.804688 162.082031 274.996094 161.511719 275.335938 160.738281 C 276.382812 158.335938 278.867188 153.980469 283.472656 152.695312 C 284.503906 152.402344 286.917969 151.730469 289.445312 152.886719 C 292.445312 154.273438 293.597656 157.425781 293.925781 158.554688 C 293.976562 158.730469 294.011719 158.871094 294.023438 158.925781 C 294.46875 160.855469 296.375 162.0625 298.3125 161.617188 C 300.238281 161.175781 301.441406 159.257812 301 157.332031 C 300.757812 156.261719 299.980469 153.6875 298.152344 151.15625 C 306.5625 154.070312 310.84375 156.980469 310.84375 159.265625 C 310.84375 166.449219 268.632812 179.859375 187.945312 179.859375 C 107.261719 179.859375 65.050781 166.449219 65.050781 159.265625 C 65.050781 157.253906 68.363281 154.753906 74.890625 152.199219 C 74.191406 154.460938 74.0625 156.242188 74.039062 156.65625 C 73.949219 158.628906 75.476562 160.304688 77.445312 160.398438 C 77.503906 160.398438 77.5625 160.398438 77.617188 160.398438 C 79.515625 160.398438 81.097656 158.90625 81.1875 156.992188 C 81.191406 156.953125 81.210938 156.71875 81.25 156.421875 C 81.433594 154.929688 82.285156 150.738281 86.117188 148.503906 C 86.910156 148.039062 91.046875 145.84375 94.726562 147.976562 C 98.195312 149.980469 98.609375 154.25 98.621094 154.429688 C 98.625 154.453125 98.632812 154.480469 98.636719 154.503906 C 98.855469 156.429688 100.589844 157.832031 102.5 157.675781 C 104.46875 157.503906 105.921875 155.765625 105.753906 153.800781 C 105.660156 152.792969 105.121094 148.691406 102.222656 145.128906 C 106.578125 144.34375 111.308594 143.597656 116.410156 142.914062 C 115.617188 144.6875 115.074219 146.605469 114.855469 148.628906 C 114.644531 150.597656 116.0625 152.359375 118.023438 152.570312 C 119.996094 152.824219 121.757812 151.363281 121.96875 149.398438 C 121.980469 149.277344 122.023438 149.160156 122.039062 149.035156 C 122.773438 143.824219 126.976562 139.652344 131.988281 139.277344 C 137.691406 138.839844 142.8125 143.261719 143.628906 149.164062 C 143.648438 149.292969 143.695312 149.414062 143.707031 149.550781 C 143.902344 151.390625 145.449219 152.757812 147.261719 152.757812 C 147.386719 152.757812 147.511719 152.753906 147.632812 152.742188 C 149.601562 152.535156 151.027344 150.777344 150.824219 148.816406 C 150.480469 145.503906 149.261719 142.472656 147.457031 139.910156 C 151.058594 139.683594 154.777344 139.476562 158.609375 139.308594 C 157.363281 141.796875 156.917969 144.027344 156.78125 145.023438 C 156.503906 146.980469 157.867188 148.789062 159.824219 149.066406 C 159.992188 149.089844 160.160156 149.101562 160.328125 149.101562 C 162.082031 149.101562 163.613281 147.804688 163.867188 146.023438 C 163.882812 145.890625 163.925781 145.652344 163.988281 145.367188 C 164.320312 143.84375 165.390625 140.449219 168.691406 138.367188 C 168.910156 138.230469 174.03125 135.164062 179.003906 137.886719 C 182.402344 139.738281 183.589844 143.097656 183.953125 144.507812 C 184.011719 144.726562 184.050781 144.910156 184.074219 145.023438 C 184.445312 146.964844 186.335938 148.242188 188.257812 147.859375 C 190.199219 147.492188 191.472656 145.617188 191.101562 143.675781 C 190.925781 142.773438 190.433594 140.839844 189.300781 138.679688 C 193.019531 138.6875 196.648438 138.726562 200.203125 138.789062 C 199.375 140.527344 198.808594 142.417969 198.601562 144.421875 C 198.402344 146.386719 199.828125 148.148438 201.792969 148.351562 C 201.917969 148.363281 202.042969 148.367188 202.167969 148.367188 C 203.976562 148.367188 205.527344 147 205.71875 145.164062 C 205.734375 145.023438 205.78125 144.898438 205.800781 144.761719 C 206.527344 139.714844 210.84375 135.929688 215.957031 135.96875 C 220.824219 136.054688 224.933594 139.734375 225.722656 144.582031 C 225.746094 144.714844 225.789062 144.839844 225.804688 144.980469 C 226.046875 146.9375 227.859375 148.308594 229.792969 148.09375 C 231.75 147.855469 233.148438 146.074219 232.914062 144.117188 C 232.742188 142.730469 232.394531 141.410156 231.925781 140.148438 C 235.707031 140.417969 239.363281 140.714844 242.878906 141.042969 C 240.652344 144.710938 238.4375 148.382812 236.25 152.027344 C 235.851562 152.695312 235.710938 153.453125 235.78125 154.203125 C 233.972656 154.320312 231.992188 154.710938 229.957031 155.550781 C 220.203125 159.574219 218.183594 170.019531 217.988281 171.203125 C 217.660156 173.148438 218.972656 174.992188 220.921875 175.320312 C 221.121094 175.351562 221.320312 175.371094 221.519531 175.371094 C 223.234375 175.371094 224.746094 174.128906 225.039062 172.382812 C 225.050781 172.324219 225.109375 171.996094 225.246094 171.492188 C 225.789062 169.402344 227.617188 164.25 232.6875 162.160156 C 236.066406 160.765625 239.261719 161.386719 240.859375 161.878906 C 245.796875 163.402344 248.246094 167.640625 249.132812 169.550781 C 249.335938 169.988281 249.484375 170.34375 249.53125 170.472656 C 250.207031 172.324219 252.261719 173.277344 254.121094 172.605469 C 255.972656 171.925781 256.929688 169.875 256.253906 168.019531 C 255.773438 166.699219 253.464844 161.117188 247.976562 157.445312 L 259.625 157.445312 C 260.761719 157.445312 261.832031 156.902344 262.503906 155.988281 C 265.285156 152.210938 268.066406 148.414062 270.832031 144.628906 C 274.070312 145.179688 277.117188 145.753906 279.964844 146.339844 C 271.640625 149.574219 268.492188 158.320312 267.917969 160.136719 C 267.324219 162.019531 268.371094 164.027344 270.257812 164.621094 Z M 298.160156 65.546875 C 301.363281 60.757812 305.414062 56.75 309.269531 54.546875 C 312.316406 52.804688 314.992188 52.316406 316.410156 53.277344 C 319.246094 55.167969 318.957031 64.5 312.050781 74.828125 C 308.367188 80.332031 282.941406 116.117188 257.816406 150.292969 L 245.640625 150.292969 C 269.09375 111.4375 294.296875 71.324219 298.160156 65.546875 Z M 282.625 128.417969 C 300.410156 103.863281 315.242188 82.921875 318.003906 78.796875 C 326.710938 65.765625 327.738281 52.238281 320.390625 47.328125 L 320.386719 47.328125 C 316.558594 44.769531 311.347656 45.125 305.71875 48.335938 C 300.863281 51.109375 296.066406 55.808594 292.210938 61.574219 C 289.082031 66.257812 272.042969 93.316406 253.242188 124.019531 C 232.949219 121.707031 210.96875 120.519531 189.371094 120.519531 C 115.792969 120.519531 37.59375 134.234375 37.59375 159.65625 C 37.59375 194.121094 61.890625 273.132812 117.960938 302.023438 L 117.960938 312.738281 C 117.960938 313.351562 118.117188 313.960938 118.417969 314.492188 C 119.34375 316.128906 129.152344 330.492188 187.945312 330.492188 C 246.746094 330.492188 256.550781 316.128906 257.472656 314.492188 C 257.777344 313.960938 257.9375 313.351562 257.9375 312.738281 L 257.9375 303.4375 C 316 275.839844 341.152344 195.246094 341.152344 159.65625 C 341.152344 145.488281 316.859375 134.964844 282.625 128.417969 "/>
</g>
<path style=" stroke:none;fill-rule:nonzero;fill:rgb(0%,0%,0%);fill-opacity:1;" d="M 165.773438 159.851562 C 161.308594 156.074219 155.003906 155.085938 149.707031 157.328125 C 144.066406 159.722656 140.367188 165.296875 140.296875 171.527344 C 140.269531 173.503906 141.851562 175.125 143.832031 175.148438 C 143.84375 175.148438 143.855469 175.148438 143.871094 175.148438 C 145.828125 175.148438 147.425781 173.570312 147.445312 171.613281 C 147.445312 171.585938 147.453125 171.558594 147.453125 171.53125 C 147.527344 168.171875 149.496094 165.183594 152.503906 163.910156 C 155.933594 162.449219 159.3125 163.75 161.148438 165.308594 C 163.457031 167.261719 164.070312 170 164.234375 171.335938 C 164.25 171.433594 164.261719 171.546875 164.269531 171.628906 C 164.457031 173.59375 166.226562 175.015625 168.164062 174.855469 C 170.132812 174.671875 171.578125 172.929688 171.390625 170.960938 C 171.199219 168.882812 170.261719 163.652344 165.773438 159.851562 "/>
<path style=" stroke:none;fill-rule:nonzero;fill:rgb(0%,0%,0%);fill-opacity:1;" d="M 130.347656 159.335938 C 122.941406 152.746094 113.152344 156.199219 112.0625 156.617188 C 106.390625 158.78125 103.328125 163.125 102.003906 165.523438 C 101.050781 167.253906 101.679688 169.429688 103.410156 170.382812 C 105.132812 171.332031 107.3125 170.703125 108.269531 168.976562 C 108.464844 168.621094 108.726562 168.191406 109.046875 167.738281 C 110.113281 166.222656 111.886719 164.339844 114.609375 163.300781 C 114.679688 163.273438 121.273438 160.828125 125.585938 164.675781 C 127.503906 166.382812 128.257812 168.605469 128.5625 170.167969 C 128.621094 170.480469 128.667969 170.78125 128.699219 171.03125 C 128.90625 172.855469 130.453125 174.199219 132.246094 174.199219 C 132.382812 174.199219 132.523438 174.191406 132.660156 174.179688 C 134.621094 173.953125 136.03125 172.179688 135.804688 170.21875 C 135.519531 167.710938 134.429688 162.972656 130.347656 159.335938 "/>
<path style=" stroke:none;fill-rule:nonzero;fill:rgb(0%,0%,0%);fill-opacity:1;" d="M 203.878906 153.753906 C 199.363281 151.136719 193.679688 151.253906 188.28125 154.09375 C 181.484375 157.652344 179.503906 164.339844 179.058594 166.300781 C 178.621094 168.230469 179.824219 170.144531 181.753906 170.578125 C 182.023438 170.640625 182.285156 170.667969 182.546875 170.667969 C 184.183594 170.667969 185.65625 169.542969 186.03125 167.882812 C 186.070312 167.71875 186.160156 167.394531 186.289062 167.003906 C 186.8125 165.382812 188.21875 162.195312 191.601562 160.421875 C 193.472656 159.445312 197.070312 158.074219 200.285156 159.9375 C 203.636719 161.886719 204.136719 165.898438 204.203125 166.582031 C 204.207031 166.632812 204.214844 166.710938 204.214844 166.722656 C 204.339844 168.691406 205.992188 170.171875 208.007812 170.066406 C 209.980469 169.941406 211.480469 168.246094 211.355469 166.273438 C 211.296875 165.40625 210.625 157.675781 203.878906 153.753906 "/>
</g>
</svg>
