<?xml version="1.0" encoding="UTF-8"?>
<svg xmlns="http://www.w3.org/2000/svg" xmlns:xlink="http://www.w3.org/1999/xlink" width="375pt" height="374.999991pt" viewBox="0 0 375 374.999991" version="1.2">
<defs>
<clipPath id="clip1">
  <path d="M 35 69.464844 L 340 69.464844 L 340 170 L 35 170 Z M 35 69.464844 "/>
</clipPath>
<clipPath id="clip2">
  <path d="M 20 205 L 355 205 L 355 305.714844 L 20 305.714844 Z M 20 205 "/>
</clipPath>
</defs>
<g id="surface1">
<g clip-path="url(#clip1)" clip-rule="nonzero">
<path style=" stroke:none;fill-rule:nonzero;fill:rgb(0%,0%,0%);fill-opacity:1;" d="M 41.71875 169.597656 L 334.25 169.597656 C 337.390625 169.597656 339.484375 167.5 339.484375 164.355469 L 339.484375 163.308594 C 338.4375 112.453125 269.359375 69.464844 187.722656 69.464844 C 105.5625 69.464844 35.964844 112.976562 35.964844 164.355469 C 36.488281 167.5 38.578125 169.597656 41.71875 169.597656 Z M 187.722656 79.949219 C 259.941406 79.949219 323.785156 116.125 328.492188 159.113281 L 46.953125 159.113281 C 51.664062 116.648438 115.507812 79.949219 187.722656 79.949219 Z M 187.722656 79.949219 "/>
</g>
<path style=" stroke:none;fill-rule:nonzero;fill:rgb(0%,0%,0%);fill-opacity:1;" d="M 93.527344 130.804688 C 93.527344 131.148438 93.492188 131.488281 93.425781 131.824219 C 93.359375 132.164062 93.261719 132.492188 93.128906 132.808594 C 92.996094 133.128906 92.835938 133.429688 92.644531 133.714844 C 92.453125 134 92.238281 134.265625 91.996094 134.511719 C 91.75 134.753906 91.488281 134.972656 91.203125 135.160156 C 90.917969 135.351562 90.613281 135.515625 90.296875 135.648438 C 89.980469 135.777344 89.652344 135.878906 89.316406 135.945312 C 88.976562 136.011719 88.636719 136.046875 88.292969 136.046875 C 87.949219 136.046875 87.609375 136.011719 87.273438 135.945312 C 86.9375 135.878906 86.609375 135.777344 86.292969 135.648438 C 85.972656 135.515625 85.671875 135.351562 85.386719 135.160156 C 85.101562 134.972656 84.835938 134.753906 84.59375 134.511719 C 84.351562 134.265625 84.132812 134 83.941406 133.714844 C 83.753906 133.429688 83.589844 133.128906 83.460938 132.808594 C 83.328125 132.492188 83.230469 132.164062 83.160156 131.824219 C 83.09375 131.488281 83.0625 131.148438 83.0625 130.804688 C 83.0625 130.457031 83.09375 130.117188 83.160156 129.78125 C 83.230469 129.441406 83.328125 129.113281 83.460938 128.796875 C 83.589844 128.480469 83.753906 128.175781 83.941406 127.890625 C 84.132812 127.605469 84.351562 127.339844 84.59375 127.097656 C 84.835938 126.851562 85.101562 126.636719 85.386719 126.445312 C 85.671875 126.253906 85.972656 126.089844 86.292969 125.960938 C 86.609375 125.828125 86.9375 125.726562 87.273438 125.660156 C 87.609375 125.59375 87.949219 125.558594 88.292969 125.558594 C 88.636719 125.558594 88.976562 125.59375 89.316406 125.660156 C 89.652344 125.726562 89.980469 125.828125 90.296875 125.960938 C 90.613281 126.089844 90.917969 126.253906 91.203125 126.445312 C 91.488281 126.636719 91.75 126.851562 91.996094 127.097656 C 92.238281 127.339844 92.453125 127.605469 92.644531 127.890625 C 92.835938 128.175781 92.996094 128.480469 93.128906 128.796875 C 93.261719 129.113281 93.359375 129.441406 93.425781 129.78125 C 93.492188 130.117188 93.527344 130.457031 93.527344 130.804688 Z M 93.527344 130.804688 "/>
<path style=" stroke:none;fill-rule:nonzero;fill:rgb(0%,0%,0%);fill-opacity:1;" d="M 119.691406 115.074219 C 119.691406 115.417969 119.660156 115.761719 119.59375 116.097656 C 119.527344 116.4375 119.425781 116.765625 119.292969 117.082031 C 119.164062 117.398438 119.003906 117.703125 118.8125 117.988281 C 118.621094 118.273438 118.402344 118.539062 118.160156 118.78125 C 117.917969 119.027344 117.652344 119.242188 117.367188 119.433594 C 117.082031 119.625 116.78125 119.789062 116.460938 119.917969 C 116.144531 120.050781 115.816406 120.148438 115.480469 120.21875 C 115.144531 120.285156 114.804688 120.316406 114.460938 120.316406 C 114.117188 120.316406 113.777344 120.285156 113.4375 120.21875 C 113.101562 120.148438 112.773438 120.050781 112.457031 119.917969 C 112.140625 119.789062 111.839844 119.625 111.550781 119.433594 C 111.265625 119.242188 111.003906 119.027344 110.757812 118.78125 C 110.515625 118.539062 110.300781 118.273438 110.109375 117.988281 C 109.917969 117.703125 109.757812 117.398438 109.625 117.082031 C 109.492188 116.765625 109.394531 116.4375 109.328125 116.097656 C 109.261719 115.761719 109.226562 115.417969 109.226562 115.074219 C 109.226562 114.730469 109.261719 114.390625 109.328125 114.054688 C 109.394531 113.714844 109.492188 113.386719 109.625 113.070312 C 109.757812 112.75 109.917969 112.449219 110.109375 112.164062 C 110.300781 111.875 110.515625 111.613281 110.757812 111.367188 C 111.003906 111.125 111.265625 110.90625 111.550781 110.714844 C 111.839844 110.523438 112.140625 110.363281 112.457031 110.230469 C 112.773438 110.101562 113.101562 110 113.4375 109.933594 C 113.777344 109.867188 114.117188 109.832031 114.460938 109.832031 C 114.804688 109.832031 115.144531 109.867188 115.480469 109.933594 C 115.816406 110 116.144531 110.101562 116.460938 110.230469 C 116.78125 110.363281 117.082031 110.523438 117.367188 110.714844 C 117.652344 110.90625 117.917969 111.125 118.160156 111.367188 C 118.402344 111.613281 118.621094 111.875 118.8125 112.164062 C 119.003906 112.449219 119.164062 112.75 119.292969 113.070312 C 119.425781 113.386719 119.527344 113.714844 119.59375 114.050781 C 119.660156 114.390625 119.691406 114.730469 119.691406 115.074219 Z M 119.691406 115.074219 "/>
<path style=" stroke:none;fill-rule:nonzero;fill:rgb(0%,0%,0%);fill-opacity:1;" d="M 164.175781 94.105469 C 163.652344 93.582031 162.605469 93.582031 162.082031 93.582031 C 158.941406 93.582031 156.847656 95.679688 156.847656 98.824219 C 156.847656 101.96875 159.464844 104.066406 162.082031 104.066406 C 164.175781 104.066406 165.746094 103.019531 166.792969 100.921875 C 167.3125 100.394531 167.3125 99.347656 167.3125 98.824219 C 166.792969 97.25 165.746094 95.152344 164.175781 94.105469 Z M 164.175781 94.105469 "/>
<path style=" stroke:none;fill-rule:nonzero;fill:rgb(0%,0%,0%);fill-opacity:1;" d="M 187.722656 125.558594 C 186.152344 125.558594 185.105469 126.085938 184.058594 127.132812 C 183.015625 128.183594 182.492188 129.230469 182.492188 130.804688 C 182.492188 132.898438 183.535156 134.472656 185.628906 135.519531 C 186.152344 136.046875 187.199219 136.046875 187.722656 136.046875 C 190.863281 136.046875 192.957031 133.949219 192.957031 130.804688 C 192.957031 127.65625 190.863281 125.558594 187.722656 125.558594 Z M 187.722656 125.558594 "/>
<path style=" stroke:none;fill-rule:nonzero;fill:rgb(0%,0%,0%);fill-opacity:1;" d="M 213.890625 104.066406 C 213.890625 104.410156 213.855469 104.75 213.789062 105.089844 C 213.722656 105.425781 213.621094 105.753906 213.492188 106.074219 C 213.359375 106.390625 213.199219 106.691406 213.007812 106.980469 C 212.816406 107.265625 212.597656 107.53125 212.355469 107.773438 C 212.113281 108.015625 211.847656 108.234375 211.5625 108.425781 C 211.277344 108.617188 210.976562 108.777344 210.660156 108.910156 C 210.339844 109.042969 210.015625 109.140625 209.675781 109.207031 C 209.339844 109.273438 209 109.308594 208.65625 109.308594 C 208.3125 109.308594 207.972656 109.273438 207.636719 109.207031 C 207.296875 109.140625 206.972656 109.042969 206.652344 108.910156 C 206.335938 108.777344 206.035156 108.617188 205.75 108.425781 C 205.464844 108.234375 205.199219 108.015625 204.957031 107.773438 C 204.710938 107.53125 204.496094 107.265625 204.304688 106.980469 C 204.113281 106.691406 203.953125 106.390625 203.820312 106.074219 C 203.691406 105.753906 203.589844 105.425781 203.523438 105.089844 C 203.457031 104.75 203.421875 104.410156 203.421875 104.066406 C 203.421875 103.722656 203.457031 103.382812 203.523438 103.042969 C 203.589844 102.707031 203.691406 102.378906 203.820312 102.058594 C 203.953125 101.742188 204.113281 101.441406 204.304688 101.152344 C 204.496094 100.867188 204.710938 100.601562 204.957031 100.359375 C 205.199219 100.117188 205.464844 99.898438 205.75 99.707031 C 206.035156 99.515625 206.335938 99.355469 206.652344 99.222656 C 206.972656 99.089844 207.296875 98.992188 207.636719 98.925781 C 207.972656 98.855469 208.3125 98.824219 208.65625 98.824219 C 209 98.824219 209.339844 98.855469 209.675781 98.925781 C 210.015625 98.992188 210.339844 99.089844 210.660156 99.222656 C 210.976562 99.355469 211.277344 99.515625 211.5625 99.707031 C 211.847656 99.898438 212.113281 100.117188 212.355469 100.359375 C 212.597656 100.601562 212.816406 100.867188 213.007812 101.152344 C 213.199219 101.441406 213.359375 101.742188 213.492188 102.058594 C 213.621094 102.378906 213.722656 102.707031 213.789062 103.042969 C 213.855469 103.382812 213.890625 103.722656 213.890625 104.066406 Z M 213.890625 104.066406 "/>
<path style=" stroke:none;fill-rule:nonzero;fill:rgb(0%,0%,0%);fill-opacity:1;" d="M 247.902344 136.570312 C 244.765625 134.996094 240.578125 137.617188 240.578125 141.289062 C 240.578125 144.433594 243.195312 146.53125 245.8125 146.53125 C 247.382812 146.53125 248.425781 146.007812 249.472656 144.957031 C 250.519531 143.910156 251.042969 142.859375 251.042969 141.289062 C 250.519531 139.191406 249.472656 137.09375 247.902344 136.570312 Z M 247.902344 136.570312 "/>
<path style=" stroke:none;fill-rule:nonzero;fill:rgb(0%,0%,0%);fill-opacity:1;" d="M 281.917969 125.558594 C 278.78125 125.558594 276.6875 128.183594 276.6875 130.804688 C 276.6875 133.425781 279.304688 136.046875 281.917969 136.046875 C 283.488281 136.046875 284.535156 135.519531 285.582031 134.472656 C 286.628906 133.425781 287.152344 132.375 287.152344 130.804688 C 287.152344 129.230469 286.628906 128.183594 285.582031 127.132812 C 284.535156 126.085938 283.488281 125.558594 281.917969 125.558594 Z M 281.917969 125.558594 "/>
<path style=" stroke:none;fill-rule:nonzero;fill:rgb(0%,0%,0%);fill-opacity:1;" d="M 130.683594 133.949219 C 130.160156 134.472656 130.160156 135.519531 130.160156 136.046875 C 130.160156 139.191406 132.253906 141.289062 135.390625 141.289062 C 138.53125 141.289062 140.625 138.667969 140.625 136.046875 C 140.625 134.472656 140.101562 133.425781 139.054688 132.375 C 136.960938 130.277344 132.253906 130.804688 130.683594 133.949219 Z M 130.683594 133.949219 "/>
<path style=" stroke:none;fill-rule:nonzero;fill:rgb(0%,0%,0%);fill-opacity:1;" d="M 258.371094 105.113281 C 257.847656 104.589844 256.800781 104.589844 256.277344 104.589844 C 253.136719 104.589844 251.042969 106.6875 251.042969 109.832031 C 251.042969 112.976562 253.660156 115.074219 256.277344 115.074219 C 257.847656 115.074219 258.894531 114.550781 259.941406 113.503906 C 260.988281 112.453125 261.511719 111.40625 261.511719 109.832031 C 260.988281 107.734375 259.941406 105.640625 258.371094 105.113281 Z M 258.371094 105.113281 "/>
<g clip-path="url(#clip2)" clip-rule="nonzero">
<path style=" stroke:none;fill-rule:nonzero;fill:rgb(0%,0%,0%);fill-opacity:1;" d="M 41.195312 263.4375 L 41.195312 277.59375 C 41.195312 290.699219 51.664062 305.902344 66.839844 305.902344 L 308.085938 305.902344 C 323.261719 305.902344 333.726562 290.699219 333.726562 277.070312 L 333.726562 262.914062 C 345.238281 260.292969 354.660156 248.234375 354.660156 235.128906 L 354.660156 229.363281 C 354.660156 215.730469 343.671875 205.769531 328.492188 205.769531 L 176.210938 205.769531 C 176.210938 205.769531 175.6875 205.769531 175.164062 205.769531 L 94.050781 233.03125 L 77.304688 216.78125 L 130.160156 216.78125 C 133.300781 216.78125 135.390625 214.683594 135.390625 211.539062 C 135.390625 208.390625 133.300781 206.296875 130.160156 206.296875 L 46.429688 206.296875 C 31.253906 206.296875 20.265625 216.257812 20.265625 229.886719 L 20.265625 235.652344 C 20.265625 248.761719 29.683594 260.292969 41.195312 263.4375 Z M 308.609375 295.417969 L 66.839844 295.417969 C 58.464844 295.417969 51.664062 285.457031 51.664062 277.070312 L 51.664062 263.964844 L 323.785156 263.964844 L 323.785156 277.070312 C 323.785156 285.457031 316.980469 295.417969 308.609375 295.417969 Z M 30.730469 229.886719 C 30.730469 220.972656 38.578125 216.78125 46.429688 216.78125 L 62.652344 216.78125 L 89.339844 243.515625 C 90.386719 244.566406 91.433594 245.089844 93.003906 245.089844 C 93.527344 245.089844 94.050781 245.089844 94.574219 244.566406 L 178.304688 216.78125 L 329.015625 216.78125 C 336.867188 216.78125 344.714844 220.972656 344.714844 229.886719 L 344.714844 235.652344 C 344.714844 244.566406 336.867188 253.476562 329.015625 253.476562 L 46.429688 253.476562 C 38.578125 253.476562 30.730469 244.566406 30.730469 235.652344 Z M 30.730469 229.886719 "/>
</g>
<path style=" stroke:none;fill-rule:nonzero;fill:rgb(0%,0%,0%);fill-opacity:1;" d="M 41.195312 187.945312 C 45.382812 187.945312 46.953125 188.996094 49.046875 190.042969 C 51.664062 191.617188 55.324219 193.1875 61.605469 193.1875 C 67.886719 193.1875 71.546875 191.617188 74.164062 190.042969 C 76.78125 188.996094 78.351562 187.945312 82.539062 187.945312 C 86.722656 187.945312 88.292969 188.996094 90.386719 190.042969 C 93.003906 191.617188 96.667969 193.1875 102.945312 193.1875 C 109.226562 193.1875 112.890625 191.617188 115.507812 190.042969 C 118.125 188.996094 119.691406 187.945312 123.878906 187.945312 C 128.066406 187.945312 129.636719 188.996094 131.730469 190.042969 C 134.347656 191.617188 138.007812 193.1875 144.289062 193.1875 C 150.570312 193.1875 154.230469 191.617188 156.847656 190.042969 C 159.464844 188.996094 161.035156 187.945312 165.222656 187.945312 C 169.40625 187.945312 170.976562 188.996094 173.59375 190.042969 C 176.210938 191.617188 179.875 193.1875 186.152344 193.1875 C 192.433594 193.1875 196.097656 191.617188 198.714844 190.042969 C 201.328125 188.996094 202.898438 187.945312 207.085938 187.945312 C 211.273438 187.945312 212.84375 188.996094 215.457031 190.042969 C 218.074219 191.617188 221.738281 193.1875 228.019531 193.1875 C 234.296875 193.1875 237.960938 191.617188 240.578125 190.042969 C 243.195312 188.996094 244.765625 187.945312 248.949219 187.945312 C 253.136719 187.945312 254.707031 188.996094 257.324219 190.042969 C 259.941406 191.617188 263.605469 193.1875 269.882812 193.1875 C 276.164062 193.1875 279.828125 191.617188 282.441406 190.042969 C 285.058594 188.996094 286.628906 187.945312 290.816406 187.945312 C 295.003906 187.945312 296.570312 188.996094 299.1875 190.042969 C 301.804688 191.617188 305.46875 193.1875 311.75 193.1875 C 318.027344 193.1875 321.691406 191.617188 324.308594 190.042969 C 326.925781 188.996094 328.492188 187.945312 332.679688 187.945312 C 335.820312 187.945312 337.914062 185.847656 337.914062 182.703125 C 337.914062 179.558594 335.820312 177.460938 332.679688 177.460938 C 326.402344 177.460938 322.738281 179.035156 320.121094 180.605469 C 317.503906 181.65625 315.933594 182.703125 311.75 182.703125 C 307.5625 182.703125 305.992188 181.65625 303.375 180.605469 C 300.757812 179.035156 297.09375 177.460938 290.292969 177.460938 C 284.011719 177.460938 280.347656 179.035156 277.734375 180.605469 C 275.117188 181.65625 273.546875 182.703125 269.359375 182.703125 C 265.171875 182.703125 263.605469 181.65625 260.988281 180.605469 C 258.371094 179.035156 254.707031 177.460938 248.425781 177.460938 C 242.148438 177.460938 238.484375 179.035156 235.867188 180.605469 C 233.25 181.65625 231.679688 182.703125 227.496094 182.703125 C 223.308594 182.703125 221.738281 181.65625 219.121094 180.605469 C 216.503906 179.035156 212.84375 177.460938 206.5625 177.460938 C 200.28125 177.460938 196.621094 179.035156 194.003906 180.605469 C 191.386719 181.65625 189.816406 182.703125 185.628906 182.703125 C 181.445312 182.703125 179.875 181.65625 177.257812 180.605469 C 174.640625 179.035156 170.976562 177.460938 164.699219 177.460938 C 158.417969 177.460938 154.753906 179.035156 152.136719 180.605469 C 149.523438 181.65625 147.953125 182.703125 143.765625 182.703125 C 139.578125 182.703125 138.007812 181.65625 135.390625 180.605469 C 132.777344 179.035156 129.113281 177.460938 122.832031 177.460938 C 116.554688 177.460938 112.890625 179.035156 110.273438 180.605469 C 107.65625 181.65625 106.085938 182.703125 101.902344 182.703125 C 97.714844 182.703125 96.144531 181.65625 94.050781 180.605469 C 91.433594 179.035156 87.769531 177.460938 81.492188 177.460938 C 75.210938 177.460938 71.546875 179.035156 68.933594 180.605469 C 66.316406 181.65625 64.746094 182.703125 60.558594 182.703125 C 56.371094 182.703125 54.800781 181.65625 52.710938 180.605469 C 50.09375 179.035156 46.429688 177.460938 40.148438 177.460938 C 37.011719 177.460938 34.917969 179.558594 34.917969 182.703125 C 34.917969 185.847656 38.578125 187.945312 41.195312 187.945312 Z M 41.195312 187.945312 "/>
</g>
</svg>
