<?xml version="1.0" encoding="UTF-8"?>
<svg xmlns="http://www.w3.org/2000/svg" xmlns:xlink="http://www.w3.org/1999/xlink" width="375pt" height="374.999991pt" viewBox="0 0 375 374.999991" version="1.2">
<defs>
<clipPath id="clip1">
  <path d="M 35 69.464844 L 340 69.464844 L 340 170 L 35 170 Z M 35 69.464844 "/>
</clipPath>
<clipPath id="clip2">
  <path d="M 20 205 L 355 205 L 355 305.714844 L 20 305.714844 Z M 20 205 "/>
</clipPath>
</defs>
<g id="surface1">
<g clip-path="url(#clip1)" clip-rule="nonzero">
<path style=" stroke:none;fill-rule:nonzero;fill:rgb(100%,100%,100%);fill-opacity:1;" d="M 41.722656 169.519531 L 334.285156 169.519531 C 337.421875 169.519531 339.515625 167.421875 339.515625 164.28125 L 339.515625 163.230469 C 338.46875 112.421875 269.386719 69.464844 187.742188 69.464844 C 105.574219 69.464844 35.964844 112.945312 35.964844 164.28125 C 36.488281 167.421875 38.582031 169.519531 41.722656 169.519531 Z M 187.742188 79.941406 C 259.964844 79.941406 323.816406 116.085938 328.527344 159.042969 L 46.957031 159.042969 C 51.667969 116.609375 115.515625 79.941406 187.742188 79.941406 Z M 187.742188 79.941406 "/>
</g>
<path style=" stroke:none;fill-rule:nonzero;fill:rgb(100%,100%,100%);fill-opacity:1;" d="M 93.535156 130.753906 C 93.535156 131.097656 93.5 131.4375 93.433594 131.777344 C 93.367188 132.113281 93.269531 132.441406 93.136719 132.757812 C 93.003906 133.078125 92.84375 133.378906 92.652344 133.664062 C 92.460938 133.949219 92.246094 134.214844 92.003906 134.457031 C 91.757812 134.703125 91.496094 134.917969 91.210938 135.109375 C 90.921875 135.300781 90.621094 135.460938 90.304688 135.59375 C 89.988281 135.726562 89.660156 135.824219 89.324219 135.890625 C 88.984375 135.960938 88.644531 135.992188 88.300781 135.992188 C 87.957031 135.992188 87.617188 135.960938 87.28125 135.890625 C 86.945312 135.824219 86.617188 135.726562 86.300781 135.59375 C 85.980469 135.460938 85.679688 135.300781 85.394531 135.109375 C 85.109375 134.917969 84.84375 134.703125 84.601562 134.457031 C 84.359375 134.214844 84.140625 133.949219 83.949219 133.664062 C 83.757812 133.378906 83.597656 133.078125 83.464844 132.757812 C 83.335938 132.441406 83.234375 132.113281 83.167969 131.777344 C 83.101562 131.4375 83.066406 131.097656 83.066406 130.753906 C 83.066406 130.410156 83.101562 130.070312 83.167969 129.734375 C 83.234375 129.394531 83.335938 129.066406 83.464844 128.75 C 83.597656 128.433594 83.757812 128.128906 83.949219 127.84375 C 84.140625 127.558594 84.359375 127.292969 84.601562 127.050781 C 84.84375 126.808594 85.109375 126.589844 85.394531 126.398438 C 85.679688 126.207031 85.980469 126.046875 86.300781 125.914062 C 86.617188 125.78125 86.945312 125.683594 87.28125 125.617188 C 87.617188 125.550781 87.957031 125.515625 88.300781 125.515625 C 88.644531 125.515625 88.984375 125.550781 89.324219 125.617188 C 89.660156 125.683594 89.988281 125.78125 90.304688 125.914062 C 90.621094 126.046875 90.921875 126.207031 91.210938 126.398438 C 91.496094 126.589844 91.757812 126.808594 92.003906 127.050781 C 92.246094 127.292969 92.460938 127.558594 92.652344 127.84375 C 92.84375 128.128906 93.003906 128.433594 93.136719 128.75 C 93.269531 129.066406 93.367188 129.394531 93.433594 129.734375 C 93.5 130.070312 93.535156 130.410156 93.535156 130.753906 Z M 93.535156 130.753906 "/>
<path style=" stroke:none;fill-rule:nonzero;fill:rgb(100%,100%,100%);fill-opacity:1;" d="M 119.703125 115.039062 C 119.703125 115.382812 119.671875 115.722656 119.601562 116.0625 C 119.535156 116.398438 119.4375 116.726562 119.304688 117.042969 C 119.171875 117.363281 119.011719 117.664062 118.820312 117.949219 C 118.628906 118.234375 118.414062 118.5 118.171875 118.742188 C 117.925781 118.988281 117.664062 119.203125 117.378906 119.394531 C 117.09375 119.585938 116.789062 119.746094 116.472656 119.878906 C 116.15625 120.011719 115.828125 120.109375 115.492188 120.175781 C 115.152344 120.242188 114.8125 120.277344 114.46875 120.277344 C 114.125 120.277344 113.785156 120.242188 113.449219 120.175781 C 113.113281 120.109375 112.785156 120.011719 112.46875 119.878906 C 112.148438 119.746094 111.847656 119.585938 111.5625 119.394531 C 111.277344 119.203125 111.011719 118.988281 110.769531 118.742188 C 110.527344 118.5 110.308594 118.234375 110.117188 117.949219 C 109.925781 117.664062 109.765625 117.363281 109.632812 117.042969 C 109.503906 116.726562 109.402344 116.398438 109.335938 116.0625 C 109.269531 115.722656 109.234375 115.382812 109.234375 115.039062 C 109.234375 114.695312 109.269531 114.355469 109.335938 114.015625 C 109.402344 113.679688 109.503906 113.351562 109.632812 113.035156 C 109.765625 112.71875 109.925781 112.414062 110.117188 112.128906 C 110.308594 111.84375 110.527344 111.578125 110.769531 111.335938 C 111.011719 111.09375 111.277344 110.875 111.5625 110.683594 C 111.847656 110.492188 112.148438 110.332031 112.46875 110.199219 C 112.785156 110.066406 113.113281 109.96875 113.449219 109.902344 C 113.785156 109.835938 114.125 109.800781 114.46875 109.800781 C 114.8125 109.800781 115.152344 109.835938 115.492188 109.902344 C 115.828125 109.96875 116.15625 110.066406 116.472656 110.199219 C 116.789062 110.332031 117.09375 110.492188 117.378906 110.683594 C 117.664062 110.875 117.925781 111.09375 118.171875 111.335938 C 118.414062 111.578125 118.628906 111.84375 118.820312 112.128906 C 119.011719 112.414062 119.171875 112.71875 119.304688 113.035156 C 119.4375 113.351562 119.535156 113.679688 119.601562 114.015625 C 119.671875 114.355469 119.703125 114.695312 119.703125 115.039062 Z M 119.703125 115.039062 "/>
<path style=" stroke:none;fill-rule:nonzero;fill:rgb(100%,100%,100%);fill-opacity:1;" d="M 164.191406 94.085938 C 163.667969 93.5625 162.621094 93.5625 162.097656 93.5625 C 158.957031 93.5625 156.863281 95.65625 156.863281 98.800781 C 156.863281 101.945312 159.480469 104.039062 162.097656 104.039062 C 164.191406 104.039062 165.761719 102.992188 166.804688 100.894531 C 167.328125 100.371094 167.328125 99.324219 167.328125 98.800781 C 166.804688 97.230469 165.761719 95.132812 164.191406 94.085938 Z M 164.191406 94.085938 "/>
<path style=" stroke:none;fill-rule:nonzero;fill:rgb(100%,100%,100%);fill-opacity:1;" d="M 187.742188 125.515625 C 186.171875 125.515625 185.125 126.039062 184.078125 127.085938 C 183.03125 128.136719 182.507812 129.183594 182.507812 130.753906 C 182.507812 132.851562 183.554688 134.421875 185.648438 135.46875 C 186.171875 135.992188 187.21875 135.992188 187.742188 135.992188 C 190.882812 135.992188 192.976562 133.898438 192.976562 130.753906 C 192.976562 127.613281 190.882812 125.515625 187.742188 125.515625 Z M 187.742188 125.515625 "/>
<path style=" stroke:none;fill-rule:nonzero;fill:rgb(100%,100%,100%);fill-opacity:1;" d="M 213.910156 104.039062 C 213.910156 104.382812 213.875 104.722656 213.808594 105.0625 C 213.742188 105.398438 213.640625 105.726562 213.511719 106.042969 C 213.378906 106.359375 213.21875 106.664062 213.027344 106.949219 C 212.835938 107.234375 212.621094 107.5 212.375 107.742188 C 212.132812 107.984375 211.867188 108.203125 211.582031 108.394531 C 211.296875 108.585938 210.996094 108.746094 210.679688 108.878906 C 210.359375 109.011719 210.035156 109.109375 209.695312 109.175781 C 209.359375 109.242188 209.019531 109.277344 208.675781 109.277344 C 208.332031 109.277344 207.992188 109.242188 207.65625 109.175781 C 207.316406 109.109375 206.992188 109.011719 206.671875 108.878906 C 206.355469 108.746094 206.054688 108.585938 205.769531 108.394531 C 205.480469 108.203125 205.21875 107.984375 204.976562 107.742188 C 204.730469 107.5 204.515625 107.234375 204.324219 106.949219 C 204.132812 106.664062 203.972656 106.359375 203.839844 106.042969 C 203.707031 105.726562 203.609375 105.398438 203.542969 105.0625 C 203.476562 104.722656 203.441406 104.382812 203.441406 104.039062 C 203.441406 103.695312 203.476562 103.355469 203.542969 103.015625 C 203.609375 102.679688 203.707031 102.351562 203.839844 102.035156 C 203.972656 101.714844 204.132812 101.414062 204.324219 101.128906 C 204.515625 100.84375 204.730469 100.578125 204.976562 100.335938 C 205.21875 100.089844 205.480469 99.875 205.769531 99.683594 C 206.054688 99.492188 206.355469 99.332031 206.671875 99.199219 C 206.992188 99.066406 207.316406 98.96875 207.65625 98.902344 C 207.992188 98.832031 208.332031 98.800781 208.675781 98.800781 C 209.019531 98.800781 209.359375 98.832031 209.695312 98.902344 C 210.035156 98.96875 210.359375 99.066406 210.679688 99.199219 C 210.996094 99.332031 211.296875 99.492188 211.582031 99.683594 C 211.867188 99.875 212.132812 100.089844 212.375 100.335938 C 212.621094 100.578125 212.835938 100.84375 213.027344 101.128906 C 213.21875 101.414062 213.378906 101.714844 213.511719 102.035156 C 213.640625 102.351562 213.742188 102.679688 213.808594 103.015625 C 213.875 103.355469 213.910156 103.695312 213.910156 104.039062 Z M 213.910156 104.039062 "/>
<path style=" stroke:none;fill-rule:nonzero;fill:rgb(100%,100%,100%);fill-opacity:1;" d="M 247.929688 136.515625 C 244.789062 134.945312 240.601562 137.5625 240.601562 141.230469 C 240.601562 144.375 243.21875 146.46875 245.835938 146.46875 C 247.40625 146.46875 248.453125 145.945312 249.5 144.898438 C 250.546875 143.851562 251.066406 142.800781 251.066406 141.230469 C 250.546875 139.136719 249.5 137.039062 247.929688 136.515625 Z M 247.929688 136.515625 "/>
<path style=" stroke:none;fill-rule:nonzero;fill:rgb(100%,100%,100%);fill-opacity:1;" d="M 281.945312 125.515625 C 278.808594 125.515625 276.714844 128.136719 276.714844 130.753906 C 276.714844 133.375 279.328125 135.992188 281.945312 135.992188 C 283.515625 135.992188 284.5625 135.46875 285.609375 134.421875 C 286.65625 133.375 287.179688 132.324219 287.179688 130.753906 C 287.179688 129.183594 286.65625 128.136719 285.609375 127.085938 C 284.5625 126.039062 283.515625 125.515625 281.945312 125.515625 Z M 281.945312 125.515625 "/>
<path style=" stroke:none;fill-rule:nonzero;fill:rgb(100%,100%,100%);fill-opacity:1;" d="M 130.695312 133.898438 C 130.171875 134.421875 130.171875 135.46875 130.171875 135.992188 C 130.171875 139.136719 132.265625 141.230469 135.40625 141.230469 C 138.542969 141.230469 140.636719 138.613281 140.636719 135.992188 C 140.636719 134.421875 140.113281 133.375 139.066406 132.324219 C 136.976562 130.230469 132.265625 130.753906 130.695312 133.898438 Z M 130.695312 133.898438 "/>
<path style=" stroke:none;fill-rule:nonzero;fill:rgb(100%,100%,100%);fill-opacity:1;" d="M 258.394531 105.085938 C 257.871094 104.5625 256.824219 104.5625 256.300781 104.5625 C 253.160156 104.5625 251.066406 106.65625 251.066406 109.800781 C 251.066406 112.945312 253.683594 115.039062 256.300781 115.039062 C 257.871094 115.039062 258.917969 114.515625 259.964844 113.46875 C 261.011719 112.421875 261.535156 111.371094 261.535156 109.800781 C 261.011719 107.707031 259.964844 105.609375 258.394531 105.085938 Z M 258.394531 105.085938 "/>
<g clip-path="url(#clip2)" clip-rule="nonzero">
<path style=" stroke:none;fill-rule:nonzero;fill:rgb(100%,100%,100%);fill-opacity:1;" d="M 41.199219 263.285156 L 41.199219 277.429688 C 41.199219 290.523438 51.667969 305.714844 66.84375 305.714844 L 308.113281 305.714844 C 323.292969 305.714844 333.761719 290.523438 333.761719 276.90625 L 333.761719 262.761719 C 345.273438 260.140625 354.695312 248.09375 354.695312 234.996094 L 354.695312 229.234375 C 354.695312 215.617188 343.703125 205.664062 328.527344 205.664062 L 176.226562 205.664062 C 176.226562 205.664062 175.703125 205.664062 175.179688 205.664062 L 94.058594 232.902344 L 77.3125 216.664062 L 130.171875 216.664062 C 133.3125 216.664062 135.40625 214.566406 135.40625 211.425781 C 135.40625 208.28125 133.3125 206.1875 130.171875 206.1875 L 46.433594 206.1875 C 31.253906 206.1875 20.265625 216.140625 20.265625 229.757812 L 20.265625 235.523438 C 20.265625 248.617188 29.683594 260.140625 41.199219 263.285156 Z M 308.636719 295.238281 L 66.84375 295.238281 C 58.46875 295.238281 51.667969 285.285156 51.667969 276.90625 L 51.667969 263.808594 L 323.816406 263.808594 L 323.816406 276.90625 C 323.816406 285.285156 317.011719 295.238281 308.636719 295.238281 Z M 30.730469 229.757812 C 30.730469 220.855469 38.582031 216.664062 46.433594 216.664062 L 62.65625 216.664062 L 89.347656 243.378906 C 90.394531 244.425781 91.441406 244.949219 93.011719 244.949219 C 93.535156 244.949219 94.058594 244.949219 94.582031 244.425781 L 178.320312 216.664062 L 329.050781 216.664062 C 336.898438 216.664062 344.75 220.855469 344.75 229.757812 L 344.75 235.523438 C 344.75 244.425781 336.898438 253.332031 329.050781 253.332031 L 46.433594 253.332031 C 38.582031 253.332031 30.730469 244.425781 30.730469 235.523438 Z M 30.730469 229.757812 "/>
</g>
<path style=" stroke:none;fill-rule:nonzero;fill:rgb(100%,100%,100%);fill-opacity:1;" d="M 41.199219 187.851562 C 45.386719 187.851562 46.957031 188.898438 49.050781 189.949219 C 51.667969 191.519531 55.328125 193.089844 61.609375 193.089844 C 67.890625 193.089844 71.554688 191.519531 74.171875 189.949219 C 76.789062 188.898438 78.359375 187.851562 82.542969 187.851562 C 86.730469 187.851562 88.300781 188.898438 90.394531 189.949219 C 93.011719 191.519531 96.675781 193.089844 102.957031 193.089844 C 109.238281 193.089844 112.898438 191.519531 115.515625 189.949219 C 118.132812 188.898438 119.703125 187.851562 123.890625 187.851562 C 128.078125 187.851562 129.648438 188.898438 131.742188 189.949219 C 134.359375 191.519531 138.019531 193.089844 144.300781 193.089844 C 150.582031 193.089844 154.246094 191.519531 156.863281 189.949219 C 159.480469 188.898438 161.050781 187.851562 165.238281 187.851562 C 169.421875 187.851562 170.992188 188.898438 173.609375 189.949219 C 176.226562 191.519531 179.890625 193.089844 186.171875 193.089844 C 192.453125 193.089844 196.113281 191.519531 198.730469 189.949219 C 201.347656 188.898438 202.917969 187.851562 207.105469 187.851562 C 211.292969 187.851562 212.863281 188.898438 215.480469 189.949219 C 218.097656 191.519531 221.761719 193.089844 228.039062 193.089844 C 234.320312 193.089844 237.984375 191.519531 240.601562 189.949219 C 243.21875 188.898438 244.789062 187.851562 248.976562 187.851562 C 253.160156 187.851562 254.730469 188.898438 257.347656 189.949219 C 259.964844 191.519531 263.628906 193.089844 269.910156 193.089844 C 276.191406 193.089844 279.851562 191.519531 282.46875 189.949219 C 285.085938 188.898438 286.65625 187.851562 290.84375 187.851562 C 295.03125 187.851562 296.601562 188.898438 299.21875 189.949219 C 301.835938 191.519531 305.5 193.089844 311.777344 193.089844 C 318.058594 193.089844 321.722656 191.519531 324.339844 189.949219 C 326.957031 188.898438 328.527344 187.851562 332.714844 187.851562 C 335.855469 187.851562 337.945312 185.757812 337.945312 182.613281 C 337.945312 179.472656 335.855469 177.375 332.714844 177.375 C 326.433594 177.375 322.769531 178.949219 320.152344 180.519531 C 317.535156 181.566406 315.964844 182.613281 311.777344 182.613281 C 307.59375 182.613281 306.023438 181.566406 303.40625 180.519531 C 300.789062 178.949219 297.125 177.375 290.320312 177.375 C 284.039062 177.375 280.375 178.949219 277.761719 180.519531 C 275.144531 181.566406 273.574219 182.613281 269.386719 182.613281 C 265.199219 182.613281 263.628906 181.566406 261.011719 180.519531 C 258.394531 178.949219 254.730469 177.375 248.453125 177.375 C 242.171875 177.375 238.507812 178.949219 235.890625 180.519531 C 233.273438 181.566406 231.703125 182.613281 227.515625 182.613281 C 223.328125 182.613281 221.761719 181.566406 219.144531 180.519531 C 216.527344 178.949219 212.863281 177.375 206.582031 177.375 C 200.300781 177.375 196.636719 178.949219 194.023438 180.519531 C 191.40625 181.566406 189.835938 182.613281 185.648438 182.613281 C 181.460938 182.613281 179.890625 181.566406 177.273438 180.519531 C 174.65625 178.949219 170.992188 177.375 164.714844 177.375 C 158.433594 177.375 154.769531 178.949219 152.152344 180.519531 C 149.535156 181.566406 147.964844 182.613281 143.777344 182.613281 C 139.589844 182.613281 138.019531 181.566406 135.40625 180.519531 C 132.789062 178.949219 129.125 177.375 122.84375 177.375 C 116.5625 177.375 112.898438 178.949219 110.28125 180.519531 C 107.667969 181.566406 106.097656 182.613281 101.910156 182.613281 C 97.722656 182.613281 96.152344 181.566406 94.058594 180.519531 C 91.441406 178.949219 87.777344 177.375 81.496094 177.375 C 75.21875 177.375 71.554688 178.949219 68.9375 180.519531 C 66.320312 181.566406 64.75 182.613281 60.5625 182.613281 C 56.375 182.613281 54.804688 181.566406 52.710938 180.519531 C 50.097656 178.949219 46.433594 177.375 40.152344 177.375 C 37.011719 177.375 34.917969 179.472656 34.917969 182.613281 C 34.917969 185.757812 38.582031 187.851562 41.199219 187.851562 Z M 41.199219 187.851562 "/>
</g>
</svg>
